<?xml version="1.0" encoding="utf-8"?>
<!DOCTYPE svg PUBLIC "-//W3C//DTD SVG 1.1//EN" "http://www.w3.org/Graphics/SVG/1.1/DTD/svg11.dtd">
<svg width="396" height="220.75px" viewBox="-7, 29, 396, 220.75" xmlns="http://www.w3.org/2000/svg" xmlns:xlink="http://www.w3.org/1999/xlink" xmlns:xml="http://www.w3.org/XML/1998/namespace" version="1.1">
  <defs>
    <marker refX="9.8" refY="6" orient="auto" markerWidth="12" markerHeight="12" markerUnits="strokeWidth" id="arrowSecuenceFlow1f14cd6b-8023-40b5-96b3-d49154a77c0f">
      <path d="M0 0 L2 6 L0 12 L10 6 z" style="fill:black;" />
    </marker>
  </defs>
  <g class="djs-group">
    <g transform="matrix(1, 0, 0, 1, 139, 45)" id="gfx-5c67e2fc-0714-48cc-9446-1cd8a581cf0d" display="block" class="djs-element djs-shape" data-element-id="5c67e2fc-0714-48cc-9446-1cd8a581cf0d">
      <g class="djs-visual">
        <g>
          <rect x="0" y="0" width="130" height="90" rx="8" stroke-width="2px" class="" style="fill:#ECEFFF;stroke:#03689A;" />
          <g transform="translate(-6, -11) scale(1.6)">
            <path d="M16.9 19.4 L10.7 19.4 A3.1 3.1 0 0 1 7.6 16 A4 4 0 0 1 9.3 12.6 L12 10.8 A1 1 0 0 1 12.9 10.7 A1 1 0 0 1 13.6 11.1 A1.3 1.3 0 0 1 13.2 12.7 L17.6 12.7 A0.9 0.9 0 0 1 18.6 13.6 A0.8 0.8 0 0 1 18.4 14.2 L18.4 14.2 A1.1 1.1 0 0 1 19.4 15.2 A1 1 0 0 1 18.7 16.1 A0.9 0.9 0 0 1 19 16.8 A0.9 0.9 0 0 1 18 17.7 L17.6 17.7 A1.4 1.4 0 0 1 17.8 18.3 A0.9 0.9 0 0 1 17.5 19 A0.9 0.9 0 0 1 16.9 19.4 z" style="fill:white;" />
            <path d="M16.9 19.4 L10.7 19.4 A3.1 3.1 0 0 1 7.6 16 A4 4 0 0 1 9.3 12.6 L12 10.8 A1 1 0 0 1 12.9 10.7 A1 1 0 0 1 13.6 11.1 A1.3 1.3 0 0 1 13.2 12.7 L17.6 12.7 A0.9 0.9 0 0 1 18.6 13.6 A0.8 0.8 0 0 1 18.4 14.2 L18.4 14.2 A1.1 1.1 0 0 1 19.4 15.2 A1 1 0 0 1 18.7 16.1 A0.9 0.9 0 0 1 19 16.8 A0.9 0.9 0 0 1 18 17.7 L17.6 17.7 A1.4 1.4 0 0 1 17.8 18.3 A0.9 0.9 0 0 1 17.5 19 A0.9 0.9 0 0 1 16.9 19.4 z M12.7 11.4 L12.4 11.4 L9.7 13.3 A2.9 2.9 0 0 0 8.4 16 A2.3 2.3 0 0 0 10.7 18.6 L17 18.6 C17 18.5 17.1 18.5 17.1 18.4 L16.9 18.2 L13.5 18.2 A0.6 0.6 0 0 1 12.9 17.6 A0.6 0.6 0 0 1 13.5 17.1 L18 17.1 A0.2 0.2 0 0 0 18.2 16.9 C18.2 16.7 18.1 16.6 18 16.6 L13.9 16.6 A0.6 0.6 0 0 1 13.3 16.1 A0.6 0.6 0 0 1 13.9 15.5 L18.4 15.5 L18.6 15.3 A0.2 0.2 0 0 0 18.4 15.1 L13.9 15.1 A0.6 0.6 0 0 1 13.9 13.9 L17.6 13.9 A0.2 0.2 0 0 0 17.8 13.7 L17.6 13.5 L11.9 13.5 C11.7 13.5 11.6 13.4 11.6 13.3 A0.4 0.4 0 0 1 11.7 12.8 L12.8 12 C13 11.9 13 11.7 12.9 11.5 L12.7 11.5 z" style="fill:#03689A;" />
          </g>
          <g />
        </g>
      </g>
      <svg width="130" height="86" class="djs-svg-text">
        <text font-family="'Segoe UI'" font-size="10.6252px" font-style="normal" font-weight="normal" lineHeight="1.2" textDirection="0" textAlign="center" class="djs-label" style="fill:black;">
          <tspan x="6.641937" y="35.25">10. Definir procedimento</tspan>
          <tspan x="22.31264" y="48.25">sobre situação de </tspan>
          <tspan x="20.47176" y="61.25">correção frequente</tspan>
        </text>
      </svg>
    </g>
  </g>
  <g class="djs-group">
    <g transform="matrix(1, 0, 0, 1, 313, 75)" id="gfx-86968197-b514-4432-9a30-3a9b5184c2b9" display="block" class="djs-element djs-shape" data-element-id="86968197-b514-4432-9a30-3a9b5184c2b9">
      <g class="djs-visual">
        <g>
          <g transform="translate(-8.90625, -8.90625) scale(1.5)">
            <path d="M16 25.2 A9.2 9.2 0 1 1 25.2 16 A9.2 9.2 0 0 1 16 25.2 z" style="fill:#EEAAAA;" />
            <path d="M16 7.5 A8.5 8.5 0 1 1 7.5 16 A8.5 8.5 0 0 1 16 7.5 M16 6 A10 10 0 1 0 26 16 A10 10 0 0 0 16 6 z" stroke-width="0.4px" class="" style="fill:#990000;stroke:#990000;" />
          </g>
        </g>
      </g>
    </g>
  </g>
  <g class="djs-group">
    <g transform="matrix(1, 0, 0, 1, 283, 113)" id="gfx-f12951c7-3fa0-4e01-95bf-ce7392dc4be9" display="block" class="djs-element djs-shape" data-element-id="f12951c7-3fa0-4e01-95bf-ce7392dc4be9">
      <g class="djs-visual">
        <rect x="0" y="0" width="90" height="36" fill-opacity="0" stroke-opacity="0" style="fill:#FFFFFF;stroke:transparent;" />
        <svg width="90" height="31" class="djs-svg-text">
          <text font-family="'Segoe UI'" font-size="10.6252px" font-style="normal" font-weight="normal" lineHeight="1.2" textDirection="0" textAlign="center" class="djs-label" style="fill:black;">
            <tspan x="10.70543" y="14.75">Procedimento </tspan>
            <tspan x="25.61904" y="27.75">definido</tspan>
          </text>
        </svg>
      </g>
    </g>
  </g>
  <g class="djs-group">
    <g transform="matrix(1, 0, 0, 1, 39, 75)" id="gfx-83cc2d40-6eba-40f0-927c-3edc307c289b" display="block" class="djs-element djs-shape" data-element-id="83cc2d40-6eba-40f0-927c-3edc307c289b">
      <g class="djs-visual">
        <g>
          <g transform="translate(-8.90625, -8.90625) scale(1.5)">
            <path d="M15.9 25.5 A9.5 9.5 0 1 1 25.4 16 A9.6 9.6 0 0 1 15.9 25.5 z" style="fill:#FEFAEF;" />
            <path d="M15.9 7 A9 9 0 1 1 6.9 16 A9 9 0 0 1 15.9 7 M15.9 6 A10 10 0 1 0 25.9 16 A10 10 0 0 0 15.9 6 z" class="" style="fill:#969149;" />
            <path d="M15.9 8.8 A7.2 7.2 0 1 1 8.7 16 A7.3 7.3 0 0 1 15.9 8.8 M15.9 7.8 A8.2 8.2 0 0 0 15.9 24.2 A8.2 8.2 0 1 0 15.9 7.800001 z" class="" style="fill:#969149;" />
          </g>
        </g>
      </g>
    </g>
  </g>
  <g class="djs-group">
    <g transform="matrix(1, 0, 0, 1, 9, 113)" id="gfx-ab9f53eb-4a02-4eb6-a9cb-9c114f412523" display="block" class="djs-element djs-shape" data-element-id="ab9f53eb-4a02-4eb6-a9cb-9c114f412523">
      <g class="djs-visual">
        <rect x="0" y="0" width="90" height="36" fill-opacity="0" stroke-opacity="0" style="fill:#FFFFFF;stroke:transparent;" />
        <svg width="90" height="31" class="djs-svg-text">
          <text font-family="'Segoe UI'" font-size="10.6252px" font-style="normal" font-weight="normal" lineHeight="1.2" textDirection="0" textAlign="center" class="djs-label" style="fill:black;">
            <tspan x="16.30841" y="14.75">Situação de </tspan>
            <tspan x="23.24665" y="27.75">correção </tspan>
            <tspan x="20.77057" y="40.75">frequente </tspan>
            <tspan x="25.3131" y="53.75">indicada</tspan>
          </text>
        </svg>
      </g>
    </g>
  </g>
  <g class="djs-group">
    <g id="gfx-1f14cd6b-8023-40b5-96b3-d49154a77c0f" display="block" class="djs-element djs-connection" data-element-id="1f14cd6b-8023-40b5-96b3-d49154a77c0f">
      <g class="djs-visual">
        <g>
          <defs>
            <marker refX="9.8" refY="6" orient="auto" markerWidth="12" markerHeight="12" markerUnits="strokeWidth" id="arrowSecuenceFlow1f14cd6b-8023-40b5-96b3-d49154a77c0f#1">
              <path d="M0 0 L2 6 L0 12 L10 6 z" style="fill:black;" />
            </marker>
          </defs>
          <path d="M269 90 L313 90" marker-end="url(#arrowSecuenceFlow1f14cd6b-8023-40b5-96b3-d49154a77c0f)" stroke-width="1px" stroke-linejoin="round" shape-rendering="crispEdges" fill-opacity="0" class="" style="fill:transparent;stroke:black;" />
        </g>
      </g>
    </g>
  </g>
  <g class="djs-group">
    <g id="gfx-93eb5f3d-762d-431c-856d-ba4a37fae84a" display="block" class="djs-element djs-connection" data-element-id="93eb5f3d-762d-431c-856d-ba4a37fae84a">
      <g class="djs-visual">
        <g>
          <defs>
            <marker refX="9.8" refY="6" orient="auto" markerWidth="12" markerHeight="12" markerUnits="strokeWidth" id="arrowSecuenceFlow93eb5f3d-762d-431c-856d-ba4a37fae84a">
              <path d="M0 0 L2 6 L0 12 L10 6 z" style="fill:black;" />
            </marker>
          </defs>
          <path d="M69 90 L139 90" marker-end="url(#arrowSecuenceFlow93eb5f3d-762d-431c-856d-ba4a37fae84a)" stroke-width="1px" stroke-linejoin="round" shape-rendering="crispEdges" fill-opacity="0" class="" style="fill:transparent;stroke:black;" />
        </g>
      </g>
    </g>
  </g>
</svg>