<?xml version="1.0" encoding="utf-8"?>
<!DOCTYPE svg PUBLIC "-//W3C//DTD SVG 1.1//EN" "http://www.w3.org/Graphics/SVG/1.1/DTD/svg11.dtd">
<svg width="390" height="206px" viewBox="63, 130, 390, 206" xmlns="http://www.w3.org/2000/svg" xmlns:xlink="http://www.w3.org/1999/xlink" xmlns:xml="http://www.w3.org/XML/1998/namespace" version="1.1">
  <defs>
    <marker refX="9.8" refY="6" orient="auto" markerWidth="12" markerHeight="12" markerUnits="strokeWidth" id="arrowSecuenceFlowdff1a2eb-6969-41e1-b078-f955bca21a3d">
      <path d="M0 0 L2 6 L0 12 L10 6 z" style="fill:black;" />
    </marker>
  </defs>
  <g class="djs-group">
    <g transform="matrix(1, 0, 0, 1, 181, 146)" id="gfx-42064cf3-0578-43df-9929-f9291ecfc01b" display="block" class="djs-element djs-shape" data-element-id="42064cf3-0578-43df-9929-f9291ecfc01b">
      <g class="djs-visual">
        <g>
          <rect x="0" y="0" width="130" height="90" rx="8" stroke-width="2px" class="" style="fill:#ECEFFF;stroke:#03689A;" />
          <g transform="translate(-6, -11) scale(1.6)">
            <path d="M17 16.5 A5.7 5.7 0 0 0 14.4 14.6 L14.2 14.4 C14.2 14.3 14.3 14.3 14.3 14.2 A1.9 1.9 0 0 0 14.8 12.9 A2.3 2.3 0 0 0 12.7 10.6 A2.5 2.5 0 0 0 10.3 12.9 A2.4 2.4 0 0 0 10.5 13.7 L10.7 13.9 C10.8 14.2 11 14.2 11.2 14.4 L11.2 14.6 L10.6 14.6 A5 5 0 0 0 8 16.7 L8 16.7 L8 19.6 L17 19.6 L17 16.6 z M11.6 14.6 L11.9 14.3 L11.6 14.3 A1.6 1.6 0 0 1 10.8 13 A3.7 3.7 0 0 1 12.5 12.4 C12.6 12.4 12.7 12.7 12.8 12.8 L13.3 12.8 A2.4 2.4 0 0 0 14.3 12.5 A2.3 2.3 0 0 1 13.4 14.4 L13.4 14.4 L13.6 14.8 L13.6 14.8 A0.8 0.8 0 0 1 13.4 15.7 A1.5 1.5 0 0 1 12.5 16.1 A1 1 0 0 1 11.7 15.7 C11.3 15.3 11.3 15.1 11.3 14.9 C11.3 14.7 11.4 14.8 11.6 14.6 z M16.5 19.1 L15.4 19.1 L15.4 18 L14.8 18 L14.8 19.1 L10.2 19.1 L10.2 18 L9.7 18 L9.7 19.2 L8.5 19.2 L8.5 16.9 A5.2 5.2 0 0 1 10.8 15.1 L10.9 15.1 C10.9 15.5 10.7 15.8 11.2 16.3 A2.7 2.7 0 0 0 12.5 16.8 A2.2 2.2 0 0 0 13.9 16.2 A1.1 1.1 0 0 0 14.2 15.2 A4.6 4.6 0 0 1 16.5 16.9 z" style="fill:white;" />
            <path d="M12.7 10.6 A2.5 2.5 0 0 0 10.3 12.9 A2.4 2.4 0 0 0 10.5 13.7 L10.7 13.9 C10.8 14.2 11 14.2 11.2 14.4 L11.2 14.6 L10.6 14.6 A5 5 0 0 0 8 16.7 L8 16.7 L8 19.6 L17 19.6 L17 16.6 L17 16.6 A5.7 5.7 0 0 0 14.4 14.7 L14.2 14.5 C14.2 14.4 14.3 14.4 14.3 14.3 A1.9 1.9 0 0 0 14.8 13 A2.3 2.3 0 0 0 12.7 10.7 z M12.5 16.3 A1 1 0 0 1 11.7 15.9 C11.3 15.5 11.3 15.3 11.3 15.1 C11.3 14.9 11.4 14.8 11.6 14.6 L11.9 14.3 L11.6 14.3 A1.6 1.6 0 0 1 10.8 13 A3.7 3.7 0 0 1 12.5 12.4 C12.6 12.4 12.7 12.7 12.8 12.8 L13.3 12.8 A2.4 2.4 0 0 0 14.3 12.5 A2.3 2.3 0 0 1 13.4 14.4 L13.4 14.4 L13.6 14.8 L13.6 14.8 A0.8 0.8 0 0 1 13.4 15.7 A1.5 1.5 0 0 1 12.5 16.1 z M10.8 15.1 L10.9 15.1 C10.9 15.5 10.7 15.8 11.2 16.3 A2.7 2.7 0 0 0 12.5 16.8 A2.2 2.2 0 0 0 13.9 16.2 A1.1 1.1 0 0 0 14.2 15.2 A4.6 4.6 0 0 1 16.5 16.9 L16.5 19.1 L15.4 19.1 L15.4 18 L14.8 18 L14.8 19.1 L10.2 19.1 L10.2 18 L9.7 18 L9.7 19.2 L8.5 19.2 L8.5 16.9 A5.2 5.2 0 0 1 10.8 15.1 z" style="fill:#03689A;" />
          </g>
          <g />
        </g>
      </g>
      <svg width="130" height="86" class="djs-svg-text">
        <text font-family="'Segoe UI'" font-size="10.6252px" font-style="normal" font-weight="normal" lineHeight="1.2" textDirection="0" textAlign="center" class="djs-label" style="fill:black;">
          <tspan x="6.553764" y="41.75">17. Acompanhar geração</tspan>
          <tspan x="24.34019" y="54.75">de resultado final</tspan>
        </text>
      </svg>
    </g>
  </g>
  <g class="djs-group">
    <g transform="matrix(1, 0, 0, 1, 377, 176)" id="gfx-38bd4465-00cb-42ed-aab6-8d0c2cbe9d27" display="block" class="djs-element djs-shape" data-element-id="38bd4465-00cb-42ed-aab6-8d0c2cbe9d27">
      <g class="djs-visual">
        <g>
          <g transform="translate(-8.90625, -8.90625) scale(1.5)">
            <path d="M16 25.2 A9.2 9.2 0 1 1 25.2 16 A9.2 9.2 0 0 1 16 25.2 z" style="fill:#EEAAAA;" />
            <path d="M16 7.5 A8.5 8.5 0 1 1 7.5 16 A8.5 8.5 0 0 1 16 7.5 M16 6 A10 10 0 1 0 26 16 A10 10 0 0 0 16 6 z" stroke-width="0.4px" class="" style="fill:#990000;stroke:#990000;" />
          </g>
        </g>
      </g>
    </g>
  </g>
  <g class="djs-group">
    <g transform="matrix(1, 0, 0, 1, 347, 214)" id="gfx-0f90397e-577c-4a81-aad8-5a3ee4bb8f8f" display="block" class="djs-element djs-shape" data-element-id="0f90397e-577c-4a81-aad8-5a3ee4bb8f8f">
      <g class="djs-visual">
        <rect x="0" y="0" width="90" height="36" fill-opacity="0" stroke-opacity="0" style="fill:#FFFFFF;stroke:transparent;" />
        <svg width="90" height="31" class="djs-svg-text">
          <text font-family="'Segoe UI'" font-size="10.6252px" font-style="normal" font-weight="normal" lineHeight="1.2" textDirection="0" textAlign="center" class="djs-label" style="fill:black;">
            <tspan x="6.650337" y="14.75">Monitoramento </tspan>
            <tspan x="21.35652" y="27.75">encerrado</tspan>
          </text>
        </svg>
      </g>
    </g>
  </g>
  <g class="djs-group">
    <g transform="matrix(1, 0, 0, 1, 109, 176)" id="gfx-aad41e1e-f5ff-4b21-be5d-830b33740ec1" display="block" class="djs-element djs-shape" data-element-id="aad41e1e-f5ff-4b21-be5d-830b33740ec1">
      <g class="djs-visual">
        <g>
          <g transform="translate(-8.90625, -8.90625) scale(1.5)">
            <path d="M15.9 25.5 A9.5 9.5 0 1 1 25.4 16 A9.6 9.6 0 0 1 15.9 25.5 z" style="fill:#FEFAEF;" />
            <path d="M15.9 7 A9 9 0 1 1 6.9 16 A9 9 0 0 1 15.9 7 M15.9 6 A10 10 0 1 0 25.9 16 A10 10 0 0 0 15.9 6 z" class="" style="fill:#969149;" />
            <path d="M15.9 8.8 A7.2 7.2 0 1 1 8.7 16 A7.3 7.3 0 0 1 15.9 8.8 M15.9 7.8 A8.2 8.2 0 0 0 15.9 24.2 A8.2 8.2 0 1 0 15.9 7.800001 z" class="" style="fill:#969149;" />
          </g>
        </g>
      </g>
    </g>
  </g>
  <g class="djs-group">
    <g transform="matrix(1, 0, 0, 1, 79, 214)" id="gfx-409be05d-e5ef-4df5-bff9-df78588653c5" display="block" class="djs-element djs-shape" data-element-id="409be05d-e5ef-4df5-bff9-df78588653c5">
      <g class="djs-visual">
        <rect x="0" y="0" width="90" height="36" fill-opacity="0" stroke-opacity="0" style="fill:#FFFFFF;stroke:transparent;" />
        <svg width="90" height="31" class="djs-svg-text">
          <text font-family="'Segoe UI'" font-size="10.6252px" font-style="normal" font-weight="normal" lineHeight="1.2" textDirection="0" textAlign="center" class="djs-label" style="fill:black;">
            <tspan x="6.650337" y="14.75">Monitoramento </tspan>
            <tspan x="26.74431" y="27.75">iniciado</tspan>
          </text>
        </svg>
      </g>
    </g>
  </g>
  <g class="djs-group">
    <g id="gfx-dff1a2eb-6969-41e1-b078-f955bca21a3d" display="block" class="djs-element djs-connection" data-element-id="dff1a2eb-6969-41e1-b078-f955bca21a3d">
      <g class="djs-visual">
        <g>
          <defs>
            <marker refX="9.8" refY="6" orient="auto" markerWidth="12" markerHeight="12" markerUnits="strokeWidth" id="arrowSecuenceFlowdff1a2eb-6969-41e1-b078-f955bca21a3d#1">
              <path d="M0 0 L2 6 L0 12 L10 6 z" style="fill:black;" />
            </marker>
          </defs>
          <path d="M139 191 L181 191" marker-end="url(#arrowSecuenceFlowdff1a2eb-6969-41e1-b078-f955bca21a3d)" stroke-width="1px" stroke-linejoin="round" shape-rendering="crispEdges" fill-opacity="0" class="" style="fill:transparent;stroke:black;" />
        </g>
      </g>
    </g>
  </g>
  <g class="djs-group">
    <g id="gfx-97a8d6d3-302c-4398-b76b-c877bc9125d8" display="block" class="djs-element djs-connection" data-element-id="97a8d6d3-302c-4398-b76b-c877bc9125d8">
      <g class="djs-visual">
        <g>
          <defs>
            <marker refX="9.8" refY="6" orient="auto" markerWidth="12" markerHeight="12" markerUnits="strokeWidth" id="arrowSecuenceFlow97a8d6d3-302c-4398-b76b-c877bc9125d8">
              <path d="M0 0 L2 6 L0 12 L10 6 z" style="fill:black;" />
            </marker>
          </defs>
          <path d="M311 191 L377 191" marker-end="url(#arrowSecuenceFlow97a8d6d3-302c-4398-b76b-c877bc9125d8)" stroke-width="1px" stroke-linejoin="round" shape-rendering="crispEdges" fill-opacity="0" class="" style="fill:transparent;stroke:black;" />
        </g>
      </g>
    </g>
  </g>
</svg>