<?xml version="1.0" encoding="utf-8"?>
<!DOCTYPE svg PUBLIC "-//W3C//DTD SVG 1.1//EN" "http://www.w3.org/Graphics/SVG/1.1/DTD/svg11.dtd">
<svg width="623" height="399px" viewBox="2, 52, 623, 399" xmlns="http://www.w3.org/2000/svg" xmlns:xlink="http://www.w3.org/1999/xlink" xmlns:xml="http://www.w3.org/XML/1998/namespace" version="1.1">
  <defs>
    <marker refX="9.8" refY="6" orient="auto" markerWidth="12" markerHeight="12" markerUnits="strokeWidth" id="arrowSecuenceFlowedbcb321-7512-4b79-8e1b-ebbb49f6ccfa">
      <path d="M0 0 L2 6 L0 12 L10 6 z" style="fill:black;" />
    </marker>
  </defs>
  <g class="djs-group">
    <g transform="matrix(1, 0, 0, 1, 148, 68)" id="gfx-65a3ec15-0fd6-4287-83f2-0dcc20a91f3e" display="block" class="djs-element djs-shape" data-element-id="65a3ec15-0fd6-4287-83f2-0dcc20a91f3e">
      <g class="djs-visual">
        <g>
          <rect x="0" y="0" width="130" height="90" rx="8" stroke-width="2px" class="" style="fill:#ECEFFF;stroke:#03689A;" />
          <g transform="translate(-6, -11) scale(1.6)">
            <path d="M16.9 19.4 L10.7 19.4 A3.1 3.1 0 0 1 7.6 16 A4 4 0 0 1 9.3 12.6 L12 10.8 A1 1 0 0 1 12.9 10.7 A1 1 0 0 1 13.6 11.1 A1.3 1.3 0 0 1 13.2 12.7 L17.6 12.7 A0.9 0.9 0 0 1 18.6 13.6 A0.8 0.8 0 0 1 18.4 14.2 L18.4 14.2 A1.1 1.1 0 0 1 19.4 15.2 A1 1 0 0 1 18.7 16.1 A0.9 0.9 0 0 1 19 16.8 A0.9 0.9 0 0 1 18 17.7 L17.6 17.7 A1.4 1.4 0 0 1 17.8 18.3 A0.9 0.9 0 0 1 17.5 19 A0.9 0.9 0 0 1 16.9 19.4 z" style="fill:white;" />
            <path d="M16.9 19.4 L10.7 19.4 A3.1 3.1 0 0 1 7.6 16 A4 4 0 0 1 9.3 12.6 L12 10.8 A1 1 0 0 1 12.9 10.7 A1 1 0 0 1 13.6 11.1 A1.3 1.3 0 0 1 13.2 12.7 L17.6 12.7 A0.9 0.9 0 0 1 18.6 13.6 A0.8 0.8 0 0 1 18.4 14.2 L18.4 14.2 A1.1 1.1 0 0 1 19.4 15.2 A1 1 0 0 1 18.7 16.1 A0.9 0.9 0 0 1 19 16.8 A0.9 0.9 0 0 1 18 17.7 L17.6 17.7 A1.4 1.4 0 0 1 17.8 18.3 A0.9 0.9 0 0 1 17.5 19 A0.9 0.9 0 0 1 16.9 19.4 z M12.7 11.4 L12.4 11.4 L9.7 13.3 A2.9 2.9 0 0 0 8.4 16 A2.3 2.3 0 0 0 10.7 18.6 L17 18.6 C17 18.5 17.1 18.5 17.1 18.4 L16.9 18.2 L13.5 18.2 A0.6 0.6 0 0 1 12.9 17.6 A0.6 0.6 0 0 1 13.5 17.1 L18 17.1 A0.2 0.2 0 0 0 18.2 16.9 C18.2 16.7 18.1 16.6 18 16.6 L13.9 16.6 A0.6 0.6 0 0 1 13.3 16.1 A0.6 0.6 0 0 1 13.9 15.5 L18.4 15.5 L18.6 15.3 A0.2 0.2 0 0 0 18.4 15.1 L13.9 15.1 A0.6 0.6 0 0 1 13.9 13.9 L17.6 13.9 A0.2 0.2 0 0 0 17.8 13.7 L17.6 13.5 L11.9 13.5 C11.7 13.5 11.6 13.4 11.6 13.3 A0.4 0.4 0 0 1 11.7 12.8 L12.8 12 C13 11.9 13 11.7 12.9 11.5 L12.7 11.5 z" style="fill:#03689A;" />
          </g>
          <g />
        </g>
      </g>
      <svg width="130" height="86" class="djs-svg-text">
        <text font-family="'Segoe UI'" font-size="10.6252px" font-style="normal" font-weight="normal" lineHeight="1.2" textDirection="0" textAlign="center" class="djs-label" style="fill:black;">
          <tspan x="28.1334" y="41.75">6. Acompanhar </tspan>
          <tspan x="8.931351" y="54.75">atendimento ao público</tspan>
        </text>
      </svg>
    </g>
  </g>
  <g class="djs-group">
    <g transform="matrix(1, 0, 0, 1, 373, 241)" id="gfx-c9cbeb84-75ff-4cae-a7df-9f2c48410829" display="block" class="djs-element djs-shape" data-element-id="c9cbeb84-75ff-4cae-a7df-9f2c48410829">
      <g class="djs-visual">
        <g>
          <rect x="0" y="0" width="130" height="90" rx="8" stroke-width="2px" class="" style="fill:#ECEFFF;stroke:#03689A;" />
          <g transform="translate(-6, -11) scale(1.6)">
            <path d="M17 16.5 A5.7 5.7 0 0 0 14.4 14.6 L14.2 14.4 C14.2 14.3 14.3 14.3 14.3 14.2 A1.9 1.9 0 0 0 14.8 12.9 A2.3 2.3 0 0 0 12.7 10.6 A2.5 2.5 0 0 0 10.3 12.9 A2.4 2.4 0 0 0 10.5 13.7 L10.7 13.9 C10.8 14.2 11 14.2 11.2 14.4 L11.2 14.6 L10.6 14.6 A5 5 0 0 0 8 16.7 L8 16.7 L8 19.6 L17 19.6 L17 16.6 z M11.6 14.6 L11.9 14.3 L11.6 14.3 A1.6 1.6 0 0 1 10.8 13 A3.7 3.7 0 0 1 12.5 12.4 C12.6 12.4 12.7 12.7 12.8 12.8 L13.3 12.8 A2.4 2.4 0 0 0 14.3 12.5 A2.3 2.3 0 0 1 13.4 14.4 L13.4 14.4 L13.6 14.8 L13.6 14.8 A0.8 0.8 0 0 1 13.4 15.7 A1.5 1.5 0 0 1 12.5 16.1 A1 1 0 0 1 11.7 15.7 C11.3 15.3 11.3 15.1 11.3 14.9 C11.3 14.7 11.4 14.8 11.6 14.6 z M16.5 19.1 L15.4 19.1 L15.4 18 L14.8 18 L14.8 19.1 L10.2 19.1 L10.2 18 L9.7 18 L9.7 19.2 L8.5 19.2 L8.5 16.9 A5.2 5.2 0 0 1 10.8 15.1 L10.9 15.1 C10.9 15.5 10.7 15.8 11.2 16.3 A2.7 2.7 0 0 0 12.5 16.8 A2.2 2.2 0 0 0 13.9 16.2 A1.1 1.1 0 0 0 14.2 15.2 A4.6 4.6 0 0 1 16.5 16.9 z" style="fill:white;" />
            <path d="M12.7 10.6 A2.5 2.5 0 0 0 10.3 12.9 A2.4 2.4 0 0 0 10.5 13.7 L10.7 13.9 C10.8 14.2 11 14.2 11.2 14.4 L11.2 14.6 L10.6 14.6 A5 5 0 0 0 8 16.7 L8 16.7 L8 19.6 L17 19.6 L17 16.6 L17 16.6 A5.7 5.7 0 0 0 14.4 14.7 L14.2 14.5 C14.2 14.4 14.3 14.4 14.3 14.3 A1.9 1.9 0 0 0 14.8 13 A2.3 2.3 0 0 0 12.7 10.7 z M12.5 16.3 A1 1 0 0 1 11.7 15.9 C11.3 15.5 11.3 15.3 11.3 15.1 C11.3 14.9 11.4 14.8 11.6 14.6 L11.9 14.3 L11.6 14.3 A1.6 1.6 0 0 1 10.8 13 A3.7 3.7 0 0 1 12.5 12.4 C12.6 12.4 12.7 12.7 12.8 12.8 L13.3 12.8 A2.4 2.4 0 0 0 14.3 12.5 A2.3 2.3 0 0 1 13.4 14.4 L13.4 14.4 L13.6 14.8 L13.6 14.8 A0.8 0.8 0 0 1 13.4 15.7 A1.5 1.5 0 0 1 12.5 16.1 z M10.8 15.1 L10.9 15.1 C10.9 15.5 10.7 15.8 11.2 16.3 A2.7 2.7 0 0 0 12.5 16.8 A2.2 2.2 0 0 0 13.9 16.2 A1.1 1.1 0 0 0 14.2 15.2 A4.6 4.6 0 0 1 16.5 16.9 L16.5 19.1 L15.4 19.1 L15.4 18 L14.8 18 L14.8 19.1 L10.2 19.1 L10.2 18 L9.7 18 L9.7 19.2 L8.5 19.2 L8.5 16.9 A5.2 5.2 0 0 1 10.8 15.1 z" style="fill:#03689A;" />
          </g>
          <g />
        </g>
      </g>
      <svg width="130" height="86" class="djs-svg-text">
        <text font-family="'Segoe UI'" font-size="10.6252px" font-style="normal" font-weight="normal" lineHeight="1.2" textDirection="0" textAlign="center" class="djs-label" style="fill:black;">
          <tspan x="17.95939" y="35.25">7. Atualizar base de </tspan>
          <tspan x="22.49672" y="48.25">conhecimento do </tspan>
          <tspan x="8.931351" y="61.25">atendimento ao público</tspan>
        </text>
      </svg>
    </g>
  </g>
  <g class="djs-group">
    <g transform="matrix(1, 0, 0, 1, 50, 98)" id="gfx-beb1a8a5-9926-4ac5-9ccd-0d23dcbd9d16" display="block" class="djs-element djs-shape" data-element-id="beb1a8a5-9926-4ac5-9ccd-0d23dcbd9d16">
      <g class="djs-visual">
        <g>
          <g transform="translate(-8.90625, -8.90625) scale(1.5)">
            <path d="M16 25.2 C10.9 25.2 6.8 21.1 6.8 16 C6.8 10.9 10.9 6.8 16 6.8 C21.1 6.8 25.2 10.9 25.2 16 C25.2 21.1 21.1 25.2 16 25.2 L16 25.2 z" style="fill:#E6FF97;" />
            <path d="M15.9 7 C20.9 7 24.9 11 24.9 16 C24.9 21 20.9 25 15.9 25 C10.9 25 6.9 21 6.9 16 C6.9 11 10.9 7 15.9 7 M15.9 6 C10.4 6 5.9 10.5 5.9 16 C5.9 21.5 10.4 26 15.9 26 C21.4 26 25.9 21.5 25.9 16 C25.9 10.5 21.4 6 15.9 6 z" stroke-width="0.2px" class="" style="fill:#62A716;stroke:#62A716;" />
          </g>
        </g>
      </g>
    </g>
  </g>
  <g class="djs-group">
    <g transform="matrix(1, 0, 0, 1, 18, 134)" id="gfx-5c6fc173-ef63-4f8b-a002-608fccd5ad05" display="block" class="djs-element djs-shape" data-element-id="5c6fc173-ef63-4f8b-a002-608fccd5ad05">
      <g class="djs-visual">
        <rect x="0" y="0" width="94" height="45" fill-opacity="0" stroke-opacity="0" style="fill:#FFFFFF;stroke:transparent;" />
        <svg width="94" height="40" class="djs-svg-text">
          <text font-family="'Segoe UI'" font-size="10.6252px" font-style="normal" font-weight="normal" lineHeight="1.2" textDirection="0" textAlign="center" class="djs-label" style="fill:black;">
            <tspan x="8.650337" y="14.75">Monitoramento </tspan>
            <tspan x="28.74431" y="27.75">iniciado</tspan>
          </text>
        </svg>
      </g>
    </g>
  </g>
  <g class="djs-group">
    <g transform="matrix(1, 0, 0, 1, 341, 98)" id="gfx-38df3373-f230-4f13-b7d4-39153ab0f3b7" display="block" class="djs-element djs-shape" data-element-id="38df3373-f230-4f13-b7d4-39153ab0f3b7">
      <g class="djs-visual">
        <g>
          <g transform="translate(-8.90625, -8.90625) scale(1.5)">
            <path d="M16 25.2 A9.2 9.2 0 1 1 25.2 16 A9.2 9.2 0 0 1 16 25.2 z" style="fill:#EEAAAA;" />
            <path d="M16 7.5 A8.5 8.5 0 1 1 7.5 16 A8.5 8.5 0 0 1 16 7.5 M16 6 A10 10 0 1 0 26 16 A10 10 0 0 0 16 6 z" stroke-width="0.4px" class="" style="fill:#990000;stroke:#990000;" />
          </g>
        </g>
      </g>
    </g>
  </g>
  <g class="djs-group">
    <g transform="matrix(1, 0, 0, 1, 306, 134)" id="gfx-3cecf82b-b961-45d4-a096-858e649989b1" display="block" class="djs-element djs-shape" data-element-id="3cecf82b-b961-45d4-a096-858e649989b1">
      <g class="djs-visual">
        <rect x="0" y="0" width="99" height="45" fill-opacity="0" stroke-opacity="0" style="fill:#FFFFFF;stroke:transparent;" />
        <svg width="99" height="40" class="djs-svg-text">
          <text font-family="'Segoe UI'" font-size="10.6252px" font-style="normal" font-weight="normal" lineHeight="1.2" textDirection="0" textAlign="center" class="djs-label" style="fill:black;">
            <tspan x="11.15034" y="14.75">Monitoramento </tspan>
            <tspan x="25.85652" y="27.75">encerrado</tspan>
          </text>
        </svg>
      </g>
    </g>
  </g>
  <g class="djs-group">
    <g transform="matrix(1, 0, 0, 1, 551, 271)" id="gfx-56fcc235-0f55-4094-94b1-3e4afe8e810c" display="block" class="djs-element djs-shape" data-element-id="56fcc235-0f55-4094-94b1-3e4afe8e810c">
      <g class="djs-visual">
        <g>
          <g transform="translate(-8.90625, -8.90625) scale(1.5)">
            <path d="M16 25.2 A9.2 9.2 0 1 1 25.2 16 A9.2 9.2 0 0 1 16 25.2 z" style="fill:#EEAAAA;" />
            <path d="M16 7.5 A8.5 8.5 0 1 1 7.5 16 A8.5 8.5 0 0 1 16 7.5 M16 6 A10 10 0 1 0 26 16 A10 10 0 0 0 16 6 z" stroke-width="0.4px" class="" style="fill:#990000;stroke:#990000;" />
          </g>
        </g>
      </g>
    </g>
  </g>
  <g class="djs-group">
    <g transform="matrix(1, 0, 0, 1, 524, 307)" id="gfx-6cd50925-7f9c-430f-acc6-6ab8355d72a4" display="block" class="djs-element djs-shape" data-element-id="6cd50925-7f9c-430f-acc6-6ab8355d72a4">
      <g class="djs-visual">
        <rect x="0" y="0" width="85" height="58" fill-opacity="0" stroke-opacity="0" style="fill:#FFFFFF;stroke:transparent;" />
        <svg width="85" height="53" class="djs-svg-text">
          <text font-family="'Segoe UI'" font-size="10.6252px" font-style="normal" font-weight="normal" lineHeight="1.2" textDirection="0" textAlign="center" class="djs-label" style="fill:black;">
            <tspan x="22.91162" y="14.75">Base de </tspan>
            <tspan x="7.689476" y="27.75">conhecimento </tspan>
            <tspan x="18.78912" y="40.75">atualizada</tspan>
          </text>
        </svg>
      </g>
    </g>
  </g>
  <g class="djs-group">
    <g transform="matrix(1, 0, 0, 1, 202, 147)" id="gfx-fe2cf4a6-3fec-4980-b80c-ee8059573f2e" display="block" class="djs-element djs-shape" data-element-id="fe2cf4a6-3fec-4980-b80c-ee8059573f2e">
      <g class="djs-visual">
        <g>
          <g transform="translate(-6.53125, -6.53125) scale(1.1)">
            <path d="M16 26 A10 10 0 1 1 26 16 A10 10 0 0 1 16 26 z" style="fill:#FEFAEF;" />
            <path d="M16 26 L16 25 A8.6 8.6 0 0 0 18.8 24.6 L19.1 25.5 A10.6 10.6 0 0 1 16 26 z M12.9 25.5 A10.5 10.5 0 0 1 10.1 24.1 L10.7 23.3 A11.9 11.9 0 0 0 13.2 24.6 z M21.9 24.1 L21.3 23.3 A9.5 9.5 0 0 0 23.3 21.3 L24.1 21.9 A11.5 11.5 0 0 1 21.9 24.1 z M7.9 21.9 A10.5 10.5 0 0 1 6.5 19.1 L7.4 18.8 A11.9 11.9 0 0 0 8.7 21.3 z M25.5 19.1 L24.6 18.8 A8.6 8.6 0 0 0 25 16 L26 16 A10.6 10.6 0 0 1 25.5 19.1 z M6 16 L6 16 A11.2 11.2 0 0 1 6.5 12.9 L7.4 13.2 A9 9 0 0 0 7 16 z M24.6 13.2 A9.9 9.9 0 0 0 23.3 10.7 L24.1 10.1 A9.2 9.2 0 0 1 25.5 12.9 z M8.7 10.7 L7.9 10.1 A11.5 11.5 0 0 1 10.1 7.9 L10.7 8.7 A12.6 12.6 0 0 0 8.7 10.7 z M21.3 8.7 A8.5 8.5 0 0 0 18.8 7.4 L19.1 6.5 A10.5 10.5 0 0 1 21.9 7.9 z M13.2 7.4 L12.9 6.5 A10.6 10.6 0 0 1 16 6 L16 7 A12.6 12.6 0 0 0 13.2 7.4 z" class="" style="fill:#969149;" />
            <path d="M16 24.3 L15.9 24.3 A8 8 0 0 1 12.9 23.7 L13.2 22.8 A6.6 6.6 0 0 0 16 23.3 z M19.2 23.6 L18.8 22.7 A6.3 6.3 0 0 0 21.1 21.1 L21.8 21.8 A6.8 6.8 0 0 1 19.2 23.6 z M10.2 21.9 A8 8 0 0 1 8.400001 19.2 L9.3 18.8 A6.3 6.3 0 0 0 10.9 21.1 z M23.6 19.2 L22.7 18.8 A6.6 6.6 0 0 0 23.2 16 L24.2 16 A8.7 8.7 0 0 1 23.6 19.2 z M7.8 16 L7.8 16 A8.1 8.1 0 0 1 8.400001 12.9 L9.3 13.3 A5.9 5.9 0 0 0 8.8 16 z M22.7 13.2 A7.8 7.8 0 0 0 21.1 10.8 L21.8 10.1 A8 8 0 0 1 23.6 12.8 z M10.8 10.9 L10.1 10.2 A8 8 0 0 1 12.8 8.4 L13.2 9.299999 A7.8 7.8 0 0 0 10.8 10.9 z M18.7 9.299999 A6.2 6.2 0 0 0 16 8.8 L16 7.8 L16 7.8 A8.1 8.1 0 0 1 19.1 8.400001 z" class="" style="fill:#969149;" />
            <g>
              <path d="M20 20 L12 20 L12 12 L20 12 z M13 19 L19 19 L19 13 L13 13 z" style="fill:#969149;" />
              <rect x="15" y="16.5" width="2" height="1" style="fill:#969149;" />
              <rect x="15" y="14.5" width="2" height="1" style="fill:#969149;" />
            </g>
          </g>
        </g>
      </g>
    </g>
  </g>
  <g class="djs-group">
    <g id="gfx-edbcb321-7512-4b79-8e1b-ebbb49f6ccfa" display="block" class="djs-element djs-connection" data-element-id="edbcb321-7512-4b79-8e1b-ebbb49f6ccfa">
      <g class="djs-visual">
        <g>
          <defs>
            <marker refX="9.8" refY="6" orient="auto" markerWidth="12" markerHeight="12" markerUnits="strokeWidth" id="arrowSecuenceFlowedbcb321-7512-4b79-8e1b-ebbb49f6ccfa#1">
              <path d="M0 0 L2 6 L0 12 L10 6 z" style="fill:black;" />
            </marker>
          </defs>
          <path d="M80 113 L148 113" marker-end="url(#arrowSecuenceFlowedbcb321-7512-4b79-8e1b-ebbb49f6ccfa)" stroke-width="1px" stroke-linejoin="round" shape-rendering="crispEdges" fill-opacity="0" class="" style="fill:transparent;stroke:black;" />
        </g>
      </g>
    </g>
  </g>
  <g class="djs-group">
    <g id="gfx-2b29b8ec-4cb1-498a-a960-d75513b0e41d" display="block" class="djs-element djs-connection" data-element-id="2b29b8ec-4cb1-498a-a960-d75513b0e41d">
      <g class="djs-visual">
        <g>
          <defs>
            <marker refX="9.8" refY="6" orient="auto" markerWidth="12" markerHeight="12" markerUnits="strokeWidth" id="arrowSecuenceFlow2b29b8ec-4cb1-498a-a960-d75513b0e41d">
              <path d="M0 0 L2 6 L0 12 L10 6 z" style="fill:black;" />
            </marker>
          </defs>
          <path d="M278 113 L341 113" marker-end="url(#arrowSecuenceFlow2b29b8ec-4cb1-498a-a960-d75513b0e41d)" stroke-width="1px" stroke-linejoin="round" shape-rendering="crispEdges" fill-opacity="0" class="" style="fill:transparent;stroke:black;" />
        </g>
      </g>
    </g>
  </g>
  <g class="djs-group">
    <g id="gfx-70139b38-c207-4cf1-b5e5-f17c85461a7a" display="block" class="djs-element djs-connection" data-element-id="70139b38-c207-4cf1-b5e5-f17c85461a7a">
      <g class="djs-visual">
        <g>
          <defs>
            <marker refX="9.8" refY="6" orient="auto" markerWidth="12" markerHeight="12" markerUnits="strokeWidth" id="arrowSecuenceFlow70139b38-c207-4cf1-b5e5-f17c85461a7a">
              <path d="M0 0 L2 6 L0 12 L10 6 z" style="fill:black;" />
            </marker>
          </defs>
          <path d="M213 169 L213 280 C213 280 213 286 219 286 L373 286" marker-end="url(#arrowSecuenceFlow70139b38-c207-4cf1-b5e5-f17c85461a7a)" stroke-width="1px" stroke-linejoin="round" shape-rendering="crispEdges" fill-opacity="0" class="" style="fill:transparent;stroke:black;" />
        </g>
      </g>
    </g>
  </g>
  <g class="djs-group">
    <g transform="matrix(1, 0, 0, 1, 213, 222)" id="gfx-7146daa5-c295-4e24-82da-cd6cc361423b" display="block" class="djs-element djs-shape" data-element-id="7146daa5-c295-4e24-82da-cd6cc361423b">
      <g class="djs-visual">
        <rect x="0" y="0" width="72" height="58" fill-opacity="0" stroke-opacity="0" style="fill:#FFFFFF;stroke:transparent;" />
        <svg width="72" height="53" class="djs-svg-text">
          <text font-family="'Segoe UI'" font-size="10.6252px" font-style="normal" font-weight="normal" lineHeight="1.2" textDirection="0" textAlign="left" class="djs-label" style="fill:black;">
            <tspan x="6" y="14.75">Demanda </tspan>
            <tspan x="6" y="27.75">recorrente </tspan>
            <tspan x="6" y="40.75">identificada</tspan>
          </text>
        </svg>
      </g>
    </g>
  </g>
  <g class="djs-group">
    <g id="gfx-79fe70c7-73e2-448e-adbc-b406e361f0e5" display="block" class="djs-element djs-connection" data-element-id="79fe70c7-73e2-448e-adbc-b406e361f0e5">
      <g class="djs-visual">
        <g>
          <defs>
            <marker refX="9.8" refY="6" orient="auto" markerWidth="12" markerHeight="12" markerUnits="strokeWidth" id="arrowSecuenceFlow79fe70c7-73e2-448e-adbc-b406e361f0e5">
              <path d="M0 0 L2 6 L0 12 L10 6 z" style="fill:black;" />
            </marker>
          </defs>
          <path d="M503 286 L551 286" marker-end="url(#arrowSecuenceFlow79fe70c7-73e2-448e-adbc-b406e361f0e5)" stroke-width="1px" stroke-linejoin="round" shape-rendering="crispEdges" fill-opacity="0" class="" style="fill:transparent;stroke:black;" />
        </g>
      </g>
    </g>
  </g>
</svg>