<?xml version="1.0" encoding="utf-8"?>
<!DOCTYPE svg PUBLIC "-//W3C//DTD SVG 1.1//EN" "http://www.w3.org/Graphics/SVG/1.1/DTD/svg11.dtd">
<svg width="3718.001" height="394px" xmlns="http://www.w3.org/2000/svg" xmlns:xlink="http://www.w3.org/1999/xlink" xmlns:xml="http://www.w3.org/XML/1998/namespace" version="1.1">
  <defs>
    <marker refX="9.8" refY="6" orient="auto" markerWidth="12" markerHeight="12" markerUnits="strokeWidth" id="arrowSecuenceFlow9d330d95-d95e-41c0-9566-c657168aed25">
      <path d="M0 0 L2 6 L0 12 L10 6 z" style="fill:black;" />
    </marker>
  </defs>
  <g class="djs-group">
    <g transform="matrix(1, 0, 0, 1, 1348, 187.375)" id="gfx-be3c553b-12b6-4c10-a863-bfa3569ddb96" display="block" class="djs-element djs-shape" data-element-id="be3c553b-12b6-4c10-a863-bfa3569ddb96">
      <g class="djs-visual">
        <g>
          <rect x="0" y="0" width="130" height="90" rx="8" stroke-width="2px" class="" style="fill:#ECEFFF;stroke:#03689A;" />
          <g transform="translate(-6, -11) scale(1.6)">
            <path d="M15.4 20.5 L14.7 20.5 A0.5 0.5 0 0 1 14.2 20.2 L13.8 19.3 L13.6 19.3 L12.7 19.7 L12.1 19.7 L11.6 19.1 C11.4 19 11.4 18.8 11.4 18.6 L11.8 17.7 L11.8 17.7 L11.8 17.4 L10.9 17 C10.7 16.9 10.6 16.8 10.6 16.6 L10.6 15.9 A0.5 0.5 0 0 1 10.9 15.4 L11.8 15 L11.8 14.8 A6.4 6.4 0 0 0 11.4 13.8 A0.7 0.7 0 0 1 11.5 13.3 L12.1 12.8 C12.2 12.6 12.4 12.6 12.6 12.7 L13.5 13 L13.8 13 A4.1 4.1 0 0 1 14.2 12.1 C14.3 11.9 14.4 11.8 14.6 11.8 L15.3 11.8 A0.5 0.5 0 0 1 15.8 12.1 A4.1 4.1 0 0 1 16.2 13 L16.8 13 L17.6 12.7 L17.9 12.7 L18.4 13.3 C18.6 13.4 18.6 13.6 18.6 13.8 L18.2 14.7 L18.2 14.7 L18.2 15 L19.1 15.4 C19.3 15.5 19.4 15.6 19.4 15.8 L19.4 16.5 A0.5 0.5 0 0 1 19.1 17 L18.2 17.4 L18.2 17.6 A6.4 6.4 0 0 0 18.6 18.6 A0.7 0.7 0 0 1 18.5 19.1 L17.9 19.6 C17.8 19.8 17.6 19.8 17.4 19.7 L16.5 19.4 L16.2 19.4 A4.1 4.1 0 0 1 15.8 20.3 C15.7 20.4 15.6 20.5 15.4 20.5 z M15 19.5 L15.1 19.5 C15.1 19.3 15.2 19.2 15.3 18.9 L15.3 18.9 L15.5 18.6 L15.7 18.6 L16.3 18.4 L16.8 18.4 L17.5 18.7 L17.5 18.7 L17.3 18.1 L17.2 18.1 C17.1 18.1 17.1 17.9 17.1 17.8 L17.2 17.8 L17.2 17.6 L17.4 17.1 L17.7 16.8 L17.8 16.8 L18.5 16.5 L18.5 16.5 L17.9 16.3 L17.7 16.3 L17.4 16 L17.2 15.3 A0.3 0.3 0 0 1 17.2 14.9 L17.2 14.9 L17.5 14.2 L17.2 14.2 L16.7 14.4 L16.1 14.4 L15.6 14.2 L15.3 13.9 L15.3 13.9 L15 13.2 L14.9 13.2 A1.4 1.4 0 0 1 14.7 13.8 L14.7 13.8 L14.5 14.1 L14.2 14.1 L13.7 14.3 L13.2 14.3 L12.5 14 L12.5 14 L12.7 14.6 L12.8 14.6 C12.9 14.6 12.9 14.8 12.9 14.9 L12.8 14.9 L12.8 15.1 L12.6 15.6 L12.3 15.9 L12.2 15.9 L11.5 16.2 L11.5 16.2 L12.1 16.4 L12.2 16.4 L12.5 16.6 L12.5 16.8 L12.7 17.4 A0.3 0.3 0 0 1 12.7 17.8 L12.7 17.8 L12.4 18.5 L12.5 18.5 L13 18.2 L13.8 18.2 L14.3 18.40001 L14.6 18.7 L14.6 18.7 z" style="fill:#03689A;" />
            <path d="M15 15.5 A0.5 0.5 0 1 1 14.5 16 A0.5 0.5 0 0 1 15 15.5 M15 14.5 A1.5 1.5 0 1 0 16.5 16 A1.5 1.5 0 0 0 15 14.5 z" style="fill:#03689A;" />
            <path d="M12 11.5 L11.9 11.5 A1.4 1.4 0 0 1 11.7 12.1 L11.7 12.1 L11.5 12.4 L11.2 12.4 L10.7 12.6 L10.2 12.6 L9.5 12.3 L9.5 12.3 L9.7 12.9 L9.8 12.9 C9.900001 12.9 9.900001 13.1 9.900001 13.2 L9.8 13.2 L9.8 13.4 L9.6 13.9 L9.3 14.2 L9.2 14.2 L8.5 14.5 L8.5 14.5 L9.1 14.7 L9.200001 14.7 L9.500001 14.9 L9.500001 15.1 L9.700001 15.7 A0.3 0.3 0 0 1 9.700001 16.1 L9.700001 16.1 L9.400001 16.8 L9.500001 16.8 L10 16.5 L10.5 17.5 L9.600001 17.9 L9.1 17.9 L8.6 17.3 C8.400001 17.2 8.400001 17 8.400001 16.8 L8.8 15.9 L8.8 15.9 L8.8 15.6 L7.9 15.2 C7.7 15.1 7.6 15 7.6 14.8 L7.6 14.1 A0.5 0.5 0 0 1 7.9 13.6 L8.8 13.2 L8.8 13 A6.4 6.4 0 0 0 8.400001 12 A0.7 0.7 0 0 1 8.500001 11.5 L9.100001 11 C9.200002 10.8 9.400002 10.8 9.600001 10.9 L10.5 11.2 L10.8 11.2 A4.1 4.1 0 0 1 11.2 10.3 C11.3 10.1 11.4 10 11.6 10 L12.3 10 A0.5 0.5 0 0 1 12.8 10.3 A4.1 4.1 0 0 1 13.2 11.2" style="fill:#03689A;" />
          </g>
          <g />
        </g>
      </g>
      <svg width="130" height="86" class="djs-svg-text">
        <text font-family="'Segoe UI'" font-size="10.6252px" font-style="normal" font-weight="normal" lineHeight="1.2" textDirection="0" textAlign="center" class="djs-label" style="fill:black;">
          <tspan x="12.54049" y="35.25">8. Buscar informações </tspan>
          <tspan x="8.272797" y="48.25">acerca de inscrições em </tspan>
          <tspan x="24.64873" y="61.25">edições passadas</tspan>
        </text>
      </svg>
    </g>
  </g>
  <g class="djs-group">
    <g transform="matrix(1, 0, 0, 1, 2289.9, 187.375)" id="gfx-a6a54dad-9f72-43b6-a3f0-7910dfb278d1" display="block" class="djs-element djs-shape" data-element-id="a6a54dad-9f72-43b6-a3f0-7910dfb278d1">
      <g class="djs-visual">
        <g>
          <rect x="0" y="0" width="130" height="90" rx="8" stroke-width="2px" class="" style="fill:#ECEFFF;stroke:#03689A;" />
          <g transform="translate(-6, -11) scale(1.6)">
            <path d="M17 16.5 A5.7 5.7 0 0 0 14.4 14.6 L14.2 14.4 C14.2 14.3 14.3 14.3 14.3 14.2 A1.9 1.9 0 0 0 14.8 12.9 A2.3 2.3 0 0 0 12.7 10.6 A2.5 2.5 0 0 0 10.3 12.9 A2.4 2.4 0 0 0 10.5 13.7 L10.7 13.9 C10.8 14.2 11 14.2 11.2 14.4 L11.2 14.6 L10.6 14.6 A5 5 0 0 0 8 16.7 L8 16.7 L8 19.6 L17 19.6 L17 16.6 z M11.6 14.6 L11.9 14.3 L11.6 14.3 A1.6 1.6 0 0 1 10.8 13 A3.7 3.7 0 0 1 12.5 12.4 C12.6 12.4 12.7 12.7 12.8 12.8 L13.3 12.8 A2.4 2.4 0 0 0 14.3 12.5 A2.3 2.3 0 0 1 13.4 14.4 L13.4 14.4 L13.6 14.8 L13.6 14.8 A0.8 0.8 0 0 1 13.4 15.7 A1.5 1.5 0 0 1 12.5 16.1 A1 1 0 0 1 11.7 15.7 C11.3 15.3 11.3 15.1 11.3 14.9 C11.3 14.7 11.4 14.8 11.6 14.6 z M16.5 19.1 L15.4 19.1 L15.4 18 L14.8 18 L14.8 19.1 L10.2 19.1 L10.2 18 L9.7 18 L9.7 19.2 L8.5 19.2 L8.5 16.9 A5.2 5.2 0 0 1 10.8 15.1 L10.9 15.1 C10.9 15.5 10.7 15.8 11.2 16.3 A2.7 2.7 0 0 0 12.5 16.8 A2.2 2.2 0 0 0 13.9 16.2 A1.1 1.1 0 0 0 14.2 15.2 A4.6 4.6 0 0 1 16.5 16.9 z" style="fill:white;" />
            <path d="M12.7 10.6 A2.5 2.5 0 0 0 10.3 12.9 A2.4 2.4 0 0 0 10.5 13.7 L10.7 13.9 C10.8 14.2 11 14.2 11.2 14.4 L11.2 14.6 L10.6 14.6 A5 5 0 0 0 8 16.7 L8 16.7 L8 19.6 L17 19.6 L17 16.6 L17 16.6 A5.7 5.7 0 0 0 14.4 14.7 L14.2 14.5 C14.2 14.4 14.3 14.4 14.3 14.3 A1.9 1.9 0 0 0 14.8 13 A2.3 2.3 0 0 0 12.7 10.7 z M12.5 16.3 A1 1 0 0 1 11.7 15.9 C11.3 15.5 11.3 15.3 11.3 15.1 C11.3 14.9 11.4 14.8 11.6 14.6 L11.9 14.3 L11.6 14.3 A1.6 1.6 0 0 1 10.8 13 A3.7 3.7 0 0 1 12.5 12.4 C12.6 12.4 12.7 12.7 12.8 12.8 L13.3 12.8 A2.4 2.4 0 0 0 14.3 12.5 A2.3 2.3 0 0 1 13.4 14.4 L13.4 14.4 L13.6 14.8 L13.6 14.8 A0.8 0.8 0 0 1 13.4 15.7 A1.5 1.5 0 0 1 12.5 16.1 z M10.8 15.1 L10.9 15.1 C10.9 15.5 10.7 15.8 11.2 16.3 A2.7 2.7 0 0 0 12.5 16.8 A2.2 2.2 0 0 0 13.9 16.2 A1.1 1.1 0 0 0 14.2 15.2 A4.6 4.6 0 0 1 16.5 16.9 L16.5 19.1 L15.4 19.1 L15.4 18 L14.8 18 L14.8 19.1 L10.2 19.1 L10.2 18 L9.7 18 L9.7 19.2 L8.5 19.2 L8.5 16.9 A5.2 5.2 0 0 1 10.8 15.1 z" style="fill:#03689A;" />
          </g>
          <g />
        </g>
      </g>
      <svg width="130" height="86" class="djs-svg-text">
        <text font-family="'Segoe UI'" font-size="10.6252px" font-style="normal" font-weight="normal" lineHeight="1.2" textDirection="0" textAlign="center" class="djs-label" style="fill:black;">
          <tspan x="10.55444" y="41.75">12. Inserir informações </tspan>
          <tspan x="9.050606" y="54.75">acerca do Ensino Médio</tspan>
        </text>
      </svg>
    </g>
  </g>
  <g class="djs-group">
    <g transform="matrix(1, 0, 0, 1, 3059.1, 187.375)" id="gfx-8558b318-0c90-4ed5-a2ce-9dba53a501c6" display="block" class="djs-element djs-shape" data-element-id="8558b318-0c90-4ed5-a2ce-9dba53a501c6">
      <g class="djs-visual">
        <g>
          <rect x="0" y="0" width="130" height="90" rx="8" stroke-width="2px" class="" style="fill:#ECEFFF;stroke:#03689A;" />
          <g transform="translate(-6, -11) scale(1.6)">
            <path d="M17 16.5 A5.7 5.7 0 0 0 14.4 14.6 L14.2 14.4 C14.2 14.3 14.3 14.3 14.3 14.2 A1.9 1.9 0 0 0 14.8 12.9 A2.3 2.3 0 0 0 12.7 10.6 A2.5 2.5 0 0 0 10.3 12.9 A2.4 2.4 0 0 0 10.5 13.7 L10.7 13.9 C10.8 14.2 11 14.2 11.2 14.4 L11.2 14.6 L10.6 14.6 A5 5 0 0 0 8 16.7 L8 16.7 L8 19.6 L17 19.6 L17 16.6 z M11.6 14.6 L11.9 14.3 L11.6 14.3 A1.6 1.6 0 0 1 10.8 13 A3.7 3.7 0 0 1 12.5 12.4 C12.6 12.4 12.7 12.7 12.8 12.8 L13.3 12.8 A2.4 2.4 0 0 0 14.3 12.5 A2.3 2.3 0 0 1 13.4 14.4 L13.4 14.4 L13.6 14.8 L13.6 14.8 A0.8 0.8 0 0 1 13.4 15.7 A1.5 1.5 0 0 1 12.5 16.1 A1 1 0 0 1 11.7 15.7 C11.3 15.3 11.3 15.1 11.3 14.9 C11.3 14.7 11.4 14.8 11.6 14.6 z M16.5 19.1 L15.4 19.1 L15.4 18 L14.8 18 L14.8 19.1 L10.2 19.1 L10.2 18 L9.7 18 L9.7 19.2 L8.5 19.2 L8.5 16.9 A5.2 5.2 0 0 1 10.8 15.1 L10.9 15.1 C10.9 15.5 10.7 15.8 11.2 16.3 A2.7 2.7 0 0 0 12.5 16.8 A2.2 2.2 0 0 0 13.9 16.2 A1.1 1.1 0 0 0 14.2 15.2 A4.6 4.6 0 0 1 16.5 16.9 z" style="fill:white;" />
            <path d="M12.7 10.6 A2.5 2.5 0 0 0 10.3 12.9 A2.4 2.4 0 0 0 10.5 13.7 L10.7 13.9 C10.8 14.2 11 14.2 11.2 14.4 L11.2 14.6 L10.6 14.6 A5 5 0 0 0 8 16.7 L8 16.7 L8 19.6 L17 19.6 L17 16.6 L17 16.6 A5.7 5.7 0 0 0 14.4 14.7 L14.2 14.5 C14.2 14.4 14.3 14.4 14.3 14.3 A1.9 1.9 0 0 0 14.8 13 A2.3 2.3 0 0 0 12.7 10.7 z M12.5 16.3 A1 1 0 0 1 11.7 15.9 C11.3 15.5 11.3 15.3 11.3 15.1 C11.3 14.9 11.4 14.8 11.6 14.6 L11.9 14.3 L11.6 14.3 A1.6 1.6 0 0 1 10.8 13 A3.7 3.7 0 0 1 12.5 12.4 C12.6 12.4 12.7 12.7 12.8 12.8 L13.3 12.8 A2.4 2.4 0 0 0 14.3 12.5 A2.3 2.3 0 0 1 13.4 14.4 L13.4 14.4 L13.6 14.8 L13.6 14.8 A0.8 0.8 0 0 1 13.4 15.7 A1.5 1.5 0 0 1 12.5 16.1 z M10.8 15.1 L10.9 15.1 C10.9 15.5 10.7 15.8 11.2 16.3 A2.7 2.7 0 0 0 12.5 16.8 A2.2 2.2 0 0 0 13.9 16.2 A1.1 1.1 0 0 0 14.2 15.2 A4.6 4.6 0 0 1 16.5 16.9 L16.5 19.1 L15.4 19.1 L15.4 18 L14.8 18 L14.8 19.1 L10.2 19.1 L10.2 18 L9.7 18 L9.7 19.2 L8.5 19.2 L8.5 16.9 A5.2 5.2 0 0 1 10.8 15.1 z" style="fill:#03689A;" />
          </g>
          <g />
        </g>
      </g>
      <svg width="130" height="86" class="djs-svg-text">
        <text font-family="'Segoe UI'" font-size="10.6252px" font-style="normal" font-weight="normal" lineHeight="1.2" textDirection="0" textAlign="center" class="djs-label" style="fill:black;">
          <tspan x="11.83526" y="41.75">16. Preencher ficha de </tspan>
          <tspan x="47.01914" y="54.75">contato</tspan>
        </text>
      </svg>
    </g>
  </g>
  <g class="djs-group">
    <g transform="matrix(1, 0, 0, 1, 2482.2, 187.375)" id="gfx-94d9bbdb-5f99-46e3-bcfe-f9c8a37fcf93" display="block" class="djs-element djs-shape" data-element-id="94d9bbdb-5f99-46e3-bcfe-f9c8a37fcf93">
      <g class="djs-visual">
        <g>
          <rect x="0" y="0" width="130" height="90" rx="8" stroke-width="2px" class="" style="fill:#ECEFFF;stroke:#03689A;" />
          <g transform="translate(-6, -11) scale(1.6)">
            <path d="M17 16.5 A5.7 5.7 0 0 0 14.4 14.6 L14.2 14.4 C14.2 14.3 14.3 14.3 14.3 14.2 A1.9 1.9 0 0 0 14.8 12.9 A2.3 2.3 0 0 0 12.7 10.6 A2.5 2.5 0 0 0 10.3 12.9 A2.4 2.4 0 0 0 10.5 13.7 L10.7 13.9 C10.8 14.2 11 14.2 11.2 14.4 L11.2 14.6 L10.6 14.6 A5 5 0 0 0 8 16.7 L8 16.7 L8 19.6 L17 19.6 L17 16.6 z M11.6 14.6 L11.9 14.3 L11.6 14.3 A1.6 1.6 0 0 1 10.8 13 A3.7 3.7 0 0 1 12.5 12.4 C12.6 12.4 12.7 12.7 12.8 12.8 L13.3 12.8 A2.4 2.4 0 0 0 14.3 12.5 A2.3 2.3 0 0 1 13.4 14.4 L13.4 14.4 L13.6 14.8 L13.6 14.8 A0.8 0.8 0 0 1 13.4 15.7 A1.5 1.5 0 0 1 12.5 16.1 A1 1 0 0 1 11.7 15.7 C11.3 15.3 11.3 15.1 11.3 14.9 C11.3 14.7 11.4 14.8 11.6 14.6 z M16.5 19.1 L15.4 19.1 L15.4 18 L14.8 18 L14.8 19.1 L10.2 19.1 L10.2 18 L9.7 18 L9.7 19.2 L8.5 19.2 L8.5 16.9 A5.2 5.2 0 0 1 10.8 15.1 L10.9 15.1 C10.9 15.5 10.7 15.8 11.2 16.3 A2.7 2.7 0 0 0 12.5 16.8 A2.2 2.2 0 0 0 13.9 16.2 A1.1 1.1 0 0 0 14.2 15.2 A4.6 4.6 0 0 1 16.5 16.9 z" style="fill:white;" />
            <path d="M12.7 10.6 A2.5 2.5 0 0 0 10.3 12.9 A2.4 2.4 0 0 0 10.5 13.7 L10.7 13.9 C10.8 14.2 11 14.2 11.2 14.4 L11.2 14.6 L10.6 14.6 A5 5 0 0 0 8 16.7 L8 16.7 L8 19.6 L17 19.6 L17 16.6 L17 16.6 A5.7 5.7 0 0 0 14.4 14.7 L14.2 14.5 C14.2 14.4 14.3 14.4 14.3 14.3 A1.9 1.9 0 0 0 14.8 13 A2.3 2.3 0 0 0 12.7 10.7 z M12.5 16.3 A1 1 0 0 1 11.7 15.9 C11.3 15.5 11.3 15.3 11.3 15.1 C11.3 14.9 11.4 14.8 11.6 14.6 L11.9 14.3 L11.6 14.3 A1.6 1.6 0 0 1 10.8 13 A3.7 3.7 0 0 1 12.5 12.4 C12.6 12.4 12.7 12.7 12.8 12.8 L13.3 12.8 A2.4 2.4 0 0 0 14.3 12.5 A2.3 2.3 0 0 1 13.4 14.4 L13.4 14.4 L13.6 14.8 L13.6 14.8 A0.8 0.8 0 0 1 13.4 15.7 A1.5 1.5 0 0 1 12.5 16.1 z M10.8 15.1 L10.9 15.1 C10.9 15.5 10.7 15.8 11.2 16.3 A2.7 2.7 0 0 0 12.5 16.8 A2.2 2.2 0 0 0 13.9 16.2 A1.1 1.1 0 0 0 14.2 15.2 A4.6 4.6 0 0 1 16.5 16.9 L16.5 19.1 L15.4 19.1 L15.4 18 L14.8 18 L14.8 19.1 L10.2 19.1 L10.2 18 L9.7 18 L9.7 19.2 L8.5 19.2 L8.5 16.9 A5.2 5.2 0 0 1 10.8 15.1 z" style="fill:#03689A;" />
          </g>
          <g />
        </g>
      </g>
      <svg width="130" height="86" class="djs-svg-text">
        <text font-family="'Segoe UI'" font-size="10.6252px" font-style="normal" font-weight="normal" lineHeight="1.2" textDirection="0" textAlign="center" class="djs-label" style="fill:black;">
          <tspan x="10.55444" y="35.25">13. Inserir informações </tspan>
          <tspan x="12.82308" y="48.25">acerca do Número de </tspan>
          <tspan x="7.246071" y="61.25">Identificação Social (NIS)</tspan>
        </text>
      </svg>
    </g>
  </g>
  <g class="djs-group">
    <g transform="matrix(1, 0, 0, 1, 2007, 89.5)" id="gfx-82c921e3-9339-49b5-b718-56fff478e4d7" display="block" class="djs-element djs-shape" data-element-id="82c921e3-9339-49b5-b718-56fff478e4d7">
      <g class="djs-visual">
        <g>
          <rect x="0" y="0" width="130" height="90" rx="8" stroke-width="2px" class="" style="fill:#ECEFFF;stroke:#03689A;" />
          <g transform="translate(-6, -11) scale(1.6)">
            <path d="M17 16.5 A5.7 5.7 0 0 0 14.4 14.6 L14.2 14.4 C14.2 14.3 14.3 14.3 14.3 14.2 A1.9 1.9 0 0 0 14.8 12.9 A2.3 2.3 0 0 0 12.7 10.6 A2.5 2.5 0 0 0 10.3 12.9 A2.4 2.4 0 0 0 10.5 13.7 L10.7 13.9 C10.8 14.2 11 14.2 11.2 14.4 L11.2 14.6 L10.6 14.6 A5 5 0 0 0 8 16.7 L8 16.7 L8 19.6 L17 19.6 L17 16.6 z M11.6 14.6 L11.9 14.3 L11.6 14.3 A1.6 1.6 0 0 1 10.8 13 A3.7 3.7 0 0 1 12.5 12.4 C12.6 12.4 12.7 12.7 12.8 12.8 L13.3 12.8 A2.4 2.4 0 0 0 14.3 12.5 A2.3 2.3 0 0 1 13.4 14.4 L13.4 14.4 L13.6 14.8 L13.6 14.8 A0.8 0.8 0 0 1 13.4 15.7 A1.5 1.5 0 0 1 12.5 16.1 A1 1 0 0 1 11.7 15.7 C11.3 15.3 11.3 15.1 11.3 14.9 C11.3 14.7 11.4 14.8 11.6 14.6 z M16.5 19.1 L15.4 19.1 L15.4 18 L14.8 18 L14.8 19.1 L10.2 19.1 L10.2 18 L9.7 18 L9.7 19.2 L8.5 19.2 L8.5 16.9 A5.2 5.2 0 0 1 10.8 15.1 L10.9 15.1 C10.9 15.5 10.7 15.8 11.2 16.3 A2.7 2.7 0 0 0 12.5 16.8 A2.2 2.2 0 0 0 13.9 16.2 A1.1 1.1 0 0 0 14.2 15.2 A4.6 4.6 0 0 1 16.5 16.9 z" style="fill:white;" />
            <path d="M12.7 10.6 A2.5 2.5 0 0 0 10.3 12.9 A2.4 2.4 0 0 0 10.5 13.7 L10.7 13.9 C10.8 14.2 11 14.2 11.2 14.4 L11.2 14.6 L10.6 14.6 A5 5 0 0 0 8 16.7 L8 16.7 L8 19.6 L17 19.6 L17 16.6 L17 16.6 A5.7 5.7 0 0 0 14.4 14.7 L14.2 14.5 C14.2 14.4 14.3 14.4 14.3 14.3 A1.9 1.9 0 0 0 14.8 13 A2.3 2.3 0 0 0 12.7 10.7 z M12.5 16.3 A1 1 0 0 1 11.7 15.9 C11.3 15.5 11.3 15.3 11.3 15.1 C11.3 14.9 11.4 14.8 11.6 14.6 L11.9 14.3 L11.6 14.3 A1.6 1.6 0 0 1 10.8 13 A3.7 3.7 0 0 1 12.5 12.4 C12.6 12.4 12.7 12.7 12.8 12.8 L13.3 12.8 A2.4 2.4 0 0 0 14.3 12.5 A2.3 2.3 0 0 1 13.4 14.4 L13.4 14.4 L13.6 14.8 L13.6 14.8 A0.8 0.8 0 0 1 13.4 15.7 A1.5 1.5 0 0 1 12.5 16.1 z M10.8 15.1 L10.9 15.1 C10.9 15.5 10.7 15.8 11.2 16.3 A2.7 2.7 0 0 0 12.5 16.8 A2.2 2.2 0 0 0 13.9 16.2 A1.1 1.1 0 0 0 14.2 15.2 A4.6 4.6 0 0 1 16.5 16.9 L16.5 19.1 L15.4 19.1 L15.4 18 L14.8 18 L14.8 19.1 L10.2 19.1 L10.2 18 L9.7 18 L9.7 19.2 L8.5 19.2 L8.5 16.9 A5.2 5.2 0 0 1 10.8 15.1 z" style="fill:#03689A;" />
          </g>
          <g />
        </g>
      </g>
      <svg width="130" height="86" class="djs-svg-text">
        <text font-family="'Segoe UI'" font-size="10.6252px" font-style="normal" font-weight="normal" lineHeight="1.2" textDirection="0" textAlign="center" class="djs-label" style="fill:black;">
          <tspan x="6.981583" y="41.75">11. Preencher campo de </tspan>
          <tspan x="9.942558" y="54.75">justificativa de ausência</tspan>
        </text>
      </svg>
    </g>
  </g>
  <g class="djs-group">
    <g transform="matrix(1, 0, 0, 1, 1733, 187.375)" id="gfx-83392d36-6695-4c57-a24d-83c80df1d07d" display="block" class="djs-element djs-shape" data-element-id="83392d36-6695-4c57-a24d-83c80df1d07d">
      <g class="djs-visual">
        <g>
          <rect x="0" y="0" width="130" height="90" rx="8" stroke-width="2px" class="" style="fill:#ECEFFF;stroke:#03689A;" />
          <g transform="translate(-6, -11) scale(1.6)">
            <path d="M15.4 20.5 L14.7 20.5 A0.5 0.5 0 0 1 14.2 20.2 L13.8 19.3 L13.6 19.3 L12.7 19.7 L12.1 19.7 L11.6 19.1 C11.4 19 11.4 18.8 11.4 18.6 L11.8 17.7 L11.8 17.7 L11.8 17.4 L10.9 17 C10.7 16.9 10.6 16.8 10.6 16.6 L10.6 15.9 A0.5 0.5 0 0 1 10.9 15.4 L11.8 15 L11.8 14.8 A6.4 6.4 0 0 0 11.4 13.8 A0.7 0.7 0 0 1 11.5 13.3 L12.1 12.8 C12.2 12.6 12.4 12.6 12.6 12.7 L13.5 13 L13.8 13 A4.1 4.1 0 0 1 14.2 12.1 C14.3 11.9 14.4 11.8 14.6 11.8 L15.3 11.8 A0.5 0.5 0 0 1 15.8 12.1 A4.1 4.1 0 0 1 16.2 13 L16.8 13 L17.6 12.7 L17.9 12.7 L18.4 13.3 C18.6 13.4 18.6 13.6 18.6 13.8 L18.2 14.7 L18.2 14.7 L18.2 15 L19.1 15.4 C19.3 15.5 19.4 15.6 19.4 15.8 L19.4 16.5 A0.5 0.5 0 0 1 19.1 17 L18.2 17.4 L18.2 17.6 A6.4 6.4 0 0 0 18.6 18.6 A0.7 0.7 0 0 1 18.5 19.1 L17.9 19.6 C17.8 19.8 17.6 19.8 17.4 19.7 L16.5 19.4 L16.2 19.4 A4.1 4.1 0 0 1 15.8 20.3 C15.7 20.4 15.6 20.5 15.4 20.5 z M15 19.5 L15.1 19.5 C15.1 19.3 15.2 19.2 15.3 18.9 L15.3 18.9 L15.5 18.6 L15.7 18.6 L16.3 18.4 L16.8 18.4 L17.5 18.7 L17.5 18.7 L17.3 18.1 L17.2 18.1 C17.1 18.1 17.1 17.9 17.1 17.8 L17.2 17.8 L17.2 17.6 L17.4 17.1 L17.7 16.8 L17.8 16.8 L18.5 16.5 L18.5 16.5 L17.9 16.3 L17.7 16.3 L17.4 16 L17.2 15.3 A0.3 0.3 0 0 1 17.2 14.9 L17.2 14.9 L17.5 14.2 L17.2 14.2 L16.7 14.4 L16.1 14.4 L15.6 14.2 L15.3 13.9 L15.3 13.9 L15 13.2 L14.9 13.2 A1.4 1.4 0 0 1 14.7 13.8 L14.7 13.8 L14.5 14.1 L14.2 14.1 L13.7 14.3 L13.2 14.3 L12.5 14 L12.5 14 L12.7 14.6 L12.8 14.6 C12.9 14.6 12.9 14.8 12.9 14.9 L12.8 14.9 L12.8 15.1 L12.6 15.6 L12.3 15.9 L12.2 15.9 L11.5 16.2 L11.5 16.2 L12.1 16.4 L12.2 16.4 L12.5 16.6 L12.5 16.8 L12.7 17.4 A0.3 0.3 0 0 1 12.7 17.8 L12.7 17.8 L12.4 18.5 L12.5 18.5 L13 18.2 L13.8 18.2 L14.3 18.40001 L14.6 18.7 L14.6 18.7 z" style="fill:#03689A;" />
            <path d="M15 15.5 A0.5 0.5 0 1 1 14.5 16 A0.5 0.5 0 0 1 15 15.5 M15 14.5 A1.5 1.5 0 1 0 16.5 16 A1.5 1.5 0 0 0 15 14.5 z" style="fill:#03689A;" />
            <path d="M12 11.5 L11.9 11.5 A1.4 1.4 0 0 1 11.7 12.1 L11.7 12.1 L11.5 12.4 L11.2 12.4 L10.7 12.6 L10.2 12.6 L9.5 12.3 L9.5 12.3 L9.7 12.9 L9.8 12.9 C9.900001 12.9 9.900001 13.1 9.900001 13.2 L9.8 13.2 L9.8 13.4 L9.6 13.9 L9.3 14.2 L9.2 14.2 L8.5 14.5 L8.5 14.5 L9.1 14.7 L9.200001 14.7 L9.500001 14.9 L9.500001 15.1 L9.700001 15.7 A0.3 0.3 0 0 1 9.700001 16.1 L9.700001 16.1 L9.400001 16.8 L9.500001 16.8 L10 16.5 L10.5 17.5 L9.600001 17.9 L9.1 17.9 L8.6 17.3 C8.400001 17.2 8.400001 17 8.400001 16.8 L8.8 15.9 L8.8 15.9 L8.8 15.6 L7.9 15.2 C7.7 15.1 7.6 15 7.6 14.8 L7.6 14.1 A0.5 0.5 0 0 1 7.9 13.6 L8.8 13.2 L8.8 13 A6.4 6.4 0 0 0 8.400001 12 A0.7 0.7 0 0 1 8.500001 11.5 L9.100001 11 C9.200002 10.8 9.400002 10.8 9.600001 10.9 L10.5 11.2 L10.8 11.2 A4.1 4.1 0 0 1 11.2 10.3 C11.3 10.1 11.4 10 11.6 10 L12.3 10 A0.5 0.5 0 0 1 12.8 10.3 A4.1 4.1 0 0 1 13.2 11.2" style="fill:#03689A;" />
          </g>
          <g />
        </g>
      </g>
      <svg width="130" height="86" class="djs-svg-text">
        <text font-family="'Segoe UI'" font-size="10.6252px" font-style="normal" font-weight="normal" lineHeight="1.2" textDirection="0" textAlign="center" class="djs-label" style="fill:black;">
          <tspan x="9.67807" y="28.75">10. Buscar informações </tspan>
          <tspan x="20.8503" y="41.75">de assiduidade do </tspan>
          <tspan x="12.19046" y="54.75">candidato em edições </tspan>
          <tspan x="43.88708" y="67.75">passadas</tspan>
        </text>
      </svg>
    </g>
  </g>
  <g class="djs-group">
    <g transform="matrix(1, 0, 0, 1, 1156.1, 187.375)" id="gfx-a0017505-5a38-4674-8dda-35f0f8c0e06a" display="block" class="djs-element djs-shape" data-element-id="a0017505-5a38-4674-8dda-35f0f8c0e06a">
      <g class="djs-visual">
        <g>
          <rect x="0" y="0" width="130" height="90" rx="8" stroke-width="2px" class="" style="fill:#ECEFFF;stroke:#03689A;" />
          <g transform="translate(-6, -11) scale(1.6)">
            <path d="M17 16.5 A5.7 5.7 0 0 0 14.4 14.6 L14.2 14.4 C14.2 14.3 14.3 14.3 14.3 14.2 A1.9 1.9 0 0 0 14.8 12.9 A2.3 2.3 0 0 0 12.7 10.6 A2.5 2.5 0 0 0 10.3 12.9 A2.4 2.4 0 0 0 10.5 13.7 L10.7 13.9 C10.8 14.2 11 14.2 11.2 14.4 L11.2 14.6 L10.6 14.6 A5 5 0 0 0 8 16.7 L8 16.7 L8 19.6 L17 19.6 L17 16.6 z M11.6 14.6 L11.9 14.3 L11.6 14.3 A1.6 1.6 0 0 1 10.8 13 A3.7 3.7 0 0 1 12.5 12.4 C12.6 12.4 12.7 12.7 12.8 12.8 L13.3 12.8 A2.4 2.4 0 0 0 14.3 12.5 A2.3 2.3 0 0 1 13.4 14.4 L13.4 14.4 L13.6 14.8 L13.6 14.8 A0.8 0.8 0 0 1 13.4 15.7 A1.5 1.5 0 0 1 12.5 16.1 A1 1 0 0 1 11.7 15.7 C11.3 15.3 11.3 15.1 11.3 14.9 C11.3 14.7 11.4 14.8 11.6 14.6 z M16.5 19.1 L15.4 19.1 L15.4 18 L14.8 18 L14.8 19.1 L10.2 19.1 L10.2 18 L9.7 18 L9.7 19.2 L8.5 19.2 L8.5 16.9 A5.2 5.2 0 0 1 10.8 15.1 L10.9 15.1 C10.9 15.5 10.7 15.8 11.2 16.3 A2.7 2.7 0 0 0 12.5 16.8 A2.2 2.2 0 0 0 13.9 16.2 A1.1 1.1 0 0 0 14.2 15.2 A4.6 4.6 0 0 1 16.5 16.9 z" style="fill:white;" />
            <path d="M12.7 10.6 A2.5 2.5 0 0 0 10.3 12.9 A2.4 2.4 0 0 0 10.5 13.7 L10.7 13.9 C10.8 14.2 11 14.2 11.2 14.4 L11.2 14.6 L10.6 14.6 A5 5 0 0 0 8 16.7 L8 16.7 L8 19.6 L17 19.6 L17 16.6 L17 16.6 A5.7 5.7 0 0 0 14.4 14.7 L14.2 14.5 C14.2 14.4 14.3 14.4 14.3 14.3 A1.9 1.9 0 0 0 14.8 13 A2.3 2.3 0 0 0 12.7 10.7 z M12.5 16.3 A1 1 0 0 1 11.7 15.9 C11.3 15.5 11.3 15.3 11.3 15.1 C11.3 14.9 11.4 14.8 11.6 14.6 L11.9 14.3 L11.6 14.3 A1.6 1.6 0 0 1 10.8 13 A3.7 3.7 0 0 1 12.5 12.4 C12.6 12.4 12.7 12.7 12.8 12.8 L13.3 12.8 A2.4 2.4 0 0 0 14.3 12.5 A2.3 2.3 0 0 1 13.4 14.4 L13.4 14.4 L13.6 14.8 L13.6 14.8 A0.8 0.8 0 0 1 13.4 15.7 A1.5 1.5 0 0 1 12.5 16.1 z M10.8 15.1 L10.9 15.1 C10.9 15.5 10.7 15.8 11.2 16.3 A2.7 2.7 0 0 0 12.5 16.8 A2.2 2.2 0 0 0 13.9 16.2 A1.1 1.1 0 0 0 14.2 15.2 A4.6 4.6 0 0 1 16.5 16.9 L16.5 19.1 L15.4 19.1 L15.4 18 L14.8 18 L14.8 19.1 L10.2 19.1 L10.2 18 L9.7 18 L9.7 19.2 L8.5 19.2 L8.5 16.9 A5.2 5.2 0 0 1 10.8 15.1 z" style="fill:#03689A;" />
          </g>
          <g />
        </g>
      </g>
      <svg width="130" height="86" class="djs-svg-text">
        <text font-family="'Segoe UI'" font-size="10.6252px" font-style="normal" font-weight="normal" lineHeight="1.2" textDirection="0" textAlign="center" class="djs-label" style="fill:black;">
          <tspan x="7.391258" y="41.75">7. Atualizar informações </tspan>
          <tspan x="37.94965" y="54.75">residenciais</tspan>
        </text>
      </svg>
    </g>
  </g>
  <g class="djs-group">
    <g transform="matrix(1, 0, 0, 1, 2674.5, 187.375)" id="gfx-a6e908b0-2a28-431a-8357-8103f0c88734" display="block" class="djs-element djs-shape" data-element-id="a6e908b0-2a28-431a-8357-8103f0c88734">
      <g class="djs-visual">
        <g>
          <rect x="0" y="0" width="130" height="90" rx="8" stroke-width="2px" class="" style="fill:#ECEFFF;stroke:#03689A;" />
          <g transform="translate(-6, -11) scale(1.6)">
            <path d="M17 16.5 A5.7 5.7 0 0 0 14.4 14.6 L14.2 14.4 C14.2 14.3 14.3 14.3 14.3 14.2 A1.9 1.9 0 0 0 14.8 12.9 A2.3 2.3 0 0 0 12.7 10.6 A2.5 2.5 0 0 0 10.3 12.9 A2.4 2.4 0 0 0 10.5 13.7 L10.7 13.9 C10.8 14.2 11 14.2 11.2 14.4 L11.2 14.6 L10.6 14.6 A5 5 0 0 0 8 16.7 L8 16.7 L8 19.6 L17 19.6 L17 16.6 z M11.6 14.6 L11.9 14.3 L11.6 14.3 A1.6 1.6 0 0 1 10.8 13 A3.7 3.7 0 0 1 12.5 12.4 C12.6 12.4 12.7 12.7 12.8 12.8 L13.3 12.8 A2.4 2.4 0 0 0 14.3 12.5 A2.3 2.3 0 0 1 13.4 14.4 L13.4 14.4 L13.6 14.8 L13.6 14.8 A0.8 0.8 0 0 1 13.4 15.7 A1.5 1.5 0 0 1 12.5 16.1 A1 1 0 0 1 11.7 15.7 C11.3 15.3 11.3 15.1 11.3 14.9 C11.3 14.7 11.4 14.8 11.6 14.6 z M16.5 19.1 L15.4 19.1 L15.4 18 L14.8 18 L14.8 19.1 L10.2 19.1 L10.2 18 L9.7 18 L9.7 19.2 L8.5 19.2 L8.5 16.9 A5.2 5.2 0 0 1 10.8 15.1 L10.9 15.1 C10.9 15.5 10.7 15.8 11.2 16.3 A2.7 2.7 0 0 0 12.5 16.8 A2.2 2.2 0 0 0 13.9 16.2 A1.1 1.1 0 0 0 14.2 15.2 A4.6 4.6 0 0 1 16.5 16.9 z" style="fill:white;" />
            <path d="M12.7 10.6 A2.5 2.5 0 0 0 10.3 12.9 A2.4 2.4 0 0 0 10.5 13.7 L10.7 13.9 C10.8 14.2 11 14.2 11.2 14.4 L11.2 14.6 L10.6 14.6 A5 5 0 0 0 8 16.7 L8 16.7 L8 19.6 L17 19.6 L17 16.6 L17 16.6 A5.7 5.7 0 0 0 14.4 14.7 L14.2 14.5 C14.2 14.4 14.3 14.4 14.3 14.3 A1.9 1.9 0 0 0 14.8 13 A2.3 2.3 0 0 0 12.7 10.7 z M12.5 16.3 A1 1 0 0 1 11.7 15.9 C11.3 15.5 11.3 15.3 11.3 15.1 C11.3 14.9 11.4 14.8 11.6 14.6 L11.9 14.3 L11.6 14.3 A1.6 1.6 0 0 1 10.8 13 A3.7 3.7 0 0 1 12.5 12.4 C12.6 12.4 12.7 12.7 12.8 12.8 L13.3 12.8 A2.4 2.4 0 0 0 14.3 12.5 A2.3 2.3 0 0 1 13.4 14.4 L13.4 14.4 L13.6 14.8 L13.6 14.8 A0.8 0.8 0 0 1 13.4 15.7 A1.5 1.5 0 0 1 12.5 16.1 z M10.8 15.1 L10.9 15.1 C10.9 15.5 10.7 15.8 11.2 16.3 A2.7 2.7 0 0 0 12.5 16.8 A2.2 2.2 0 0 0 13.9 16.2 A1.1 1.1 0 0 0 14.2 15.2 A4.6 4.6 0 0 1 16.5 16.9 L16.5 19.1 L15.4 19.1 L15.4 18 L14.8 18 L14.8 19.1 L10.2 19.1 L10.2 18 L9.7 18 L9.7 19.2 L8.5 19.2 L8.5 16.9 A5.2 5.2 0 0 1 10.8 15.1 z" style="fill:#03689A;" />
          </g>
          <g />
        </g>
      </g>
      <svg width="130" height="86" class="djs-svg-text">
        <text font-family="'Segoe UI'" font-size="10.6252px" font-style="normal" font-weight="normal" lineHeight="1.2" textDirection="0" textAlign="center" class="djs-label" style="fill:black;">
          <tspan x="31.89551" y="41.75">14. Confirmar </tspan>
          <tspan x="36.22025" y="54.75">informações</tspan>
        </text>
      </svg>
    </g>
  </g>
  <g class="djs-group">
    <g transform="matrix(1, 0, 0, 1, 2866.8, 187.375)" id="gfx-2002a769-f521-4dbf-a953-d60dd4a121af" display="block" class="djs-element djs-shape" data-element-id="2002a769-f521-4dbf-a953-d60dd4a121af">
      <g class="djs-visual">
        <g>
          <rect x="0" y="0" width="130" height="90" rx="8" stroke-width="2px" class="" style="fill:#ECEFFF;stroke:#03689A;" />
          <g transform="translate(-6, -11) scale(1.6)">
            <path d="M17 16.5 A5.7 5.7 0 0 0 14.4 14.6 L14.2 14.4 C14.2 14.3 14.3 14.3 14.3 14.2 A1.9 1.9 0 0 0 14.8 12.9 A2.3 2.3 0 0 0 12.7 10.6 A2.5 2.5 0 0 0 10.3 12.9 A2.4 2.4 0 0 0 10.5 13.7 L10.7 13.9 C10.8 14.2 11 14.2 11.2 14.4 L11.2 14.6 L10.6 14.6 A5 5 0 0 0 8 16.7 L8 16.7 L8 19.6 L17 19.6 L17 16.6 z M11.6 14.6 L11.9 14.3 L11.6 14.3 A1.6 1.6 0 0 1 10.8 13 A3.7 3.7 0 0 1 12.5 12.4 C12.6 12.4 12.7 12.7 12.8 12.8 L13.3 12.8 A2.4 2.4 0 0 0 14.3 12.5 A2.3 2.3 0 0 1 13.4 14.4 L13.4 14.4 L13.6 14.8 L13.6 14.8 A0.8 0.8 0 0 1 13.4 15.7 A1.5 1.5 0 0 1 12.5 16.1 A1 1 0 0 1 11.7 15.7 C11.3 15.3 11.3 15.1 11.3 14.9 C11.3 14.7 11.4 14.8 11.6 14.6 z M16.5 19.1 L15.4 19.1 L15.4 18 L14.8 18 L14.8 19.1 L10.2 19.1 L10.2 18 L9.7 18 L9.7 19.2 L8.5 19.2 L8.5 16.9 A5.2 5.2 0 0 1 10.8 15.1 L10.9 15.1 C10.9 15.5 10.7 15.8 11.2 16.3 A2.7 2.7 0 0 0 12.5 16.8 A2.2 2.2 0 0 0 13.9 16.2 A1.1 1.1 0 0 0 14.2 15.2 A4.6 4.6 0 0 1 16.5 16.9 z" style="fill:white;" />
            <path d="M12.7 10.6 A2.5 2.5 0 0 0 10.3 12.9 A2.4 2.4 0 0 0 10.5 13.7 L10.7 13.9 C10.8 14.2 11 14.2 11.2 14.4 L11.2 14.6 L10.6 14.6 A5 5 0 0 0 8 16.7 L8 16.7 L8 19.6 L17 19.6 L17 16.6 L17 16.6 A5.7 5.7 0 0 0 14.4 14.7 L14.2 14.5 C14.2 14.4 14.3 14.4 14.3 14.3 A1.9 1.9 0 0 0 14.8 13 A2.3 2.3 0 0 0 12.7 10.7 z M12.5 16.3 A1 1 0 0 1 11.7 15.9 C11.3 15.5 11.3 15.3 11.3 15.1 C11.3 14.9 11.4 14.8 11.6 14.6 L11.9 14.3 L11.6 14.3 A1.6 1.6 0 0 1 10.8 13 A3.7 3.7 0 0 1 12.5 12.4 C12.6 12.4 12.7 12.7 12.8 12.8 L13.3 12.8 A2.4 2.4 0 0 0 14.3 12.5 A2.3 2.3 0 0 1 13.4 14.4 L13.4 14.4 L13.6 14.8 L13.6 14.8 A0.8 0.8 0 0 1 13.4 15.7 A1.5 1.5 0 0 1 12.5 16.1 z M10.8 15.1 L10.9 15.1 C10.9 15.5 10.7 15.8 11.2 16.3 A2.7 2.7 0 0 0 12.5 16.8 A2.2 2.2 0 0 0 13.9 16.2 A1.1 1.1 0 0 0 14.2 15.2 A4.6 4.6 0 0 1 16.5 16.9 L16.5 19.1 L15.4 19.1 L15.4 18 L14.8 18 L14.8 19.1 L10.2 19.1 L10.2 18 L9.7 18 L9.7 19.2 L8.5 19.2 L8.5 16.9 A5.2 5.2 0 0 1 10.8 15.1 z" style="fill:#03689A;" />
          </g>
          <g />
        </g>
      </g>
      <svg width="130" height="86" class="djs-svg-text">
        <text font-family="'Segoe UI'" font-size="10.6252px" font-style="normal" font-weight="normal" lineHeight="1.2" textDirection="0" textAlign="center" class="djs-label" style="fill:black;">
          <tspan x="31.75551" y="35.25">15. Preencher </tspan>
          <tspan x="33.36044" y="48.25">Questionário </tspan>
          <tspan x="26.33661" y="61.25">Socioeconômico</tspan>
        </text>
      </svg>
    </g>
  </g>
  <g class="djs-group">
    <g transform="matrix(1, 0, 0, 1, 1541, 187.375)" id="gfx-c9d55c94-0be8-4efd-a79d-27925d7ae21d" display="block" class="djs-element djs-shape" data-element-id="c9d55c94-0be8-4efd-a79d-27925d7ae21d">
      <g class="djs-visual">
        <g>
          <rect x="0" y="0" width="130" height="90" rx="8" stroke-width="2px" class="" style="fill:#ECEFFF;stroke:#03689A;" />
          <g transform="translate(-6, -11) scale(1.6)">
            <path d="M15.4 20.5 L14.7 20.5 A0.5 0.5 0 0 1 14.2 20.2 L13.8 19.3 L13.6 19.3 L12.7 19.7 L12.1 19.7 L11.6 19.1 C11.4 19 11.4 18.8 11.4 18.6 L11.8 17.7 L11.8 17.7 L11.8 17.4 L10.9 17 C10.7 16.9 10.6 16.8 10.6 16.6 L10.6 15.9 A0.5 0.5 0 0 1 10.9 15.4 L11.8 15 L11.8 14.8 A6.4 6.4 0 0 0 11.4 13.8 A0.7 0.7 0 0 1 11.5 13.3 L12.1 12.8 C12.2 12.6 12.4 12.6 12.6 12.7 L13.5 13 L13.8 13 A4.1 4.1 0 0 1 14.2 12.1 C14.3 11.9 14.4 11.8 14.6 11.8 L15.3 11.8 A0.5 0.5 0 0 1 15.8 12.1 A4.1 4.1 0 0 1 16.2 13 L16.8 13 L17.6 12.7 L17.9 12.7 L18.4 13.3 C18.6 13.4 18.6 13.6 18.6 13.8 L18.2 14.7 L18.2 14.7 L18.2 15 L19.1 15.4 C19.3 15.5 19.4 15.6 19.4 15.8 L19.4 16.5 A0.5 0.5 0 0 1 19.1 17 L18.2 17.4 L18.2 17.6 A6.4 6.4 0 0 0 18.6 18.6 A0.7 0.7 0 0 1 18.5 19.1 L17.9 19.6 C17.8 19.8 17.6 19.8 17.4 19.7 L16.5 19.4 L16.2 19.4 A4.1 4.1 0 0 1 15.8 20.3 C15.7 20.4 15.6 20.5 15.4 20.5 z M15 19.5 L15.1 19.5 C15.1 19.3 15.2 19.2 15.3 18.9 L15.3 18.9 L15.5 18.6 L15.7 18.6 L16.3 18.4 L16.8 18.4 L17.5 18.7 L17.5 18.7 L17.3 18.1 L17.2 18.1 C17.1 18.1 17.1 17.9 17.1 17.8 L17.2 17.8 L17.2 17.6 L17.4 17.1 L17.7 16.8 L17.8 16.8 L18.5 16.5 L18.5 16.5 L17.9 16.3 L17.7 16.3 L17.4 16 L17.2 15.3 A0.3 0.3 0 0 1 17.2 14.9 L17.2 14.9 L17.5 14.2 L17.2 14.2 L16.7 14.4 L16.1 14.4 L15.6 14.2 L15.3 13.9 L15.3 13.9 L15 13.2 L14.9 13.2 A1.4 1.4 0 0 1 14.7 13.8 L14.7 13.8 L14.5 14.1 L14.2 14.1 L13.7 14.3 L13.2 14.3 L12.5 14 L12.5 14 L12.7 14.6 L12.8 14.6 C12.9 14.6 12.9 14.8 12.9 14.9 L12.8 14.9 L12.8 15.1 L12.6 15.6 L12.3 15.9 L12.2 15.9 L11.5 16.2 L11.5 16.2 L12.1 16.4 L12.2 16.4 L12.5 16.6 L12.5 16.8 L12.7 17.4 A0.3 0.3 0 0 1 12.7 17.8 L12.7 17.8 L12.4 18.5 L12.5 18.5 L13 18.2 L13.8 18.2 L14.3 18.40001 L14.6 18.7 L14.6 18.7 z" style="fill:#03689A;" />
            <path d="M15 15.5 A0.5 0.5 0 1 1 14.5 16 A0.5 0.5 0 0 1 15 15.5 M15 14.5 A1.5 1.5 0 1 0 16.5 16 A1.5 1.5 0 0 0 15 14.5 z" style="fill:#03689A;" />
            <path d="M12 11.5 L11.9 11.5 A1.4 1.4 0 0 1 11.7 12.1 L11.7 12.1 L11.5 12.4 L11.2 12.4 L10.7 12.6 L10.2 12.6 L9.5 12.3 L9.5 12.3 L9.7 12.9 L9.8 12.9 C9.900001 12.9 9.900001 13.1 9.900001 13.2 L9.8 13.2 L9.8 13.4 L9.6 13.9 L9.3 14.2 L9.2 14.2 L8.5 14.5 L8.5 14.5 L9.1 14.7 L9.200001 14.7 L9.500001 14.9 L9.500001 15.1 L9.700001 15.7 A0.3 0.3 0 0 1 9.700001 16.1 L9.700001 16.1 L9.400001 16.8 L9.500001 16.8 L10 16.5 L10.5 17.5 L9.600001 17.9 L9.1 17.9 L8.6 17.3 C8.400001 17.2 8.400001 17 8.400001 16.8 L8.8 15.9 L8.8 15.9 L8.8 15.6 L7.9 15.2 C7.7 15.1 7.6 15 7.6 14.8 L7.6 14.1 A0.5 0.5 0 0 1 7.9 13.6 L8.8 13.2 L8.8 13 A6.4 6.4 0 0 0 8.400001 12 A0.7 0.7 0 0 1 8.500001 11.5 L9.100001 11 C9.200002 10.8 9.400002 10.8 9.600001 10.9 L10.5 11.2 L10.8 11.2 A4.1 4.1 0 0 1 11.2 10.3 C11.3 10.1 11.4 10 11.6 10 L12.3 10 A0.5 0.5 0 0 1 12.8 10.3 A4.1 4.1 0 0 1 13.2 11.2" style="fill:#03689A;" />
          </g>
          <g />
        </g>
      </g>
      <svg width="130" height="86" class="djs-svg-text">
        <text font-family="'Segoe UI'" font-size="10.6252px" font-style="normal" font-weight="normal" lineHeight="1.2" textDirection="0" textAlign="center" class="djs-label" style="fill:black;">
          <tspan x="12.54049" y="28.75">9. Buscar informações </tspan>
          <tspan x="7.723122" y="41.75">acerca de requisições de</tspan>
          <tspan x="15.58701" y="54.75">isenções em edições </tspan>
          <tspan x="43.88708" y="67.75">passadas</tspan>
        </text>
      </svg>
    </g>
  </g>
  <g class="djs-group">
    <g transform="matrix(1, 0, 0, 1, 3444, 187.375)" id="gfx-3f5dfdf1-dc66-44b5-aca5-2103b230d8f8" display="block" class="djs-element djs-shape" data-element-id="3f5dfdf1-dc66-44b5-aca5-2103b230d8f8">
      <g class="djs-visual">
        <g>
          <rect x="0" y="0" width="130" height="90" rx="8" stroke-width="2px" class="" style="fill:#ECEFFF;stroke:#03689A;" />
          <g transform="translate(-6, -11) scale(1.6)">
            <path d="M17 16.5 A5.7 5.7 0 0 0 14.4 14.6 L14.2 14.4 C14.2 14.3 14.3 14.3 14.3 14.2 A1.9 1.9 0 0 0 14.8 12.9 A2.3 2.3 0 0 0 12.7 10.6 A2.5 2.5 0 0 0 10.3 12.9 A2.4 2.4 0 0 0 10.5 13.7 L10.7 13.9 C10.8 14.2 11 14.2 11.2 14.4 L11.2 14.6 L10.6 14.6 A5 5 0 0 0 8 16.7 L8 16.7 L8 19.6 L17 19.6 L17 16.6 z M11.6 14.6 L11.9 14.3 L11.6 14.3 A1.6 1.6 0 0 1 10.8 13 A3.7 3.7 0 0 1 12.5 12.4 C12.6 12.4 12.7 12.7 12.8 12.8 L13.3 12.8 A2.4 2.4 0 0 0 14.3 12.5 A2.3 2.3 0 0 1 13.4 14.4 L13.4 14.4 L13.6 14.8 L13.6 14.8 A0.8 0.8 0 0 1 13.4 15.7 A1.5 1.5 0 0 1 12.5 16.1 A1 1 0 0 1 11.7 15.7 C11.3 15.3 11.3 15.1 11.3 14.9 C11.3 14.7 11.4 14.8 11.6 14.6 z M16.5 19.1 L15.4 19.1 L15.4 18 L14.8 18 L14.8 19.1 L10.2 19.1 L10.2 18 L9.7 18 L9.7 19.2 L8.5 19.2 L8.5 16.9 A5.2 5.2 0 0 1 10.8 15.1 L10.9 15.1 C10.9 15.5 10.7 15.8 11.2 16.3 A2.7 2.7 0 0 0 12.5 16.8 A2.2 2.2 0 0 0 13.9 16.2 A1.1 1.1 0 0 0 14.2 15.2 A4.6 4.6 0 0 1 16.5 16.9 z" style="fill:white;" />
            <path d="M12.7 10.6 A2.5 2.5 0 0 0 10.3 12.9 A2.4 2.4 0 0 0 10.5 13.7 L10.7 13.9 C10.8 14.2 11 14.2 11.2 14.4 L11.2 14.6 L10.6 14.6 A5 5 0 0 0 8 16.7 L8 16.7 L8 19.6 L17 19.6 L17 16.6 L17 16.6 A5.7 5.7 0 0 0 14.4 14.7 L14.2 14.5 C14.2 14.4 14.3 14.4 14.3 14.3 A1.9 1.9 0 0 0 14.8 13 A2.3 2.3 0 0 0 12.7 10.7 z M12.5 16.3 A1 1 0 0 1 11.7 15.9 C11.3 15.5 11.3 15.3 11.3 15.1 C11.3 14.9 11.4 14.8 11.6 14.6 L11.9 14.3 L11.6 14.3 A1.6 1.6 0 0 1 10.8 13 A3.7 3.7 0 0 1 12.5 12.4 C12.6 12.4 12.7 12.7 12.8 12.8 L13.3 12.8 A2.4 2.4 0 0 0 14.3 12.5 A2.3 2.3 0 0 1 13.4 14.4 L13.4 14.4 L13.6 14.8 L13.6 14.8 A0.8 0.8 0 0 1 13.4 15.7 A1.5 1.5 0 0 1 12.5 16.1 z M10.8 15.1 L10.9 15.1 C10.9 15.5 10.7 15.8 11.2 16.3 A2.7 2.7 0 0 0 12.5 16.8 A2.2 2.2 0 0 0 13.9 16.2 A1.1 1.1 0 0 0 14.2 15.2 A4.6 4.6 0 0 1 16.5 16.9 L16.5 19.1 L15.4 19.1 L15.4 18 L14.8 18 L14.8 19.1 L10.2 19.1 L10.2 18 L9.7 18 L9.7 19.2 L8.5 19.2 L8.5 16.9 A5.2 5.2 0 0 1 10.8 15.1 z" style="fill:#03689A;" />
          </g>
          <g />
        </g>
      </g>
      <svg width="130" height="86" class="djs-svg-text">
        <text font-family="'Segoe UI'" font-size="10.6252px" font-style="normal" font-weight="normal" lineHeight="1.2" textDirection="0" textAlign="center" class="djs-label" style="fill:black;">
          <tspan x="16.70448" y="48.25">18. Enviar solicitação</tspan>
        </text>
      </svg>
    </g>
  </g>
  <g class="djs-group">
    <g transform="matrix(1, 0, 0, 1, 3251.4, 187.375)" id="gfx-5857bf57-3f57-43af-b482-f59eab0ed2c4" display="block" class="djs-element djs-shape" data-element-id="5857bf57-3f57-43af-b482-f59eab0ed2c4">
      <g class="djs-visual">
        <g>
          <rect x="0" y="0" width="130" height="90" rx="8" stroke-width="2px" class="" style="fill:#ECEFFF;stroke:#03689A;" />
          <g transform="translate(-6, -11) scale(1.6)">
            <path d="M17 16.5 A5.7 5.7 0 0 0 14.4 14.6 L14.2 14.4 C14.2 14.3 14.3 14.3 14.3 14.2 A1.9 1.9 0 0 0 14.8 12.9 A2.3 2.3 0 0 0 12.7 10.6 A2.5 2.5 0 0 0 10.3 12.9 A2.4 2.4 0 0 0 10.5 13.7 L10.7 13.9 C10.8 14.2 11 14.2 11.2 14.4 L11.2 14.6 L10.6 14.6 A5 5 0 0 0 8 16.7 L8 16.7 L8 19.6 L17 19.6 L17 16.6 z M11.6 14.6 L11.9 14.3 L11.6 14.3 A1.6 1.6 0 0 1 10.8 13 A3.7 3.7 0 0 1 12.5 12.4 C12.6 12.4 12.7 12.7 12.8 12.8 L13.3 12.8 A2.4 2.4 0 0 0 14.3 12.5 A2.3 2.3 0 0 1 13.4 14.4 L13.4 14.4 L13.6 14.8 L13.6 14.8 A0.8 0.8 0 0 1 13.4 15.7 A1.5 1.5 0 0 1 12.5 16.1 A1 1 0 0 1 11.7 15.7 C11.3 15.3 11.3 15.1 11.3 14.9 C11.3 14.7 11.4 14.8 11.6 14.6 z M16.5 19.1 L15.4 19.1 L15.4 18 L14.8 18 L14.8 19.1 L10.2 19.1 L10.2 18 L9.7 18 L9.7 19.2 L8.5 19.2 L8.5 16.9 A5.2 5.2 0 0 1 10.8 15.1 L10.9 15.1 C10.9 15.5 10.7 15.8 11.2 16.3 A2.7 2.7 0 0 0 12.5 16.8 A2.2 2.2 0 0 0 13.9 16.2 A1.1 1.1 0 0 0 14.2 15.2 A4.6 4.6 0 0 1 16.5 16.9 z" style="fill:white;" />
            <path d="M12.7 10.6 A2.5 2.5 0 0 0 10.3 12.9 A2.4 2.4 0 0 0 10.5 13.7 L10.7 13.9 C10.8 14.2 11 14.2 11.2 14.4 L11.2 14.6 L10.6 14.6 A5 5 0 0 0 8 16.7 L8 16.7 L8 19.6 L17 19.6 L17 16.6 L17 16.6 A5.7 5.7 0 0 0 14.4 14.7 L14.2 14.5 C14.2 14.4 14.3 14.4 14.3 14.3 A1.9 1.9 0 0 0 14.8 13 A2.3 2.3 0 0 0 12.7 10.7 z M12.5 16.3 A1 1 0 0 1 11.7 15.9 C11.3 15.5 11.3 15.3 11.3 15.1 C11.3 14.9 11.4 14.8 11.6 14.6 L11.9 14.3 L11.6 14.3 A1.6 1.6 0 0 1 10.8 13 A3.7 3.7 0 0 1 12.5 12.4 C12.6 12.4 12.7 12.7 12.8 12.8 L13.3 12.8 A2.4 2.4 0 0 0 14.3 12.5 A2.3 2.3 0 0 1 13.4 14.4 L13.4 14.4 L13.6 14.8 L13.6 14.8 A0.8 0.8 0 0 1 13.4 15.7 A1.5 1.5 0 0 1 12.5 16.1 z M10.8 15.1 L10.9 15.1 C10.9 15.5 10.7 15.8 11.2 16.3 A2.7 2.7 0 0 0 12.5 16.8 A2.2 2.2 0 0 0 13.9 16.2 A1.1 1.1 0 0 0 14.2 15.2 A4.6 4.6 0 0 1 16.5 16.9 L16.5 19.1 L15.4 19.1 L15.4 18 L14.8 18 L14.8 19.1 L10.2 19.1 L10.2 18 L9.7 18 L9.7 19.2 L8.5 19.2 L8.5 16.9 A5.2 5.2 0 0 1 10.8 15.1 z" style="fill:#03689A;" />
          </g>
          <g />
        </g>
      </g>
      <svg width="130" height="86" class="djs-svg-text">
        <text font-family="'Segoe UI'" font-size="10.6252px" font-style="normal" font-weight="normal" lineHeight="1.2" textDirection="0" textAlign="center" class="djs-label" style="fill:black;">
          <tspan x="6.144127" y="48.25">17. Criar senha de acesso</tspan>
        </text>
      </svg>
    </g>
  </g>
  <g class="djs-group">
    <g transform="matrix(1, 0, 0, 1, 281, 187.375)" id="gfx-dc3eb906-3560-42c4-be95-41a9d6b424d1" display="block" class="djs-element djs-shape" data-element-id="dc3eb906-3560-42c4-be95-41a9d6b424d1">
      <g class="djs-visual">
        <g>
          <rect x="0" y="0" width="130" height="90" rx="8" stroke-width="2px" class="" style="fill:#ECEFFF;stroke:#03689A;" />
          <g transform="translate(-6, -11) scale(1.6)">
            <path d="M15.4 20.5 L14.7 20.5 A0.5 0.5 0 0 1 14.2 20.2 L13.8 19.3 L13.6 19.3 L12.7 19.7 L12.1 19.7 L11.6 19.1 C11.4 19 11.4 18.8 11.4 18.6 L11.8 17.7 L11.8 17.7 L11.8 17.4 L10.9 17 C10.7 16.9 10.6 16.8 10.6 16.6 L10.6 15.9 A0.5 0.5 0 0 1 10.9 15.4 L11.8 15 L11.8 14.8 A6.4 6.4 0 0 0 11.4 13.8 A0.7 0.7 0 0 1 11.5 13.3 L12.1 12.8 C12.2 12.6 12.4 12.6 12.6 12.7 L13.5 13 L13.8 13 A4.1 4.1 0 0 1 14.2 12.1 C14.3 11.9 14.4 11.8 14.6 11.8 L15.3 11.8 A0.5 0.5 0 0 1 15.8 12.1 A4.1 4.1 0 0 1 16.2 13 L16.8 13 L17.6 12.7 L17.9 12.7 L18.4 13.3 C18.6 13.4 18.6 13.6 18.6 13.8 L18.2 14.7 L18.2 14.7 L18.2 15 L19.1 15.4 C19.3 15.5 19.4 15.6 19.4 15.8 L19.4 16.5 A0.5 0.5 0 0 1 19.1 17 L18.2 17.4 L18.2 17.6 A6.4 6.4 0 0 0 18.6 18.6 A0.7 0.7 0 0 1 18.5 19.1 L17.9 19.6 C17.8 19.8 17.6 19.8 17.4 19.7 L16.5 19.4 L16.2 19.4 A4.1 4.1 0 0 1 15.8 20.3 C15.7 20.4 15.6 20.5 15.4 20.5 z M15 19.5 L15.1 19.5 C15.1 19.3 15.2 19.2 15.3 18.9 L15.3 18.9 L15.5 18.6 L15.7 18.6 L16.3 18.4 L16.8 18.4 L17.5 18.7 L17.5 18.7 L17.3 18.1 L17.2 18.1 C17.1 18.1 17.1 17.9 17.1 17.8 L17.2 17.8 L17.2 17.6 L17.4 17.1 L17.7 16.8 L17.8 16.8 L18.5 16.5 L18.5 16.5 L17.9 16.3 L17.7 16.3 L17.4 16 L17.2 15.3 A0.3 0.3 0 0 1 17.2 14.9 L17.2 14.9 L17.5 14.2 L17.2 14.2 L16.7 14.4 L16.1 14.4 L15.6 14.2 L15.3 13.9 L15.3 13.9 L15 13.2 L14.9 13.2 A1.4 1.4 0 0 1 14.7 13.8 L14.7 13.8 L14.5 14.1 L14.2 14.1 L13.7 14.3 L13.2 14.3 L12.5 14 L12.5 14 L12.7 14.6 L12.8 14.6 C12.9 14.6 12.9 14.8 12.9 14.9 L12.8 14.9 L12.8 15.1 L12.6 15.6 L12.3 15.9 L12.2 15.9 L11.5 16.2 L11.5 16.2 L12.1 16.4 L12.2 16.4 L12.5 16.6 L12.5 16.8 L12.7 17.4 A0.3 0.3 0 0 1 12.7 17.8 L12.7 17.8 L12.4 18.5 L12.5 18.5 L13 18.2 L13.8 18.2 L14.3 18.40001 L14.6 18.7 L14.6 18.7 z" style="fill:#03689A;" />
            <path d="M15 15.5 A0.5 0.5 0 1 1 14.5 16 A0.5 0.5 0 0 1 15 15.5 M15 14.5 A1.5 1.5 0 1 0 16.5 16 A1.5 1.5 0 0 0 15 14.5 z" style="fill:#03689A;" />
            <path d="M12 11.5 L11.9 11.5 A1.4 1.4 0 0 1 11.7 12.1 L11.7 12.1 L11.5 12.4 L11.2 12.4 L10.7 12.6 L10.2 12.6 L9.5 12.3 L9.5 12.3 L9.7 12.9 L9.8 12.9 C9.900001 12.9 9.900001 13.1 9.900001 13.2 L9.8 13.2 L9.8 13.4 L9.6 13.9 L9.3 14.2 L9.2 14.2 L8.5 14.5 L8.5 14.5 L9.1 14.7 L9.200001 14.7 L9.500001 14.9 L9.500001 15.1 L9.700001 15.7 A0.3 0.3 0 0 1 9.700001 16.1 L9.700001 16.1 L9.400001 16.8 L9.500001 16.8 L10 16.5 L10.5 17.5 L9.600001 17.9 L9.1 17.9 L8.6 17.3 C8.400001 17.2 8.400001 17 8.400001 16.8 L8.8 15.9 L8.8 15.9 L8.8 15.6 L7.9 15.2 C7.7 15.1 7.6 15 7.6 14.8 L7.6 14.1 A0.5 0.5 0 0 1 7.9 13.6 L8.8 13.2 L8.8 13 A6.4 6.4 0 0 0 8.400001 12 A0.7 0.7 0 0 1 8.500001 11.5 L9.100001 11 C9.200002 10.8 9.400002 10.8 9.600001 10.9 L10.5 11.2 L10.8 11.2 A4.1 4.1 0 0 1 11.2 10.3 C11.3 10.1 11.4 10 11.6 10 L12.3 10 A0.5 0.5 0 0 1 12.8 10.3 A4.1 4.1 0 0 1 13.2 11.2" style="fill:#03689A;" />
          </g>
          <g />
        </g>
      </g>
      <svg width="130" height="86" class="djs-svg-text">
        <text font-family="'Segoe UI'" font-size="10.6252px" font-style="normal" font-weight="normal" lineHeight="1.2" textDirection="0" textAlign="center" class="djs-label" style="fill:black;">
          <tspan x="26.4455" y="35.25">3. Validar dados </tspan>
          <tspan x="11.32966" y="48.25">pessoais do candidato </tspan>
          <tspan x="10.75925" y="61.25">com as bases de dados</tspan>
        </text>
      </svg>
    </g>
  </g>
  <g class="djs-group">
    <g transform="matrix(1, 0, 0, 1, 92.3, 187.375)" id="gfx-99c9424f-896a-4009-8885-f2ba83e6ce14" display="block" class="djs-element djs-shape" data-element-id="99c9424f-896a-4009-8885-f2ba83e6ce14">
      <g class="djs-visual">
        <g>
          <rect x="0" y="0" width="130" height="90" rx="8" stroke-width="2px" class="" style="fill:#ECEFFF;stroke:#03689A;" />
          <g transform="translate(-6, -11) scale(1.6)">
            <path d="M17 16.5 A5.7 5.7 0 0 0 14.4 14.6 L14.2 14.4 C14.2 14.3 14.3 14.3 14.3 14.2 A1.9 1.9 0 0 0 14.8 12.9 A2.3 2.3 0 0 0 12.7 10.6 A2.5 2.5 0 0 0 10.3 12.9 A2.4 2.4 0 0 0 10.5 13.7 L10.7 13.9 C10.8 14.2 11 14.2 11.2 14.4 L11.2 14.6 L10.6 14.6 A5 5 0 0 0 8 16.7 L8 16.7 L8 19.6 L17 19.6 L17 16.6 z M11.6 14.6 L11.9 14.3 L11.6 14.3 A1.6 1.6 0 0 1 10.8 13 A3.7 3.7 0 0 1 12.5 12.4 C12.6 12.4 12.7 12.7 12.8 12.8 L13.3 12.8 A2.4 2.4 0 0 0 14.3 12.5 A2.3 2.3 0 0 1 13.4 14.4 L13.4 14.4 L13.6 14.8 L13.6 14.8 A0.8 0.8 0 0 1 13.4 15.7 A1.5 1.5 0 0 1 12.5 16.1 A1 1 0 0 1 11.7 15.7 C11.3 15.3 11.3 15.1 11.3 14.9 C11.3 14.7 11.4 14.8 11.6 14.6 z M16.5 19.1 L15.4 19.1 L15.4 18 L14.8 18 L14.8 19.1 L10.2 19.1 L10.2 18 L9.7 18 L9.7 19.2 L8.5 19.2 L8.5 16.9 A5.2 5.2 0 0 1 10.8 15.1 L10.9 15.1 C10.9 15.5 10.7 15.8 11.2 16.3 A2.7 2.7 0 0 0 12.5 16.8 A2.2 2.2 0 0 0 13.9 16.2 A1.1 1.1 0 0 0 14.2 15.2 A4.6 4.6 0 0 1 16.5 16.9 z" style="fill:white;" />
            <path d="M12.7 10.6 A2.5 2.5 0 0 0 10.3 12.9 A2.4 2.4 0 0 0 10.5 13.7 L10.7 13.9 C10.8 14.2 11 14.2 11.2 14.4 L11.2 14.6 L10.6 14.6 A5 5 0 0 0 8 16.7 L8 16.7 L8 19.6 L17 19.6 L17 16.6 L17 16.6 A5.7 5.7 0 0 0 14.4 14.7 L14.2 14.5 C14.2 14.4 14.3 14.4 14.3 14.3 A1.9 1.9 0 0 0 14.8 13 A2.3 2.3 0 0 0 12.7 10.7 z M12.5 16.3 A1 1 0 0 1 11.7 15.9 C11.3 15.5 11.3 15.3 11.3 15.1 C11.3 14.9 11.4 14.8 11.6 14.6 L11.9 14.3 L11.6 14.3 A1.6 1.6 0 0 1 10.8 13 A3.7 3.7 0 0 1 12.5 12.4 C12.6 12.4 12.7 12.7 12.8 12.8 L13.3 12.8 A2.4 2.4 0 0 0 14.3 12.5 A2.3 2.3 0 0 1 13.4 14.4 L13.4 14.4 L13.6 14.8 L13.6 14.8 A0.8 0.8 0 0 1 13.4 15.7 A1.5 1.5 0 0 1 12.5 16.1 z M10.8 15.1 L10.9 15.1 C10.9 15.5 10.7 15.8 11.2 16.3 A2.7 2.7 0 0 0 12.5 16.8 A2.2 2.2 0 0 0 13.9 16.2 A1.1 1.1 0 0 0 14.2 15.2 A4.6 4.6 0 0 1 16.5 16.9 L16.5 19.1 L15.4 19.1 L15.4 18 L14.8 18 L14.8 19.1 L10.2 19.1 L10.2 18 L9.7 18 L9.7 19.2 L8.5 19.2 L8.5 16.9 A5.2 5.2 0 0 1 10.8 15.1 z" style="fill:#03689A;" />
          </g>
          <g />
        </g>
      </g>
      <svg width="130" height="86" class="djs-svg-text">
        <text font-family="'Segoe UI'" font-size="10.6252px" font-style="normal" font-weight="normal" lineHeight="1.2" textDirection="0" textAlign="center" class="djs-label" style="fill:black;">
          <tspan x="6.014488" y="41.75">2. Acessar página com os</tspan>
          <tspan x="29.46868" y="54.75">dados pessoais</tspan>
        </text>
      </svg>
    </g>
  </g>
  <g class="djs-group">
    <g transform="matrix(1, 0, 0, 1, 771.5, 187.375)" id="gfx-83ec09bd-c431-4150-9e73-97ef896da7c4" display="block" class="djs-element djs-shape" data-element-id="83ec09bd-c431-4150-9e73-97ef896da7c4">
      <g class="djs-visual">
        <g>
          <rect x="0" y="0" width="130" height="90" rx="8" stroke-width="2px" class="" style="fill:#ECEFFF;stroke:#03689A;" />
          <g transform="translate(-6, -11) scale(1.6)">
            <path d="M17 16.5 A5.7 5.7 0 0 0 14.4 14.6 L14.2 14.4 C14.2 14.3 14.3 14.3 14.3 14.2 A1.9 1.9 0 0 0 14.8 12.9 A2.3 2.3 0 0 0 12.7 10.6 A2.5 2.5 0 0 0 10.3 12.9 A2.4 2.4 0 0 0 10.5 13.7 L10.7 13.9 C10.8 14.2 11 14.2 11.2 14.4 L11.2 14.6 L10.6 14.6 A5 5 0 0 0 8 16.7 L8 16.7 L8 19.6 L17 19.6 L17 16.6 z M11.6 14.6 L11.9 14.3 L11.6 14.3 A1.6 1.6 0 0 1 10.8 13 A3.7 3.7 0 0 1 12.5 12.4 C12.6 12.4 12.7 12.7 12.8 12.8 L13.3 12.8 A2.4 2.4 0 0 0 14.3 12.5 A2.3 2.3 0 0 1 13.4 14.4 L13.4 14.4 L13.6 14.8 L13.6 14.8 A0.8 0.8 0 0 1 13.4 15.7 A1.5 1.5 0 0 1 12.5 16.1 A1 1 0 0 1 11.7 15.7 C11.3 15.3 11.3 15.1 11.3 14.9 C11.3 14.7 11.4 14.8 11.6 14.6 z M16.5 19.1 L15.4 19.1 L15.4 18 L14.8 18 L14.8 19.1 L10.2 19.1 L10.2 18 L9.7 18 L9.7 19.2 L8.5 19.2 L8.5 16.9 A5.2 5.2 0 0 1 10.8 15.1 L10.9 15.1 C10.9 15.5 10.7 15.8 11.2 16.3 A2.7 2.7 0 0 0 12.5 16.8 A2.2 2.2 0 0 0 13.9 16.2 A1.1 1.1 0 0 0 14.2 15.2 A4.6 4.6 0 0 1 16.5 16.9 z" style="fill:white;" />
            <path d="M12.7 10.6 A2.5 2.5 0 0 0 10.3 12.9 A2.4 2.4 0 0 0 10.5 13.7 L10.7 13.9 C10.8 14.2 11 14.2 11.2 14.4 L11.2 14.6 L10.6 14.6 A5 5 0 0 0 8 16.7 L8 16.7 L8 19.6 L17 19.6 L17 16.6 L17 16.6 A5.7 5.7 0 0 0 14.4 14.7 L14.2 14.5 C14.2 14.4 14.3 14.4 14.3 14.3 A1.9 1.9 0 0 0 14.8 13 A2.3 2.3 0 0 0 12.7 10.7 z M12.5 16.3 A1 1 0 0 1 11.7 15.9 C11.3 15.5 11.3 15.3 11.3 15.1 C11.3 14.9 11.4 14.8 11.6 14.6 L11.9 14.3 L11.6 14.3 A1.6 1.6 0 0 1 10.8 13 A3.7 3.7 0 0 1 12.5 12.4 C12.6 12.4 12.7 12.7 12.8 12.8 L13.3 12.8 A2.4 2.4 0 0 0 14.3 12.5 A2.3 2.3 0 0 1 13.4 14.4 L13.4 14.4 L13.6 14.8 L13.6 14.8 A0.8 0.8 0 0 1 13.4 15.7 A1.5 1.5 0 0 1 12.5 16.1 z M10.8 15.1 L10.9 15.1 C10.9 15.5 10.7 15.8 11.2 16.3 A2.7 2.7 0 0 0 12.5 16.8 A2.2 2.2 0 0 0 13.9 16.2 A1.1 1.1 0 0 0 14.2 15.2 A4.6 4.6 0 0 1 16.5 16.9 L16.5 19.1 L15.4 19.1 L15.4 18 L14.8 18 L14.8 19.1 L10.2 19.1 L10.2 18 L9.7 18 L9.7 19.2 L8.5 19.2 L8.5 16.9 A5.2 5.2 0 0 1 10.8 15.1 z" style="fill:#03689A;" />
          </g>
          <g />
        </g>
      </g>
      <svg width="130" height="86" class="djs-svg-text">
        <text font-family="'Segoe UI'" font-size="10.6252px" font-style="normal" font-weight="normal" lineHeight="1.2" textDirection="0" textAlign="center" class="djs-label" style="fill:black;">
          <tspan x="5.700768" y="35.25">5. Declarar entendimento</tspan>
          <tspan x="16.14703" y="48.25">sobre os critérios de </tspan>
          <tspan x="47.41325" y="61.25">isenção</tspan>
        </text>
      </svg>
    </g>
  </g>
  <g class="djs-group">
    <g transform="matrix(1, 0, 0, 1, 475, 187.375)" id="gfx-0420a248-a493-4f52-ab9c-8a724ba3ed1d" display="block" class="djs-element djs-shape" data-element-id="0420a248-a493-4f52-ab9c-8a724ba3ed1d">
      <g class="djs-visual">
        <g>
          <rect x="0" y="0" width="130" height="90" rx="8" stroke-width="2px" class="" style="fill:#ECEFFF;stroke:#03689A;" />
          <g transform="translate(-6, -11) scale(1.6)">
            <path d="M17 16.5 A5.7 5.7 0 0 0 14.4 14.6 L14.2 14.4 C14.2 14.3 14.3 14.3 14.3 14.2 A1.9 1.9 0 0 0 14.8 12.9 A2.3 2.3 0 0 0 12.7 10.6 A2.5 2.5 0 0 0 10.3 12.9 A2.4 2.4 0 0 0 10.5 13.7 L10.7 13.9 C10.8 14.2 11 14.2 11.2 14.4 L11.2 14.6 L10.6 14.6 A5 5 0 0 0 8 16.7 L8 16.7 L8 19.6 L17 19.6 L17 16.6 z M11.6 14.6 L11.9 14.3 L11.6 14.3 A1.6 1.6 0 0 1 10.8 13 A3.7 3.7 0 0 1 12.5 12.4 C12.6 12.4 12.7 12.7 12.8 12.8 L13.3 12.8 A2.4 2.4 0 0 0 14.3 12.5 A2.3 2.3 0 0 1 13.4 14.4 L13.4 14.4 L13.6 14.8 L13.6 14.8 A0.8 0.8 0 0 1 13.4 15.7 A1.5 1.5 0 0 1 12.5 16.1 A1 1 0 0 1 11.7 15.7 C11.3 15.3 11.3 15.1 11.3 14.9 C11.3 14.7 11.4 14.8 11.6 14.6 z M16.5 19.1 L15.4 19.1 L15.4 18 L14.8 18 L14.8 19.1 L10.2 19.1 L10.2 18 L9.7 18 L9.7 19.2 L8.5 19.2 L8.5 16.9 A5.2 5.2 0 0 1 10.8 15.1 L10.9 15.1 C10.9 15.5 10.7 15.8 11.2 16.3 A2.7 2.7 0 0 0 12.5 16.8 A2.2 2.2 0 0 0 13.9 16.2 A1.1 1.1 0 0 0 14.2 15.2 A4.6 4.6 0 0 1 16.5 16.9 z" style="fill:white;" />
            <path d="M12.7 10.6 A2.5 2.5 0 0 0 10.3 12.9 A2.4 2.4 0 0 0 10.5 13.7 L10.7 13.9 C10.8 14.2 11 14.2 11.2 14.4 L11.2 14.6 L10.6 14.6 A5 5 0 0 0 8 16.7 L8 16.7 L8 19.6 L17 19.6 L17 16.6 L17 16.6 A5.7 5.7 0 0 0 14.4 14.7 L14.2 14.5 C14.2 14.4 14.3 14.4 14.3 14.3 A1.9 1.9 0 0 0 14.8 13 A2.3 2.3 0 0 0 12.7 10.7 z M12.5 16.3 A1 1 0 0 1 11.7 15.9 C11.3 15.5 11.3 15.3 11.3 15.1 C11.3 14.9 11.4 14.8 11.6 14.6 L11.9 14.3 L11.6 14.3 A1.6 1.6 0 0 1 10.8 13 A3.7 3.7 0 0 1 12.5 12.4 C12.6 12.4 12.7 12.7 12.8 12.8 L13.3 12.8 A2.4 2.4 0 0 0 14.3 12.5 A2.3 2.3 0 0 1 13.4 14.4 L13.4 14.4 L13.6 14.8 L13.6 14.8 A0.8 0.8 0 0 1 13.4 15.7 A1.5 1.5 0 0 1 12.5 16.1 z M10.8 15.1 L10.9 15.1 C10.9 15.5 10.7 15.8 11.2 16.3 A2.7 2.7 0 0 0 12.5 16.8 A2.2 2.2 0 0 0 13.9 16.2 A1.1 1.1 0 0 0 14.2 15.2 A4.6 4.6 0 0 1 16.5 16.9 L16.5 19.1 L15.4 19.1 L15.4 18 L14.8 18 L14.8 19.1 L10.2 19.1 L10.2 18 L9.7 18 L9.7 19.2 L8.5 19.2 L8.5 16.9 A5.2 5.2 0 0 1 10.8 15.1 z" style="fill:#03689A;" />
          </g>
          <g />
        </g>
      </g>
      <svg width="130" height="86" class="djs-svg-text">
        <text font-family="'Segoe UI'" font-size="10.6252px" font-style="normal" font-weight="normal" lineHeight="1.2" textDirection="0" textAlign="center" class="djs-label" style="fill:black;">
          <tspan x="39.259" y="41.75">4. Verificar </tspan>
          <tspan x="6.450073" y="54.75">compatibilidade de perfil</tspan>
        </text>
      </svg>
    </g>
  </g>
  <g class="djs-group">
    <g transform="matrix(1, 0, 0, 1, 963, 187.375)" id="gfx-f8adf22c-3c79-4568-b3a5-4e982ff6ffc3" display="block" class="djs-element djs-shape" data-element-id="f8adf22c-3c79-4568-b3a5-4e982ff6ffc3">
      <g class="djs-visual">
        <g>
          <rect x="0" y="0" width="130" height="90" rx="8" stroke-width="2px" class="" style="fill:#ECEFFF;stroke:#03689A;" />
          <g transform="translate(-6, -11) scale(1.6)">
            <path d="M17 16.5 A5.7 5.7 0 0 0 14.4 14.6 L14.2 14.4 C14.2 14.3 14.3 14.3 14.3 14.2 A1.9 1.9 0 0 0 14.8 12.9 A2.3 2.3 0 0 0 12.7 10.6 A2.5 2.5 0 0 0 10.3 12.9 A2.4 2.4 0 0 0 10.5 13.7 L10.7 13.9 C10.8 14.2 11 14.2 11.2 14.4 L11.2 14.6 L10.6 14.6 A5 5 0 0 0 8 16.7 L8 16.7 L8 19.6 L17 19.6 L17 16.6 z M11.6 14.6 L11.9 14.3 L11.6 14.3 A1.6 1.6 0 0 1 10.8 13 A3.7 3.7 0 0 1 12.5 12.4 C12.6 12.4 12.7 12.7 12.8 12.8 L13.3 12.8 A2.4 2.4 0 0 0 14.3 12.5 A2.3 2.3 0 0 1 13.4 14.4 L13.4 14.4 L13.6 14.8 L13.6 14.8 A0.8 0.8 0 0 1 13.4 15.7 A1.5 1.5 0 0 1 12.5 16.1 A1 1 0 0 1 11.7 15.7 C11.3 15.3 11.3 15.1 11.3 14.9 C11.3 14.7 11.4 14.8 11.6 14.6 z M16.5 19.1 L15.4 19.1 L15.4 18 L14.8 18 L14.8 19.1 L10.2 19.1 L10.2 18 L9.7 18 L9.7 19.2 L8.5 19.2 L8.5 16.9 A5.2 5.2 0 0 1 10.8 15.1 L10.9 15.1 C10.9 15.5 10.7 15.8 11.2 16.3 A2.7 2.7 0 0 0 12.5 16.8 A2.2 2.2 0 0 0 13.9 16.2 A1.1 1.1 0 0 0 14.2 15.2 A4.6 4.6 0 0 1 16.5 16.9 z" style="fill:white;" />
            <path d="M12.7 10.6 A2.5 2.5 0 0 0 10.3 12.9 A2.4 2.4 0 0 0 10.5 13.7 L10.7 13.9 C10.8 14.2 11 14.2 11.2 14.4 L11.2 14.6 L10.6 14.6 A5 5 0 0 0 8 16.7 L8 16.7 L8 19.6 L17 19.6 L17 16.6 L17 16.6 A5.7 5.7 0 0 0 14.4 14.7 L14.2 14.5 C14.2 14.4 14.3 14.4 14.3 14.3 A1.9 1.9 0 0 0 14.8 13 A2.3 2.3 0 0 0 12.7 10.7 z M12.5 16.3 A1 1 0 0 1 11.7 15.9 C11.3 15.5 11.3 15.3 11.3 15.1 C11.3 14.9 11.4 14.8 11.6 14.6 L11.9 14.3 L11.6 14.3 A1.6 1.6 0 0 1 10.8 13 A3.7 3.7 0 0 1 12.5 12.4 C12.6 12.4 12.7 12.7 12.8 12.8 L13.3 12.8 A2.4 2.4 0 0 0 14.3 12.5 A2.3 2.3 0 0 1 13.4 14.4 L13.4 14.4 L13.6 14.8 L13.6 14.8 A0.8 0.8 0 0 1 13.4 15.7 A1.5 1.5 0 0 1 12.5 16.1 z M10.8 15.1 L10.9 15.1 C10.9 15.5 10.7 15.8 11.2 16.3 A2.7 2.7 0 0 0 12.5 16.8 A2.2 2.2 0 0 0 13.9 16.2 A1.1 1.1 0 0 0 14.2 15.2 A4.6 4.6 0 0 1 16.5 16.9 L16.5 19.1 L15.4 19.1 L15.4 18 L14.8 18 L14.8 19.1 L10.2 19.1 L10.2 18 L9.7 18 L9.7 19.2 L8.5 19.2 L8.5 16.9 A5.2 5.2 0 0 1 10.8 15.1 z" style="fill:#03689A;" />
          </g>
          <g />
        </g>
      </g>
      <svg width="130" height="86" class="djs-svg-text">
        <text font-family="'Segoe UI'" font-size="10.6252px" font-style="normal" font-weight="normal" lineHeight="1.2" textDirection="0" textAlign="center" class="djs-label" style="fill:black;">
          <tspan x="23.48196" y="41.75">6. Conferir dados </tspan>
          <tspan x="45.2431" y="54.75">pessoais</tspan>
        </text>
      </svg>
    </g>
  </g>
  <g class="djs-group">
    <g transform="matrix(1, 0, 0, 1, 0, 217.375)" id="gfx-137a477f-b48d-4cfb-8d97-4eba508769a1" display="block" class="djs-element djs-shape" data-element-id="137a477f-b48d-4cfb-8d97-4eba508769a1">
      <g class="djs-visual">
        <g>
          <g transform="translate(-8.90625, -8.90625) scale(1.5)">
            <path d="M16 25.2 C10.9 25.2 6.8 21.1 6.8 16 C6.8 10.9 10.9 6.8 16 6.8 C21.1 6.8 25.2 10.9 25.2 16 C25.2 21.1 21.1 25.2 16 25.2 L16 25.2 z" style="fill:#E6FF97;" />
            <path d="M15.9 7 C20.9 7 24.9 11 24.9 16 C24.9 21 20.9 25 15.9 25 C10.9 25 6.9 21 6.9 16 C6.9 11 10.9 7 15.9 7 M15.9 6 C10.4 6 5.9 10.5 5.9 16 C5.9 21.5 10.4 26 15.9 26 C21.4 26 25.9 21.5 25.9 16 C25.9 10.5 21.4 6 15.9 6 z" stroke-width="0.2px" class="" style="fill:#62A716;stroke:#62A716;" />
          </g>
        </g>
      </g>
    </g>
  </g>
  <g class="djs-group">
    <g transform="matrix(1, 0, 0, 1, 3626, 217.375)" id="gfx-3804fb66-3a11-4403-bf25-1a2bce2bc8e7" display="block" class="djs-element djs-shape" data-element-id="3804fb66-3a11-4403-bf25-1a2bce2bc8e7">
      <g class="djs-visual">
        <g>
          <g transform="translate(-8.90625, -8.90625) scale(1.5)">
            <path d="M16 25.2 A9.2 9.2 0 1 1 25.2 16 A9.2 9.2 0 0 1 16 25.2 z" style="fill:#EEAAAA;" />
            <path d="M16 7.5 A8.5 8.5 0 1 1 7.5 16 A8.5 8.5 0 0 1 16 7.5 M16 6 A10 10 0 1 0 26 16 A10 10 0 0 0 16 6 z" stroke-width="0.4px" class="" style="fill:#990000;stroke:#990000;" />
          </g>
        </g>
      </g>
    </g>
  </g>
  <g class="djs-group">
    <g transform="matrix(1, 0, 0, 1, 3596, 255.375)" id="gfx-cb59e9df-cbba-46d4-b7f0-04818b31fb14" display="block" class="djs-element djs-shape" data-element-id="cb59e9df-cbba-46d4-b7f0-04818b31fb14">
      <g class="djs-visual">
        <rect x="0" y="0" width="90" height="36" fill-opacity="0" stroke-opacity="0" style="fill:#FFFFFF;stroke:transparent;" />
        <svg width="90" height="31" class="djs-svg-text">
          <text font-family="'Segoe UI'" font-size="10.6252px" font-style="normal" font-weight="normal" lineHeight="1.2" textDirection="0" textAlign="center" class="djs-label" style="fill:black;">
            <tspan x="13.60155" y="14.75">Acompanhar </tspan>
            <tspan x="20.55797" y="27.75">solicitação</tspan>
          </text>
        </svg>
      </g>
    </g>
  </g>
  <g class="djs-group">
    <g transform="matrix(1, 0, 0, 1, 674.6, 105.5)" id="gfx-e0d440c0-cb02-4991-b05e-8469bb08cf90" display="block" class="djs-element djs-shape" data-element-id="e0d440c0-cb02-4991-b05e-8469bb08cf90">
      <g class="djs-visual">
        <g>
          <g transform="translate(-8.90625, -8.90625) scale(1.5)">
            <path d="M16 25.2 A9.2 9.2 0 1 1 25.2 16 A9.2 9.2 0 0 1 16 25.2 z" style="fill:#EEAAAA;" />
            <path d="M16 7.5 A8.5 8.5 0 1 1 7.5 16 A8.5 8.5 0 0 1 16 7.5 M16 6 A10 10 0 1 0 26 16 A10 10 0 0 0 16 6 z" stroke-width="0.4px" class="" style="fill:#990000;stroke:#990000;" />
          </g>
        </g>
      </g>
    </g>
  </g>
  <g class="djs-group">
    <g transform="matrix(1, 0, 0, 1, 640, 42)" id="gfx-15eb2ea7-0b82-4f81-b0d7-7bb2388ebd48" display="block" class="djs-element djs-shape" data-element-id="15eb2ea7-0b82-4f81-b0d7-7bb2388ebd48">
      <g class="djs-visual">
        <rect x="0" y="0" width="90" height="36" fill-opacity="0" stroke-opacity="0" style="fill:#FFFFFF;stroke:transparent;" />
        <svg width="90" height="31" class="djs-svg-text">
          <text font-family="'Segoe UI'" font-size="10.6252px" font-style="normal" font-weight="normal" lineHeight="1.2" textDirection="0" textAlign="center" class="djs-label" style="fill:black;">
            <tspan x="9.126419" y="14.75">Candidato não </tspan>
            <tspan x="6.401428" y="27.75">se enquadra nos</tspan>
            <tspan x="8.976059" y="40.75">requisitos para </tspan>
            <tspan x="27.41325" y="53.75">isenção</tspan>
          </text>
        </svg>
      </g>
    </g>
  </g>
  <g class="djs-group">
    <g transform="matrix(1, 0, 0, 1, 1925.3, 212.375)" id="gfx-0b90c0e7-fbd2-4cf3-856b-3911cbb669b2" display="block" class="djs-element djs-shape" data-element-id="0b90c0e7-fbd2-4cf3-856b-3911cbb669b2">
      <g class="djs-visual">
        <g>
          <path d="M0 20 L20 40 L40 20 L20 0 z" stroke-width="1.8px" class="" style="fill:#FFFFCC;stroke:#A6A61D;" />
        </g>
      </g>
    </g>
  </g>
  <g class="djs-group">
    <g transform="matrix(1, 0, 0, 1, 2187.6, 212.375)" id="gfx-5115aabd-ab05-4be9-84cc-ba7ac4db1c8d" display="block" class="djs-element djs-shape" data-element-id="5115aabd-ab05-4be9-84cc-ba7ac4db1c8d">
      <g class="djs-visual">
        <g>
          <path d="M0 20 L20 40 L40 20 L20 0 z" stroke-width="1.8px" class="" style="fill:#FFFFCC;stroke:#A6A61D;" />
        </g>
      </g>
    </g>
  </g>
  <g class="djs-group">
    <g transform="matrix(1, 0, 0, 1, 669.2, 212.375)" id="gfx-8573ad54-6b57-4d97-833f-688eada8c60f" display="block" class="djs-element djs-shape" data-element-id="8573ad54-6b57-4d97-833f-688eada8c60f">
      <g class="djs-visual">
        <g>
          <path d="M0 20 L20 40 L40 20 L20 0 z" stroke-width="1.8px" class="" style="fill:#FFFFCC;stroke:#A6A61D;" />
        </g>
      </g>
    </g>
  </g>
  <g class="djs-group">
    <g transform="matrix(1, 0, 0, 1, 107.3, 72)" id="gfx-bd79a124-43b0-4200-8f2f-928cb477cff9" display="block" class="djs-element djs-shape" data-element-id="bd79a124-43b0-4200-8f2f-928cb477cff9">
      <g class="djs-visual">
        <g>
          <rect x="0" y="0" width="100" height="60" class="" style="fill:#D5D5D5;" />
          <path d="M33.33333 0 L0 0 L0 60 L33.33333 60" stroke-width="0.4px" shape-rendering="crispEdges" fill-opacity="0" style="fill:transparent;stroke:black;" />
        </g>
      </g>
      <svg width="100" height="60" class="djs-svg-text">
        <text font-family="'Segoe UI'" font-size="10.6252px" font-style="normal" font-weight="normal" lineHeight="1.2" textDirection="0" textAlign="center" class="djs-label" style="fill:black;">
          <tspan x="9.384247" y="20.25">Login com CPF e </tspan>
          <tspan x="30.85757" y="33.25">data de </tspan>
          <tspan x="23.0352" y="46.25">nascimento</tspan>
        </text>
      </svg>
    </g>
  </g>
  <g class="djs-group">
    <g id="gfx-9d330d95-d95e-41c0-9566-c657168aed25" display="block" class="djs-element djs-connection" data-element-id="9d330d95-d95e-41c0-9566-c657168aed25">
      <g class="djs-visual">
        <g>
          <defs>
            <marker refX="9.8" refY="6" orient="auto" markerWidth="12" markerHeight="12" markerUnits="strokeWidth" id="arrowSecuenceFlow9d330d95-d95e-41c0-9566-c657168aed25#1">
              <path d="M0 0 L2 6 L0 12 L10 6 z" style="fill:black;" />
            </marker>
          </defs>
          <path d="M1945 211 L1945 140 C1945 140 1945 134 1951 134 L2007 134" marker-end="url(#arrowSecuenceFlow9d330d95-d95e-41c0-9566-c657168aed25)" stroke-width="1px" stroke-linejoin="round" shape-rendering="crispEdges" fill-opacity="0" class="" style="fill:transparent;stroke:black;" />
        </g>
      </g>
    </g>
  </g>
  <g class="djs-group">
    <g transform="matrix(1, 0, 0, 1, 1907, 80)" id="gfx-faec05f4-179a-442a-9c0a-c7edcbf61989" display="block" class="djs-element djs-shape" data-element-id="faec05f4-179a-442a-9c0a-c7edcbf61989">
      <g class="djs-visual">
        <rect x="0" y="0" width="90" height="36" fill-opacity="0" stroke-opacity="0" style="fill:#FFFFFF;stroke:transparent;" />
        <svg width="90" height="31" class="djs-svg-text">
          <text font-family="'Segoe UI'" font-size="10.6252px" font-style="normal" font-weight="normal" lineHeight="1.2" textDirection="0" textAlign="left" class="djs-label" style="fill:black;">
            <tspan x="6" y="14.75">Candidato </tspan>
            <tspan x="6" y="27.75">ausente na </tspan>
            <tspan x="6" y="40.75">última edição </tspan>
            <tspan x="6" y="53.75">do exame</tspan>
          </text>
        </svg>
      </g>
    </g>
  </g>
  <g class="djs-group">
    <g id="gfx-58ad4bce-9363-4318-844a-470d318c922b" display="block" class="djs-element djs-connection" data-element-id="58ad4bce-9363-4318-844a-470d318c922b">
      <g class="djs-visual">
        <g>
          <defs>
            <marker refX="9.8" refY="6" orient="auto" markerWidth="12" markerHeight="12" markerUnits="strokeWidth" id="arrowSecuenceFlow58ad4bce-9363-4318-844a-470d318c922b">
              <path d="M0 0 L2 6 L0 12 L10 6 z" style="fill:black;" />
            </marker>
          </defs>
          <path d="M1478 231 L1541 231" marker-end="url(#arrowSecuenceFlow58ad4bce-9363-4318-844a-470d318c922b)" stroke-width="1px" stroke-linejoin="round" shape-rendering="crispEdges" fill-opacity="0" class="" style="fill:transparent;stroke:black;" />
        </g>
      </g>
    </g>
  </g>
  <g class="djs-group">
    <g id="gfx-dccb9604-9f15-4571-95f8-1058f1330077" display="block" class="djs-element djs-connection" data-element-id="dccb9604-9f15-4571-95f8-1058f1330077">
      <g class="djs-visual">
        <g>
          <defs>
            <marker refX="9.8" refY="6" orient="auto" markerWidth="12" markerHeight="12" markerUnits="strokeWidth" id="arrowSecuenceFlowdccb9604-9f15-4571-95f8-1058f1330077">
              <path d="M0 0 L2 6 L0 12 L10 6 z" style="fill:black;" />
            </marker>
          </defs>
          <path d="M1965 231 L2187 231" marker-end="url(#arrowSecuenceFlowdccb9604-9f15-4571-95f8-1058f1330077)" stroke-width="1px" stroke-linejoin="round" shape-rendering="crispEdges" fill-opacity="0" class="" style="fill:transparent;stroke:black;" />
        </g>
      </g>
    </g>
  </g>
  <g class="djs-group">
    <g transform="matrix(1, 0, 0, 1, 1987, 234)" id="gfx-b10b550c-5ff5-4ad8-9a79-19a82af05a70" display="block" class="djs-element djs-shape" data-element-id="b10b550c-5ff5-4ad8-9a79-19a82af05a70">
      <g class="djs-visual">
        <rect x="0" y="0" width="87" height="100" fill-opacity="0" stroke-opacity="0" style="fill:#FFFFFF;stroke:transparent;" />
        <svg width="87" height="95" class="djs-svg-text">
          <text font-family="'Segoe UI'" font-size="10.6252px" font-style="normal" font-weight="normal" lineHeight="1.2" textDirection="0" textAlign="left" class="djs-label" style="fill:black;">
            <tspan x="6" y="14.75">Nova </tspan>
            <tspan x="6" y="27.75">inscrição/Sem </tspan>
            <tspan x="6" y="40.75">ausências</tspan>
          </text>
        </svg>
      </g>
    </g>
  </g>
  <g class="djs-group">
    <g id="gfx-6ff8dfba-efd0-4e36-9fa1-ddd199bb6e76" display="block" class="djs-element djs-connection" data-element-id="6ff8dfba-efd0-4e36-9fa1-ddd199bb6e76">
      <g class="djs-visual">
        <g>
          <defs>
            <marker refX="9.8" refY="6" orient="auto" markerWidth="12" markerHeight="12" markerUnits="strokeWidth" id="arrowSecuenceFlow6ff8dfba-efd0-4e36-9fa1-ddd199bb6e76">
              <path d="M0 0 L2 6 L0 12 L10 6 z" style="fill:black;" />
            </marker>
          </defs>
          <path d="M901 231 L963 231" marker-end="url(#arrowSecuenceFlow6ff8dfba-efd0-4e36-9fa1-ddd199bb6e76)" stroke-width="1px" stroke-linejoin="round" shape-rendering="crispEdges" fill-opacity="0" class="" style="fill:transparent;stroke:black;" />
        </g>
      </g>
    </g>
  </g>
  <g class="djs-group">
    <g id="gfx-1d5b9edf-f8e0-4dbc-98b4-548ca19763f9" display="block" class="djs-element djs-connection" data-element-id="1d5b9edf-f8e0-4dbc-98b4-548ca19763f9">
      <g class="djs-visual">
        <g>
          <defs>
            <marker refX="9.8" refY="6" orient="auto" markerWidth="12" markerHeight="12" markerUnits="strokeWidth" id="arrowSecuenceFlow1d5b9edf-f8e0-4dbc-98b4-548ca19763f9">
              <path d="M0 0 L2 6 L0 12 L10 6 z" style="fill:black;" />
            </marker>
          </defs>
          <path d="M222 231 L281 231" marker-end="url(#arrowSecuenceFlow1d5b9edf-f8e0-4dbc-98b4-548ca19763f9)" stroke-width="1px" stroke-linejoin="round" shape-rendering="crispEdges" fill-opacity="0" class="" style="fill:transparent;stroke:black;" />
        </g>
      </g>
    </g>
  </g>
  <g class="djs-group">
    <g id="gfx-22793c05-d069-4530-9832-4d6d40a3efaa" display="block" class="djs-element djs-connection" data-element-id="22793c05-d069-4530-9832-4d6d40a3efaa">
      <g class="djs-visual">
        <g>
          <defs>
            <marker refX="9.8" refY="6" orient="auto" markerWidth="12" markerHeight="12" markerUnits="strokeWidth" id="arrowSecuenceFlow22793c05-d069-4530-9832-4d6d40a3efaa">
              <path d="M0 0 L2 6 L0 12 L10 6 z" style="fill:black;" />
            </marker>
          </defs>
          <path d="M709 231 L771 231" marker-end="url(#arrowSecuenceFlow22793c05-d069-4530-9832-4d6d40a3efaa)" stroke-width="1px" stroke-linejoin="round" shape-rendering="crispEdges" fill-opacity="0" class="" style="fill:transparent;stroke:black;" />
        </g>
      </g>
    </g>
  </g>
  <g class="djs-group">
    <g transform="matrix(1, 0, 0, 1, 701, 228)" id="gfx-b54eb9f7-4923-4a57-bc7c-82873cae71ca" display="block" class="djs-element djs-shape" data-element-id="b54eb9f7-4923-4a57-bc7c-82873cae71ca">
      <g class="djs-visual">
        <rect x="0" y="0" width="90" height="30" fill-opacity="0" stroke-opacity="0" style="fill:#FFFFFF;stroke:transparent;" />
        <svg width="90" height="25" class="djs-svg-text">
          <text font-family="'Segoe UI'" font-size="10.6252px" font-style="normal" font-weight="normal" lineHeight="1.2" textDirection="0" textAlign="left" class="djs-label" style="fill:black;">
            <tspan x="6" y="14.75">Compatível</tspan>
          </text>
        </svg>
      </g>
    </g>
  </g>
  <g class="djs-group">
    <g id="gfx-eaa43b93-e973-46aa-833a-3fc497943fdf" display="block" class="djs-element djs-connection" data-element-id="eaa43b93-e973-46aa-833a-3fc497943fdf">
      <g class="djs-visual">
        <g>
          <defs>
            <marker refX="9.8" refY="6" orient="auto" markerWidth="12" markerHeight="12" markerUnits="strokeWidth" id="arrowSecuenceFloweaa43b93-e973-46aa-833a-3fc497943fdf">
              <path d="M0 0 L2 6 L0 12 L10 6 z" style="fill:black;" />
            </marker>
          </defs>
          <path d="M605 231 L669 231" marker-end="url(#arrowSecuenceFloweaa43b93-e973-46aa-833a-3fc497943fdf)" stroke-width="1px" stroke-linejoin="round" shape-rendering="crispEdges" fill-opacity="0" class="" style="fill:transparent;stroke:black;" />
        </g>
      </g>
    </g>
  </g>
  <g class="djs-group">
    <g id="gfx-01f0019b-44fb-4422-9927-a93f52998173" display="block" class="djs-element djs-connection" data-element-id="01f0019b-44fb-4422-9927-a93f52998173">
      <g class="djs-visual">
        <g>
          <defs>
            <marker refX="9.8" refY="6" orient="auto" markerWidth="12" markerHeight="12" markerUnits="strokeWidth" id="arrowSecuenceFlow01f0019b-44fb-4422-9927-a93f52998173">
              <path d="M0 0 L2 6 L0 12 L10 6 z" style="fill:black;" />
            </marker>
          </defs>
          <path d="M30 231 L92 231" marker-end="url(#arrowSecuenceFlow01f0019b-44fb-4422-9927-a93f52998173)" stroke-width="1px" stroke-linejoin="round" shape-rendering="crispEdges" fill-opacity="0" class="" style="fill:transparent;stroke:black;" />
        </g>
      </g>
    </g>
  </g>
  <g class="djs-group">
    <g id="gfx-cfed79e0-7191-478b-bfd9-01fb9b52f62b" display="block" class="djs-element djs-connection" data-element-id="cfed79e0-7191-478b-bfd9-01fb9b52f62b">
      <g class="djs-visual">
        <g>
          <defs>
            <marker refX="9.8" refY="6" orient="auto" markerWidth="12" markerHeight="12" markerUnits="strokeWidth" id="arrowSecuenceFlowcfed79e0-7191-478b-bfd9-01fb9b52f62b">
              <path d="M0 0 L2 6 L0 12 L10 6 z" style="fill:black;" />
            </marker>
          </defs>
          <path d="M1093 231 L1156 231" marker-end="url(#arrowSecuenceFlowcfed79e0-7191-478b-bfd9-01fb9b52f62b)" stroke-width="1px" stroke-linejoin="round" shape-rendering="crispEdges" fill-opacity="0" class="" style="fill:transparent;stroke:black;" />
        </g>
      </g>
    </g>
  </g>
  <g class="djs-group">
    <g id="gfx-3acef53f-b0cf-46b8-8efe-8878c9c81024" display="block" class="djs-element djs-connection" data-element-id="3acef53f-b0cf-46b8-8efe-8878c9c81024">
      <g class="djs-visual">
        <g>
          <defs>
            <marker refX="9.8" refY="6" orient="auto" markerWidth="12" markerHeight="12" markerUnits="strokeWidth" id="arrowSecuenceFlow3acef53f-b0cf-46b8-8efe-8878c9c81024">
              <path d="M0 0 L2 6 L0 12 L10 6 z" style="fill:black;" />
            </marker>
          </defs>
          <path d="M1863 231 L1925 231" marker-end="url(#arrowSecuenceFlow3acef53f-b0cf-46b8-8efe-8878c9c81024)" stroke-width="1px" stroke-linejoin="round" shape-rendering="crispEdges" fill-opacity="0" class="" style="fill:transparent;stroke:black;" />
        </g>
      </g>
    </g>
  </g>
  <g class="djs-group">
    <g id="gfx-1a83585f-1acc-4968-978e-cfe8693e16c5" display="block" class="djs-element djs-connection" data-element-id="1a83585f-1acc-4968-978e-cfe8693e16c5">
      <g class="djs-visual">
        <g>
          <defs>
            <marker refX="9.8" refY="6" orient="auto" markerWidth="12" markerHeight="12" markerUnits="strokeWidth" id="arrowSecuenceFlow1a83585f-1acc-4968-978e-cfe8693e16c5">
              <path d="M0 0 L2 6 L0 12 L10 6 z" style="fill:black;" />
            </marker>
          </defs>
          <path d="M2804 231 L2866 231" marker-end="url(#arrowSecuenceFlow1a83585f-1acc-4968-978e-cfe8693e16c5)" stroke-width="1px" stroke-linejoin="round" shape-rendering="crispEdges" fill-opacity="0" class="" style="fill:transparent;stroke:black;" />
        </g>
      </g>
    </g>
  </g>
  <g class="djs-group">
    <g id="gfx-d45945ac-3d96-482d-92b5-00bb476abc87" display="block" class="djs-element djs-connection" data-element-id="d45945ac-3d96-482d-92b5-00bb476abc87">
      <g class="djs-visual">
        <g>
          <defs>
            <marker refX="9.8" refY="6" orient="auto" markerWidth="12" markerHeight="12" markerUnits="strokeWidth" id="arrowSecuenceFlowd45945ac-3d96-482d-92b5-00bb476abc87">
              <path d="M0 0 L2 6 L0 12 L10 6 z" style="fill:black;" />
            </marker>
          </defs>
          <path d="M1286 231 L1348 231" marker-end="url(#arrowSecuenceFlowd45945ac-3d96-482d-92b5-00bb476abc87)" stroke-width="1px" stroke-linejoin="round" shape-rendering="crispEdges" fill-opacity="0" class="" style="fill:transparent;stroke:black;" />
        </g>
      </g>
    </g>
  </g>
  <g class="djs-group">
    <g id="gfx-d8633dbe-c840-49dc-a68a-1f0c7c2e9513" display="block" class="djs-element djs-connection" data-element-id="d8633dbe-c840-49dc-a68a-1f0c7c2e9513">
      <g class="djs-visual">
        <g>
          <defs>
            <marker refX="9.8" refY="6" orient="auto" markerWidth="12" markerHeight="12" markerUnits="strokeWidth" id="arrowSecuenceFlowd8633dbe-c840-49dc-a68a-1f0c7c2e9513">
              <path d="M0 0 L2 6 L0 12 L10 6 z" style="fill:black;" />
            </marker>
          </defs>
          <path d="M3574 231 L3626 231" marker-end="url(#arrowSecuenceFlowd8633dbe-c840-49dc-a68a-1f0c7c2e9513)" stroke-width="1px" stroke-linejoin="round" shape-rendering="crispEdges" fill-opacity="0" class="" style="fill:transparent;stroke:black;" />
        </g>
      </g>
    </g>
  </g>
  <g class="djs-group">
    <g id="gfx-6c23edf9-1b63-4437-84a9-cf840ca361af" display="block" class="djs-element djs-connection" data-element-id="6c23edf9-1b63-4437-84a9-cf840ca361af">
      <g class="djs-visual">
        <g>
          <defs>
            <marker refX="9.8" refY="6" orient="auto" markerWidth="12" markerHeight="12" markerUnits="strokeWidth" id="arrowSecuenceFlow6c23edf9-1b63-4437-84a9-cf840ca361af">
              <path d="M0 0 L2 6 L0 12 L10 6 z" style="fill:black;" />
            </marker>
          </defs>
          <path d="M3189 231 L3251 231" marker-end="url(#arrowSecuenceFlow6c23edf9-1b63-4437-84a9-cf840ca361af)" stroke-width="1px" stroke-linejoin="round" shape-rendering="crispEdges" fill-opacity="0" class="" style="fill:transparent;stroke:black;" />
        </g>
      </g>
    </g>
  </g>
  <g class="djs-group">
    <g id="gfx-c3e8b402-b79d-486c-b436-6f896be32dd5" display="block" class="djs-element djs-connection" data-element-id="c3e8b402-b79d-486c-b436-6f896be32dd5">
      <g class="djs-visual">
        <g>
          <defs>
            <marker refX="9.8" refY="6" orient="auto" markerWidth="12" markerHeight="12" markerUnits="strokeWidth" id="arrowSecuenceFlowc3e8b402-b79d-486c-b436-6f896be32dd5">
              <path d="M0 0 L2 6 L0 12 L10 6 z" style="fill:black;" />
            </marker>
          </defs>
          <path d="M689 211 L689 135" marker-end="url(#arrowSecuenceFlowc3e8b402-b79d-486c-b436-6f896be32dd5)" stroke-width="1px" stroke-linejoin="round" shape-rendering="crispEdges" fill-opacity="0" class="" style="fill:transparent;stroke:black;" />
        </g>
      </g>
    </g>
  </g>
  <g class="djs-group">
    <g transform="matrix(1, 0, 0, 1, 690, 162)" id="gfx-294fe191-42a4-435c-a1f6-f39415f37ab3" display="block" class="djs-element djs-shape" data-element-id="294fe191-42a4-435c-a1f6-f39415f37ab3">
      <g class="djs-visual">
        <rect x="0" y="0" width="90" height="30" fill-opacity="0" stroke-opacity="0" style="fill:#FFFFFF;stroke:transparent;" />
        <svg width="90" height="25" class="djs-svg-text">
          <text font-family="'Segoe UI'" font-size="10.6252px" font-style="normal" font-weight="normal" lineHeight="1.2" textDirection="0" textAlign="left" class="djs-label" style="fill:black;">
            <tspan x="6" y="14.75">Incompatível</tspan>
          </text>
        </svg>
      </g>
    </g>
  </g>
  <g class="djs-group">
    <g id="gfx-3977b700-5155-42b6-9687-5aa40e186854" display="block" class="djs-element djs-connection" data-element-id="3977b700-5155-42b6-9687-5aa40e186854">
      <g class="djs-visual">
        <g>
          <defs>
            <marker refX="9.8" refY="6" orient="auto" markerWidth="12" markerHeight="12" markerUnits="strokeWidth" id="arrowSecuenceFlow3977b700-5155-42b6-9687-5aa40e186854">
              <path d="M0 0 L2 6 L0 12 L10 6 z" style="fill:black;" />
            </marker>
          </defs>
          <path d="M2137 134 L2201 134 C2201 134 2207 134 2207 140 L2207 211" marker-end="url(#arrowSecuenceFlow3977b700-5155-42b6-9687-5aa40e186854)" stroke-width="1px" stroke-linejoin="round" shape-rendering="crispEdges" fill-opacity="0" class="" style="fill:transparent;stroke:black;" />
        </g>
      </g>
    </g>
  </g>
  <g class="djs-group">
    <g id="gfx-fbf3b4fa-a446-4b49-b723-0c8b967c7499" display="block" class="djs-element djs-connection" data-element-id="fbf3b4fa-a446-4b49-b723-0c8b967c7499">
      <g class="djs-visual">
        <g>
          <defs>
            <marker refX="9.8" refY="6" orient="auto" markerWidth="12" markerHeight="12" markerUnits="strokeWidth" id="arrowSecuenceFlowfbf3b4fa-a446-4b49-b723-0c8b967c7499">
              <path d="M0 0 L2 6 L0 12 L10 6 z" style="fill:black;" />
            </marker>
          </defs>
          <path d="M2419 231 L2482 231" marker-end="url(#arrowSecuenceFlowfbf3b4fa-a446-4b49-b723-0c8b967c7499)" stroke-width="1px" stroke-linejoin="round" shape-rendering="crispEdges" fill-opacity="0" class="" style="fill:transparent;stroke:black;" />
        </g>
      </g>
    </g>
  </g>
  <g class="djs-group">
    <g id="gfx-a4dfbc6a-76de-4c08-aaf4-0da163e87dd7" display="block" class="djs-element djs-connection" data-element-id="a4dfbc6a-76de-4c08-aaf4-0da163e87dd7">
      <g class="djs-visual">
        <g>
          <defs>
            <marker refX="9.8" refY="6" orient="auto" markerWidth="12" markerHeight="12" markerUnits="strokeWidth" id="arrowSecuenceFlowa4dfbc6a-76de-4c08-aaf4-0da163e87dd7">
              <path d="M0 0 L2 6 L0 12 L10 6 z" style="fill:black;" />
            </marker>
          </defs>
          <path d="M2996 231 L3059 231" marker-end="url(#arrowSecuenceFlowa4dfbc6a-76de-4c08-aaf4-0da163e87dd7)" stroke-width="1px" stroke-linejoin="round" shape-rendering="crispEdges" fill-opacity="0" class="" style="fill:transparent;stroke:black;" />
        </g>
      </g>
    </g>
  </g>
  <g class="djs-group">
    <g id="gfx-bf76f2a2-aba0-4729-8122-fbbdbc770f9e" display="block" class="djs-element djs-connection" data-element-id="bf76f2a2-aba0-4729-8122-fbbdbc770f9e">
      <g class="djs-visual">
        <g>
          <defs>
            <marker refX="9.8" refY="6" orient="auto" markerWidth="12" markerHeight="12" markerUnits="strokeWidth" id="arrowSecuenceFlowbf76f2a2-aba0-4729-8122-fbbdbc770f9e">
              <path d="M0 0 L2 6 L0 12 L10 6 z" style="fill:black;" />
            </marker>
          </defs>
          <path d="M1671 231 L1733 231" marker-end="url(#arrowSecuenceFlowbf76f2a2-aba0-4729-8122-fbbdbc770f9e)" stroke-width="1px" stroke-linejoin="round" shape-rendering="crispEdges" fill-opacity="0" class="" style="fill:transparent;stroke:black;" />
        </g>
      </g>
    </g>
  </g>
  <g class="djs-group">
    <g id="gfx-8ea7faf5-82e7-441b-a437-c556f7adca56" display="block" class="djs-element djs-connection" data-element-id="8ea7faf5-82e7-441b-a437-c556f7adca56">
      <g class="djs-visual">
        <g>
          <defs>
            <marker refX="9.8" refY="6" orient="auto" markerWidth="12" markerHeight="12" markerUnits="strokeWidth" id="arrowSecuenceFlow8ea7faf5-82e7-441b-a437-c556f7adca56">
              <path d="M0 0 L2 6 L0 12 L10 6 z" style="fill:black;" />
            </marker>
          </defs>
          <path d="M3381 231 L3444 231" marker-end="url(#arrowSecuenceFlow8ea7faf5-82e7-441b-a437-c556f7adca56)" stroke-width="1px" stroke-linejoin="round" shape-rendering="crispEdges" fill-opacity="0" class="" style="fill:transparent;stroke:black;" />
        </g>
      </g>
    </g>
  </g>
  <g class="djs-group">
    <g id="gfx-f44c81d7-f91e-4344-95b2-7bc00c4c2ee4" display="block" class="djs-element djs-connection" data-element-id="f44c81d7-f91e-4344-95b2-7bc00c4c2ee4">
      <g class="djs-visual">
        <g>
          <defs>
            <marker refX="9.8" refY="6" orient="auto" markerWidth="12" markerHeight="12" markerUnits="strokeWidth" id="arrowSecuenceFlowf44c81d7-f91e-4344-95b2-7bc00c4c2ee4">
              <path d="M0 0 L2 6 L0 12 L10 6 z" style="fill:black;" />
            </marker>
          </defs>
          <path d="M2227 231 L2289 231" marker-end="url(#arrowSecuenceFlowf44c81d7-f91e-4344-95b2-7bc00c4c2ee4)" stroke-width="1px" stroke-linejoin="round" shape-rendering="crispEdges" fill-opacity="0" class="" style="fill:transparent;stroke:black;" />
        </g>
      </g>
    </g>
  </g>
  <g class="djs-group">
    <g id="gfx-1d2a4360-1db9-457b-8e0b-35bcfdf297fd" display="block" class="djs-element djs-connection" data-element-id="1d2a4360-1db9-457b-8e0b-35bcfdf297fd">
      <g class="djs-visual">
        <g>
          <defs>
            <marker refX="9.8" refY="6" orient="auto" markerWidth="12" markerHeight="12" markerUnits="strokeWidth" id="arrowSecuenceFlow1d2a4360-1db9-457b-8e0b-35bcfdf297fd">
              <path d="M0 0 L2 6 L0 12 L10 6 z" style="fill:black;" />
            </marker>
          </defs>
          <path d="M2612 231 L2674 231" marker-end="url(#arrowSecuenceFlow1d2a4360-1db9-457b-8e0b-35bcfdf297fd)" stroke-width="1px" stroke-linejoin="round" shape-rendering="crispEdges" fill-opacity="0" class="" style="fill:transparent;stroke:black;" />
        </g>
      </g>
    </g>
  </g>
  <g class="djs-group">
    <g id="gfx-b288917e-3f6b-4815-b1c8-d20e81c4308a" display="block" class="djs-element djs-connection" data-element-id="b288917e-3f6b-4815-b1c8-d20e81c4308a">
      <g class="djs-visual">
        <g>
          <defs>
            <marker refX="9.8" refY="6" orient="auto" markerWidth="12" markerHeight="12" markerUnits="strokeWidth" id="arrowSecuenceFlowb288917e-3f6b-4815-b1c8-d20e81c4308a">
              <path d="M0 0 L2 6 L0 12 L10 6 z" style="fill:black;" />
            </marker>
          </defs>
          <path d="M411 231 L475 231" marker-end="url(#arrowSecuenceFlowb288917e-3f6b-4815-b1c8-d20e81c4308a)" stroke-width="1px" stroke-linejoin="round" shape-rendering="crispEdges" fill-opacity="0" class="" style="fill:transparent;stroke:black;" />
        </g>
      </g>
    </g>
  </g>
  <g class="djs-group">
    <g id="gfx-4e5df2b2-4b8c-4ab5-b2bf-d1b16748b4fb" display="block" class="djs-element djs-connection" data-element-id="4e5df2b2-4b8c-4ab5-b2bf-d1b16748b4fb">
      <g class="djs-visual">
        <g>
          <defs>
            <marker refX="5.5" refY="4" orient="auto" markerWidth="10" markerHeight="8" id="arrowAssociation4e5df2b2-4b8c-4ab5-b2bf-d1b16748b4fb">
              <path d="M0 0 L4.5 4 L0 8" stroke-width="0.7px" stroke-dasharray="0" style="stroke:black;" />
            </marker>
          </defs>
          <path d="M157 186 L157 131" stroke-width="1.5px" stroke-linejoin="round" stroke-dasharray="2 5" shape-rendering="crispEdges" fill-opacity="0" class="" style="fill:transparent;stroke:black;" />
        </g>
      </g>
    </g>
  </g>
</svg>