<?xml version="1.0" encoding="utf-8"?>
<!DOCTYPE svg PUBLIC "-//W3C//DTD SVG 1.1//EN" "http://www.w3.org/Graphics/SVG/1.1/DTD/svg11.dtd">
<svg width="1095" height="432px" viewBox="30, 15, 1095, 432" xmlns="http://www.w3.org/2000/svg" xmlns:xlink="http://www.w3.org/1999/xlink" xmlns:xml="http://www.w3.org/XML/1998/namespace" version="1.1">
  <defs>
    <marker refX="9.8" refY="6" orient="auto" markerWidth="12" markerHeight="12" markerUnits="strokeWidth" id="arrowSecuenceFlow039bb12e-f279-4fd3-a258-94ed773b9998">
      <path d="M0 0 L2 6 L0 12 L10 6 z" style="fill:black;" />
    </marker>
  </defs>
  <g class="djs-group">
    <g transform="matrix(1, 0, 0, 1, 896, 149)" id="gfx-fe974ebb-538b-44c8-962f-b1746b30a512" display="block" class="djs-element djs-shape" data-element-id="fe974ebb-538b-44c8-962f-b1746b30a512">
      <g class="djs-visual">
        <g>
          <rect x="0" y="0" width="130" height="90" rx="8" stroke-width="2px" class="" style="fill:#ECEFFF;stroke:#03689A;" />
          <g transform="translate(-6, -11) scale(1.6)">
            <path d="M17 16.5 A5.7 5.7 0 0 0 14.4 14.6 L14.2 14.4 C14.2 14.3 14.3 14.3 14.3 14.2 A1.9 1.9 0 0 0 14.8 12.9 A2.3 2.3 0 0 0 12.7 10.6 A2.5 2.5 0 0 0 10.3 12.9 A2.4 2.4 0 0 0 10.5 13.7 L10.7 13.9 C10.8 14.2 11 14.2 11.2 14.4 L11.2 14.6 L10.6 14.6 A5 5 0 0 0 8 16.7 L8 16.7 L8 19.6 L17 19.6 L17 16.6 z M11.6 14.6 L11.9 14.3 L11.6 14.3 A1.6 1.6 0 0 1 10.8 13 A3.7 3.7 0 0 1 12.5 12.4 C12.6 12.4 12.7 12.7 12.8 12.8 L13.3 12.8 A2.4 2.4 0 0 0 14.3 12.5 A2.3 2.3 0 0 1 13.4 14.4 L13.4 14.4 L13.6 14.8 L13.6 14.8 A0.8 0.8 0 0 1 13.4 15.7 A1.5 1.5 0 0 1 12.5 16.1 A1 1 0 0 1 11.7 15.7 C11.3 15.3 11.3 15.1 11.3 14.9 C11.3 14.7 11.4 14.8 11.6 14.6 z M16.5 19.1 L15.4 19.1 L15.4 18 L14.8 18 L14.8 19.1 L10.2 19.1 L10.2 18 L9.7 18 L9.7 19.2 L8.5 19.2 L8.5 16.9 A5.2 5.2 0 0 1 10.8 15.1 L10.9 15.1 C10.9 15.5 10.7 15.8 11.2 16.3 A2.7 2.7 0 0 0 12.5 16.8 A2.2 2.2 0 0 0 13.9 16.2 A1.1 1.1 0 0 0 14.2 15.2 A4.6 4.6 0 0 1 16.5 16.9 z" style="fill:white;" />
            <path d="M12.7 10.6 A2.5 2.5 0 0 0 10.3 12.9 A2.4 2.4 0 0 0 10.5 13.7 L10.7 13.9 C10.8 14.2 11 14.2 11.2 14.4 L11.2 14.6 L10.6 14.6 A5 5 0 0 0 8 16.7 L8 16.7 L8 19.6 L17 19.6 L17 16.6 L17 16.6 A5.7 5.7 0 0 0 14.4 14.7 L14.2 14.5 C14.2 14.4 14.3 14.4 14.3 14.3 A1.9 1.9 0 0 0 14.8 13 A2.3 2.3 0 0 0 12.7 10.7 z M12.5 16.3 A1 1 0 0 1 11.7 15.9 C11.3 15.5 11.3 15.3 11.3 15.1 C11.3 14.9 11.4 14.8 11.6 14.6 L11.9 14.3 L11.6 14.3 A1.6 1.6 0 0 1 10.8 13 A3.7 3.7 0 0 1 12.5 12.4 C12.6 12.4 12.7 12.7 12.8 12.8 L13.3 12.8 A2.4 2.4 0 0 0 14.3 12.5 A2.3 2.3 0 0 1 13.4 14.4 L13.4 14.4 L13.6 14.8 L13.6 14.8 A0.8 0.8 0 0 1 13.4 15.7 A1.5 1.5 0 0 1 12.5 16.1 z M10.8 15.1 L10.9 15.1 C10.9 15.5 10.7 15.8 11.2 16.3 A2.7 2.7 0 0 0 12.5 16.8 A2.2 2.2 0 0 0 13.9 16.2 A1.1 1.1 0 0 0 14.2 15.2 A4.6 4.6 0 0 1 16.5 16.9 L16.5 19.1 L15.4 19.1 L15.4 18 L14.8 18 L14.8 19.1 L10.2 19.1 L10.2 18 L9.7 18 L9.7 19.2 L8.5 19.2 L8.5 16.9 A5.2 5.2 0 0 1 10.8 15.1 z" style="fill:#03689A;" />
          </g>
          <g />
        </g>
      </g>
      <svg width="130" height="86" class="djs-svg-text">
        <text font-family="'Segoe UI'" font-size="10.6252px" font-style="normal" font-weight="normal" lineHeight="1.2" textDirection="0" textAlign="center" class="djs-label" style="fill:black;">
          <tspan x="33.29562" y="35.25">5. Desabilitar </tspan>
          <tspan x="26.38847" y="48.25">candidatos com </tspan>
          <tspan x="8.355751" y="61.25">indicação de  pendência</tspan>
        </text>
      </svg>
    </g>
  </g>
  <g class="djs-group">
    <g transform="matrix(1, 0, 0, 1, 727, 149)" id="gfx-44034396-5132-44ea-9bf4-e36a099eae75" display="block" class="djs-element djs-shape" data-element-id="44034396-5132-44ea-9bf4-e36a099eae75">
      <g class="djs-visual">
        <g>
          <rect x="0" y="0" width="130" height="90" rx="8" stroke-width="2px" class="" style="fill:#ECEFFF;stroke:#03689A;" />
          <g transform="translate(-6, -11) scale(1.6)">
            <path d="M17 16.5 A5.7 5.7 0 0 0 14.4 14.6 L14.2 14.4 C14.2 14.3 14.3 14.3 14.3 14.2 A1.9 1.9 0 0 0 14.8 12.9 A2.3 2.3 0 0 0 12.7 10.6 A2.5 2.5 0 0 0 10.3 12.9 A2.4 2.4 0 0 0 10.5 13.7 L10.7 13.9 C10.8 14.2 11 14.2 11.2 14.4 L11.2 14.6 L10.6 14.6 A5 5 0 0 0 8 16.7 L8 16.7 L8 19.6 L17 19.6 L17 16.6 z M11.6 14.6 L11.9 14.3 L11.6 14.3 A1.6 1.6 0 0 1 10.8 13 A3.7 3.7 0 0 1 12.5 12.4 C12.6 12.4 12.7 12.7 12.8 12.8 L13.3 12.8 A2.4 2.4 0 0 0 14.3 12.5 A2.3 2.3 0 0 1 13.4 14.4 L13.4 14.4 L13.6 14.8 L13.6 14.8 A0.8 0.8 0 0 1 13.4 15.7 A1.5 1.5 0 0 1 12.5 16.1 A1 1 0 0 1 11.7 15.7 C11.3 15.3 11.3 15.1 11.3 14.9 C11.3 14.7 11.4 14.8 11.6 14.6 z M16.5 19.1 L15.4 19.1 L15.4 18 L14.8 18 L14.8 19.1 L10.2 19.1 L10.2 18 L9.7 18 L9.7 19.2 L8.5 19.2 L8.5 16.9 A5.2 5.2 0 0 1 10.8 15.1 L10.9 15.1 C10.9 15.5 10.7 15.8 11.2 16.3 A2.7 2.7 0 0 0 12.5 16.8 A2.2 2.2 0 0 0 13.9 16.2 A1.1 1.1 0 0 0 14.2 15.2 A4.6 4.6 0 0 1 16.5 16.9 z" style="fill:white;" />
            <path d="M12.7 10.6 A2.5 2.5 0 0 0 10.3 12.9 A2.4 2.4 0 0 0 10.5 13.7 L10.7 13.9 C10.8 14.2 11 14.2 11.2 14.4 L11.2 14.6 L10.6 14.6 A5 5 0 0 0 8 16.7 L8 16.7 L8 19.6 L17 19.6 L17 16.6 L17 16.6 A5.7 5.7 0 0 0 14.4 14.7 L14.2 14.5 C14.2 14.4 14.3 14.4 14.3 14.3 A1.9 1.9 0 0 0 14.8 13 A2.3 2.3 0 0 0 12.7 10.7 z M12.5 16.3 A1 1 0 0 1 11.7 15.9 C11.3 15.5 11.3 15.3 11.3 15.1 C11.3 14.9 11.4 14.8 11.6 14.6 L11.9 14.3 L11.6 14.3 A1.6 1.6 0 0 1 10.8 13 A3.7 3.7 0 0 1 12.5 12.4 C12.6 12.4 12.7 12.7 12.8 12.8 L13.3 12.8 A2.4 2.4 0 0 0 14.3 12.5 A2.3 2.3 0 0 1 13.4 14.4 L13.4 14.4 L13.6 14.8 L13.6 14.8 A0.8 0.8 0 0 1 13.4 15.7 A1.5 1.5 0 0 1 12.5 16.1 z M10.8 15.1 L10.9 15.1 C10.9 15.5 10.7 15.8 11.2 16.3 A2.7 2.7 0 0 0 12.5 16.8 A2.2 2.2 0 0 0 13.9 16.2 A1.1 1.1 0 0 0 14.2 15.2 A4.6 4.6 0 0 1 16.5 16.9 L16.5 19.1 L15.4 19.1 L15.4 18 L14.8 18 L14.8 19.1 L10.2 19.1 L10.2 18 L9.7 18 L9.7 19.2 L8.5 19.2 L8.5 16.9 A5.2 5.2 0 0 1 10.8 15.1 z" style="fill:#03689A;" />
          </g>
          <g />
        </g>
      </g>
      <svg width="130" height="86" class="djs-svg-text">
        <text font-family="'Segoe UI'" font-size="10.6252px" font-style="normal" font-weight="normal" lineHeight="1.2" textDirection="0" textAlign="center" class="djs-label" style="fill:black;">
          <tspan x="15.37439" y="35.25">4. Analisar base RNC </tspan>
          <tspan x="13.20164" y="48.25">conforme critérios do </tspan>
          <tspan x="40.13274" y="61.25">edital RNC</tspan>
        </text>
      </svg>
    </g>
  </g>
  <g class="djs-group">
    <g transform="matrix(1, 0, 0, 1, 323, 271)" id="gfx-a0762bad-78a2-4ca6-b6c8-f8131abc5c19" display="block" class="djs-element djs-shape" data-element-id="a0762bad-78a2-4ca6-b6c8-f8131abc5c19">
      <g class="djs-visual">
        <g>
          <rect x="0" y="0" width="130" height="90" rx="8" stroke-width="2px" class="" style="fill:#ECEFFF;stroke:#03689A;" />
          <g transform="translate(-6, -11) scale(1.6)">
            <path d="M15.4 20.5 L14.7 20.5 A0.5 0.5 0 0 1 14.2 20.2 L13.8 19.3 L13.6 19.3 L12.7 19.7 L12.1 19.7 L11.6 19.1 C11.4 19 11.4 18.8 11.4 18.6 L11.8 17.7 L11.8 17.7 L11.8 17.4 L10.9 17 C10.7 16.9 10.6 16.8 10.6 16.6 L10.6 15.9 A0.5 0.5 0 0 1 10.9 15.4 L11.8 15 L11.8 14.8 A6.4 6.4 0 0 0 11.4 13.8 A0.7 0.7 0 0 1 11.5 13.3 L12.1 12.8 C12.2 12.6 12.4 12.6 12.6 12.7 L13.5 13 L13.8 13 A4.1 4.1 0 0 1 14.2 12.1 C14.3 11.9 14.4 11.8 14.6 11.8 L15.3 11.8 A0.5 0.5 0 0 1 15.8 12.1 A4.1 4.1 0 0 1 16.2 13 L16.8 13 L17.6 12.7 L17.9 12.7 L18.4 13.3 C18.6 13.4 18.6 13.6 18.6 13.8 L18.2 14.7 L18.2 14.7 L18.2 15 L19.1 15.4 C19.3 15.5 19.4 15.6 19.4 15.8 L19.4 16.5 A0.5 0.5 0 0 1 19.1 17 L18.2 17.4 L18.2 17.6 A6.4 6.4 0 0 0 18.6 18.6 A0.7 0.7 0 0 1 18.5 19.1 L17.9 19.6 C17.8 19.8 17.6 19.8 17.4 19.7 L16.5 19.4 L16.2 19.4 A4.1 4.1 0 0 1 15.8 20.3 C15.7 20.4 15.6 20.5 15.4 20.5 z M15 19.5 L15.1 19.5 C15.1 19.3 15.2 19.2 15.3 18.9 L15.3 18.9 L15.5 18.6 L15.7 18.6 L16.3 18.4 L16.8 18.4 L17.5 18.7 L17.5 18.7 L17.3 18.1 L17.2 18.1 C17.1 18.1 17.1 17.9 17.1 17.8 L17.2 17.8 L17.2 17.6 L17.4 17.1 L17.7 16.8 L17.8 16.8 L18.5 16.5 L18.5 16.5 L17.9 16.3 L17.7 16.3 L17.4 16 L17.2 15.3 A0.3 0.3 0 0 1 17.2 14.9 L17.2 14.9 L17.5 14.2 L17.2 14.2 L16.7 14.4 L16.1 14.4 L15.6 14.2 L15.3 13.9 L15.3 13.9 L15 13.2 L14.9 13.2 A1.4 1.4 0 0 1 14.7 13.8 L14.7 13.8 L14.5 14.1 L14.2 14.1 L13.7 14.3 L13.2 14.3 L12.5 14 L12.5 14 L12.7 14.6 L12.8 14.6 C12.9 14.6 12.9 14.8 12.9 14.9 L12.8 14.9 L12.8 15.1 L12.6 15.6 L12.3 15.9 L12.2 15.9 L11.5 16.2 L11.5 16.2 L12.1 16.4 L12.2 16.4 L12.5 16.6 L12.5 16.8 L12.7 17.4 A0.3 0.3 0 0 1 12.7 17.8 L12.7 17.8 L12.4 18.5 L12.5 18.5 L13 18.2 L13.8 18.2 L14.3 18.40001 L14.6 18.7 L14.6 18.7 z" style="fill:#03689A;" />
            <path d="M15 15.5 A0.5 0.5 0 1 1 14.5 16 A0.5 0.5 0 0 1 15 15.5 M15 14.5 A1.5 1.5 0 1 0 16.5 16 A1.5 1.5 0 0 0 15 14.5 z" style="fill:#03689A;" />
            <path d="M12 11.5 L11.9 11.5 A1.4 1.4 0 0 1 11.7 12.1 L11.7 12.1 L11.5 12.4 L11.2 12.4 L10.7 12.6 L10.2 12.6 L9.5 12.3 L9.5 12.3 L9.7 12.9 L9.8 12.9 C9.900001 12.9 9.900001 13.1 9.900001 13.2 L9.8 13.2 L9.8 13.4 L9.6 13.9 L9.3 14.2 L9.2 14.2 L8.5 14.5 L8.5 14.5 L9.1 14.7 L9.200001 14.7 L9.500001 14.9 L9.500001 15.1 L9.700001 15.7 A0.3 0.3 0 0 1 9.700001 16.1 L9.700001 16.1 L9.400001 16.8 L9.500001 16.8 L10 16.5 L10.5 17.5 L9.600001 17.9 L9.1 17.9 L8.6 17.3 C8.400001 17.2 8.400001 17 8.400001 16.8 L8.8 15.9 L8.8 15.9 L8.8 15.6 L7.9 15.2 C7.7 15.1 7.6 15 7.6 14.8 L7.6 14.1 A0.5 0.5 0 0 1 7.9 13.6 L8.8 13.2 L8.8 13 A6.4 6.4 0 0 0 8.400001 12 A0.7 0.7 0 0 1 8.500001 11.5 L9.100001 11 C9.200002 10.8 9.400002 10.8 9.600001 10.9 L10.5 11.2 L10.8 11.2 A4.1 4.1 0 0 1 11.2 10.3 C11.3 10.1 11.4 10 11.6 10 L12.3 10 A0.5 0.5 0 0 1 12.8 10.3 A4.1 4.1 0 0 1 13.2 11.2" style="fill:#03689A;" />
          </g>
          <g />
        </g>
      </g>
      <svg width="130" height="86" class="djs-svg-text">
        <text font-family="'Segoe UI'" font-size="10.6252px" font-style="normal" font-weight="normal" lineHeight="1.2" textDirection="0" textAlign="center" class="djs-label" style="fill:black;">
          <tspan x="15.80997" y="28.75">2. Executar rotina de </tspan>
          <tspan x="6.973816" y="41.75">consulta dos professores</tspan>
          <tspan x="5.646301" y="54.75">na base do Censo Básico </tspan>
          <tspan x="28.66232" y="67.75">do ano anterior</tspan>
        </text>
      </svg>
    </g>
  </g>
  <g class="djs-group">
    <g transform="matrix(1, 0, 0, 1, 321, 149)" id="gfx-e794c1b8-3b80-489b-bd97-59cf077dcec6" display="block" class="djs-element djs-shape" data-element-id="e794c1b8-3b80-489b-bd97-59cf077dcec6">
      <g class="djs-visual">
        <g>
          <rect x="0" y="0" width="130" height="90" rx="8" stroke-width="2px" class="" style="fill:#ECEFFF;stroke:#03689A;" />
          <g transform="translate(-6, -11) scale(1.6)">
            <path d="M15.4 20.5 L14.7 20.5 A0.5 0.5 0 0 1 14.2 20.2 L13.8 19.3 L13.6 19.3 L12.7 19.7 L12.1 19.7 L11.6 19.1 C11.4 19 11.4 18.8 11.4 18.6 L11.8 17.7 L11.8 17.7 L11.8 17.4 L10.9 17 C10.7 16.9 10.6 16.8 10.6 16.6 L10.6 15.9 A0.5 0.5 0 0 1 10.9 15.4 L11.8 15 L11.8 14.8 A6.4 6.4 0 0 0 11.4 13.8 A0.7 0.7 0 0 1 11.5 13.3 L12.1 12.8 C12.2 12.6 12.4 12.6 12.6 12.7 L13.5 13 L13.8 13 A4.1 4.1 0 0 1 14.2 12.1 C14.3 11.9 14.4 11.8 14.6 11.8 L15.3 11.8 A0.5 0.5 0 0 1 15.8 12.1 A4.1 4.1 0 0 1 16.2 13 L16.8 13 L17.6 12.7 L17.9 12.7 L18.4 13.3 C18.6 13.4 18.6 13.6 18.6 13.8 L18.2 14.7 L18.2 14.7 L18.2 15 L19.1 15.4 C19.3 15.5 19.4 15.6 19.4 15.8 L19.4 16.5 A0.5 0.5 0 0 1 19.1 17 L18.2 17.4 L18.2 17.6 A6.4 6.4 0 0 0 18.6 18.6 A0.7 0.7 0 0 1 18.5 19.1 L17.9 19.6 C17.8 19.8 17.6 19.8 17.4 19.7 L16.5 19.4 L16.2 19.4 A4.1 4.1 0 0 1 15.8 20.3 C15.7 20.4 15.6 20.5 15.4 20.5 z M15 19.5 L15.1 19.5 C15.1 19.3 15.2 19.2 15.3 18.9 L15.3 18.9 L15.5 18.6 L15.7 18.6 L16.3 18.4 L16.8 18.4 L17.5 18.7 L17.5 18.7 L17.3 18.1 L17.2 18.1 C17.1 18.1 17.1 17.9 17.1 17.8 L17.2 17.8 L17.2 17.6 L17.4 17.1 L17.7 16.8 L17.8 16.8 L18.5 16.5 L18.5 16.5 L17.9 16.3 L17.7 16.3 L17.4 16 L17.2 15.3 A0.3 0.3 0 0 1 17.2 14.9 L17.2 14.9 L17.5 14.2 L17.2 14.2 L16.7 14.4 L16.1 14.4 L15.6 14.2 L15.3 13.9 L15.3 13.9 L15 13.2 L14.9 13.2 A1.4 1.4 0 0 1 14.7 13.8 L14.7 13.8 L14.5 14.1 L14.2 14.1 L13.7 14.3 L13.2 14.3 L12.5 14 L12.5 14 L12.7 14.6 L12.8 14.6 C12.9 14.6 12.9 14.8 12.9 14.9 L12.8 14.9 L12.8 15.1 L12.6 15.6 L12.3 15.9 L12.2 15.9 L11.5 16.2 L11.5 16.2 L12.1 16.4 L12.2 16.4 L12.5 16.6 L12.5 16.8 L12.7 17.4 A0.3 0.3 0 0 1 12.7 17.8 L12.7 17.8 L12.4 18.5 L12.5 18.5 L13 18.2 L13.8 18.2 L14.3 18.40001 L14.6 18.7 L14.6 18.7 z" style="fill:#03689A;" />
            <path d="M15 15.5 A0.5 0.5 0 1 1 14.5 16 A0.5 0.5 0 0 1 15 15.5 M15 14.5 A1.5 1.5 0 1 0 16.5 16 A1.5 1.5 0 0 0 15 14.5 z" style="fill:#03689A;" />
            <path d="M12 11.5 L11.9 11.5 A1.4 1.4 0 0 1 11.7 12.1 L11.7 12.1 L11.5 12.4 L11.2 12.4 L10.7 12.6 L10.2 12.6 L9.5 12.3 L9.5 12.3 L9.7 12.9 L9.8 12.9 C9.900001 12.9 9.900001 13.1 9.900001 13.2 L9.8 13.2 L9.8 13.4 L9.6 13.9 L9.3 14.2 L9.2 14.2 L8.5 14.5 L8.5 14.5 L9.1 14.7 L9.200001 14.7 L9.500001 14.9 L9.500001 15.1 L9.700001 15.7 A0.3 0.3 0 0 1 9.700001 16.1 L9.700001 16.1 L9.400001 16.8 L9.500001 16.8 L10 16.5 L10.5 17.5 L9.600001 17.9 L9.1 17.9 L8.6 17.3 C8.400001 17.2 8.400001 17 8.400001 16.8 L8.8 15.9 L8.8 15.9 L8.8 15.6 L7.9 15.2 C7.7 15.1 7.6 15 7.6 14.8 L7.6 14.1 A0.5 0.5 0 0 1 7.9 13.6 L8.8 13.2 L8.8 13 A6.4 6.4 0 0 0 8.400001 12 A0.7 0.7 0 0 1 8.500001 11.5 L9.100001 11 C9.200002 10.8 9.400002 10.8 9.600001 10.9 L10.5 11.2 L10.8 11.2 A4.1 4.1 0 0 1 11.2 10.3 C11.3 10.1 11.4 10 11.6 10 L12.3 10 A0.5 0.5 0 0 1 12.8 10.3 A4.1 4.1 0 0 1 13.2 11.2" style="fill:#03689A;" />
          </g>
          <g />
        </g>
      </g>
      <svg width="130" height="86" class="djs-svg-text">
        <text font-family="'Segoe UI'" font-size="10.6252px" font-style="normal" font-weight="normal" lineHeight="1.2" textDirection="0" textAlign="center" class="djs-label" style="fill:black;">
          <tspan x="15.80997" y="35.25">1. Executar rotina de </tspan>
          <tspan x="8.915794" y="48.25">validação de matrículas </tspan>
          <tspan x="13.25609" y="61.25">dos servidores (SIAPE)</tspan>
        </text>
      </svg>
    </g>
  </g>
  <g class="djs-group">
    <g transform="matrix(1, 0, 0, 1, 563, 149)" id="gfx-493ccdd5-3d7b-4320-88e8-07620782b579" display="block" class="djs-element djs-shape" data-element-id="493ccdd5-3d7b-4320-88e8-07620782b579">
      <g class="djs-visual">
        <g>
          <rect x="0" y="0" width="130" height="90" rx="8" stroke-width="2px" class="" style="fill:#ECEFFF;stroke:#03689A;" />
          <g transform="translate(-6, -11) scale(1.6)">
            <path d="M15.4 20.5 L14.7 20.5 A0.5 0.5 0 0 1 14.2 20.2 L13.8 19.3 L13.6 19.3 L12.7 19.7 L12.1 19.7 L11.6 19.1 C11.4 19 11.4 18.8 11.4 18.6 L11.8 17.7 L11.8 17.7 L11.8 17.4 L10.9 17 C10.7 16.9 10.6 16.8 10.6 16.6 L10.6 15.9 A0.5 0.5 0 0 1 10.9 15.4 L11.8 15 L11.8 14.8 A6.4 6.4 0 0 0 11.4 13.8 A0.7 0.7 0 0 1 11.5 13.3 L12.1 12.8 C12.2 12.6 12.4 12.6 12.6 12.7 L13.5 13 L13.8 13 A4.1 4.1 0 0 1 14.2 12.1 C14.3 11.9 14.4 11.8 14.6 11.8 L15.3 11.8 A0.5 0.5 0 0 1 15.8 12.1 A4.1 4.1 0 0 1 16.2 13 L16.8 13 L17.6 12.7 L17.9 12.7 L18.4 13.3 C18.6 13.4 18.6 13.6 18.6 13.8 L18.2 14.7 L18.2 14.7 L18.2 15 L19.1 15.4 C19.3 15.5 19.4 15.6 19.4 15.8 L19.4 16.5 A0.5 0.5 0 0 1 19.1 17 L18.2 17.4 L18.2 17.6 A6.4 6.4 0 0 0 18.6 18.6 A0.7 0.7 0 0 1 18.5 19.1 L17.9 19.6 C17.8 19.8 17.6 19.8 17.4 19.7 L16.5 19.4 L16.2 19.4 A4.1 4.1 0 0 1 15.8 20.3 C15.7 20.4 15.6 20.5 15.4 20.5 z M15 19.5 L15.1 19.5 C15.1 19.3 15.2 19.2 15.3 18.9 L15.3 18.9 L15.5 18.6 L15.7 18.6 L16.3 18.4 L16.8 18.4 L17.5 18.7 L17.5 18.7 L17.3 18.1 L17.2 18.1 C17.1 18.1 17.1 17.9 17.1 17.8 L17.2 17.8 L17.2 17.6 L17.4 17.1 L17.7 16.8 L17.8 16.8 L18.5 16.5 L18.5 16.5 L17.9 16.3 L17.7 16.3 L17.4 16 L17.2 15.3 A0.3 0.3 0 0 1 17.2 14.9 L17.2 14.9 L17.5 14.2 L17.2 14.2 L16.7 14.4 L16.1 14.4 L15.6 14.2 L15.3 13.9 L15.3 13.9 L15 13.2 L14.9 13.2 A1.4 1.4 0 0 1 14.7 13.8 L14.7 13.8 L14.5 14.1 L14.2 14.1 L13.7 14.3 L13.2 14.3 L12.5 14 L12.5 14 L12.7 14.6 L12.8 14.6 C12.9 14.6 12.9 14.8 12.9 14.9 L12.8 14.9 L12.8 15.1 L12.6 15.6 L12.3 15.9 L12.2 15.9 L11.5 16.2 L11.5 16.2 L12.1 16.4 L12.2 16.4 L12.5 16.6 L12.5 16.8 L12.7 17.4 A0.3 0.3 0 0 1 12.7 17.8 L12.7 17.8 L12.4 18.5 L12.5 18.5 L13 18.2 L13.8 18.2 L14.3 18.40001 L14.6 18.7 L14.6 18.7 z" style="fill:#03689A;" />
            <path d="M15 15.5 A0.5 0.5 0 1 1 14.5 16 A0.5 0.5 0 0 1 15 15.5 M15 14.5 A1.5 1.5 0 1 0 16.5 16 A1.5 1.5 0 0 0 15 14.5 z" style="fill:#03689A;" />
            <path d="M12 11.5 L11.9 11.5 A1.4 1.4 0 0 1 11.7 12.1 L11.7 12.1 L11.5 12.4 L11.2 12.4 L10.7 12.6 L10.2 12.6 L9.5 12.3 L9.5 12.3 L9.7 12.9 L9.8 12.9 C9.900001 12.9 9.900001 13.1 9.900001 13.2 L9.8 13.2 L9.8 13.4 L9.6 13.9 L9.3 14.2 L9.2 14.2 L8.5 14.5 L8.5 14.5 L9.1 14.7 L9.200001 14.7 L9.500001 14.9 L9.500001 15.1 L9.700001 15.7 A0.3 0.3 0 0 1 9.700001 16.1 L9.700001 16.1 L9.400001 16.8 L9.500001 16.8 L10 16.5 L10.5 17.5 L9.600001 17.9 L9.1 17.9 L8.6 17.3 C8.400001 17.2 8.400001 17 8.400001 16.8 L8.8 15.9 L8.8 15.9 L8.8 15.6 L7.9 15.2 C7.7 15.1 7.6 15 7.6 14.8 L7.6 14.1 A0.5 0.5 0 0 1 7.9 13.6 L8.8 13.2 L8.8 13 A6.4 6.4 0 0 0 8.400001 12 A0.7 0.7 0 0 1 8.500001 11.5 L9.100001 11 C9.200002 10.8 9.400002 10.8 9.600001 10.9 L10.5 11.2 L10.8 11.2 A4.1 4.1 0 0 1 11.2 10.3 C11.3 10.1 11.4 10 11.6 10 L12.3 10 A0.5 0.5 0 0 1 12.8 10.3 A4.1 4.1 0 0 1 13.2 11.2" style="fill:#03689A;" />
          </g>
          <g />
        </g>
      </g>
      <svg width="130" height="86" class="djs-svg-text">
        <text font-family="'Segoe UI'" font-size="10.6252px" font-style="normal" font-weight="normal" lineHeight="1.2" textDirection="0" textAlign="center" class="djs-label" style="fill:black;">
          <tspan x="12.41347" y="41.75">3. Atualizar status dos </tspan>
          <tspan x="15.26549" y="54.75">participantes do RNC</tspan>
        </text>
      </svg>
    </g>
  </g>
  <g class="djs-group">
    <g transform="matrix(1, 0, 0, 1, 1049, 179)" id="gfx-346234e4-bb28-4e29-af46-fcd874fd93c7" display="block" class="djs-element djs-shape" data-element-id="346234e4-bb28-4e29-af46-fcd874fd93c7">
      <g class="djs-visual">
        <g>
          <g transform="translate(-8.90625, -8.90625) scale(1.5)">
            <path d="M16 25.2 A9.2 9.2 0 1 1 25.2 16 A9.2 9.2 0 0 1 16 25.2 z" style="fill:#EEAAAA;" />
            <path d="M16 7.5 A8.5 8.5 0 1 1 7.5 16 A8.5 8.5 0 0 1 16 7.5 M16 6 A10 10 0 1 0 26 16 A10 10 0 0 0 16 6 z" stroke-width="0.4px" class="" style="fill:#990000;stroke:#990000;" />
          </g>
        </g>
      </g>
    </g>
  </g>
  <g class="djs-group">
    <g transform="matrix(1, 0, 0, 1, 1019, 217)" id="gfx-8ad4e489-9470-40de-b86c-e83331f41b90" display="block" class="djs-element djs-shape" data-element-id="8ad4e489-9470-40de-b86c-e83331f41b90">
      <g class="djs-visual">
        <rect x="0" y="0" width="90" height="36" fill-opacity="0" stroke-opacity="0" style="fill:#FFFFFF;stroke:transparent;" />
        <svg width="90" height="31" class="djs-svg-text">
          <text font-family="'Segoe UI'" font-size="10.6252px" font-style="normal" font-weight="normal" lineHeight="1.2" textDirection="0" textAlign="center" class="djs-label" style="fill:black;">
            <tspan x="19.01008" y="14.75">Rotinas de </tspan>
            <tspan x="18.72487" y="27.75">verificação </tspan>
            <tspan x="18.9686" y="40.75">executadas</tspan>
          </text>
        </svg>
      </g>
    </g>
  </g>
  <g class="djs-group">
    <g transform="matrix(1, 0, 0, 1, 241, 174)" id="gfx-a6bc17bf-5364-4aab-94b8-18558dfe1f4d" display="block" class="djs-element djs-shape" data-element-id="a6bc17bf-5364-4aab-94b8-18558dfe1f4d">
      <g class="djs-visual">
        <g>
          <path d="M0 20 L20 40 L40 20 L20 0 z" stroke-width="1.8px" class="" style="fill:#FFFFCC;stroke:#A6A61D;" />
          <polygon points="20,15.5 16.5,15.5 16.5,12 15.5,12 15.5,15.5 12,15.5 12,16.5 15.5,16.5 15.5,20 16.5,20 16.5,16.5 20,16.5 20,15.5" transform="translate(-16.8, -16.8) scale(2.3)" style="fill:#A6A61D;stroke:#A6A61D;" />
        </g>
      </g>
    </g>
  </g>
  <g class="djs-group">
    <g transform="matrix(1, 0, 0, 1, 492, 174)" id="gfx-c3c6056f-713d-4133-b34e-5dbbff60832f" display="block" class="djs-element djs-shape" data-element-id="c3c6056f-713d-4133-b34e-5dbbff60832f">
      <g class="djs-visual">
        <g>
          <path d="M0 20 L20 40 L40 20 L20 0 z" stroke-width="1.8px" class="" style="fill:#FFFFCC;stroke:#A6A61D;" />
          <polygon points="20,15.5 16.5,15.5 16.5,12 15.5,12 15.5,15.5 12,15.5 12,16.5 15.5,16.5 15.5,20 16.5,20 16.5,16.5 20,16.5 20,15.5" transform="translate(-16.8, -16.8) scale(2.3)" style="fill:#A6A61D;stroke:#A6A61D;" />
        </g>
      </g>
    </g>
  </g>
  <g class="djs-group">
    <g transform="matrix(1, 0, 0, 1, 602, 264)" id="gfx-a15a2584-e7a0-49a4-b454-49510576bb99" display="block" class="djs-element djs-shape" data-element-id="a15a2584-e7a0-49a4-b454-49510576bb99">
      <g class="djs-visual">
        <path d="M0 7 L0 43 A25 7 0 0 0 50 43 L50 7 A25 7 0 0 0 0 7 A25 7 0 0 0 50 7 M0 10 A25 7 0 0 0 50 10 M0 13 A25 7 0 0 0 50 13" class="" style="fill:#F0F0F0;stroke:#666666;" />
      </g>
    </g>
  </g>
  <g class="djs-group">
    <g transform="matrix(1, 0, 0, 1, 582, 322)" id="gfx-f107dee3-4eea-4ec0-9976-9679adb313e6" display="block" class="djs-element djs-shape" data-element-id="f107dee3-4eea-4ec0-9976-9679adb313e6">
      <g class="djs-visual">
        <rect x="0" y="0" width="90" height="30" fill-opacity="0" stroke-opacity="0" style="fill:#FFFFFF;stroke:transparent;" />
        <svg width="90" height="25" class="djs-svg-text">
          <text font-family="'Segoe UI'" font-size="10.6252px" font-style="normal" font-weight="normal" lineHeight="1.2" textDirection="0" textAlign="center" class="djs-label" style="fill:black;">
            <tspan x="22.334" y="14.75">Base RNC</tspan>
          </text>
        </svg>
      </g>
    </g>
  </g>
  <g class="djs-group">
    <g transform="matrix(1, 0, 0, 1, 552, 38)" id="gfx-3823fb53-44a7-49bd-b18d-bb2bccfeaa16" display="block" class="djs-element djs-shape" data-element-id="3823fb53-44a7-49bd-b18d-bb2bccfeaa16">
      <g class="djs-visual">
        <g>
          <rect x="0" y="0" width="153" height="97" class="" style="fill:#D5D5D5;" />
          <path d="M51 0 L0 0 L0 97 L51 97" stroke-width="0.4px" shape-rendering="crispEdges" fill-opacity="0" style="fill:transparent;stroke:black;" />
        </g>
      </g>
      <svg width="153" height="97" class="djs-svg-text">
        <text font-family="'Segoe UI'" font-size="10.6252px" font-style="normal" font-weight="normal" lineHeight="1.2" textDirection="0" textAlign="center" class="djs-label" style="fill:black;">
          <tspan x="22.87892" y="19.25">Os servidores que não </tspan>
          <tspan x="10.10176" y="32.25">estiverem ativos na base do </tspan>
          <tspan x="11.84669" y="45.25">SIAPE e os professores que </tspan>
          <tspan x="13.09121" y="58.25">não constarem na base do </tspan>
          <tspan x="15.461" y="71.25">Censo são indicados para </tspan>
          <tspan x="21.16252" y="84.25">desabilitação (restrição)</tspan>
        </text>
      </svg>
    </g>
  </g>
  <g class="djs-group">
    <g transform="matrix(1, 0, 0, 1, 46, 31)" id="gfx-ee9e4e7d-a93d-45ad-8c96-9770b1e53b7e" display="block" class="djs-element djs-shape" data-element-id="ee9e4e7d-a93d-45ad-8c96-9770b1e53b7e">
      <g class="djs-visual">
        <g>
          <rect x="0" y="0" width="250" height="97" class="" style="fill:#D5D5D5;" />
          <path d="M83.33334 0 L0 0 L0 97 L83.33334 97" stroke-width="0.4px" shape-rendering="crispEdges" fill-opacity="0" style="fill:transparent;stroke:black;" />
        </g>
      </g>
      <svg width="250" height="97" class="djs-svg-text">
        <text font-family="'Segoe UI'" font-size="10.6252px" font-style="normal" font-weight="normal" lineHeight="1.2" textDirection="0" textAlign="center" class="djs-label" style="fill:black;">
          <tspan x="14.0476" y="25.75">Este subprocesso ocorre durante os processos  </tspan>
          <tspan x="12.9042" y="38.75">"Habilitar e triar certificadores para capacitação </tspan>
          <tspan x="8.299408" y="51.75">RNC" e "Gerar demandas RNC".  Nele ocorrem as </tspan>
          <tspan x="17.49337" y="64.75">rotinas de validação dos candidatos quanto a </tspan>
          <tspan x="38.12149" y="77.75">critérios estabelecidos no edital RNC.</tspan>
        </text>
      </svg>
    </g>
  </g>
  <g class="djs-group">
    <g transform="matrix(1, 0, 0, 1, 157, 179)" id="gfx-bdfb4d2b-cc5a-4d0a-ab3d-232744c15384" display="block" class="djs-element djs-shape" data-element-id="bdfb4d2b-cc5a-4d0a-ab3d-232744c15384">
      <g class="djs-visual">
        <g>
          <g transform="translate(-8.90625, -8.90625) scale(1.5)">
            <path d="M15.9 25.5 A9.5 9.5 0 1 1 25.4 16 A9.6 9.6 0 0 1 15.9 25.5 z" style="fill:#FEFAEF;" />
            <path d="M15.9 7 A9 9 0 1 1 6.9 16 A9 9 0 0 1 15.9 7 M15.9 6 A10 10 0 1 0 25.9 16 A10 10 0 0 0 15.9 6 z" class="" style="fill:#969149;" />
            <path d="M15.9 8.8 A7.2 7.2 0 1 1 8.7 16 A7.3 7.3 0 0 1 15.9 8.8 M15.9 7.8 A8.2 8.2 0 0 0 15.9 24.2 A8.2 8.2 0 1 0 15.9 7.800001 z" class="" style="fill:#969149;" />
          </g>
        </g>
      </g>
    </g>
  </g>
  <g class="djs-group">
    <g transform="matrix(1, 0, 0, 1, 127, 217)" id="gfx-9513ab5e-708b-4913-8837-9a0d613bd1d7" display="block" class="djs-element djs-shape" data-element-id="9513ab5e-708b-4913-8837-9a0d613bd1d7">
      <g class="djs-visual">
        <rect x="0" y="0" width="90" height="36" fill-opacity="0" stroke-opacity="0" style="fill:#FFFFFF;stroke:transparent;" />
        <svg width="90" height="31" class="djs-svg-text">
          <text font-family="'Segoe UI'" font-size="10.6252px" font-style="normal" font-weight="normal" lineHeight="1.2" textDirection="0" textAlign="center" class="djs-label" style="fill:black;">
            <tspan x="21.26319" y="14.75">Rotina de </tspan>
            <tspan x="11.44177" y="27.75">verificação da </tspan>
            <tspan x="20.80167" y="40.75">base RNC </tspan>
            <tspan x="27.15397" y="53.75">iniciada</tspan>
          </text>
        </svg>
      </g>
    </g>
  </g>
  <g class="djs-group">
    <g id="gfx-039bb12e-f279-4fd3-a258-94ed773b9998" display="block" class="djs-element djs-connection" data-element-id="039bb12e-f279-4fd3-a258-94ed773b9998">
      <g class="djs-visual">
        <g>
          <defs>
            <marker refX="9.8" refY="6" orient="auto" markerWidth="12" markerHeight="12" markerUnits="strokeWidth" id="arrowSecuenceFlow039bb12e-f279-4fd3-a258-94ed773b9998#1">
              <path d="M0 0 L2 6 L0 12 L10 6 z" style="fill:black;" />
            </marker>
          </defs>
          <path d="M693 194 L727 194" marker-end="url(#arrowSecuenceFlow039bb12e-f279-4fd3-a258-94ed773b9998)" stroke-width="1px" stroke-linejoin="round" shape-rendering="crispEdges" fill-opacity="0" class="" style="fill:transparent;stroke:black;" />
        </g>
      </g>
    </g>
  </g>
  <g class="djs-group">
    <g id="gfx-40e6e427-fe09-4f67-8847-8235d64fc9ad" display="block" class="djs-element djs-connection" data-element-id="40e6e427-fe09-4f67-8847-8235d64fc9ad">
      <g class="djs-visual">
        <g>
          <defs>
            <marker refX="9.8" refY="6" orient="auto" markerWidth="12" markerHeight="12" markerUnits="strokeWidth" id="arrowSecuenceFlow40e6e427-fe09-4f67-8847-8235d64fc9ad">
              <path d="M0 0 L2 6 L0 12 L10 6 z" style="fill:black;" />
            </marker>
          </defs>
          <path d="M857 194 L896 194" marker-end="url(#arrowSecuenceFlow40e6e427-fe09-4f67-8847-8235d64fc9ad)" stroke-width="1px" stroke-linejoin="round" shape-rendering="crispEdges" fill-opacity="0" class="" style="fill:transparent;stroke:black;" />
        </g>
      </g>
    </g>
  </g>
  <g class="djs-group">
    <g id="gfx-0f60ddc4-6ad4-490f-9e8d-7cee5b2080a1" display="block" class="djs-element djs-connection" data-element-id="0f60ddc4-6ad4-490f-9e8d-7cee5b2080a1">
      <g class="djs-visual">
        <g>
          <defs>
            <marker refX="9.8" refY="6" orient="auto" markerWidth="12" markerHeight="12" markerUnits="strokeWidth" id="arrowSecuenceFlow0f60ddc4-6ad4-490f-9e8d-7cee5b2080a1">
              <path d="M0 0 L2 6 L0 12 L10 6 z" style="fill:black;" />
            </marker>
          </defs>
          <path d="M187 194 L241 194" marker-end="url(#arrowSecuenceFlow0f60ddc4-6ad4-490f-9e8d-7cee5b2080a1)" stroke-width="1px" stroke-linejoin="round" shape-rendering="crispEdges" fill-opacity="0" class="" style="fill:transparent;stroke:black;" />
        </g>
      </g>
    </g>
  </g>
  <g class="djs-group">
    <g id="gfx-5ff0a7d9-071c-4917-bb77-1cefafc17f13" display="block" class="djs-element djs-connection" data-element-id="5ff0a7d9-071c-4917-bb77-1cefafc17f13">
      <g class="djs-visual">
        <g>
          <defs>
            <marker refX="9.8" refY="6" orient="auto" markerWidth="12" markerHeight="12" markerUnits="strokeWidth" id="arrowSecuenceFlow5ff0a7d9-071c-4917-bb77-1cefafc17f13">
              <path d="M0 0 L2 6 L0 12 L10 6 z" style="fill:black;" />
            </marker>
          </defs>
          <path d="M1026 194 L1049 194" marker-end="url(#arrowSecuenceFlow5ff0a7d9-071c-4917-bb77-1cefafc17f13)" stroke-width="1px" stroke-linejoin="round" shape-rendering="crispEdges" fill-opacity="0" class="" style="fill:transparent;stroke:black;" />
        </g>
      </g>
    </g>
  </g>
  <g class="djs-group">
    <g id="gfx-b1fbdd33-89f6-4b31-8f20-fe8ea78615fb" display="block" class="djs-element djs-connection" data-element-id="b1fbdd33-89f6-4b31-8f20-fe8ea78615fb">
      <g class="djs-visual">
        <g>
          <defs>
            <marker refX="9.8" refY="6" orient="auto" markerWidth="12" markerHeight="12" markerUnits="strokeWidth" id="arrowSecuenceFlowb1fbdd33-89f6-4b31-8f20-fe8ea78615fb">
              <path d="M0 0 L2 6 L0 12 L10 6 z" style="fill:black;" />
            </marker>
          </defs>
          <path d="M453 316 L506 316 C506 316 512 316 512 310 L512 214" marker-end="url(#arrowSecuenceFlowb1fbdd33-89f6-4b31-8f20-fe8ea78615fb)" stroke-width="1px" stroke-linejoin="round" shape-rendering="crispEdges" fill-opacity="0" class="" style="fill:transparent;stroke:black;" />
        </g>
      </g>
    </g>
  </g>
  <g class="djs-group">
    <g id="gfx-8a241b97-d014-4478-a5c4-509bad88e206" display="block" class="djs-element djs-connection" data-element-id="8a241b97-d014-4478-a5c4-509bad88e206">
      <g class="djs-visual">
        <g>
          <defs>
            <marker refX="9.8" refY="6" orient="auto" markerWidth="12" markerHeight="12" markerUnits="strokeWidth" id="arrowSecuenceFlow8a241b97-d014-4478-a5c4-509bad88e206">
              <path d="M0 0 L2 6 L0 12 L10 6 z" style="fill:black;" />
            </marker>
          </defs>
          <path d="M451 194 L492 194" marker-end="url(#arrowSecuenceFlow8a241b97-d014-4478-a5c4-509bad88e206)" stroke-width="1px" stroke-linejoin="round" shape-rendering="crispEdges" fill-opacity="0" class="" style="fill:transparent;stroke:black;" />
        </g>
      </g>
    </g>
  </g>
  <g class="djs-group">
    <g id="gfx-1a71c380-5bfe-4291-863d-c6049dacd906" display="block" class="djs-element djs-connection" data-element-id="1a71c380-5bfe-4291-863d-c6049dacd906">
      <g class="djs-visual">
        <g>
          <defs>
            <marker refX="9.8" refY="6" orient="auto" markerWidth="12" markerHeight="12" markerUnits="strokeWidth" id="arrowSecuenceFlow1a71c380-5bfe-4291-863d-c6049dacd906">
              <path d="M0 0 L2 6 L0 12 L10 6 z" style="fill:black;" />
            </marker>
          </defs>
          <path d="M261 214 L261 310 C261 310 261 316 267 316 L323 316" marker-end="url(#arrowSecuenceFlow1a71c380-5bfe-4291-863d-c6049dacd906)" stroke-width="1px" stroke-linejoin="round" shape-rendering="crispEdges" fill-opacity="0" class="" style="fill:transparent;stroke:black;" />
        </g>
      </g>
    </g>
  </g>
  <g class="djs-group">
    <g id="gfx-838a746f-8e0f-4ed9-87cf-9e1d38669a37" display="block" class="djs-element djs-connection" data-element-id="838a746f-8e0f-4ed9-87cf-9e1d38669a37">
      <g class="djs-visual">
        <g>
          <defs>
            <marker refX="9.8" refY="6" orient="auto" markerWidth="12" markerHeight="12" markerUnits="strokeWidth" id="arrowSecuenceFlow838a746f-8e0f-4ed9-87cf-9e1d38669a37">
              <path d="M0 0 L2 6 L0 12 L10 6 z" style="fill:black;" />
            </marker>
          </defs>
          <path d="M281 194 L321 194" marker-end="url(#arrowSecuenceFlow838a746f-8e0f-4ed9-87cf-9e1d38669a37)" stroke-width="1px" stroke-linejoin="round" shape-rendering="crispEdges" fill-opacity="0" class="" style="fill:transparent;stroke:black;" />
        </g>
      </g>
    </g>
  </g>
  <g class="djs-group">
    <g id="gfx-7e0fbc2b-5adc-478b-bc7b-cabc7ec46560" display="block" class="djs-element djs-connection" data-element-id="7e0fbc2b-5adc-478b-bc7b-cabc7ec46560">
      <g class="djs-visual">
        <g>
          <defs>
            <marker refX="9.8" refY="6" orient="auto" markerWidth="12" markerHeight="12" markerUnits="strokeWidth" id="arrowSecuenceFlow7e0fbc2b-5adc-478b-bc7b-cabc7ec46560">
              <path d="M0 0 L2 6 L0 12 L10 6 z" style="fill:black;" />
            </marker>
          </defs>
          <path d="M532 194 L563 194" marker-end="url(#arrowSecuenceFlow7e0fbc2b-5adc-478b-bc7b-cabc7ec46560)" stroke-width="1px" stroke-linejoin="round" shape-rendering="crispEdges" fill-opacity="0" class="" style="fill:transparent;stroke:black;" />
        </g>
      </g>
    </g>
  </g>
  <g class="djs-group">
    <g id="gfx-3a010d8c-438e-4bb5-b4f2-dc53485caee1" display="block" class="djs-element djs-connection" data-element-id="3a010d8c-438e-4bb5-b4f2-dc53485caee1">
      <g class="djs-visual">
        <g>
          <defs>
            <marker refX="5.5" refY="4" orient="auto" markerWidth="10" markerHeight="8" id="arrowAssociation3a010d8c-438e-4bb5-b4f2-dc53485caee1">
              <path d="M0 0 L4.5 4 L0 8" stroke-width="0.7px" stroke-dasharray="0" style="stroke:black;" />
            </marker>
          </defs>
          <path d="M628 149 L628 135" stroke-width="1.5px" stroke-linejoin="round" stroke-dasharray="2 5" shape-rendering="crispEdges" fill-opacity="0" class="" style="fill:transparent;stroke:black;" />
        </g>
      </g>
    </g>
  </g>
  <g class="djs-group">
    <g id="gfx-ce2930b4-1000-44d9-8731-2f0ca5f281aa" display="block" class="djs-element djs-connection" data-element-id="ce2930b4-1000-44d9-8731-2f0ca5f281aa">
      <g class="djs-visual">
        <g>
          <defs>
            <marker refX="5.5" refY="4" orient="auto" markerWidth="10" markerHeight="8" id="arrowAssociationce2930b4-1000-44d9-8731-2f0ca5f281aa">
              <path d="M0 0 L4.5 4 L0 8" stroke-width="0.7px" stroke-dasharray="0" style="stroke:black;" />
            </marker>
          </defs>
          <path d="M628 239 L628 251.5 L627 251.5 L627 264" marker-end="url(#arrowAssociationce2930b4-1000-44d9-8731-2f0ca5f281aa)" stroke-width="1.5px" stroke-linejoin="round" stroke-dasharray="2 5" shape-rendering="crispEdges" fill-opacity="0" class="" style="fill:transparent;stroke:black;" />
        </g>
      </g>
    </g>
  </g>
  <g class="djs-group">
    <g id="gfx-d46dad7b-4429-4bb9-a2cf-9b6a9afd6cec" display="block" class="djs-element djs-connection" data-element-id="d46dad7b-4429-4bb9-a2cf-9b6a9afd6cec">
      <g class="djs-visual">
        <g>
          <defs>
            <marker refX="5.5" refY="4" orient="auto" markerWidth="10" markerHeight="8" id="arrowAssociationd46dad7b-4429-4bb9-a2cf-9b6a9afd6cec">
              <path d="M0 0 L4.5 4 L0 8" stroke-width="0.7px" stroke-dasharray="0" style="stroke:black;" />
            </marker>
          </defs>
          <path d="M172 179 L172 152.5 L171 152.5 L171 128" stroke-width="1.5px" stroke-linejoin="round" stroke-dasharray="2 5" shape-rendering="crispEdges" fill-opacity="0" class="" style="fill:transparent;stroke:black;" />
        </g>
      </g>
    </g>
  </g>
</svg>