<?xml version="1.0" encoding="utf-8"?>
<!DOCTYPE svg PUBLIC "-//W3C//DTD SVG 1.1//EN" "http://www.w3.org/Graphics/SVG/1.1/DTD/svg11.dtd">
<svg width="1095" height="432px" viewBox="30, 15, 1095, 432" xmlns="http://www.w3.org/2000/svg" xmlns:xlink="http://www.w3.org/1999/xlink" xmlns:xml="http://www.w3.org/XML/1998/namespace" version="1.1">
  <defs>
    <marker refX="9.8" refY="6" orient="auto" markerWidth="12" markerHeight="12" markerUnits="strokeWidth" id="arrowSecuenceFlow3cbe2821-f8c8-40a3-be60-0f00889f27ab">
      <path d="M0 0 L2 6 L0 12 L10 6 z" style="fill:black;" />
    </marker>
  </defs>
  <g class="djs-group">
    <g transform="matrix(1, 0, 0, 1, 323, 271)" id="gfx-ac57d569-d60c-439b-aa2e-f1ecd7a1a6be" display="block" class="djs-element djs-shape" data-element-id="ac57d569-d60c-439b-aa2e-f1ecd7a1a6be">
      <g class="djs-visual">
        <g>
          <rect x="0" y="0" width="130" height="90" rx="8" stroke-width="2px" class="" style="fill:#ECEFFF;stroke:#03689A;" />
          <g transform="translate(-6, -11) scale(1.6)">
            <path d="M15.4 20.5 L14.7 20.5 A0.5 0.5 0 0 1 14.2 20.2 L13.8 19.3 L13.6 19.3 L12.7 19.7 L12.1 19.7 L11.6 19.1 C11.4 19 11.4 18.8 11.4 18.6 L11.8 17.7 L11.8 17.7 L11.8 17.4 L10.9 17 C10.7 16.9 10.6 16.8 10.6 16.6 L10.6 15.9 A0.5 0.5 0 0 1 10.9 15.4 L11.8 15 L11.8 14.8 A6.4 6.4 0 0 0 11.4 13.8 A0.7 0.7 0 0 1 11.5 13.3 L12.1 12.8 C12.2 12.6 12.4 12.6 12.6 12.7 L13.5 13 L13.8 13 A4.1 4.1 0 0 1 14.2 12.1 C14.3 11.9 14.4 11.8 14.6 11.8 L15.3 11.8 A0.5 0.5 0 0 1 15.8 12.1 A4.1 4.1 0 0 1 16.2 13 L16.8 13 L17.6 12.7 L17.9 12.7 L18.4 13.3 C18.6 13.4 18.6 13.6 18.6 13.8 L18.2 14.7 L18.2 14.7 L18.2 15 L19.1 15.4 C19.3 15.5 19.4 15.6 19.4 15.8 L19.4 16.5 A0.5 0.5 0 0 1 19.1 17 L18.2 17.4 L18.2 17.6 A6.4 6.4 0 0 0 18.6 18.6 A0.7 0.7 0 0 1 18.5 19.1 L17.9 19.6 C17.8 19.8 17.6 19.8 17.4 19.7 L16.5 19.4 L16.2 19.4 A4.1 4.1 0 0 1 15.8 20.3 C15.7 20.4 15.6 20.5 15.4 20.5 z M15 19.5 L15.1 19.5 C15.1 19.3 15.2 19.2 15.3 18.9 L15.3 18.9 L15.5 18.6 L15.7 18.6 L16.3 18.4 L16.8 18.4 L17.5 18.7 L17.5 18.7 L17.3 18.1 L17.2 18.1 C17.1 18.1 17.1 17.9 17.1 17.8 L17.2 17.8 L17.2 17.6 L17.4 17.1 L17.7 16.8 L17.8 16.8 L18.5 16.5 L18.5 16.5 L17.9 16.3 L17.7 16.3 L17.4 16 L17.2 15.3 A0.3 0.3 0 0 1 17.2 14.9 L17.2 14.9 L17.5 14.2 L17.2 14.2 L16.7 14.4 L16.1 14.4 L15.6 14.2 L15.3 13.9 L15.3 13.9 L15 13.2 L14.9 13.2 A1.4 1.4 0 0 1 14.7 13.8 L14.7 13.8 L14.5 14.1 L14.2 14.1 L13.7 14.3 L13.2 14.3 L12.5 14 L12.5 14 L12.7 14.6 L12.8 14.6 C12.9 14.6 12.9 14.8 12.9 14.9 L12.8 14.9 L12.8 15.1 L12.6 15.6 L12.3 15.9 L12.2 15.9 L11.5 16.2 L11.5 16.2 L12.1 16.4 L12.2 16.4 L12.5 16.6 L12.5 16.8 L12.7 17.4 A0.3 0.3 0 0 1 12.7 17.8 L12.7 17.8 L12.4 18.5 L12.5 18.5 L13 18.2 L13.8 18.2 L14.3 18.40001 L14.6 18.7 L14.6 18.7 z" style="fill:#03689A;" />
            <path d="M15 15.5 A0.5 0.5 0 1 1 14.5 16 A0.5 0.5 0 0 1 15 15.5 M15 14.5 A1.5 1.5 0 1 0 16.5 16 A1.5 1.5 0 0 0 15 14.5 z" style="fill:#03689A;" />
            <path d="M12 11.5 L11.9 11.5 A1.4 1.4 0 0 1 11.7 12.1 L11.7 12.1 L11.5 12.4 L11.2 12.4 L10.7 12.6 L10.2 12.6 L9.5 12.3 L9.5 12.3 L9.7 12.9 L9.8 12.9 C9.900001 12.9 9.900001 13.1 9.900001 13.2 L9.8 13.2 L9.8 13.4 L9.6 13.9 L9.3 14.2 L9.2 14.2 L8.5 14.5 L8.5 14.5 L9.1 14.7 L9.200001 14.7 L9.500001 14.9 L9.500001 15.1 L9.700001 15.7 A0.3 0.3 0 0 1 9.700001 16.1 L9.700001 16.1 L9.400001 16.8 L9.500001 16.8 L10 16.5 L10.5 17.5 L9.600001 17.9 L9.1 17.9 L8.6 17.3 C8.400001 17.2 8.400001 17 8.400001 16.8 L8.8 15.9 L8.8 15.9 L8.8 15.6 L7.9 15.2 C7.7 15.1 7.6 15 7.6 14.8 L7.6 14.1 A0.5 0.5 0 0 1 7.9 13.6 L8.8 13.2 L8.8 13 A6.4 6.4 0 0 0 8.400001 12 A0.7 0.7 0 0 1 8.500001 11.5 L9.100001 11 C9.200002 10.8 9.400002 10.8 9.600001 10.9 L10.5 11.2 L10.8 11.2 A4.1 4.1 0 0 1 11.2 10.3 C11.3 10.1 11.4 10 11.6 10 L12.3 10 A0.5 0.5 0 0 1 12.8 10.3 A4.1 4.1 0 0 1 13.2 11.2" style="fill:#03689A;" />
          </g>
          <g />
        </g>
      </g>
      <svg width="130" height="86" class="djs-svg-text">
        <text font-family="'Segoe UI'" font-size="10.6252px" font-style="normal" font-weight="normal" lineHeight="1.2" textDirection="0" textAlign="center" class="djs-label" style="fill:black;">
          <tspan x="15.80997" y="28.75">2. Executar rotina de </tspan>
          <tspan x="6.973816" y="41.75">consulta dos professores</tspan>
          <tspan x="5.646301" y="54.75">na base do Censo Básico </tspan>
          <tspan x="28.66232" y="67.75">do ano anterior</tspan>
        </text>
      </svg>
    </g>
  </g>
  <g class="djs-group">
    <g transform="matrix(1, 0, 0, 1, 321, 149)" id="gfx-ffaba361-4e60-450c-89b5-2a0f594bd7c5" display="block" class="djs-element djs-shape" data-element-id="ffaba361-4e60-450c-89b5-2a0f594bd7c5">
      <g class="djs-visual">
        <g>
          <rect x="0" y="0" width="130" height="90" rx="8" stroke-width="2px" class="" style="fill:#ECEFFF;stroke:#03689A;" />
          <g transform="translate(-6, -11) scale(1.6)">
            <path d="M15.4 20.5 L14.7 20.5 A0.5 0.5 0 0 1 14.2 20.2 L13.8 19.3 L13.6 19.3 L12.7 19.7 L12.1 19.7 L11.6 19.1 C11.4 19 11.4 18.8 11.4 18.6 L11.8 17.7 L11.8 17.7 L11.8 17.4 L10.9 17 C10.7 16.9 10.6 16.8 10.6 16.6 L10.6 15.9 A0.5 0.5 0 0 1 10.9 15.4 L11.8 15 L11.8 14.8 A6.4 6.4 0 0 0 11.4 13.8 A0.7 0.7 0 0 1 11.5 13.3 L12.1 12.8 C12.2 12.6 12.4 12.6 12.6 12.7 L13.5 13 L13.8 13 A4.1 4.1 0 0 1 14.2 12.1 C14.3 11.9 14.4 11.8 14.6 11.8 L15.3 11.8 A0.5 0.5 0 0 1 15.8 12.1 A4.1 4.1 0 0 1 16.2 13 L16.8 13 L17.6 12.7 L17.9 12.7 L18.4 13.3 C18.6 13.4 18.6 13.6 18.6 13.8 L18.2 14.7 L18.2 14.7 L18.2 15 L19.1 15.4 C19.3 15.5 19.4 15.6 19.4 15.8 L19.4 16.5 A0.5 0.5 0 0 1 19.1 17 L18.2 17.4 L18.2 17.6 A6.4 6.4 0 0 0 18.6 18.6 A0.7 0.7 0 0 1 18.5 19.1 L17.9 19.6 C17.8 19.8 17.6 19.8 17.4 19.7 L16.5 19.4 L16.2 19.4 A4.1 4.1 0 0 1 15.8 20.3 C15.7 20.4 15.6 20.5 15.4 20.5 z M15 19.5 L15.1 19.5 C15.1 19.3 15.2 19.2 15.3 18.9 L15.3 18.9 L15.5 18.6 L15.7 18.6 L16.3 18.4 L16.8 18.4 L17.5 18.7 L17.5 18.7 L17.3 18.1 L17.2 18.1 C17.1 18.1 17.1 17.9 17.1 17.8 L17.2 17.8 L17.2 17.6 L17.4 17.1 L17.7 16.8 L17.8 16.8 L18.5 16.5 L18.5 16.5 L17.9 16.3 L17.7 16.3 L17.4 16 L17.2 15.3 A0.3 0.3 0 0 1 17.2 14.9 L17.2 14.9 L17.5 14.2 L17.2 14.2 L16.7 14.4 L16.1 14.4 L15.6 14.2 L15.3 13.9 L15.3 13.9 L15 13.2 L14.9 13.2 A1.4 1.4 0 0 1 14.7 13.8 L14.7 13.8 L14.5 14.1 L14.2 14.1 L13.7 14.3 L13.2 14.3 L12.5 14 L12.5 14 L12.7 14.6 L12.8 14.6 C12.9 14.6 12.9 14.8 12.9 14.9 L12.8 14.9 L12.8 15.1 L12.6 15.6 L12.3 15.9 L12.2 15.9 L11.5 16.2 L11.5 16.2 L12.1 16.4 L12.2 16.4 L12.5 16.6 L12.5 16.8 L12.7 17.4 A0.3 0.3 0 0 1 12.7 17.8 L12.7 17.8 L12.4 18.5 L12.5 18.5 L13 18.2 L13.8 18.2 L14.3 18.40001 L14.6 18.7 L14.6 18.7 z" style="fill:#03689A;" />
            <path d="M15 15.5 A0.5 0.5 0 1 1 14.5 16 A0.5 0.5 0 0 1 15 15.5 M15 14.5 A1.5 1.5 0 1 0 16.5 16 A1.5 1.5 0 0 0 15 14.5 z" style="fill:#03689A;" />
            <path d="M12 11.5 L11.9 11.5 A1.4 1.4 0 0 1 11.7 12.1 L11.7 12.1 L11.5 12.4 L11.2 12.4 L10.7 12.6 L10.2 12.6 L9.5 12.3 L9.5 12.3 L9.7 12.9 L9.8 12.9 C9.900001 12.9 9.900001 13.1 9.900001 13.2 L9.8 13.2 L9.8 13.4 L9.6 13.9 L9.3 14.2 L9.2 14.2 L8.5 14.5 L8.5 14.5 L9.1 14.7 L9.200001 14.7 L9.500001 14.9 L9.500001 15.1 L9.700001 15.7 A0.3 0.3 0 0 1 9.700001 16.1 L9.700001 16.1 L9.400001 16.8 L9.500001 16.8 L10 16.5 L10.5 17.5 L9.600001 17.9 L9.1 17.9 L8.6 17.3 C8.400001 17.2 8.400001 17 8.400001 16.8 L8.8 15.9 L8.8 15.9 L8.8 15.6 L7.9 15.2 C7.7 15.1 7.6 15 7.6 14.8 L7.6 14.1 A0.5 0.5 0 0 1 7.9 13.6 L8.8 13.2 L8.8 13 A6.4 6.4 0 0 0 8.400001 12 A0.7 0.7 0 0 1 8.500001 11.5 L9.100001 11 C9.200002 10.8 9.400002 10.8 9.600001 10.9 L10.5 11.2 L10.8 11.2 A4.1 4.1 0 0 1 11.2 10.3 C11.3 10.1 11.4 10 11.6 10 L12.3 10 A0.5 0.5 0 0 1 12.8 10.3 A4.1 4.1 0 0 1 13.2 11.2" style="fill:#03689A;" />
          </g>
          <g />
        </g>
      </g>
      <svg width="130" height="86" class="djs-svg-text">
        <text font-family="'Segoe UI'" font-size="10.6252px" font-style="normal" font-weight="normal" lineHeight="1.2" textDirection="0" textAlign="center" class="djs-label" style="fill:black;">
          <tspan x="15.80997" y="35.25">1. Executar rotina de </tspan>
          <tspan x="8.915794" y="48.25">validação de matrículas </tspan>
          <tspan x="13.25609" y="61.25">dos servidores (SIAPE)</tspan>
        </text>
      </svg>
    </g>
  </g>
  <g class="djs-group">
    <g transform="matrix(1, 0, 0, 1, 727, 149)" id="gfx-ebea8153-f5c9-4789-be1b-4d3998a9202e" display="block" class="djs-element djs-shape" data-element-id="ebea8153-f5c9-4789-be1b-4d3998a9202e">
      <g class="djs-visual">
        <g>
          <rect x="0" y="0" width="130" height="90" rx="8" stroke-width="2px" class="" style="fill:#ECEFFF;stroke:#03689A;" />
          <g transform="translate(-6, -11) scale(1.6)">
            <path d="M17 16.5 A5.7 5.7 0 0 0 14.4 14.6 L14.2 14.4 C14.2 14.3 14.3 14.3 14.3 14.2 A1.9 1.9 0 0 0 14.8 12.9 A2.3 2.3 0 0 0 12.7 10.6 A2.5 2.5 0 0 0 10.3 12.9 A2.4 2.4 0 0 0 10.5 13.7 L10.7 13.9 C10.8 14.2 11 14.2 11.2 14.4 L11.2 14.6 L10.6 14.6 A5 5 0 0 0 8 16.7 L8 16.7 L8 19.6 L17 19.6 L17 16.6 z M11.6 14.6 L11.9 14.3 L11.6 14.3 A1.6 1.6 0 0 1 10.8 13 A3.7 3.7 0 0 1 12.5 12.4 C12.6 12.4 12.7 12.7 12.8 12.8 L13.3 12.8 A2.4 2.4 0 0 0 14.3 12.5 A2.3 2.3 0 0 1 13.4 14.4 L13.4 14.4 L13.6 14.8 L13.6 14.8 A0.8 0.8 0 0 1 13.4 15.7 A1.5 1.5 0 0 1 12.5 16.1 A1 1 0 0 1 11.7 15.7 C11.3 15.3 11.3 15.1 11.3 14.9 C11.3 14.7 11.4 14.8 11.6 14.6 z M16.5 19.1 L15.4 19.1 L15.4 18 L14.8 18 L14.8 19.1 L10.2 19.1 L10.2 18 L9.7 18 L9.7 19.2 L8.5 19.2 L8.5 16.9 A5.2 5.2 0 0 1 10.8 15.1 L10.9 15.1 C10.9 15.5 10.7 15.8 11.2 16.3 A2.7 2.7 0 0 0 12.5 16.8 A2.2 2.2 0 0 0 13.9 16.2 A1.1 1.1 0 0 0 14.2 15.2 A4.6 4.6 0 0 1 16.5 16.9 z" style="fill:white;" />
            <path d="M12.7 10.6 A2.5 2.5 0 0 0 10.3 12.9 A2.4 2.4 0 0 0 10.5 13.7 L10.7 13.9 C10.8 14.2 11 14.2 11.2 14.4 L11.2 14.6 L10.6 14.6 A5 5 0 0 0 8 16.7 L8 16.7 L8 19.6 L17 19.6 L17 16.6 L17 16.6 A5.7 5.7 0 0 0 14.4 14.7 L14.2 14.5 C14.2 14.4 14.3 14.4 14.3 14.3 A1.9 1.9 0 0 0 14.8 13 A2.3 2.3 0 0 0 12.7 10.7 z M12.5 16.3 A1 1 0 0 1 11.7 15.9 C11.3 15.5 11.3 15.3 11.3 15.1 C11.3 14.9 11.4 14.8 11.6 14.6 L11.9 14.3 L11.6 14.3 A1.6 1.6 0 0 1 10.8 13 A3.7 3.7 0 0 1 12.5 12.4 C12.6 12.4 12.7 12.7 12.8 12.8 L13.3 12.8 A2.4 2.4 0 0 0 14.3 12.5 A2.3 2.3 0 0 1 13.4 14.4 L13.4 14.4 L13.6 14.8 L13.6 14.8 A0.8 0.8 0 0 1 13.4 15.7 A1.5 1.5 0 0 1 12.5 16.1 z M10.8 15.1 L10.9 15.1 C10.9 15.5 10.7 15.8 11.2 16.3 A2.7 2.7 0 0 0 12.5 16.8 A2.2 2.2 0 0 0 13.9 16.2 A1.1 1.1 0 0 0 14.2 15.2 A4.6 4.6 0 0 1 16.5 16.9 L16.5 19.1 L15.4 19.1 L15.4 18 L14.8 18 L14.8 19.1 L10.2 19.1 L10.2 18 L9.7 18 L9.7 19.2 L8.5 19.2 L8.5 16.9 A5.2 5.2 0 0 1 10.8 15.1 z" style="fill:#03689A;" />
          </g>
          <g />
        </g>
      </g>
      <svg width="130" height="86" class="djs-svg-text">
        <text font-family="'Segoe UI'" font-size="10.6252px" font-style="normal" font-weight="normal" lineHeight="1.2" textDirection="0" textAlign="center" class="djs-label" style="fill:black;">
          <tspan x="15.37439" y="35.25">4. Analisar base RNC </tspan>
          <tspan x="13.20164" y="48.25">conforme critérios do </tspan>
          <tspan x="40.13274" y="61.25">edital RNC</tspan>
        </text>
      </svg>
    </g>
  </g>
  <g class="djs-group">
    <g transform="matrix(1, 0, 0, 1, 563, 149)" id="gfx-62e4ad45-ff0d-4ee8-9071-89acfefdbaea" display="block" class="djs-element djs-shape" data-element-id="62e4ad45-ff0d-4ee8-9071-89acfefdbaea">
      <g class="djs-visual">
        <g>
          <rect x="0" y="0" width="130" height="90" rx="8" stroke-width="2px" class="" style="fill:#ECEFFF;stroke:#03689A;" />
          <g transform="translate(-6, -11) scale(1.6)">
            <path d="M15.4 20.5 L14.7 20.5 A0.5 0.5 0 0 1 14.2 20.2 L13.8 19.3 L13.6 19.3 L12.7 19.7 L12.1 19.7 L11.6 19.1 C11.4 19 11.4 18.8 11.4 18.6 L11.8 17.7 L11.8 17.7 L11.8 17.4 L10.9 17 C10.7 16.9 10.6 16.8 10.6 16.6 L10.6 15.9 A0.5 0.5 0 0 1 10.9 15.4 L11.8 15 L11.8 14.8 A6.4 6.4 0 0 0 11.4 13.8 A0.7 0.7 0 0 1 11.5 13.3 L12.1 12.8 C12.2 12.6 12.4 12.6 12.6 12.7 L13.5 13 L13.8 13 A4.1 4.1 0 0 1 14.2 12.1 C14.3 11.9 14.4 11.8 14.6 11.8 L15.3 11.8 A0.5 0.5 0 0 1 15.8 12.1 A4.1 4.1 0 0 1 16.2 13 L16.8 13 L17.6 12.7 L17.9 12.7 L18.4 13.3 C18.6 13.4 18.6 13.6 18.6 13.8 L18.2 14.7 L18.2 14.7 L18.2 15 L19.1 15.4 C19.3 15.5 19.4 15.6 19.4 15.8 L19.4 16.5 A0.5 0.5 0 0 1 19.1 17 L18.2 17.4 L18.2 17.6 A6.4 6.4 0 0 0 18.6 18.6 A0.7 0.7 0 0 1 18.5 19.1 L17.9 19.6 C17.8 19.8 17.6 19.8 17.4 19.7 L16.5 19.4 L16.2 19.4 A4.1 4.1 0 0 1 15.8 20.3 C15.7 20.4 15.6 20.5 15.4 20.5 z M15 19.5 L15.1 19.5 C15.1 19.3 15.2 19.2 15.3 18.9 L15.3 18.9 L15.5 18.6 L15.7 18.6 L16.3 18.4 L16.8 18.4 L17.5 18.7 L17.5 18.7 L17.3 18.1 L17.2 18.1 C17.1 18.1 17.1 17.9 17.1 17.8 L17.2 17.8 L17.2 17.6 L17.4 17.1 L17.7 16.8 L17.8 16.8 L18.5 16.5 L18.5 16.5 L17.9 16.3 L17.7 16.3 L17.4 16 L17.2 15.3 A0.3 0.3 0 0 1 17.2 14.9 L17.2 14.9 L17.5 14.2 L17.2 14.2 L16.7 14.4 L16.1 14.4 L15.6 14.2 L15.3 13.9 L15.3 13.9 L15 13.2 L14.9 13.2 A1.4 1.4 0 0 1 14.7 13.8 L14.7 13.8 L14.5 14.1 L14.2 14.1 L13.7 14.3 L13.2 14.3 L12.5 14 L12.5 14 L12.7 14.6 L12.8 14.6 C12.9 14.6 12.9 14.8 12.9 14.9 L12.8 14.9 L12.8 15.1 L12.6 15.6 L12.3 15.9 L12.2 15.9 L11.5 16.2 L11.5 16.2 L12.1 16.4 L12.2 16.4 L12.5 16.6 L12.5 16.8 L12.7 17.4 A0.3 0.3 0 0 1 12.7 17.8 L12.7 17.8 L12.4 18.5 L12.5 18.5 L13 18.2 L13.8 18.2 L14.3 18.40001 L14.6 18.7 L14.6 18.7 z" style="fill:#03689A;" />
            <path d="M15 15.5 A0.5 0.5 0 1 1 14.5 16 A0.5 0.5 0 0 1 15 15.5 M15 14.5 A1.5 1.5 0 1 0 16.5 16 A1.5 1.5 0 0 0 15 14.5 z" style="fill:#03689A;" />
            <path d="M12 11.5 L11.9 11.5 A1.4 1.4 0 0 1 11.7 12.1 L11.7 12.1 L11.5 12.4 L11.2 12.4 L10.7 12.6 L10.2 12.6 L9.5 12.3 L9.5 12.3 L9.7 12.9 L9.8 12.9 C9.900001 12.9 9.900001 13.1 9.900001 13.2 L9.8 13.2 L9.8 13.4 L9.6 13.9 L9.3 14.2 L9.2 14.2 L8.5 14.5 L8.5 14.5 L9.1 14.7 L9.200001 14.7 L9.500001 14.9 L9.500001 15.1 L9.700001 15.7 A0.3 0.3 0 0 1 9.700001 16.1 L9.700001 16.1 L9.400001 16.8 L9.500001 16.8 L10 16.5 L10.5 17.5 L9.600001 17.9 L9.1 17.9 L8.6 17.3 C8.400001 17.2 8.400001 17 8.400001 16.8 L8.8 15.9 L8.8 15.9 L8.8 15.6 L7.9 15.2 C7.7 15.1 7.6 15 7.6 14.8 L7.6 14.1 A0.5 0.5 0 0 1 7.9 13.6 L8.8 13.2 L8.8 13 A6.4 6.4 0 0 0 8.400001 12 A0.7 0.7 0 0 1 8.500001 11.5 L9.100001 11 C9.200002 10.8 9.400002 10.8 9.600001 10.9 L10.5 11.2 L10.8 11.2 A4.1 4.1 0 0 1 11.2 10.3 C11.3 10.1 11.4 10 11.6 10 L12.3 10 A0.5 0.5 0 0 1 12.8 10.3 A4.1 4.1 0 0 1 13.2 11.2" style="fill:#03689A;" />
          </g>
          <g />
        </g>
      </g>
      <svg width="130" height="86" class="djs-svg-text">
        <text font-family="'Segoe UI'" font-size="10.6252px" font-style="normal" font-weight="normal" lineHeight="1.2" textDirection="0" textAlign="center" class="djs-label" style="fill:black;">
          <tspan x="12.41347" y="41.75">3. Atualizar status dos </tspan>
          <tspan x="15.26549" y="54.75">participantes do RNC</tspan>
        </text>
      </svg>
    </g>
  </g>
  <g class="djs-group">
    <g transform="matrix(1, 0, 0, 1, 896, 149)" id="gfx-992fd15f-65ee-4f6a-bc87-eca30fcac557" display="block" class="djs-element djs-shape" data-element-id="992fd15f-65ee-4f6a-bc87-eca30fcac557">
      <g class="djs-visual">
        <g>
          <rect x="0" y="0" width="130" height="90" rx="8" stroke-width="2px" class="" style="fill:#ECEFFF;stroke:#03689A;" />
          <g transform="translate(-6, -11) scale(1.6)">
            <path d="M17 16.5 A5.7 5.7 0 0 0 14.4 14.6 L14.2 14.4 C14.2 14.3 14.3 14.3 14.3 14.2 A1.9 1.9 0 0 0 14.8 12.9 A2.3 2.3 0 0 0 12.7 10.6 A2.5 2.5 0 0 0 10.3 12.9 A2.4 2.4 0 0 0 10.5 13.7 L10.7 13.9 C10.8 14.2 11 14.2 11.2 14.4 L11.2 14.6 L10.6 14.6 A5 5 0 0 0 8 16.7 L8 16.7 L8 19.6 L17 19.6 L17 16.6 z M11.6 14.6 L11.9 14.3 L11.6 14.3 A1.6 1.6 0 0 1 10.8 13 A3.7 3.7 0 0 1 12.5 12.4 C12.6 12.4 12.7 12.7 12.8 12.8 L13.3 12.8 A2.4 2.4 0 0 0 14.3 12.5 A2.3 2.3 0 0 1 13.4 14.4 L13.4 14.4 L13.6 14.8 L13.6 14.8 A0.8 0.8 0 0 1 13.4 15.7 A1.5 1.5 0 0 1 12.5 16.1 A1 1 0 0 1 11.7 15.7 C11.3 15.3 11.3 15.1 11.3 14.9 C11.3 14.7 11.4 14.8 11.6 14.6 z M16.5 19.1 L15.4 19.1 L15.4 18 L14.8 18 L14.8 19.1 L10.2 19.1 L10.2 18 L9.7 18 L9.7 19.2 L8.5 19.2 L8.5 16.9 A5.2 5.2 0 0 1 10.8 15.1 L10.9 15.1 C10.9 15.5 10.7 15.8 11.2 16.3 A2.7 2.7 0 0 0 12.5 16.8 A2.2 2.2 0 0 0 13.9 16.2 A1.1 1.1 0 0 0 14.2 15.2 A4.6 4.6 0 0 1 16.5 16.9 z" style="fill:white;" />
            <path d="M12.7 10.6 A2.5 2.5 0 0 0 10.3 12.9 A2.4 2.4 0 0 0 10.5 13.7 L10.7 13.9 C10.8 14.2 11 14.2 11.2 14.4 L11.2 14.6 L10.6 14.6 A5 5 0 0 0 8 16.7 L8 16.7 L8 19.6 L17 19.6 L17 16.6 L17 16.6 A5.7 5.7 0 0 0 14.4 14.7 L14.2 14.5 C14.2 14.4 14.3 14.4 14.3 14.3 A1.9 1.9 0 0 0 14.8 13 A2.3 2.3 0 0 0 12.7 10.7 z M12.5 16.3 A1 1 0 0 1 11.7 15.9 C11.3 15.5 11.3 15.3 11.3 15.1 C11.3 14.9 11.4 14.8 11.6 14.6 L11.9 14.3 L11.6 14.3 A1.6 1.6 0 0 1 10.8 13 A3.7 3.7 0 0 1 12.5 12.4 C12.6 12.4 12.7 12.7 12.8 12.8 L13.3 12.8 A2.4 2.4 0 0 0 14.3 12.5 A2.3 2.3 0 0 1 13.4 14.4 L13.4 14.4 L13.6 14.8 L13.6 14.8 A0.8 0.8 0 0 1 13.4 15.7 A1.5 1.5 0 0 1 12.5 16.1 z M10.8 15.1 L10.9 15.1 C10.9 15.5 10.7 15.8 11.2 16.3 A2.7 2.7 0 0 0 12.5 16.8 A2.2 2.2 0 0 0 13.9 16.2 A1.1 1.1 0 0 0 14.2 15.2 A4.6 4.6 0 0 1 16.5 16.9 L16.5 19.1 L15.4 19.1 L15.4 18 L14.8 18 L14.8 19.1 L10.2 19.1 L10.2 18 L9.7 18 L9.7 19.2 L8.5 19.2 L8.5 16.9 A5.2 5.2 0 0 1 10.8 15.1 z" style="fill:#03689A;" />
          </g>
          <g />
        </g>
      </g>
      <svg width="130" height="86" class="djs-svg-text">
        <text font-family="'Segoe UI'" font-size="10.6252px" font-style="normal" font-weight="normal" lineHeight="1.2" textDirection="0" textAlign="center" class="djs-label" style="fill:black;">
          <tspan x="33.29562" y="35.25">5. Desabilitar </tspan>
          <tspan x="26.38847" y="48.25">candidatos com </tspan>
          <tspan x="8.355751" y="61.25">indicação de  pendência</tspan>
        </text>
      </svg>
    </g>
  </g>
  <g class="djs-group">
    <g transform="matrix(1, 0, 0, 1, 1049, 179)" id="gfx-1f640539-0db0-45ec-ae33-482ac4d3c0c0" display="block" class="djs-element djs-shape" data-element-id="1f640539-0db0-45ec-ae33-482ac4d3c0c0">
      <g class="djs-visual">
        <g>
          <g transform="translate(-8.90625, -8.90625) scale(1.5)">
            <path d="M16 25.2 A9.2 9.2 0 1 1 25.2 16 A9.2 9.2 0 0 1 16 25.2 z" style="fill:#EEAAAA;" />
            <path d="M16 7.5 A8.5 8.5 0 1 1 7.5 16 A8.5 8.5 0 0 1 16 7.5 M16 6 A10 10 0 1 0 26 16 A10 10 0 0 0 16 6 z" stroke-width="0.4px" class="" style="fill:#990000;stroke:#990000;" />
          </g>
        </g>
      </g>
    </g>
  </g>
  <g class="djs-group">
    <g transform="matrix(1, 0, 0, 1, 1019, 217)" id="gfx-3eea2b89-f171-4a3a-88c4-93b983c90a36" display="block" class="djs-element djs-shape" data-element-id="3eea2b89-f171-4a3a-88c4-93b983c90a36">
      <g class="djs-visual">
        <rect x="0" y="0" width="90" height="36" fill-opacity="0" stroke-opacity="0" style="fill:#FFFFFF;stroke:transparent;" />
        <svg width="90" height="31" class="djs-svg-text">
          <text font-family="'Segoe UI'" font-size="10.6252px" font-style="normal" font-weight="normal" lineHeight="1.2" textDirection="0" textAlign="center" class="djs-label" style="fill:black;">
            <tspan x="19.01008" y="14.75">Rotinas de </tspan>
            <tspan x="18.72487" y="27.75">verificação </tspan>
            <tspan x="18.9686" y="40.75">executadas</tspan>
          </text>
        </svg>
      </g>
    </g>
  </g>
  <g class="djs-group">
    <g transform="matrix(1, 0, 0, 1, 492, 174)" id="gfx-e0af5f82-8006-48e4-9942-ada1dc39f5f7" display="block" class="djs-element djs-shape" data-element-id="e0af5f82-8006-48e4-9942-ada1dc39f5f7">
      <g class="djs-visual">
        <g>
          <path d="M0 20 L20 40 L40 20 L20 0 z" stroke-width="1.8px" class="" style="fill:#FFFFCC;stroke:#A6A61D;" />
          <polygon points="20,15.5 16.5,15.5 16.5,12 15.5,12 15.5,15.5 12,15.5 12,16.5 15.5,16.5 15.5,20 16.5,20 16.5,16.5 20,16.5 20,15.5" transform="translate(-16.8, -16.8) scale(2.3)" style="fill:#A6A61D;stroke:#A6A61D;" />
        </g>
      </g>
    </g>
  </g>
  <g class="djs-group">
    <g transform="matrix(1, 0, 0, 1, 241, 174)" id="gfx-34c50f12-d375-4e40-9e29-aeb789f84521" display="block" class="djs-element djs-shape" data-element-id="34c50f12-d375-4e40-9e29-aeb789f84521">
      <g class="djs-visual">
        <g>
          <path d="M0 20 L20 40 L40 20 L20 0 z" stroke-width="1.8px" class="" style="fill:#FFFFCC;stroke:#A6A61D;" />
          <polygon points="20,15.5 16.5,15.5 16.5,12 15.5,12 15.5,15.5 12,15.5 12,16.5 15.5,16.5 15.5,20 16.5,20 16.5,16.5 20,16.5 20,15.5" transform="translate(-16.8, -16.8) scale(2.3)" style="fill:#A6A61D;stroke:#A6A61D;" />
        </g>
      </g>
    </g>
  </g>
  <g class="djs-group">
    <g transform="matrix(1, 0, 0, 1, 602, 264)" id="gfx-933c1d39-10d7-4cba-a9f5-17b3af51ee44" display="block" class="djs-element djs-shape" data-element-id="933c1d39-10d7-4cba-a9f5-17b3af51ee44">
      <g class="djs-visual">
        <path d="M0 7 L0 43 A25 7 0 0 0 50 43 L50 7 A25 7 0 0 0 0 7 A25 7 0 0 0 50 7 M0 10 A25 7 0 0 0 50 10 M0 13 A25 7 0 0 0 50 13" class="" style="fill:#F0F0F0;stroke:#666666;" />
      </g>
    </g>
  </g>
  <g class="djs-group">
    <g transform="matrix(1, 0, 0, 1, 582, 322)" id="gfx-cb90237c-6068-4281-a1a2-b4b65e9bd54d" display="block" class="djs-element djs-shape" data-element-id="cb90237c-6068-4281-a1a2-b4b65e9bd54d">
      <g class="djs-visual">
        <rect x="0" y="0" width="90" height="30" fill-opacity="0" stroke-opacity="0" style="fill:#FFFFFF;stroke:transparent;" />
        <svg width="90" height="25" class="djs-svg-text">
          <text font-family="'Segoe UI'" font-size="10.6252px" font-style="normal" font-weight="normal" lineHeight="1.2" textDirection="0" textAlign="center" class="djs-label" style="fill:black;">
            <tspan x="22.334" y="14.75">Base RNC</tspan>
          </text>
        </svg>
      </g>
    </g>
  </g>
  <g class="djs-group">
    <g transform="matrix(1, 0, 0, 1, 552, 38)" id="gfx-ab20274b-2271-461e-aaf1-ef9f4a19e9a4" display="block" class="djs-element djs-shape" data-element-id="ab20274b-2271-461e-aaf1-ef9f4a19e9a4">
      <g class="djs-visual">
        <g>
          <rect x="0" y="0" width="153" height="97" class="" style="fill:#D5D5D5;" />
          <path d="M51 0 L0 0 L0 97 L51 97" stroke-width="0.4px" shape-rendering="crispEdges" fill-opacity="0" style="fill:transparent;stroke:black;" />
        </g>
      </g>
      <svg width="153" height="97" class="djs-svg-text">
        <text font-family="'Segoe UI'" font-size="10.6252px" font-style="normal" font-weight="normal" lineHeight="1.2" textDirection="0" textAlign="center" class="djs-label" style="fill:black;">
          <tspan x="22.87892" y="19.25">Os servidores que não </tspan>
          <tspan x="10.10176" y="32.25">estiverem ativos na base do </tspan>
          <tspan x="11.84669" y="45.25">SIAPE e os professores que </tspan>
          <tspan x="13.09121" y="58.25">não constarem na base do </tspan>
          <tspan x="15.461" y="71.25">Censo são indicados para </tspan>
          <tspan x="21.16252" y="84.25">desabilitação (restrição)</tspan>
        </text>
      </svg>
    </g>
  </g>
  <g class="djs-group">
    <g transform="matrix(1, 0, 0, 1, 46, 31)" id="gfx-0059975e-843f-4fbc-bee4-15abfa0426cb" display="block" class="djs-element djs-shape" data-element-id="0059975e-843f-4fbc-bee4-15abfa0426cb">
      <g class="djs-visual">
        <g>
          <rect x="0" y="0" width="250" height="97" class="" style="fill:#D5D5D5;" />
          <path d="M83.33334 0 L0 0 L0 97 L83.33334 97" stroke-width="0.4px" shape-rendering="crispEdges" fill-opacity="0" style="fill:transparent;stroke:black;" />
        </g>
      </g>
      <svg width="250" height="97" class="djs-svg-text">
        <text font-family="'Segoe UI'" font-size="10.6252px" font-style="normal" font-weight="normal" lineHeight="1.2" textDirection="0" textAlign="center" class="djs-label" style="fill:black;">
          <tspan x="15.50214" y="25.75">Este subprocesso ocorre durante os processos </tspan>
          <tspan x="14.35874" y="38.75">"Habilitar e triar certificadores para capacitação</tspan>
          <tspan x="9.753952" y="51.75">RNC" e "Gerar demandas RNC". Nele ocorrem as </tspan>
          <tspan x="17.49337" y="64.75">rotinas de validação dos candidatos quanto a </tspan>
          <tspan x="38.12149" y="77.75">critérios estabelecidos no edital RNC.</tspan>
        </text>
      </svg>
    </g>
  </g>
  <g class="djs-group">
    <g transform="matrix(1, 0, 0, 1, 157, 179)" id="gfx-b3697a5b-34d8-474d-bac2-0adc9c663e90" display="block" class="djs-element djs-shape" data-element-id="b3697a5b-34d8-474d-bac2-0adc9c663e90">
      <g class="djs-visual">
        <g>
          <g transform="translate(-8.90625, -8.90625) scale(1.5)">
            <path d="M15.9 25.5 A9.5 9.5 0 1 1 25.4 16 A9.6 9.6 0 0 1 15.9 25.5 z" style="fill:#FEFAEF;" />
            <path d="M15.9 7 A9 9 0 1 1 6.9 16 A9 9 0 0 1 15.9 7 M15.9 6 A10 10 0 1 0 25.9 16 A10 10 0 0 0 15.9 6 z" class="" style="fill:#969149;" />
            <path d="M15.9 8.8 A7.2 7.2 0 1 1 8.7 16 A7.3 7.3 0 0 1 15.9 8.8 M15.9 7.8 A8.2 8.2 0 0 0 15.9 24.2 A8.2 8.2 0 1 0 15.9 7.800001 z" class="" style="fill:#969149;" />
          </g>
        </g>
      </g>
    </g>
  </g>
  <g class="djs-group">
    <g transform="matrix(1, 0, 0, 1, 127, 217)" id="gfx-77e0286f-5e66-4741-a771-dc27bbf3c766" display="block" class="djs-element djs-shape" data-element-id="77e0286f-5e66-4741-a771-dc27bbf3c766">
      <g class="djs-visual">
        <rect x="0" y="0" width="90" height="36" fill-opacity="0" stroke-opacity="0" style="fill:#FFFFFF;stroke:transparent;" />
        <svg width="90" height="31" class="djs-svg-text">
          <text font-family="'Segoe UI'" font-size="10.6252px" font-style="normal" font-weight="normal" lineHeight="1.2" textDirection="0" textAlign="center" class="djs-label" style="fill:black;">
            <tspan x="21.26319" y="14.75">Rotina de </tspan>
            <tspan x="11.44177" y="27.75">verificação da </tspan>
            <tspan x="20.80167" y="40.75">base RNC </tspan>
            <tspan x="27.15397" y="53.75">iniciada</tspan>
          </text>
        </svg>
      </g>
    </g>
  </g>
  <g class="djs-group">
    <g id="gfx-3cbe2821-f8c8-40a3-be60-0f00889f27ab" display="block" class="djs-element djs-connection" data-element-id="3cbe2821-f8c8-40a3-be60-0f00889f27ab">
      <g class="djs-visual">
        <g>
          <defs>
            <marker refX="9.8" refY="6" orient="auto" markerWidth="12" markerHeight="12" markerUnits="strokeWidth" id="arrowSecuenceFlow3cbe2821-f8c8-40a3-be60-0f00889f27ab#1">
              <path d="M0 0 L2 6 L0 12 L10 6 z" style="fill:black;" />
            </marker>
          </defs>
          <path d="M857 194 L896 194" marker-end="url(#arrowSecuenceFlow3cbe2821-f8c8-40a3-be60-0f00889f27ab)" stroke-width="1px" stroke-linejoin="round" shape-rendering="crispEdges" fill-opacity="0" class="" style="fill:transparent;stroke:black;" />
        </g>
      </g>
    </g>
  </g>
  <g class="djs-group">
    <g id="gfx-af4b8507-9d55-4082-9935-c98a2eeb413d" display="block" class="djs-element djs-connection" data-element-id="af4b8507-9d55-4082-9935-c98a2eeb413d">
      <g class="djs-visual">
        <g>
          <defs>
            <marker refX="9.8" refY="6" orient="auto" markerWidth="12" markerHeight="12" markerUnits="strokeWidth" id="arrowSecuenceFlowaf4b8507-9d55-4082-9935-c98a2eeb413d">
              <path d="M0 0 L2 6 L0 12 L10 6 z" style="fill:black;" />
            </marker>
          </defs>
          <path d="M453 316 L506 316 C506 316 512 316 512 310 L512 214" marker-end="url(#arrowSecuenceFlowaf4b8507-9d55-4082-9935-c98a2eeb413d)" stroke-width="1px" stroke-linejoin="round" shape-rendering="crispEdges" fill-opacity="0" class="" style="fill:transparent;stroke:black;" />
        </g>
      </g>
    </g>
  </g>
  <g class="djs-group">
    <g id="gfx-1c4b311a-b9f8-4757-89ca-e31185ec5bb9" display="block" class="djs-element djs-connection" data-element-id="1c4b311a-b9f8-4757-89ca-e31185ec5bb9">
      <g class="djs-visual">
        <g>
          <defs>
            <marker refX="9.8" refY="6" orient="auto" markerWidth="12" markerHeight="12" markerUnits="strokeWidth" id="arrowSecuenceFlow1c4b311a-b9f8-4757-89ca-e31185ec5bb9">
              <path d="M0 0 L2 6 L0 12 L10 6 z" style="fill:black;" />
            </marker>
          </defs>
          <path d="M1026 194 L1049 194" marker-end="url(#arrowSecuenceFlow1c4b311a-b9f8-4757-89ca-e31185ec5bb9)" stroke-width="1px" stroke-linejoin="round" shape-rendering="crispEdges" fill-opacity="0" class="" style="fill:transparent;stroke:black;" />
        </g>
      </g>
    </g>
  </g>
  <g class="djs-group">
    <g id="gfx-da111854-2297-4114-9ded-a415847bcc6b" display="block" class="djs-element djs-connection" data-element-id="da111854-2297-4114-9ded-a415847bcc6b">
      <g class="djs-visual">
        <g>
          <defs>
            <marker refX="9.8" refY="6" orient="auto" markerWidth="12" markerHeight="12" markerUnits="strokeWidth" id="arrowSecuenceFlowda111854-2297-4114-9ded-a415847bcc6b">
              <path d="M0 0 L2 6 L0 12 L10 6 z" style="fill:black;" />
            </marker>
          </defs>
          <path d="M187 194 L241 194" marker-end="url(#arrowSecuenceFlowda111854-2297-4114-9ded-a415847bcc6b)" stroke-width="1px" stroke-linejoin="round" shape-rendering="crispEdges" fill-opacity="0" class="" style="fill:transparent;stroke:black;" />
        </g>
      </g>
    </g>
  </g>
  <g class="djs-group">
    <g id="gfx-048d1095-63aa-4137-bdb2-f9796fecad14" display="block" class="djs-element djs-connection" data-element-id="048d1095-63aa-4137-bdb2-f9796fecad14">
      <g class="djs-visual">
        <g>
          <defs>
            <marker refX="9.8" refY="6" orient="auto" markerWidth="12" markerHeight="12" markerUnits="strokeWidth" id="arrowSecuenceFlow048d1095-63aa-4137-bdb2-f9796fecad14">
              <path d="M0 0 L2 6 L0 12 L10 6 z" style="fill:black;" />
            </marker>
          </defs>
          <path d="M451 194 L492 194" marker-end="url(#arrowSecuenceFlow048d1095-63aa-4137-bdb2-f9796fecad14)" stroke-width="1px" stroke-linejoin="round" shape-rendering="crispEdges" fill-opacity="0" class="" style="fill:transparent;stroke:black;" />
        </g>
      </g>
    </g>
  </g>
  <g class="djs-group">
    <g id="gfx-59da5564-1e40-4c26-9469-03a1a047a0c1" display="block" class="djs-element djs-connection" data-element-id="59da5564-1e40-4c26-9469-03a1a047a0c1">
      <g class="djs-visual">
        <g>
          <defs>
            <marker refX="9.8" refY="6" orient="auto" markerWidth="12" markerHeight="12" markerUnits="strokeWidth" id="arrowSecuenceFlow59da5564-1e40-4c26-9469-03a1a047a0c1">
              <path d="M0 0 L2 6 L0 12 L10 6 z" style="fill:black;" />
            </marker>
          </defs>
          <path d="M261 214 L261 310 C261 310 261 316 267 316 L323 316" marker-end="url(#arrowSecuenceFlow59da5564-1e40-4c26-9469-03a1a047a0c1)" stroke-width="1px" stroke-linejoin="round" shape-rendering="crispEdges" fill-opacity="0" class="" style="fill:transparent;stroke:black;" />
        </g>
      </g>
    </g>
  </g>
  <g class="djs-group">
    <g id="gfx-bebf0efc-23cc-415c-a15c-b81006266495" display="block" class="djs-element djs-connection" data-element-id="bebf0efc-23cc-415c-a15c-b81006266495">
      <g class="djs-visual">
        <g>
          <defs>
            <marker refX="9.8" refY="6" orient="auto" markerWidth="12" markerHeight="12" markerUnits="strokeWidth" id="arrowSecuenceFlowbebf0efc-23cc-415c-a15c-b81006266495">
              <path d="M0 0 L2 6 L0 12 L10 6 z" style="fill:black;" />
            </marker>
          </defs>
          <path d="M281 194 L321 194" marker-end="url(#arrowSecuenceFlowbebf0efc-23cc-415c-a15c-b81006266495)" stroke-width="1px" stroke-linejoin="round" shape-rendering="crispEdges" fill-opacity="0" class="" style="fill:transparent;stroke:black;" />
        </g>
      </g>
    </g>
  </g>
  <g class="djs-group">
    <g id="gfx-9464ae98-96cd-48cd-857b-39f03c41ea85" display="block" class="djs-element djs-connection" data-element-id="9464ae98-96cd-48cd-857b-39f03c41ea85">
      <g class="djs-visual">
        <g>
          <defs>
            <marker refX="9.8" refY="6" orient="auto" markerWidth="12" markerHeight="12" markerUnits="strokeWidth" id="arrowSecuenceFlow9464ae98-96cd-48cd-857b-39f03c41ea85">
              <path d="M0 0 L2 6 L0 12 L10 6 z" style="fill:black;" />
            </marker>
          </defs>
          <path d="M693 194 L727 194" marker-end="url(#arrowSecuenceFlow9464ae98-96cd-48cd-857b-39f03c41ea85)" stroke-width="1px" stroke-linejoin="round" shape-rendering="crispEdges" fill-opacity="0" class="" style="fill:transparent;stroke:black;" />
        </g>
      </g>
    </g>
  </g>
  <g class="djs-group">
    <g id="gfx-dc22aaaf-c2eb-450b-8591-780740c66187" display="block" class="djs-element djs-connection" data-element-id="dc22aaaf-c2eb-450b-8591-780740c66187">
      <g class="djs-visual">
        <g>
          <defs>
            <marker refX="9.8" refY="6" orient="auto" markerWidth="12" markerHeight="12" markerUnits="strokeWidth" id="arrowSecuenceFlowdc22aaaf-c2eb-450b-8591-780740c66187">
              <path d="M0 0 L2 6 L0 12 L10 6 z" style="fill:black;" />
            </marker>
          </defs>
          <path d="M532 194 L563 194" marker-end="url(#arrowSecuenceFlowdc22aaaf-c2eb-450b-8591-780740c66187)" stroke-width="1px" stroke-linejoin="round" shape-rendering="crispEdges" fill-opacity="0" class="" style="fill:transparent;stroke:black;" />
        </g>
      </g>
    </g>
  </g>
  <g class="djs-group">
    <g id="gfx-186d6af2-30ae-4ea3-ad08-a2ab00fe46f1" display="block" class="djs-element djs-connection" data-element-id="186d6af2-30ae-4ea3-ad08-a2ab00fe46f1">
      <g class="djs-visual">
        <g>
          <defs>
            <marker refX="5.5" refY="4" orient="auto" markerWidth="10" markerHeight="8" id="arrowAssociation186d6af2-30ae-4ea3-ad08-a2ab00fe46f1">
              <path d="M0 0 L4.5 4 L0 8" stroke-width="0.7px" stroke-dasharray="0" style="stroke:black;" />
            </marker>
          </defs>
          <path d="M628 149 L628 135" stroke-width="1.5px" stroke-linejoin="round" stroke-dasharray="2 5" shape-rendering="crispEdges" fill-opacity="0" class="" style="fill:transparent;stroke:black;" />
        </g>
      </g>
    </g>
  </g>
  <g class="djs-group">
    <g id="gfx-bb5ecdf3-aaed-47ee-ab9b-730d8c07f86d" display="block" class="djs-element djs-connection" data-element-id="bb5ecdf3-aaed-47ee-ab9b-730d8c07f86d">
      <g class="djs-visual">
        <g>
          <defs>
            <marker refX="5.5" refY="4" orient="auto" markerWidth="10" markerHeight="8" id="arrowAssociationbb5ecdf3-aaed-47ee-ab9b-730d8c07f86d">
              <path d="M0 0 L4.5 4 L0 8" stroke-width="0.7px" stroke-dasharray="0" style="stroke:black;" />
            </marker>
          </defs>
          <path d="M628 239 L628 251.5 L627 251.5 L627 264" marker-end="url(#arrowAssociationbb5ecdf3-aaed-47ee-ab9b-730d8c07f86d)" stroke-width="1.5px" stroke-linejoin="round" stroke-dasharray="2 5" shape-rendering="crispEdges" fill-opacity="0" class="" style="fill:transparent;stroke:black;" />
        </g>
      </g>
    </g>
  </g>
  <g class="djs-group">
    <g id="gfx-694aac09-f12f-4502-8e71-0eb34b1d4448" display="block" class="djs-element djs-connection" data-element-id="694aac09-f12f-4502-8e71-0eb34b1d4448">
      <g class="djs-visual">
        <g>
          <defs>
            <marker refX="5.5" refY="4" orient="auto" markerWidth="10" markerHeight="8" id="arrowAssociation694aac09-f12f-4502-8e71-0eb34b1d4448">
              <path d="M0 0 L4.5 4 L0 8" stroke-width="0.7px" stroke-dasharray="0" style="stroke:black;" />
            </marker>
          </defs>
          <path d="M172 179 L172 152.5 L171 152.5 L171 128" stroke-width="1.5px" stroke-linejoin="round" stroke-dasharray="2 5" shape-rendering="crispEdges" fill-opacity="0" class="" style="fill:transparent;stroke:black;" />
        </g>
      </g>
    </g>
  </g>
</svg>