<?xml version="1.0" encoding="utf-8"?>
<!DOCTYPE svg PUBLIC "-//W3C//DTD SVG 1.1//EN" "http://www.w3.org/Graphics/SVG/1.1/DTD/svg11.dtd">
<svg width="1087" height="716px" viewBox="12, -16, 1087, 716" xmlns="http://www.w3.org/2000/svg" xmlns:xlink="http://www.w3.org/1999/xlink" xmlns:xml="http://www.w3.org/XML/1998/namespace" version="1.1">
  <defs>
    <marker refX="9.8" refY="6" orient="auto" markerWidth="12" markerHeight="12" markerUnits="strokeWidth" id="arrowSecuenceFlowd92cad30-a130-4b05-b34e-6d85e02da0c2">
      <path d="M0 0 L2 6 L0 12 L10 6 z" style="fill:black;" />
    </marker>
  </defs>
  <g class="djs-group">
    <g transform="matrix(1, 0, 0, 1, 253, 138)" id="gfx-9dbc2796-f517-49bf-acf4-068c0f8411c9" display="block" class="djs-element djs-shape" data-element-id="9dbc2796-f517-49bf-acf4-068c0f8411c9">
      <g class="djs-visual">
        <g>
          <rect x="0" y="0" width="130" height="90" rx="8" stroke-width="2px" class="" style="fill:#ECEFFF;stroke:#03689A;" />
          <g transform="translate(-6, -11) scale(1.6)">
            <path d="M15.4 20.5 L14.7 20.5 A0.5 0.5 0 0 1 14.2 20.2 L13.8 19.3 L13.6 19.3 L12.7 19.7 L12.1 19.7 L11.6 19.1 C11.4 19 11.4 18.8 11.4 18.6 L11.8 17.7 L11.8 17.7 L11.8 17.4 L10.9 17 C10.7 16.9 10.6 16.8 10.6 16.6 L10.6 15.9 A0.5 0.5 0 0 1 10.9 15.4 L11.8 15 L11.8 14.8 A6.4 6.4 0 0 0 11.4 13.8 A0.7 0.7 0 0 1 11.5 13.3 L12.1 12.8 C12.2 12.6 12.4 12.6 12.6 12.7 L13.5 13 L13.8 13 A4.1 4.1 0 0 1 14.2 12.1 C14.3 11.9 14.4 11.8 14.6 11.8 L15.3 11.8 A0.5 0.5 0 0 1 15.8 12.1 A4.1 4.1 0 0 1 16.2 13 L16.8 13 L17.6 12.7 L17.9 12.7 L18.4 13.3 C18.6 13.4 18.6 13.6 18.6 13.8 L18.2 14.7 L18.2 14.7 L18.2 15 L19.1 15.4 C19.3 15.5 19.4 15.6 19.4 15.8 L19.4 16.5 A0.5 0.5 0 0 1 19.1 17 L18.2 17.4 L18.2 17.6 A6.4 6.4 0 0 0 18.6 18.6 A0.7 0.7 0 0 1 18.5 19.1 L17.9 19.6 C17.8 19.8 17.6 19.8 17.4 19.7 L16.5 19.4 L16.2 19.4 A4.1 4.1 0 0 1 15.8 20.3 C15.7 20.4 15.6 20.5 15.4 20.5 z M15 19.5 L15.1 19.5 C15.1 19.3 15.2 19.2 15.3 18.9 L15.3 18.9 L15.5 18.6 L15.7 18.6 L16.3 18.4 L16.8 18.4 L17.5 18.7 L17.5 18.7 L17.3 18.1 L17.2 18.1 C17.1 18.1 17.1 17.9 17.1 17.8 L17.2 17.8 L17.2 17.6 L17.4 17.1 L17.7 16.8 L17.8 16.8 L18.5 16.5 L18.5 16.5 L17.9 16.3 L17.7 16.3 L17.4 16 L17.2 15.3 A0.3 0.3 0 0 1 17.2 14.9 L17.2 14.9 L17.5 14.2 L17.2 14.2 L16.7 14.4 L16.1 14.4 L15.6 14.2 L15.3 13.9 L15.3 13.9 L15 13.2 L14.9 13.2 A1.4 1.4 0 0 1 14.7 13.8 L14.7 13.8 L14.5 14.1 L14.2 14.1 L13.7 14.3 L13.2 14.3 L12.5 14 L12.5 14 L12.7 14.6 L12.8 14.6 C12.9 14.6 12.9 14.8 12.9 14.9 L12.8 14.9 L12.8 15.1 L12.6 15.6 L12.3 15.9 L12.2 15.9 L11.5 16.2 L11.5 16.2 L12.1 16.4 L12.2 16.4 L12.5 16.6 L12.5 16.8 L12.7 17.4 A0.3 0.3 0 0 1 12.7 17.8 L12.7 17.8 L12.4 18.5 L12.5 18.5 L13 18.2 L13.8 18.2 L14.3 18.40001 L14.6 18.7 L14.6 18.7 z" style="fill:#03689A;" />
            <path d="M15 15.5 A0.5 0.5 0 1 1 14.5 16 A0.5 0.5 0 0 1 15 15.5 M15 14.5 A1.5 1.5 0 1 0 16.5 16 A1.5 1.5 0 0 0 15 14.5 z" style="fill:#03689A;" />
            <path d="M12 11.5 L11.9 11.5 A1.4 1.4 0 0 1 11.7 12.1 L11.7 12.1 L11.5 12.4 L11.2 12.4 L10.7 12.6 L10.2 12.6 L9.5 12.3 L9.5 12.3 L9.7 12.9 L9.8 12.9 C9.900001 12.9 9.900001 13.1 9.900001 13.2 L9.8 13.2 L9.8 13.4 L9.6 13.9 L9.3 14.2 L9.2 14.2 L8.5 14.5 L8.5 14.5 L9.1 14.7 L9.200001 14.7 L9.500001 14.9 L9.500001 15.1 L9.700001 15.7 A0.3 0.3 0 0 1 9.700001 16.1 L9.700001 16.1 L9.400001 16.8 L9.500001 16.8 L10 16.5 L10.5 17.5 L9.600001 17.9 L9.1 17.9 L8.6 17.3 C8.400001 17.2 8.400001 17 8.400001 16.8 L8.8 15.9 L8.8 15.9 L8.8 15.6 L7.9 15.2 C7.7 15.1 7.6 15 7.6 14.8 L7.6 14.1 A0.5 0.5 0 0 1 7.9 13.6 L8.8 13.2 L8.8 13 A6.4 6.4 0 0 0 8.400001 12 A0.7 0.7 0 0 1 8.500001 11.5 L9.100001 11 C9.200002 10.8 9.400002 10.8 9.600001 10.9 L10.5 11.2 L10.8 11.2 A4.1 4.1 0 0 1 11.2 10.3 C11.3 10.1 11.4 10 11.6 10 L12.3 10 A0.5 0.5 0 0 1 12.8 10.3 A4.1 4.1 0 0 1 13.2 11.2" style="fill:#03689A;" />
          </g>
          <g />
        </g>
      </g>
      <svg width="130" height="86" class="djs-svg-text">
        <text font-family="'Segoe UI'" font-size="11.9533px" font-style="normal" font-weight="normal" lineHeight="1.2" textDirection="0" textAlign="center" class="djs-label" style="fill:black;">
          <tspan x="9.748848" y="41.5">5. Verificar resultado </tspan>
          <tspan x="38.21757" y="55.5">da revisão</tspan>
        </text>
      </svg>
    </g>
  </g>
  <g class="djs-group">
    <g transform="matrix(1, 0, 0, 1, 584, 138)" id="gfx-7fb6be7b-8c9d-4426-af27-829fecc20546" display="block" class="djs-element djs-shape" data-element-id="7fb6be7b-8c9d-4426-af27-829fecc20546">
      <g class="djs-visual">
        <g>
          <rect x="0" y="0" width="130" height="90" rx="8" stroke-width="2px" class="" style="fill:#ECEFFF;stroke:#03689A;" />
          <g transform="translate(-6, -11) scale(1.6)">
            <path d="M15.4 20.5 L14.7 20.5 A0.5 0.5 0 0 1 14.2 20.2 L13.8 19.3 L13.6 19.3 L12.7 19.7 L12.1 19.7 L11.6 19.1 C11.4 19 11.4 18.8 11.4 18.6 L11.8 17.7 L11.8 17.7 L11.8 17.4 L10.9 17 C10.7 16.9 10.6 16.8 10.6 16.6 L10.6 15.9 A0.5 0.5 0 0 1 10.9 15.4 L11.8 15 L11.8 14.8 A6.4 6.4 0 0 0 11.4 13.8 A0.7 0.7 0 0 1 11.5 13.3 L12.1 12.8 C12.2 12.6 12.4 12.6 12.6 12.7 L13.5 13 L13.8 13 A4.1 4.1 0 0 1 14.2 12.1 C14.3 11.9 14.4 11.8 14.6 11.8 L15.3 11.8 A0.5 0.5 0 0 1 15.8 12.1 A4.1 4.1 0 0 1 16.2 13 L16.8 13 L17.6 12.7 L17.9 12.7 L18.4 13.3 C18.6 13.4 18.6 13.6 18.6 13.8 L18.2 14.7 L18.2 14.7 L18.2 15 L19.1 15.4 C19.3 15.5 19.4 15.6 19.4 15.8 L19.4 16.5 A0.5 0.5 0 0 1 19.1 17 L18.2 17.4 L18.2 17.6 A6.4 6.4 0 0 0 18.6 18.6 A0.7 0.7 0 0 1 18.5 19.1 L17.9 19.6 C17.8 19.8 17.6 19.8 17.4 19.7 L16.5 19.4 L16.2 19.4 A4.1 4.1 0 0 1 15.8 20.3 C15.7 20.4 15.6 20.5 15.4 20.5 z M15 19.5 L15.1 19.5 C15.1 19.3 15.2 19.2 15.3 18.9 L15.3 18.9 L15.5 18.6 L15.7 18.6 L16.3 18.4 L16.8 18.4 L17.5 18.7 L17.5 18.7 L17.3 18.1 L17.2 18.1 C17.1 18.1 17.1 17.9 17.1 17.8 L17.2 17.8 L17.2 17.6 L17.4 17.1 L17.7 16.8 L17.8 16.8 L18.5 16.5 L18.5 16.5 L17.9 16.3 L17.7 16.3 L17.4 16 L17.2 15.3 A0.3 0.3 0 0 1 17.2 14.9 L17.2 14.9 L17.5 14.2 L17.2 14.2 L16.7 14.4 L16.1 14.4 L15.6 14.2 L15.3 13.9 L15.3 13.9 L15 13.2 L14.9 13.2 A1.4 1.4 0 0 1 14.7 13.8 L14.7 13.8 L14.5 14.1 L14.2 14.1 L13.7 14.3 L13.2 14.3 L12.5 14 L12.5 14 L12.7 14.6 L12.8 14.6 C12.9 14.6 12.9 14.8 12.9 14.9 L12.8 14.9 L12.8 15.1 L12.6 15.6 L12.3 15.9 L12.2 15.9 L11.5 16.2 L11.5 16.2 L12.1 16.4 L12.2 16.4 L12.5 16.6 L12.5 16.8 L12.7 17.4 A0.3 0.3 0 0 1 12.7 17.8 L12.7 17.8 L12.4 18.5 L12.5 18.5 L13 18.2 L13.8 18.2 L14.3 18.40001 L14.6 18.7 L14.6 18.7 z" style="fill:#03689A;" />
            <path d="M15 15.5 A0.5 0.5 0 1 1 14.5 16 A0.5 0.5 0 0 1 15 15.5 M15 14.5 A1.5 1.5 0 1 0 16.5 16 A1.5 1.5 0 0 0 15 14.5 z" style="fill:#03689A;" />
            <path d="M12 11.5 L11.9 11.5 A1.4 1.4 0 0 1 11.7 12.1 L11.7 12.1 L11.5 12.4 L11.2 12.4 L10.7 12.6 L10.2 12.6 L9.5 12.3 L9.5 12.3 L9.7 12.9 L9.8 12.9 C9.900001 12.9 9.900001 13.1 9.900001 13.2 L9.8 13.2 L9.8 13.4 L9.6 13.9 L9.3 14.2 L9.2 14.2 L8.5 14.5 L8.5 14.5 L9.1 14.7 L9.200001 14.7 L9.500001 14.9 L9.500001 15.1 L9.700001 15.7 A0.3 0.3 0 0 1 9.700001 16.1 L9.700001 16.1 L9.400001 16.8 L9.500001 16.8 L10 16.5 L10.5 17.5 L9.600001 17.9 L9.1 17.9 L8.6 17.3 C8.400001 17.2 8.400001 17 8.400001 16.8 L8.8 15.9 L8.8 15.9 L8.8 15.6 L7.9 15.2 C7.7 15.1 7.6 15 7.6 14.8 L7.6 14.1 A0.5 0.5 0 0 1 7.9 13.6 L8.8 13.2 L8.8 13 A6.4 6.4 0 0 0 8.400001 12 A0.7 0.7 0 0 1 8.500001 11.5 L9.100001 11 C9.200002 10.8 9.400002 10.8 9.600001 10.9 L10.5 11.2 L10.8 11.2 A4.1 4.1 0 0 1 11.2 10.3 C11.3 10.1 11.4 10 11.6 10 L12.3 10 A0.5 0.5 0 0 1 12.8 10.3 A4.1 4.1 0 0 1 13.2 11.2" style="fill:#03689A;" />
          </g>
          <g />
        </g>
      </g>
      <svg width="130" height="86" class="djs-svg-text">
        <text font-family="'Segoe UI'" font-size="11.9533px" font-style="normal" font-weight="normal" lineHeight="1.2" textDirection="0" textAlign="center" class="djs-label" style="fill:black;">
          <tspan x="18.96223" y="48.5">7. Descartar item </tspan>
        </text>
      </svg>
    </g>
  </g>
  <g class="djs-group">
    <g transform="matrix(1, 0, 0, 1, 580, 0)" id="gfx-2b65beaa-ecb3-468d-ad5a-70a750154d0b" display="block" class="djs-element djs-shape" data-element-id="2b65beaa-ecb3-468d-ad5a-70a750154d0b">
      <g class="djs-visual">
        <g>
          <rect x="0" y="0" width="130" height="90" rx="8" stroke-width="2px" class="" style="fill:#ECEFFF;stroke:#03689A;" />
          <g transform="translate(-6, -11) scale(1.6)">
            <path d="M15.4 20.5 L14.7 20.5 A0.5 0.5 0 0 1 14.2 20.2 L13.8 19.3 L13.6 19.3 L12.7 19.7 L12.1 19.7 L11.6 19.1 C11.4 19 11.4 18.8 11.4 18.6 L11.8 17.7 L11.8 17.7 L11.8 17.4 L10.9 17 C10.7 16.9 10.6 16.8 10.6 16.6 L10.6 15.9 A0.5 0.5 0 0 1 10.9 15.4 L11.8 15 L11.8 14.8 A6.4 6.4 0 0 0 11.4 13.8 A0.7 0.7 0 0 1 11.5 13.3 L12.1 12.8 C12.2 12.6 12.4 12.6 12.6 12.7 L13.5 13 L13.8 13 A4.1 4.1 0 0 1 14.2 12.1 C14.3 11.9 14.4 11.8 14.6 11.8 L15.3 11.8 A0.5 0.5 0 0 1 15.8 12.1 A4.1 4.1 0 0 1 16.2 13 L16.8 13 L17.6 12.7 L17.9 12.7 L18.4 13.3 C18.6 13.4 18.6 13.6 18.6 13.8 L18.2 14.7 L18.2 14.7 L18.2 15 L19.1 15.4 C19.3 15.5 19.4 15.6 19.4 15.8 L19.4 16.5 A0.5 0.5 0 0 1 19.1 17 L18.2 17.4 L18.2 17.6 A6.4 6.4 0 0 0 18.6 18.6 A0.7 0.7 0 0 1 18.5 19.1 L17.9 19.6 C17.8 19.8 17.6 19.8 17.4 19.7 L16.5 19.4 L16.2 19.4 A4.1 4.1 0 0 1 15.8 20.3 C15.7 20.4 15.6 20.5 15.4 20.5 z M15 19.5 L15.1 19.5 C15.1 19.3 15.2 19.2 15.3 18.9 L15.3 18.9 L15.5 18.6 L15.7 18.6 L16.3 18.4 L16.8 18.4 L17.5 18.7 L17.5 18.7 L17.3 18.1 L17.2 18.1 C17.1 18.1 17.1 17.9 17.1 17.8 L17.2 17.8 L17.2 17.6 L17.4 17.1 L17.7 16.8 L17.8 16.8 L18.5 16.5 L18.5 16.5 L17.9 16.3 L17.7 16.3 L17.4 16 L17.2 15.3 A0.3 0.3 0 0 1 17.2 14.9 L17.2 14.9 L17.5 14.2 L17.2 14.2 L16.7 14.4 L16.1 14.4 L15.6 14.2 L15.3 13.9 L15.3 13.9 L15 13.2 L14.9 13.2 A1.4 1.4 0 0 1 14.7 13.8 L14.7 13.8 L14.5 14.1 L14.2 14.1 L13.7 14.3 L13.2 14.3 L12.5 14 L12.5 14 L12.7 14.6 L12.8 14.6 C12.9 14.6 12.9 14.8 12.9 14.9 L12.8 14.9 L12.8 15.1 L12.6 15.6 L12.3 15.9 L12.2 15.9 L11.5 16.2 L11.5 16.2 L12.1 16.4 L12.2 16.4 L12.5 16.6 L12.5 16.8 L12.7 17.4 A0.3 0.3 0 0 1 12.7 17.8 L12.7 17.8 L12.4 18.5 L12.5 18.5 L13 18.2 L13.8 18.2 L14.3 18.40001 L14.6 18.7 L14.6 18.7 z" style="fill:#03689A;" />
            <path d="M15 15.5 A0.5 0.5 0 1 1 14.5 16 A0.5 0.5 0 0 1 15 15.5 M15 14.5 A1.5 1.5 0 1 0 16.5 16 A1.5 1.5 0 0 0 15 14.5 z" style="fill:#03689A;" />
            <path d="M12 11.5 L11.9 11.5 A1.4 1.4 0 0 1 11.7 12.1 L11.7 12.1 L11.5 12.4 L11.2 12.4 L10.7 12.6 L10.2 12.6 L9.5 12.3 L9.5 12.3 L9.7 12.9 L9.8 12.9 C9.900001 12.9 9.900001 13.1 9.900001 13.2 L9.8 13.2 L9.8 13.4 L9.6 13.9 L9.3 14.2 L9.2 14.2 L8.5 14.5 L8.5 14.5 L9.1 14.7 L9.200001 14.7 L9.500001 14.9 L9.500001 15.1 L9.700001 15.7 A0.3 0.3 0 0 1 9.700001 16.1 L9.700001 16.1 L9.400001 16.8 L9.500001 16.8 L10 16.5 L10.5 17.5 L9.600001 17.9 L9.1 17.9 L8.6 17.3 C8.400001 17.2 8.400001 17 8.400001 16.8 L8.8 15.9 L8.8 15.9 L8.8 15.6 L7.9 15.2 C7.7 15.1 7.6 15 7.6 14.8 L7.6 14.1 A0.5 0.5 0 0 1 7.9 13.6 L8.8 13.2 L8.8 13 A6.4 6.4 0 0 0 8.400001 12 A0.7 0.7 0 0 1 8.500001 11.5 L9.100001 11 C9.200002 10.8 9.400002 10.8 9.600001 10.9 L10.5 11.2 L10.8 11.2 A4.1 4.1 0 0 1 11.2 10.3 C11.3 10.1 11.4 10 11.6 10 L12.3 10 A0.5 0.5 0 0 1 12.8 10.3 A4.1 4.1 0 0 1 13.2 11.2" style="fill:#03689A;" />
          </g>
          <g />
        </g>
      </g>
      <svg width="130" height="86" class="djs-svg-text">
        <text font-family="'Segoe UI'" font-size="11.9533px" font-style="normal" font-weight="normal" lineHeight="1.2" textDirection="0" textAlign="center" class="djs-label" style="fill:black;">
          <tspan x="27.13992" y="48.5">6. Aceitar item</tspan>
        </text>
      </svg>
    </g>
  </g>
  <g class="djs-group">
    <g transform="matrix(1, 0, 0, 1, 89.6923, 138)" id="gfx-f5a2057f-f025-40ba-ac84-291fd1bc15ea" display="block" class="djs-element djs-shape" data-element-id="f5a2057f-f025-40ba-ac84-291fd1bc15ea">
      <g class="djs-visual">
        <g>
          <rect x="0" y="0" width="130" height="90" rx="8" stroke-width="2px" class="" style="fill:#ECEFFF;stroke:#03689A;" />
          <g transform="translate(-6, -11) scale(1.6)">
            <path d="M17 16.5 A5.7 5.7 0 0 0 14.4 14.6 L14.2 14.4 C14.2 14.3 14.3 14.3 14.3 14.2 A1.9 1.9 0 0 0 14.8 12.9 A2.3 2.3 0 0 0 12.7 10.6 A2.5 2.5 0 0 0 10.3 12.9 A2.4 2.4 0 0 0 10.5 13.7 L10.7 13.9 C10.8 14.2 11 14.2 11.2 14.4 L11.2 14.6 L10.6 14.6 A5 5 0 0 0 8 16.7 L8 16.7 L8 19.6 L17 19.6 L17 16.6 z M11.6 14.6 L11.9 14.3 L11.6 14.3 A1.6 1.6 0 0 1 10.8 13 A3.7 3.7 0 0 1 12.5 12.4 C12.6 12.4 12.7 12.7 12.8 12.8 L13.3 12.8 A2.4 2.4 0 0 0 14.3 12.5 A2.3 2.3 0 0 1 13.4 14.4 L13.4 14.4 L13.6 14.8 L13.6 14.8 A0.8 0.8 0 0 1 13.4 15.7 A1.5 1.5 0 0 1 12.5 16.1 A1 1 0 0 1 11.7 15.7 C11.3 15.3 11.3 15.1 11.3 14.9 C11.3 14.7 11.4 14.8 11.6 14.6 z M16.5 19.1 L15.4 19.1 L15.4 18 L14.8 18 L14.8 19.1 L10.2 19.1 L10.2 18 L9.7 18 L9.7 19.2 L8.5 19.2 L8.5 16.9 A5.2 5.2 0 0 1 10.8 15.1 L10.9 15.1 C10.9 15.5 10.7 15.8 11.2 16.3 A2.7 2.7 0 0 0 12.5 16.8 A2.2 2.2 0 0 0 13.9 16.2 A1.1 1.1 0 0 0 14.2 15.2 A4.6 4.6 0 0 1 16.5 16.9 z" style="fill:white;" />
            <path d="M12.7 10.6 A2.5 2.5 0 0 0 10.3 12.9 A2.4 2.4 0 0 0 10.5 13.7 L10.7 13.9 C10.8 14.2 11 14.2 11.2 14.4 L11.2 14.6 L10.6 14.6 A5 5 0 0 0 8 16.7 L8 16.7 L8 19.6 L17 19.6 L17 16.6 L17 16.6 A5.7 5.7 0 0 0 14.4 14.7 L14.2 14.5 C14.2 14.4 14.3 14.4 14.3 14.3 A1.9 1.9 0 0 0 14.8 13 A2.3 2.3 0 0 0 12.7 10.7 z M12.5 16.3 A1 1 0 0 1 11.7 15.9 C11.3 15.5 11.3 15.3 11.3 15.1 C11.3 14.9 11.4 14.8 11.6 14.6 L11.9 14.3 L11.6 14.3 A1.6 1.6 0 0 1 10.8 13 A3.7 3.7 0 0 1 12.5 12.4 C12.6 12.4 12.7 12.7 12.8 12.8 L13.3 12.8 A2.4 2.4 0 0 0 14.3 12.5 A2.3 2.3 0 0 1 13.4 14.4 L13.4 14.4 L13.6 14.8 L13.6 14.8 A0.8 0.8 0 0 1 13.4 15.7 A1.5 1.5 0 0 1 12.5 16.1 z M10.8 15.1 L10.9 15.1 C10.9 15.5 10.7 15.8 11.2 16.3 A2.7 2.7 0 0 0 12.5 16.8 A2.2 2.2 0 0 0 13.9 16.2 A1.1 1.1 0 0 0 14.2 15.2 A4.6 4.6 0 0 1 16.5 16.9 L16.5 19.1 L15.4 19.1 L15.4 18 L14.8 18 L14.8 19.1 L10.2 19.1 L10.2 18 L9.7 18 L9.7 19.2 L8.5 19.2 L8.5 16.9 A5.2 5.2 0 0 1 10.8 15.1 z" style="fill:#03689A;" />
          </g>
          <g />
        </g>
      </g>
      <svg width="130" height="86" class="djs-svg-text">
        <text font-family="'Segoe UI'" font-size="11.9533px" font-style="normal" font-weight="normal" lineHeight="1.2" textDirection="0" textAlign="center" class="djs-label" style="fill:black;">
          <tspan x="25.34566" y="48.5">4. Revisar item </tspan>
        </text>
      </svg>
    </g>
  </g>
  <g class="djs-group">
    <g transform="matrix(1, 0, 0, 1, 598, 451)" id="gfx-7402a5bd-c69f-45cd-a623-d6c26441ca4c" display="block" class="djs-element djs-shape" data-element-id="7402a5bd-c69f-45cd-a623-d6c26441ca4c">
      <g class="djs-visual">
        <g>
          <rect x="0" y="0" width="130" height="90" rx="8" stroke-width="2px" class="" style="fill:#ECEFFF;stroke:#03689A;" />
          <g transform="translate(-6, -11) scale(1.6)">
            <path d="M17 16.5 A5.7 5.7 0 0 0 14.4 14.6 L14.2 14.4 C14.2 14.3 14.3 14.3 14.3 14.2 A1.9 1.9 0 0 0 14.8 12.9 A2.3 2.3 0 0 0 12.7 10.6 A2.5 2.5 0 0 0 10.3 12.9 A2.4 2.4 0 0 0 10.5 13.7 L10.7 13.9 C10.8 14.2 11 14.2 11.2 14.4 L11.2 14.6 L10.6 14.6 A5 5 0 0 0 8 16.7 L8 16.7 L8 19.6 L17 19.6 L17 16.6 z M11.6 14.6 L11.9 14.3 L11.6 14.3 A1.6 1.6 0 0 1 10.8 13 A3.7 3.7 0 0 1 12.5 12.4 C12.6 12.4 12.7 12.7 12.8 12.8 L13.3 12.8 A2.4 2.4 0 0 0 14.3 12.5 A2.3 2.3 0 0 1 13.4 14.4 L13.4 14.4 L13.6 14.8 L13.6 14.8 A0.8 0.8 0 0 1 13.4 15.7 A1.5 1.5 0 0 1 12.5 16.1 A1 1 0 0 1 11.7 15.7 C11.3 15.3 11.3 15.1 11.3 14.9 C11.3 14.7 11.4 14.8 11.6 14.6 z M16.5 19.1 L15.4 19.1 L15.4 18 L14.8 18 L14.8 19.1 L10.2 19.1 L10.2 18 L9.7 18 L9.7 19.2 L8.5 19.2 L8.5 16.9 A5.2 5.2 0 0 1 10.8 15.1 L10.9 15.1 C10.9 15.5 10.7 15.8 11.2 16.3 A2.7 2.7 0 0 0 12.5 16.8 A2.2 2.2 0 0 0 13.9 16.2 A1.1 1.1 0 0 0 14.2 15.2 A4.6 4.6 0 0 1 16.5 16.9 z" style="fill:white;" />
            <path d="M12.7 10.6 A2.5 2.5 0 0 0 10.3 12.9 A2.4 2.4 0 0 0 10.5 13.7 L10.7 13.9 C10.8 14.2 11 14.2 11.2 14.4 L11.2 14.6 L10.6 14.6 A5 5 0 0 0 8 16.7 L8 16.7 L8 19.6 L17 19.6 L17 16.6 L17 16.6 A5.7 5.7 0 0 0 14.4 14.7 L14.2 14.5 C14.2 14.4 14.3 14.4 14.3 14.3 A1.9 1.9 0 0 0 14.8 13 A2.3 2.3 0 0 0 12.7 10.7 z M12.5 16.3 A1 1 0 0 1 11.7 15.9 C11.3 15.5 11.3 15.3 11.3 15.1 C11.3 14.9 11.4 14.8 11.6 14.6 L11.9 14.3 L11.6 14.3 A1.6 1.6 0 0 1 10.8 13 A3.7 3.7 0 0 1 12.5 12.4 C12.6 12.4 12.7 12.7 12.8 12.8 L13.3 12.8 A2.4 2.4 0 0 0 14.3 12.5 A2.3 2.3 0 0 1 13.4 14.4 L13.4 14.4 L13.6 14.8 L13.6 14.8 A0.8 0.8 0 0 1 13.4 15.7 A1.5 1.5 0 0 1 12.5 16.1 z M10.8 15.1 L10.9 15.1 C10.9 15.5 10.7 15.8 11.2 16.3 A2.7 2.7 0 0 0 12.5 16.8 A2.2 2.2 0 0 0 13.9 16.2 A1.1 1.1 0 0 0 14.2 15.2 A4.6 4.6 0 0 1 16.5 16.9 L16.5 19.1 L15.4 19.1 L15.4 18 L14.8 18 L14.8 19.1 L10.2 19.1 L10.2 18 L9.7 18 L9.7 19.2 L8.5 19.2 L8.5 16.9 A5.2 5.2 0 0 1 10.8 15.1 z" style="fill:#03689A;" />
          </g>
          <g />
        </g>
      </g>
      <svg width="130" height="86" class="djs-svg-text">
        <text font-family="'Segoe UI'" font-size="11.9533px" font-style="normal" font-weight="normal" lineHeight="1.2" textDirection="0" textAlign="center" class="djs-label" style="fill:black;">
          <tspan x="27.81677" y="48.5">8. Avaliar item</tspan>
        </text>
      </svg>
    </g>
  </g>
  <g class="djs-group">
    <g transform="matrix(1, 0, 0, 1, 861, 359)" id="gfx-5b4b9404-c2b5-4949-948d-cd4233681297" display="block" class="djs-element djs-shape" data-element-id="5b4b9404-c2b5-4949-948d-cd4233681297">
      <g class="djs-visual">
        <g>
          <rect x="0" y="0" width="130" height="90" rx="8" stroke-width="2px" class="" style="fill:#ECEFFF;stroke:#03689A;" />
          <g transform="translate(-6, -11) scale(1.6)">
            <path d="M17 16.5 A5.7 5.7 0 0 0 14.4 14.6 L14.2 14.4 C14.2 14.3 14.3 14.3 14.3 14.2 A1.9 1.9 0 0 0 14.8 12.9 A2.3 2.3 0 0 0 12.7 10.6 A2.5 2.5 0 0 0 10.3 12.9 A2.4 2.4 0 0 0 10.5 13.7 L10.7 13.9 C10.8 14.2 11 14.2 11.2 14.4 L11.2 14.6 L10.6 14.6 A5 5 0 0 0 8 16.7 L8 16.7 L8 19.6 L17 19.6 L17 16.6 z M11.6 14.6 L11.9 14.3 L11.6 14.3 A1.6 1.6 0 0 1 10.8 13 A3.7 3.7 0 0 1 12.5 12.4 C12.6 12.4 12.7 12.7 12.8 12.8 L13.3 12.8 A2.4 2.4 0 0 0 14.3 12.5 A2.3 2.3 0 0 1 13.4 14.4 L13.4 14.4 L13.6 14.8 L13.6 14.8 A0.8 0.8 0 0 1 13.4 15.7 A1.5 1.5 0 0 1 12.5 16.1 A1 1 0 0 1 11.7 15.7 C11.3 15.3 11.3 15.1 11.3 14.9 C11.3 14.7 11.4 14.8 11.6 14.6 z M16.5 19.1 L15.4 19.1 L15.4 18 L14.8 18 L14.8 19.1 L10.2 19.1 L10.2 18 L9.7 18 L9.7 19.2 L8.5 19.2 L8.5 16.9 A5.2 5.2 0 0 1 10.8 15.1 L10.9 15.1 C10.9 15.5 10.7 15.8 11.2 16.3 A2.7 2.7 0 0 0 12.5 16.8 A2.2 2.2 0 0 0 13.9 16.2 A1.1 1.1 0 0 0 14.2 15.2 A4.6 4.6 0 0 1 16.5 16.9 z" style="fill:white;" />
            <path d="M12.7 10.6 A2.5 2.5 0 0 0 10.3 12.9 A2.4 2.4 0 0 0 10.5 13.7 L10.7 13.9 C10.8 14.2 11 14.2 11.2 14.4 L11.2 14.6 L10.6 14.6 A5 5 0 0 0 8 16.7 L8 16.7 L8 19.6 L17 19.6 L17 16.6 L17 16.6 A5.7 5.7 0 0 0 14.4 14.7 L14.2 14.5 C14.2 14.4 14.3 14.4 14.3 14.3 A1.9 1.9 0 0 0 14.8 13 A2.3 2.3 0 0 0 12.7 10.7 z M12.5 16.3 A1 1 0 0 1 11.7 15.9 C11.3 15.5 11.3 15.3 11.3 15.1 C11.3 14.9 11.4 14.8 11.6 14.6 L11.9 14.3 L11.6 14.3 A1.6 1.6 0 0 1 10.8 13 A3.7 3.7 0 0 1 12.5 12.4 C12.6 12.4 12.7 12.7 12.8 12.8 L13.3 12.8 A2.4 2.4 0 0 0 14.3 12.5 A2.3 2.3 0 0 1 13.4 14.4 L13.4 14.4 L13.6 14.8 L13.6 14.8 A0.8 0.8 0 0 1 13.4 15.7 A1.5 1.5 0 0 1 12.5 16.1 z M10.8 15.1 L10.9 15.1 C10.9 15.5 10.7 15.8 11.2 16.3 A2.7 2.7 0 0 0 12.5 16.8 A2.2 2.2 0 0 0 13.9 16.2 A1.1 1.1 0 0 0 14.2 15.2 A4.6 4.6 0 0 1 16.5 16.9 L16.5 19.1 L15.4 19.1 L15.4 18 L14.8 18 L14.8 19.1 L10.2 19.1 L10.2 18 L9.7 18 L9.7 19.2 L8.5 19.2 L8.5 16.9 A5.2 5.2 0 0 1 10.8 15.1 z" style="fill:#03689A;" />
          </g>
          <g />
        </g>
      </g>
      <svg width="130" height="86" class="djs-svg-text">
        <text font-family="'Segoe UI'" font-size="11.9533px" font-style="normal" font-weight="normal" lineHeight="1.2" textDirection="0" textAlign="center" class="djs-label" style="fill:black;">
          <tspan x="20.59894" y="48.5">9. Descartar item</tspan>
        </text>
      </svg>
    </g>
  </g>
  <g class="djs-group">
    <g transform="matrix(1, 0, 0, 1, 865, 516)" id="gfx-327e22ed-008e-4458-8261-2871f32d9457" display="block" class="djs-element djs-shape" data-element-id="327e22ed-008e-4458-8261-2871f32d9457">
      <g class="djs-visual">
        <g>
          <rect x="0" y="0" width="130" height="90" rx="8" stroke-width="2px" class="" style="fill:#ECEFFF;stroke:#03689A;" />
          <g transform="translate(-6, -11) scale(1.6)">
            <path d="M17 16.5 A5.7 5.7 0 0 0 14.4 14.6 L14.2 14.4 C14.2 14.3 14.3 14.3 14.3 14.2 A1.9 1.9 0 0 0 14.8 12.9 A2.3 2.3 0 0 0 12.7 10.6 A2.5 2.5 0 0 0 10.3 12.9 A2.4 2.4 0 0 0 10.5 13.7 L10.7 13.9 C10.8 14.2 11 14.2 11.2 14.4 L11.2 14.6 L10.6 14.6 A5 5 0 0 0 8 16.7 L8 16.7 L8 19.6 L17 19.6 L17 16.6 z M11.6 14.6 L11.9 14.3 L11.6 14.3 A1.6 1.6 0 0 1 10.8 13 A3.7 3.7 0 0 1 12.5 12.4 C12.6 12.4 12.7 12.7 12.8 12.8 L13.3 12.8 A2.4 2.4 0 0 0 14.3 12.5 A2.3 2.3 0 0 1 13.4 14.4 L13.4 14.4 L13.6 14.8 L13.6 14.8 A0.8 0.8 0 0 1 13.4 15.7 A1.5 1.5 0 0 1 12.5 16.1 A1 1 0 0 1 11.7 15.7 C11.3 15.3 11.3 15.1 11.3 14.9 C11.3 14.7 11.4 14.8 11.6 14.6 z M16.5 19.1 L15.4 19.1 L15.4 18 L14.8 18 L14.8 19.1 L10.2 19.1 L10.2 18 L9.7 18 L9.7 19.2 L8.5 19.2 L8.5 16.9 A5.2 5.2 0 0 1 10.8 15.1 L10.9 15.1 C10.9 15.5 10.7 15.8 11.2 16.3 A2.7 2.7 0 0 0 12.5 16.8 A2.2 2.2 0 0 0 13.9 16.2 A1.1 1.1 0 0 0 14.2 15.2 A4.6 4.6 0 0 1 16.5 16.9 z" style="fill:white;" />
            <path d="M12.7 10.6 A2.5 2.5 0 0 0 10.3 12.9 A2.4 2.4 0 0 0 10.5 13.7 L10.7 13.9 C10.8 14.2 11 14.2 11.2 14.4 L11.2 14.6 L10.6 14.6 A5 5 0 0 0 8 16.7 L8 16.7 L8 19.6 L17 19.6 L17 16.6 L17 16.6 A5.7 5.7 0 0 0 14.4 14.7 L14.2 14.5 C14.2 14.4 14.3 14.4 14.3 14.3 A1.9 1.9 0 0 0 14.8 13 A2.3 2.3 0 0 0 12.7 10.7 z M12.5 16.3 A1 1 0 0 1 11.7 15.9 C11.3 15.5 11.3 15.3 11.3 15.1 C11.3 14.9 11.4 14.8 11.6 14.6 L11.9 14.3 L11.6 14.3 A1.6 1.6 0 0 1 10.8 13 A3.7 3.7 0 0 1 12.5 12.4 C12.6 12.4 12.7 12.7 12.8 12.8 L13.3 12.8 A2.4 2.4 0 0 0 14.3 12.5 A2.3 2.3 0 0 1 13.4 14.4 L13.4 14.4 L13.6 14.8 L13.6 14.8 A0.8 0.8 0 0 1 13.4 15.7 A1.5 1.5 0 0 1 12.5 16.1 z M10.8 15.1 L10.9 15.1 C10.9 15.5 10.7 15.8 11.2 16.3 A2.7 2.7 0 0 0 12.5 16.8 A2.2 2.2 0 0 0 13.9 16.2 A1.1 1.1 0 0 0 14.2 15.2 A4.6 4.6 0 0 1 16.5 16.9 L16.5 19.1 L15.4 19.1 L15.4 18 L14.8 18 L14.8 19.1 L10.2 19.1 L10.2 18 L9.7 18 L9.7 19.2 L8.5 19.2 L8.5 16.9 A5.2 5.2 0 0 1 10.8 15.1 z" style="fill:#03689A;" />
          </g>
          <g />
        </g>
      </g>
      <svg width="130" height="86" class="djs-svg-text">
        <text font-family="'Segoe UI'" font-size="11.9533px" font-style="normal" font-weight="normal" lineHeight="1.2" textDirection="0" textAlign="center" class="djs-label" style="fill:black;">
          <tspan x="20.64561" y="48.5">10. Aceitar  item </tspan>
        </text>
      </svg>
    </g>
  </g>
  <g class="djs-group">
    <g transform="matrix(1, 0, 0, 1, 28, 168)" id="gfx-cd33afb6-3853-4873-af55-95cf676d58e9" display="block" class="djs-element djs-shape" data-element-id="cd33afb6-3853-4873-af55-95cf676d58e9">
      <g class="djs-visual">
        <g>
          <g transform="translate(-8.90625, -8.90625) scale(1.5)">
            <path d="M16 25.2 C10.9 25.2 6.8 21.1 6.8 16 C6.8 10.9 10.9 6.8 16 6.8 C21.1 6.8 25.2 10.9 25.2 16 C25.2 21.1 21.1 25.2 16 25.2 L16 25.2 z" style="fill:#E6FF97;" />
            <path d="M15.9 7 C20.9 7 24.9 11 24.9 16 C24.9 21 20.9 25 15.9 25 C10.9 25 6.9 21 6.9 16 C6.9 11 10.9 7 15.9 7 M15.9 6 C10.4 6 5.9 10.5 5.9 16 C5.9 21.5 10.4 26 15.9 26 C21.4 26 25.9 21.5 25.9 16 C25.9 10.5 21.4 6 15.9 6 z" stroke-width="0.2px" class="" style="fill:#62A716;stroke:#62A716;" />
          </g>
        </g>
      </g>
    </g>
  </g>
  <g class="djs-group">
    <g transform="matrix(1, 0, 0, 1, 737, 30)" id="gfx-95547258-f589-43a1-92cb-21b2c55b4ec9" display="block" class="djs-element djs-shape" data-element-id="95547258-f589-43a1-92cb-21b2c55b4ec9">
      <g class="djs-visual">
        <g>
          <g transform="translate(-8.90625, -8.90625) scale(1.5)">
            <path d="M16 25.2 A9.2 9.2 0 1 1 25.2 16 A9.2 9.2 0 0 1 16 25.2 z" style="fill:#EEAAAA;" />
            <path d="M16 7.5 A8.5 8.5 0 1 1 7.5 16 A8.5 8.5 0 0 1 16 7.5 M16 6 A10 10 0 1 0 26 16 A10 10 0 0 0 16 6 z" stroke-width="0.4px" class="" style="fill:#990000;stroke:#990000;" />
          </g>
        </g>
      </g>
    </g>
  </g>
  <g class="djs-group">
    <g transform="matrix(1, 0, 0, 1, 714, 67)" id="gfx-38b31a8c-67eb-459b-af7a-309fcf5c111c" display="block" class="djs-element djs-shape" data-element-id="38b31a8c-67eb-459b-af7a-309fcf5c111c">
      <g class="djs-visual">
        <rect x="0" y="0" width="90" height="30" fill-opacity="0" stroke-opacity="0" style="fill:#FFFFFF;stroke:transparent;" />
        <svg width="90" height="25" class="djs-svg-text">
          <text font-family="'Segoe UI'" font-size="11.9533px" font-style="normal" font-weight="normal" lineHeight="1.2" textDirection="0" textAlign="center" class="djs-label" style="fill:black;">
            <tspan x="15.58016" y="15.5">Item aceito</tspan>
          </text>
        </svg>
      </g>
    </g>
  </g>
  <g class="djs-group">
    <g transform="matrix(1, 0, 0, 1, 744, 168)" id="gfx-0bc626d4-4b7c-45ef-82d0-01872a469b0b" display="block" class="djs-element djs-shape" data-element-id="0bc626d4-4b7c-45ef-82d0-01872a469b0b">
      <g class="djs-visual">
        <g>
          <g transform="translate(-8.90625, -8.90625) scale(1.5)">
            <path d="M16 25.2 A9.2 9.2 0 1 1 25.2 16 A9.2 9.2 0 0 1 16 25.2 z" style="fill:#EEAAAA;" />
            <path d="M16 7.5 A8.5 8.5 0 1 1 7.5 16 A8.5 8.5 0 0 1 16 7.5 M16 6 A10 10 0 1 0 26 16 A10 10 0 0 0 16 6 z" stroke-width="0.4px" class="" style="fill:#990000;stroke:#990000;" />
          </g>
        </g>
      </g>
    </g>
  </g>
  <g class="djs-group">
    <g transform="matrix(1, 0, 0, 1, 714, 206)" id="gfx-4d4b29e6-f685-4cdf-ac43-25e86f547134" display="block" class="djs-element djs-shape" data-element-id="4d4b29e6-f685-4cdf-ac43-25e86f547134">
      <g class="djs-visual">
        <rect x="0" y="0" width="90" height="38" fill-opacity="0" stroke-opacity="0" style="fill:#FFFFFF;stroke:transparent;" />
        <svg width="90" height="33" class="djs-svg-text">
          <text font-family="'Segoe UI'" font-size="11.9533px" font-style="normal" font-weight="normal" lineHeight="1.2" textDirection="0" textAlign="center" class="djs-label" style="fill:black;">
            <tspan x="31.47749" y="15.5">Item </tspan>
            <tspan x="15.86024" y="29.5">descartado</tspan>
          </text>
        </svg>
      </g>
    </g>
  </g>
  <g class="djs-group">
    <g transform="matrix(1, 0, 0, 1, 1017, 389)" id="gfx-fee16679-f369-446d-adc1-bc16c51edb50" display="block" class="djs-element djs-shape" data-element-id="fee16679-f369-446d-adc1-bc16c51edb50">
      <g class="djs-visual">
        <g>
          <g transform="translate(-8.90625, -8.90625) scale(1.5)">
            <path d="M16 25.2 A9.2 9.2 0 1 1 25.2 16 A9.2 9.2 0 0 1 16 25.2 z" style="fill:#EEAAAA;" />
            <path d="M16 7.5 A8.5 8.5 0 1 1 7.5 16 A8.5 8.5 0 0 1 16 7.5 M16 6 A10 10 0 1 0 26 16 A10 10 0 0 0 16 6 z" stroke-width="0.4px" class="" style="fill:#990000;stroke:#990000;" />
          </g>
        </g>
      </g>
    </g>
  </g>
  <g class="djs-group">
    <g transform="matrix(1, 0, 0, 1, 993, 420)" id="gfx-6edeb219-e492-4221-ba8b-17b34e64ab9c" display="block" class="djs-element djs-shape" data-element-id="6edeb219-e492-4221-ba8b-17b34e64ab9c">
      <g class="djs-visual">
        <rect x="0" y="0" width="90" height="38" fill-opacity="0" stroke-opacity="0" style="fill:#FFFFFF;stroke:transparent;" />
        <svg width="90" height="33" class="djs-svg-text">
          <text font-family="'Segoe UI'" font-size="11.9533px" font-style="normal" font-weight="normal" lineHeight="1.2" textDirection="0" textAlign="center" class="djs-label" style="fill:black;">
            <tspan x="31.47749" y="15.5">Item </tspan>
            <tspan x="15.86024" y="29.5">descartado</tspan>
          </text>
        </svg>
      </g>
    </g>
  </g>
  <g class="djs-group">
    <g transform="matrix(1, 0, 0, 1, 1023, 546)" id="gfx-8a666ece-4bd6-4432-aa6d-89a877c75b6a" display="block" class="djs-element djs-shape" data-element-id="8a666ece-4bd6-4432-aa6d-89a877c75b6a">
      <g class="djs-visual">
        <g>
          <g transform="translate(-8.90625, -8.90625) scale(1.5)">
            <path d="M16 25.2 A9.2 9.2 0 1 1 25.2 16 A9.2 9.2 0 0 1 16 25.2 z" style="fill:#EEAAAA;" />
            <path d="M16 7.5 A8.5 8.5 0 1 1 7.5 16 A8.5 8.5 0 0 1 16 7.5 M16 6 A10 10 0 1 0 26 16 A10 10 0 0 0 16 6 z" stroke-width="0.4px" class="" style="fill:#990000;stroke:#990000;" />
          </g>
        </g>
      </g>
    </g>
  </g>
  <g class="djs-group">
    <g transform="matrix(1, 0, 0, 1, 993, 584)" id="gfx-60d7d667-c533-476a-a137-ead89570a861" display="block" class="djs-element djs-shape" data-element-id="60d7d667-c533-476a-a137-ead89570a861">
      <g class="djs-visual">
        <rect x="0" y="0" width="90" height="30" fill-opacity="0" stroke-opacity="0" style="fill:#FFFFFF;stroke:transparent;" />
        <svg width="90" height="25" class="djs-svg-text">
          <text font-family="'Segoe UI'" font-size="11.9533px" font-style="normal" font-weight="normal" lineHeight="1.2" textDirection="0" textAlign="center" class="djs-label" style="fill:black;">
            <tspan x="15.58016" y="15.5">Item aceito</tspan>
          </text>
        </svg>
      </g>
    </g>
  </g>
  <g class="djs-group">
    <g transform="matrix(1, 0, 0, 1, 747, 476)" id="gfx-702fcfc9-33c7-4f97-9aa7-9a89cdec03c8" display="block" class="djs-element djs-shape" data-element-id="702fcfc9-33c7-4f97-9aa7-9a89cdec03c8">
      <g class="djs-visual">
        <g>
          <path d="M0 20 L20 40 L40 20 L20 0 z" stroke-width="1.8px" class="" style="fill:#FFFFCC;stroke:#A6A61D;" />
        </g>
      </g>
    </g>
  </g>
  <g class="djs-group">
    <g transform="matrix(1, 0, 0, 1, 417, 163)" id="gfx-cdd03dbb-d5cb-4f8a-afea-37ebedbfee5c" display="block" class="djs-element djs-shape" data-element-id="cdd03dbb-d5cb-4f8a-afea-37ebedbfee5c">
      <g class="djs-visual">
        <g>
          <path d="M0 20 L20 40 L40 20 L20 0 z" stroke-width="1.8px" class="" style="fill:#FFFFCC;stroke:#A6A61D;" />
        </g>
      </g>
    </g>
  </g>
  <g class="djs-group">
    <g id="gfx-d92cad30-a130-4b05-b34e-6d85e02da0c2" display="block" class="djs-element djs-connection" data-element-id="d92cad30-a130-4b05-b34e-6d85e02da0c2">
      <g class="djs-visual">
        <g>
          <defs>
            <marker refX="9.8" refY="6" orient="auto" markerWidth="12" markerHeight="12" markerUnits="strokeWidth" id="arrowSecuenceFlowd92cad30-a130-4b05-b34e-6d85e02da0c2#1">
              <path d="M0 0 L2 6 L0 12 L10 6 z" style="fill:black;" />
            </marker>
          </defs>
          <path d="M437 163 L437 51 C437 51 437 45 443 45 L580 45" marker-end="url(#arrowSecuenceFlowd92cad30-a130-4b05-b34e-6d85e02da0c2)" stroke-width="1px" stroke-linejoin="round" shape-rendering="crispEdges" fill-opacity="0" class="" style="fill:transparent;stroke:black;" />
        </g>
      </g>
    </g>
  </g>
  <g class="djs-group">
    <g transform="matrix(1, 0, 0, 1, 440, 97)" id="gfx-89fb675e-866c-45e2-b1d8-7602e51ccb29" display="block" class="djs-element djs-shape" data-element-id="89fb675e-866c-45e2-b1d8-7602e51ccb29">
      <g class="djs-visual">
        <rect x="0" y="0" width="174" height="63" fill-opacity="0" stroke-opacity="0" style="fill:#FFFFFF;stroke:transparent;" />
        <svg width="174" height="58" class="djs-svg-text">
          <text font-family="'Segoe UI'" font-size="11.9533px" font-style="normal" font-weight="normal" lineHeight="1.2" textDirection="0" textAlign="left" class="djs-label" style="fill:black;">
            <tspan x="6" y="15.5">Item aprovado pelos dois </tspan>
            <tspan x="6" y="29.5">revisores</tspan>
          </text>
        </svg>
      </g>
    </g>
  </g>
  <g class="djs-group">
    <g id="gfx-2ee44400-9414-4d3a-9315-8159b7047781" display="block" class="djs-element djs-connection" data-element-id="2ee44400-9414-4d3a-9315-8159b7047781">
      <g class="djs-visual">
        <g>
          <defs>
            <marker refX="9.8" refY="6" orient="auto" markerWidth="12" markerHeight="12" markerUnits="strokeWidth" id="arrowSecuenceFlow2ee44400-9414-4d3a-9315-8159b7047781">
              <path d="M0 0 L2 6 L0 12 L10 6 z" style="fill:black;" />
            </marker>
          </defs>
          <path d="M437 203 L437 490 C437 490 437 496 443 496 L598 496" marker-end="url(#arrowSecuenceFlow2ee44400-9414-4d3a-9315-8159b7047781)" stroke-width="1px" stroke-linejoin="round" shape-rendering="crispEdges" fill-opacity="0" class="" style="fill:transparent;stroke:black;" />
        </g>
      </g>
    </g>
  </g>
  <g class="djs-group">
    <g transform="matrix(1, 0, 0, 1, 442, 242)" id="gfx-83da4cf6-3e13-4dcd-ab02-226333a14a7d" display="block" class="djs-element djs-shape" data-element-id="83da4cf6-3e13-4dcd-ab02-226333a14a7d">
      <g class="djs-visual">
        <rect x="0" y="0" width="121" height="58" fill-opacity="0" stroke-opacity="0" style="fill:#FFFFFF;stroke:transparent;" />
        <svg width="121" height="53" class="djs-svg-text">
          <text font-family="'Segoe UI'" font-size="11.9533px" font-style="normal" font-weight="normal" lineHeight="1.2" textDirection="0" textAlign="left" class="djs-label" style="fill:black;">
            <tspan x="6" y="15.5">Item aprovado por </tspan>
            <tspan x="6" y="29.5">somente um revisor</tspan>
          </text>
        </svg>
      </g>
    </g>
  </g>
  <g class="djs-group">
    <g id="gfx-4b103c18-05b9-4599-aeb7-5c1571473049" display="block" class="djs-element djs-connection" data-element-id="4b103c18-05b9-4599-aeb7-5c1571473049">
      <g class="djs-visual">
        <g>
          <defs>
            <marker refX="9.8" refY="6" orient="auto" markerWidth="12" markerHeight="12" markerUnits="strokeWidth" id="arrowSecuenceFlow4b103c18-05b9-4599-aeb7-5c1571473049">
              <path d="M0 0 L2 6 L0 12 L10 6 z" style="fill:black;" />
            </marker>
          </defs>
          <path d="M58 183 L89 183" marker-end="url(#arrowSecuenceFlow4b103c18-05b9-4599-aeb7-5c1571473049)" stroke-width="1px" stroke-linejoin="round" shape-rendering="crispEdges" fill-opacity="0" class="" style="fill:transparent;stroke:black;" />
        </g>
      </g>
    </g>
  </g>
  <g class="djs-group">
    <g id="gfx-a20d2068-2976-47b4-b931-dce455450ab0" display="block" class="djs-element djs-connection" data-element-id="a20d2068-2976-47b4-b931-dce455450ab0">
      <g class="djs-visual">
        <g>
          <defs>
            <marker refX="9.8" refY="6" orient="auto" markerWidth="12" markerHeight="12" markerUnits="strokeWidth" id="arrowSecuenceFlowa20d2068-2976-47b4-b931-dce455450ab0">
              <path d="M0 0 L2 6 L0 12 L10 6 z" style="fill:black;" />
            </marker>
          </defs>
          <path d="M710 45 L737 45" marker-end="url(#arrowSecuenceFlowa20d2068-2976-47b4-b931-dce455450ab0)" stroke-width="1px" stroke-linejoin="round" shape-rendering="crispEdges" fill-opacity="0" class="" style="fill:transparent;stroke:black;" />
        </g>
      </g>
    </g>
  </g>
  <g class="djs-group">
    <g id="gfx-d5b0739c-263b-4dd1-833a-0b9f6c1e9f72" display="block" class="djs-element djs-connection" data-element-id="d5b0739c-263b-4dd1-833a-0b9f6c1e9f72">
      <g class="djs-visual">
        <g>
          <defs>
            <marker refX="9.8" refY="6" orient="auto" markerWidth="12" markerHeight="12" markerUnits="strokeWidth" id="arrowSecuenceFlowd5b0739c-263b-4dd1-833a-0b9f6c1e9f72">
              <path d="M0 0 L2 6 L0 12 L10 6 z" style="fill:black;" />
            </marker>
          </defs>
          <path d="M714 183 L744 183" marker-end="url(#arrowSecuenceFlowd5b0739c-263b-4dd1-833a-0b9f6c1e9f72)" stroke-width="1px" stroke-linejoin="round" shape-rendering="crispEdges" fill-opacity="0" class="" style="fill:transparent;stroke:black;" />
        </g>
      </g>
    </g>
  </g>
  <g class="djs-group">
    <g id="gfx-48d2ebb4-a92d-43e5-a1e3-6b422ca4bd73" display="block" class="djs-element djs-connection" data-element-id="48d2ebb4-a92d-43e5-a1e3-6b422ca4bd73">
      <g class="djs-visual">
        <g>
          <defs>
            <marker refX="9.8" refY="6" orient="auto" markerWidth="12" markerHeight="12" markerUnits="strokeWidth" id="arrowSecuenceFlow48d2ebb4-a92d-43e5-a1e3-6b422ca4bd73">
              <path d="M0 0 L2 6 L0 12 L10 6 z" style="fill:black;" />
            </marker>
          </defs>
          <path d="M991 404 L1017 404" marker-end="url(#arrowSecuenceFlow48d2ebb4-a92d-43e5-a1e3-6b422ca4bd73)" stroke-width="1px" stroke-linejoin="round" shape-rendering="crispEdges" fill-opacity="0" class="" style="fill:transparent;stroke:black;" />
        </g>
      </g>
    </g>
  </g>
  <g class="djs-group">
    <g id="gfx-fea43416-dcbc-4b27-bb42-010d15b26177" display="block" class="djs-element djs-connection" data-element-id="fea43416-dcbc-4b27-bb42-010d15b26177">
      <g class="djs-visual">
        <g>
          <defs>
            <marker refX="9.8" refY="6" orient="auto" markerWidth="12" markerHeight="12" markerUnits="strokeWidth" id="arrowSecuenceFlowfea43416-dcbc-4b27-bb42-010d15b26177">
              <path d="M0 0 L2 6 L0 12 L10 6 z" style="fill:black;" />
            </marker>
          </defs>
          <path d="M728 496 L747 496" marker-end="url(#arrowSecuenceFlowfea43416-dcbc-4b27-bb42-010d15b26177)" stroke-width="1px" stroke-linejoin="round" shape-rendering="crispEdges" fill-opacity="0" class="" style="fill:transparent;stroke:black;" />
        </g>
      </g>
    </g>
  </g>
  <g class="djs-group">
    <g id="gfx-847d6557-ac07-47e7-b665-a92a8f20d954" display="block" class="djs-element djs-connection" data-element-id="847d6557-ac07-47e7-b665-a92a8f20d954">
      <g class="djs-visual">
        <g>
          <defs>
            <marker refX="9.8" refY="6" orient="auto" markerWidth="12" markerHeight="12" markerUnits="strokeWidth" id="arrowSecuenceFlow847d6557-ac07-47e7-b665-a92a8f20d954">
              <path d="M0 0 L2 6 L0 12 L10 6 z" style="fill:black;" />
            </marker>
          </defs>
          <path d="M767 516 L767 555 C767 555 767 561 773 561 L865 561" marker-end="url(#arrowSecuenceFlow847d6557-ac07-47e7-b665-a92a8f20d954)" stroke-width="1px" stroke-linejoin="round" shape-rendering="crispEdges" fill-opacity="0" class="" style="fill:transparent;stroke:black;" />
        </g>
      </g>
    </g>
  </g>
  <g class="djs-group">
    <g transform="matrix(1, 0, 0, 1, 781, 512)" id="gfx-870c6bf5-68c8-4a16-ad8c-d847ccdf131c" display="block" class="djs-element djs-shape" data-element-id="870c6bf5-68c8-4a16-ad8c-d847ccdf131c">
      <g class="djs-visual">
        <rect x="0" y="0" width="90" height="30" fill-opacity="0" stroke-opacity="0" style="fill:#FFFFFF;stroke:transparent;" />
        <svg width="90" height="25" class="djs-svg-text">
          <text font-family="'Segoe UI'" font-size="11.9533px" font-style="normal" font-weight="normal" lineHeight="1.2" textDirection="0" textAlign="left" class="djs-label" style="fill:black;">
            <tspan x="6" y="15.5">Item aprovado</tspan>
          </text>
        </svg>
      </g>
    </g>
  </g>
  <g class="djs-group">
    <g id="gfx-2ad4635f-fb4f-4098-8874-085421441855" display="block" class="djs-element djs-connection" data-element-id="2ad4635f-fb4f-4098-8874-085421441855">
      <g class="djs-visual">
        <g>
          <defs>
            <marker refX="9.8" refY="6" orient="auto" markerWidth="12" markerHeight="12" markerUnits="strokeWidth" id="arrowSecuenceFlow2ad4635f-fb4f-4098-8874-085421441855">
              <path d="M0 0 L2 6 L0 12 L10 6 z" style="fill:black;" />
            </marker>
          </defs>
          <path d="M995 561 L1023 561" marker-end="url(#arrowSecuenceFlow2ad4635f-fb4f-4098-8874-085421441855)" stroke-width="1px" stroke-linejoin="round" shape-rendering="crispEdges" fill-opacity="0" class="" style="fill:transparent;stroke:black;" />
        </g>
      </g>
    </g>
  </g>
  <g class="djs-group">
    <g id="gfx-d2332488-3c57-4bba-801c-fc18effcc332" display="block" class="djs-element djs-connection" data-element-id="d2332488-3c57-4bba-801c-fc18effcc332">
      <g class="djs-visual">
        <g>
          <defs>
            <marker refX="9.8" refY="6" orient="auto" markerWidth="12" markerHeight="12" markerUnits="strokeWidth" id="arrowSecuenceFlowd2332488-3c57-4bba-801c-fc18effcc332">
              <path d="M0 0 L2 6 L0 12 L10 6 z" style="fill:black;" />
            </marker>
          </defs>
          <path d="M457 183 L584 183" marker-end="url(#arrowSecuenceFlowd2332488-3c57-4bba-801c-fc18effcc332)" stroke-width="1px" stroke-linejoin="round" shape-rendering="crispEdges" fill-opacity="0" class="" style="fill:transparent;stroke:black;" />
        </g>
      </g>
    </g>
  </g>
  <g class="djs-group">
    <g transform="matrix(1, 0, 0, 1, 454, 192)" id="gfx-d1579cf1-25fd-4530-a39a-feaa99884ff7" display="block" class="djs-element djs-shape" data-element-id="d1579cf1-25fd-4530-a39a-feaa99884ff7">
      <g class="djs-visual">
        <rect x="0" y="0" width="148" height="63" fill-opacity="0" stroke-opacity="0" style="fill:#FFFFFF;stroke:transparent;" />
        <svg width="148" height="58" class="djs-svg-text">
          <text font-family="'Segoe UI'" font-size="11.9533px" font-style="normal" font-weight="normal" lineHeight="1.2" textDirection="0" textAlign="left" class="djs-label" style="fill:black;">
            <tspan x="6" y="15.5">Item reprovado pelos </tspan>
            <tspan x="6" y="29.5">dois revisores</tspan>
          </text>
        </svg>
      </g>
    </g>
  </g>
  <g class="djs-group">
    <g id="gfx-ce220f2f-f209-46a9-9487-8cee6f70edd4" display="block" class="djs-element djs-connection" data-element-id="ce220f2f-f209-46a9-9487-8cee6f70edd4">
      <g class="djs-visual">
        <g>
          <defs>
            <marker refX="9.8" refY="6" orient="auto" markerWidth="12" markerHeight="12" markerUnits="strokeWidth" id="arrowSecuenceFlowce220f2f-f209-46a9-9487-8cee6f70edd4">
              <path d="M0 0 L2 6 L0 12 L10 6 z" style="fill:black;" />
            </marker>
          </defs>
          <path d="M767 476 L767 410 C767 410 767 404 773 404 L861 404" marker-end="url(#arrowSecuenceFlowce220f2f-f209-46a9-9487-8cee6f70edd4)" stroke-width="1px" stroke-linejoin="round" shape-rendering="crispEdges" fill-opacity="0" class="" style="fill:transparent;stroke:black;" />
        </g>
      </g>
    </g>
  </g>
  <g class="djs-group">
    <g transform="matrix(1, 0, 0, 1, 777, 423)" id="gfx-9fa3dce8-e093-4573-a7df-aa2d906f525c" display="block" class="djs-element djs-shape" data-element-id="9fa3dce8-e093-4573-a7df-aa2d906f525c">
      <g class="djs-visual">
        <rect x="0" y="0" width="90" height="38" fill-opacity="0" stroke-opacity="0" style="fill:#FFFFFF;stroke:transparent;" />
        <svg width="90" height="33" class="djs-svg-text">
          <text font-family="'Segoe UI'" font-size="11.9533px" font-style="normal" font-weight="normal" lineHeight="1.2" textDirection="0" textAlign="left" class="djs-label" style="fill:black;">
            <tspan x="6" y="15.5">Item </tspan>
            <tspan x="6" y="29.5">reprovado</tspan>
          </text>
        </svg>
      </g>
    </g>
  </g>
  <g class="djs-group">
    <g id="gfx-df10899b-1fd2-4134-aa71-a4fbf61b9ecb" display="block" class="djs-element djs-connection" data-element-id="df10899b-1fd2-4134-aa71-a4fbf61b9ecb">
      <g class="djs-visual">
        <g>
          <defs>
            <marker refX="9.8" refY="6" orient="auto" markerWidth="12" markerHeight="12" markerUnits="strokeWidth" id="arrowSecuenceFlowdf10899b-1fd2-4134-aa71-a4fbf61b9ecb">
              <path d="M0 0 L2 6 L0 12 L10 6 z" style="fill:black;" />
            </marker>
          </defs>
          <path d="M383 183 L417 183" marker-end="url(#arrowSecuenceFlowdf10899b-1fd2-4134-aa71-a4fbf61b9ecb)" stroke-width="1px" stroke-linejoin="round" shape-rendering="crispEdges" fill-opacity="0" class="" style="fill:transparent;stroke:black;" />
        </g>
      </g>
    </g>
  </g>
  <g class="djs-group">
    <g id="gfx-bd94d164-1fc5-4a06-ad45-f234dc40f547" display="block" class="djs-element djs-connection" data-element-id="bd94d164-1fc5-4a06-ad45-f234dc40f547">
      <g class="djs-visual">
        <g>
          <defs>
            <marker refX="9.8" refY="6" orient="auto" markerWidth="12" markerHeight="12" markerUnits="strokeWidth" id="arrowSecuenceFlowbd94d164-1fc5-4a06-ad45-f234dc40f547">
              <path d="M0 0 L2 6 L0 12 L10 6 z" style="fill:black;" />
            </marker>
          </defs>
          <path d="M219 183 L253 183" marker-end="url(#arrowSecuenceFlowbd94d164-1fc5-4a06-ad45-f234dc40f547)" stroke-width="1px" stroke-linejoin="round" shape-rendering="crispEdges" fill-opacity="0" class="" style="fill:transparent;stroke:black;" />
        </g>
      </g>
    </g>
  </g>
</svg>