<?xml version="1.0" encoding="utf-8"?>
<!DOCTYPE svg PUBLIC "-//W3C//DTD SVG 1.1//EN" "http://www.w3.org/Graphics/SVG/1.1/DTD/svg11.dtd">
<svg width="882" height="500px" viewBox="151, 42, 882, 500" xmlns="http://www.w3.org/2000/svg" xmlns:xlink="http://www.w3.org/1999/xlink" xmlns:xml="http://www.w3.org/XML/1998/namespace" version="1.1">
  <defs>
    <marker refX="9.8" refY="6" orient="auto" markerWidth="12" markerHeight="12" markerUnits="strokeWidth" id="arrowSecuenceFlowad93bbd2-e4ea-447b-8dbb-b6df74166558">
      <path d="M0 0 L2 6 L0 12 L10 6 z" style="fill:black;" />
    </marker>
  </defs>
  <g class="djs-group">
    <g transform="matrix(1, 0, 0, 1, 362, 211)" id="gfx-9eddd362-4f6b-4237-86cd-5c0557aa1579" display="block" class="djs-element djs-shape" data-element-id="9eddd362-4f6b-4237-86cd-5c0557aa1579">
      <g class="djs-visual">
        <g>
          <rect x="0" y="0" width="130" height="90" rx="8" stroke-width="2px" class="" style="fill:#ECEFFF;stroke:#03689A;" />
          <g transform="translate(-6, -11) scale(1.6)">
            <path d="M16.9 19.4 L10.7 19.4 A3.1 3.1 0 0 1 7.6 16 A4 4 0 0 1 9.3 12.6 L12 10.8 A1 1 0 0 1 12.9 10.7 A1 1 0 0 1 13.6 11.1 A1.3 1.3 0 0 1 13.2 12.7 L17.6 12.7 A0.9 0.9 0 0 1 18.6 13.6 A0.8 0.8 0 0 1 18.4 14.2 L18.4 14.2 A1.1 1.1 0 0 1 19.4 15.2 A1 1 0 0 1 18.7 16.1 A0.9 0.9 0 0 1 19 16.8 A0.9 0.9 0 0 1 18 17.7 L17.6 17.7 A1.4 1.4 0 0 1 17.8 18.3 A0.9 0.9 0 0 1 17.5 19 A0.9 0.9 0 0 1 16.9 19.4 z" style="fill:white;" />
            <path d="M16.9 19.4 L10.7 19.4 A3.1 3.1 0 0 1 7.6 16 A4 4 0 0 1 9.3 12.6 L12 10.8 A1 1 0 0 1 12.9 10.7 A1 1 0 0 1 13.6 11.1 A1.3 1.3 0 0 1 13.2 12.7 L17.6 12.7 A0.9 0.9 0 0 1 18.6 13.6 A0.8 0.8 0 0 1 18.4 14.2 L18.4 14.2 A1.1 1.1 0 0 1 19.4 15.2 A1 1 0 0 1 18.7 16.1 A0.9 0.9 0 0 1 19 16.8 A0.9 0.9 0 0 1 18 17.7 L17.6 17.7 A1.4 1.4 0 0 1 17.8 18.3 A0.9 0.9 0 0 1 17.5 19 A0.9 0.9 0 0 1 16.9 19.4 z M12.7 11.4 L12.4 11.4 L9.7 13.3 A2.9 2.9 0 0 0 8.4 16 A2.3 2.3 0 0 0 10.7 18.6 L17 18.6 C17 18.5 17.1 18.5 17.1 18.4 L16.9 18.2 L13.5 18.2 A0.6 0.6 0 0 1 12.9 17.6 A0.6 0.6 0 0 1 13.5 17.1 L18 17.1 A0.2 0.2 0 0 0 18.2 16.9 C18.2 16.7 18.1 16.6 18 16.6 L13.9 16.6 A0.6 0.6 0 0 1 13.3 16.1 A0.6 0.6 0 0 1 13.9 15.5 L18.4 15.5 L18.6 15.3 A0.2 0.2 0 0 0 18.4 15.1 L13.9 15.1 A0.6 0.6 0 0 1 13.9 13.9 L17.6 13.9 A0.2 0.2 0 0 0 17.8 13.7 L17.6 13.5 L11.9 13.5 C11.7 13.5 11.6 13.4 11.6 13.3 A0.4 0.4 0 0 1 11.7 12.8 L12.8 12 C13 11.9 13 11.7 12.9 11.5 L12.7 11.5 z" style="fill:#03689A;" />
          </g>
          <g />
        </g>
      </g>
      <svg width="130" height="86" class="djs-svg-text">
        <text font-family="'Segoe UI'" font-size="11.9533px" font-style="normal" font-weight="normal" lineHeight="1.2" textDirection="0" textAlign="center" class="djs-label" style="fill:black;">
          <tspan x="7.651169" y="41.5">4. Definir situação do </tspan>
          <tspan x="53.25716" y="55.5">item</tspan>
        </text>
      </svg>
    </g>
  </g>
  <g class="djs-group">
    <g transform="matrix(1, 0, 0, 1, 800, 343)" id="gfx-77cc2813-c8f8-4397-8a91-175ff7584768" display="block" class="djs-element djs-shape" data-element-id="77cc2813-c8f8-4397-8a91-175ff7584768">
      <g class="djs-visual">
        <g>
          <rect x="0" y="0" width="130" height="90" rx="8" stroke-width="2px" class="" style="fill:#ECEFFF;stroke:#03689A;" />
          <g transform="translate(-6, -11) scale(1.6)">
            <path d="M17 16.5 A5.7 5.7 0 0 0 14.4 14.6 L14.2 14.4 C14.2 14.3 14.3 14.3 14.3 14.2 A1.9 1.9 0 0 0 14.8 12.9 A2.3 2.3 0 0 0 12.7 10.6 A2.5 2.5 0 0 0 10.3 12.9 A2.4 2.4 0 0 0 10.5 13.7 L10.7 13.9 C10.8 14.2 11 14.2 11.2 14.4 L11.2 14.6 L10.6 14.6 A5 5 0 0 0 8 16.7 L8 16.7 L8 19.6 L17 19.6 L17 16.6 z M11.6 14.6 L11.9 14.3 L11.6 14.3 A1.6 1.6 0 0 1 10.8 13 A3.7 3.7 0 0 1 12.5 12.4 C12.6 12.4 12.7 12.7 12.8 12.8 L13.3 12.8 A2.4 2.4 0 0 0 14.3 12.5 A2.3 2.3 0 0 1 13.4 14.4 L13.4 14.4 L13.6 14.8 L13.6 14.8 A0.8 0.8 0 0 1 13.4 15.7 A1.5 1.5 0 0 1 12.5 16.1 A1 1 0 0 1 11.7 15.7 C11.3 15.3 11.3 15.1 11.3 14.9 C11.3 14.7 11.4 14.8 11.6 14.6 z M16.5 19.1 L15.4 19.1 L15.4 18 L14.8 18 L14.8 19.1 L10.2 19.1 L10.2 18 L9.7 18 L9.7 19.2 L8.5 19.2 L8.5 16.9 A5.2 5.2 0 0 1 10.8 15.1 L10.9 15.1 C10.9 15.5 10.7 15.8 11.2 16.3 A2.7 2.7 0 0 0 12.5 16.8 A2.2 2.2 0 0 0 13.9 16.2 A1.1 1.1 0 0 0 14.2 15.2 A4.6 4.6 0 0 1 16.5 16.9 z" style="fill:white;" />
            <path d="M12.7 10.6 A2.5 2.5 0 0 0 10.3 12.9 A2.4 2.4 0 0 0 10.5 13.7 L10.7 13.9 C10.8 14.2 11 14.2 11.2 14.4 L11.2 14.6 L10.6 14.6 A5 5 0 0 0 8 16.7 L8 16.7 L8 19.6 L17 19.6 L17 16.6 L17 16.6 A5.7 5.7 0 0 0 14.4 14.7 L14.2 14.5 C14.2 14.4 14.3 14.4 14.3 14.3 A1.9 1.9 0 0 0 14.8 13 A2.3 2.3 0 0 0 12.7 10.7 z M12.5 16.3 A1 1 0 0 1 11.7 15.9 C11.3 15.5 11.3 15.3 11.3 15.1 C11.3 14.9 11.4 14.8 11.6 14.6 L11.9 14.3 L11.6 14.3 A1.6 1.6 0 0 1 10.8 13 A3.7 3.7 0 0 1 12.5 12.4 C12.6 12.4 12.7 12.7 12.8 12.8 L13.3 12.8 A2.4 2.4 0 0 0 14.3 12.5 A2.3 2.3 0 0 1 13.4 14.4 L13.4 14.4 L13.6 14.8 L13.6 14.8 A0.8 0.8 0 0 1 13.4 15.7 A1.5 1.5 0 0 1 12.5 16.1 z M10.8 15.1 L10.9 15.1 C10.9 15.5 10.7 15.8 11.2 16.3 A2.7 2.7 0 0 0 12.5 16.8 A2.2 2.2 0 0 0 13.9 16.2 A1.1 1.1 0 0 0 14.2 15.2 A4.6 4.6 0 0 1 16.5 16.9 L16.5 19.1 L15.4 19.1 L15.4 18 L14.8 18 L14.8 19.1 L10.2 19.1 L10.2 18 L9.7 18 L9.7 19.2 L8.5 19.2 L8.5 16.9 A5.2 5.2 0 0 1 10.8 15.1 z" style="fill:#03689A;" />
          </g>
          <g />
        </g>
      </g>
      <svg width="130" height="86" class="djs-svg-text">
        <text font-family="'Segoe UI'" font-size="11.9533px" font-style="normal" font-weight="normal" lineHeight="1.2" textDirection="0" textAlign="center" class="djs-label" style="fill:black;">
          <tspan x="14.01126" y="41.5">7. Selecionar outro </tspan>
          <tspan x="6.723419" y="55.5">item para substituição</tspan>
        </text>
      </svg>
    </g>
  </g>
  <g class="djs-group">
    <g transform="matrix(1, 0, 0, 1, 639, 343)" id="gfx-d18a7304-a493-439c-a79e-be372f2844a6" display="block" class="djs-element djs-shape" data-element-id="d18a7304-a493-439c-a79e-be372f2844a6">
      <g class="djs-visual">
        <g>
          <rect x="0" y="0" width="130" height="90" rx="8" stroke-width="2px" class="" style="fill:#ECEFFF;stroke:#03689A;" />
          <g transform="translate(-6, -11) scale(1.6)">
            <path d="M17 16.5 A5.7 5.7 0 0 0 14.4 14.6 L14.2 14.4 C14.2 14.3 14.3 14.3 14.3 14.2 A1.9 1.9 0 0 0 14.8 12.9 A2.3 2.3 0 0 0 12.7 10.6 A2.5 2.5 0 0 0 10.3 12.9 A2.4 2.4 0 0 0 10.5 13.7 L10.7 13.9 C10.8 14.2 11 14.2 11.2 14.4 L11.2 14.6 L10.6 14.6 A5 5 0 0 0 8 16.7 L8 16.7 L8 19.6 L17 19.6 L17 16.6 z M11.6 14.6 L11.9 14.3 L11.6 14.3 A1.6 1.6 0 0 1 10.8 13 A3.7 3.7 0 0 1 12.5 12.4 C12.6 12.4 12.7 12.7 12.8 12.8 L13.3 12.8 A2.4 2.4 0 0 0 14.3 12.5 A2.3 2.3 0 0 1 13.4 14.4 L13.4 14.4 L13.6 14.8 L13.6 14.8 A0.8 0.8 0 0 1 13.4 15.7 A1.5 1.5 0 0 1 12.5 16.1 A1 1 0 0 1 11.7 15.7 C11.3 15.3 11.3 15.1 11.3 14.9 C11.3 14.7 11.4 14.8 11.6 14.6 z M16.5 19.1 L15.4 19.1 L15.4 18 L14.8 18 L14.8 19.1 L10.2 19.1 L10.2 18 L9.7 18 L9.7 19.2 L8.5 19.2 L8.5 16.9 A5.2 5.2 0 0 1 10.8 15.1 L10.9 15.1 C10.9 15.5 10.7 15.8 11.2 16.3 A2.7 2.7 0 0 0 12.5 16.8 A2.2 2.2 0 0 0 13.9 16.2 A1.1 1.1 0 0 0 14.2 15.2 A4.6 4.6 0 0 1 16.5 16.9 z" style="fill:white;" />
            <path d="M12.7 10.6 A2.5 2.5 0 0 0 10.3 12.9 A2.4 2.4 0 0 0 10.5 13.7 L10.7 13.9 C10.8 14.2 11 14.2 11.2 14.4 L11.2 14.6 L10.6 14.6 A5 5 0 0 0 8 16.7 L8 16.7 L8 19.6 L17 19.6 L17 16.6 L17 16.6 A5.7 5.7 0 0 0 14.4 14.7 L14.2 14.5 C14.2 14.4 14.3 14.4 14.3 14.3 A1.9 1.9 0 0 0 14.8 13 A2.3 2.3 0 0 0 12.7 10.7 z M12.5 16.3 A1 1 0 0 1 11.7 15.9 C11.3 15.5 11.3 15.3 11.3 15.1 C11.3 14.9 11.4 14.8 11.6 14.6 L11.9 14.3 L11.6 14.3 A1.6 1.6 0 0 1 10.8 13 A3.7 3.7 0 0 1 12.5 12.4 C12.6 12.4 12.7 12.7 12.8 12.8 L13.3 12.8 A2.4 2.4 0 0 0 14.3 12.5 A2.3 2.3 0 0 1 13.4 14.4 L13.4 14.4 L13.6 14.8 L13.6 14.8 A0.8 0.8 0 0 1 13.4 15.7 A1.5 1.5 0 0 1 12.5 16.1 z M10.8 15.1 L10.9 15.1 C10.9 15.5 10.7 15.8 11.2 16.3 A2.7 2.7 0 0 0 12.5 16.8 A2.2 2.2 0 0 0 13.9 16.2 A1.1 1.1 0 0 0 14.2 15.2 A4.6 4.6 0 0 1 16.5 16.9 L16.5 19.1 L15.4 19.1 L15.4 18 L14.8 18 L14.8 19.1 L10.2 19.1 L10.2 18 L9.7 18 L9.7 19.2 L8.5 19.2 L8.5 16.9 A5.2 5.2 0 0 1 10.8 15.1 z" style="fill:#03689A;" />
          </g>
          <g />
        </g>
      </g>
      <svg width="130" height="86" class="djs-svg-text">
        <text font-family="'Segoe UI'" font-size="11.9533px" font-style="normal" font-weight="normal" lineHeight="1.2" textDirection="0" textAlign="center" class="djs-label" style="fill:black;">
          <tspan x="6.551285" y="41.5">6. Manter situação de </tspan>
          <tspan x="31.03765" y="55.5">"item aceito"</tspan>
        </text>
      </svg>
    </g>
  </g>
  <g class="djs-group">
    <g transform="matrix(1, 0, 0, 1, 644, 58)" id="gfx-2bc3b723-ddaa-4058-9cc7-3f5fd02cd151" display="block" class="djs-element djs-shape" data-element-id="2bc3b723-ddaa-4058-9cc7-3f5fd02cd151">
      <g class="djs-visual">
        <g>
          <rect x="0" y="0" width="130" height="90" rx="8" stroke-width="2px" class="" style="fill:#ECEFFF;stroke:#03689A;" />
          <g transform="translate(-6, -11) scale(1.6)">
            <path d="M17 16.5 A5.7 5.7 0 0 0 14.4 14.6 L14.2 14.4 C14.2 14.3 14.3 14.3 14.3 14.2 A1.9 1.9 0 0 0 14.8 12.9 A2.3 2.3 0 0 0 12.7 10.6 A2.5 2.5 0 0 0 10.3 12.9 A2.4 2.4 0 0 0 10.5 13.7 L10.7 13.9 C10.8 14.2 11 14.2 11.2 14.4 L11.2 14.6 L10.6 14.6 A5 5 0 0 0 8 16.7 L8 16.7 L8 19.6 L17 19.6 L17 16.6 z M11.6 14.6 L11.9 14.3 L11.6 14.3 A1.6 1.6 0 0 1 10.8 13 A3.7 3.7 0 0 1 12.5 12.4 C12.6 12.4 12.7 12.7 12.8 12.8 L13.3 12.8 A2.4 2.4 0 0 0 14.3 12.5 A2.3 2.3 0 0 1 13.4 14.4 L13.4 14.4 L13.6 14.8 L13.6 14.8 A0.8 0.8 0 0 1 13.4 15.7 A1.5 1.5 0 0 1 12.5 16.1 A1 1 0 0 1 11.7 15.7 C11.3 15.3 11.3 15.1 11.3 14.9 C11.3 14.7 11.4 14.8 11.6 14.6 z M16.5 19.1 L15.4 19.1 L15.4 18 L14.8 18 L14.8 19.1 L10.2 19.1 L10.2 18 L9.7 18 L9.7 19.2 L8.5 19.2 L8.5 16.9 A5.2 5.2 0 0 1 10.8 15.1 L10.9 15.1 C10.9 15.5 10.7 15.8 11.2 16.3 A2.7 2.7 0 0 0 12.5 16.8 A2.2 2.2 0 0 0 13.9 16.2 A1.1 1.1 0 0 0 14.2 15.2 A4.6 4.6 0 0 1 16.5 16.9 z" style="fill:white;" />
            <path d="M12.7 10.6 A2.5 2.5 0 0 0 10.3 12.9 A2.4 2.4 0 0 0 10.5 13.7 L10.7 13.9 C10.8 14.2 11 14.2 11.2 14.4 L11.2 14.6 L10.6 14.6 A5 5 0 0 0 8 16.7 L8 16.7 L8 19.6 L17 19.6 L17 16.6 L17 16.6 A5.7 5.7 0 0 0 14.4 14.7 L14.2 14.5 C14.2 14.4 14.3 14.4 14.3 14.3 A1.9 1.9 0 0 0 14.8 13 A2.3 2.3 0 0 0 12.7 10.7 z M12.5 16.3 A1 1 0 0 1 11.7 15.9 C11.3 15.5 11.3 15.3 11.3 15.1 C11.3 14.9 11.4 14.8 11.6 14.6 L11.9 14.3 L11.6 14.3 A1.6 1.6 0 0 1 10.8 13 A3.7 3.7 0 0 1 12.5 12.4 C12.6 12.4 12.7 12.7 12.8 12.8 L13.3 12.8 A2.4 2.4 0 0 0 14.3 12.5 A2.3 2.3 0 0 1 13.4 14.4 L13.4 14.4 L13.6 14.8 L13.6 14.8 A0.8 0.8 0 0 1 13.4 15.7 A1.5 1.5 0 0 1 12.5 16.1 z M10.8 15.1 L10.9 15.1 C10.9 15.5 10.7 15.8 11.2 16.3 A2.7 2.7 0 0 0 12.5 16.8 A2.2 2.2 0 0 0 13.9 16.2 A1.1 1.1 0 0 0 14.2 15.2 A4.6 4.6 0 0 1 16.5 16.9 L16.5 19.1 L15.4 19.1 L15.4 18 L14.8 18 L14.8 19.1 L10.2 19.1 L10.2 18 L9.7 18 L9.7 19.2 L8.5 19.2 L8.5 16.9 A5.2 5.2 0 0 1 10.8 15.1 z" style="fill:#03689A;" />
          </g>
          <g />
        </g>
      </g>
      <svg width="130" height="86" class="djs-svg-text">
        <text font-family="'Segoe UI'" font-size="11.9533px" font-style="normal" font-weight="normal" lineHeight="1.2" textDirection="0" textAlign="center" class="djs-label" style="fill:black;">
          <tspan x="12.20535" y="41.5">5. Realizar carga do </tspan>
          <tspan x="53.25716" y="55.5">item</tspan>
        </text>
      </svg>
    </g>
  </g>
  <g class="djs-group">
    <g transform="matrix(1, 0, 0, 1, 220, 241)" id="gfx-cb44db61-3ba7-4f17-9a28-076c9f255a4b" display="block" class="djs-element djs-shape" data-element-id="cb44db61-3ba7-4f17-9a28-076c9f255a4b">
      <g class="djs-visual">
        <g>
          <g transform="translate(-8.90625, -8.90625) scale(1.5)">
            <path d="M16 25.2 C10.9 25.2 6.8 21.1 6.8 16 C6.8 10.9 10.9 6.8 16 6.8 C21.1 6.8 25.2 10.9 25.2 16 C25.2 21.1 21.1 25.2 16 25.2 L16 25.2 z" style="fill:#E6FF97;" />
            <path d="M15.9 7 C20.9 7 24.9 11 24.9 16 C24.9 21 20.9 25 15.9 25 C10.9 25 6.9 21 6.9 16 C6.9 11 10.9 7 15.9 7 M15.9 6 C10.4 6 5.9 10.5 5.9 16 C5.9 21.5 10.4 26 15.9 26 C21.4 26 25.9 21.5 25.9 16 C25.9 10.5 21.4 6 15.9 6 z" stroke-width="0.2px" class="" style="fill:#62A716;stroke:#62A716;" />
          </g>
        </g>
      </g>
    </g>
  </g>
  <g class="djs-group">
    <g transform="matrix(1, 0, 0, 1, 167, 277)" id="gfx-425badc1-43b0-4b5f-a701-8c76c485d215" display="block" class="djs-element djs-shape" data-element-id="425badc1-43b0-4b5f-a701-8c76c485d215">
      <g class="djs-visual">
        <rect x="0" y="0" width="136" height="59" fill-opacity="0" stroke-opacity="0" style="fill:#FFFFFF;stroke:transparent;" />
        <svg width="136" height="54" class="djs-svg-text">
          <text font-family="'Segoe UI'" font-size="10.6252px" font-style="normal" font-weight="normal" lineHeight="1.2" textDirection="0" textAlign="center" class="djs-label" style="fill:black;">
            <tspan x="6.188377" y="14.75">Necessidade de selecionar</tspan>
            <tspan x="56.87962" y="27.75">itens</tspan>
          </text>
        </svg>
      </g>
    </g>
  </g>
  <g class="djs-group">
    <g transform="matrix(1, 0, 0, 1, 808, 88)" id="gfx-682dc389-a480-46db-8a47-0c96f06ea914" display="block" class="djs-element djs-shape" data-element-id="682dc389-a480-46db-8a47-0c96f06ea914">
      <g class="djs-visual">
        <g>
          <g transform="translate(-8.90625, -8.90625) scale(1.5)">
            <path d="M16 25.2 A9.2 9.2 0 1 1 25.2 16 A9.2 9.2 0 0 1 16 25.2 z" style="fill:#EEAAAA;" />
            <path d="M16 7.5 A8.5 8.5 0 1 1 7.5 16 A8.5 8.5 0 0 1 16 7.5 M16 6 A10 10 0 1 0 26 16 A10 10 0 0 0 16 6 z" stroke-width="0.4px" class="" style="fill:#990000;stroke:#990000;" />
          </g>
        </g>
      </g>
    </g>
  </g>
  <g class="djs-group">
    <g transform="matrix(1, 0, 0, 1, 781, 124)" id="gfx-74fda232-b4e8-4556-9a6c-e63775a4be4e" display="block" class="djs-element djs-shape" data-element-id="74fda232-b4e8-4556-9a6c-e63775a4be4e">
      <g class="djs-visual">
        <rect x="0" y="0" width="84" height="44" fill-opacity="0" stroke-opacity="0" style="fill:#FFFFFF;stroke:transparent;" />
        <svg width="84" height="39" class="djs-svg-text">
          <text font-family="'Segoe UI'" font-size="10.6252px" font-style="normal" font-weight="normal" lineHeight="1.2" textDirection="0" textAlign="center" class="djs-label" style="fill:black;">
            <tspan x="7.298355" y="14.75">Carga do item </tspan>
            <tspan x="21.17228" y="27.75">realizada</tspan>
          </text>
        </svg>
      </g>
    </g>
  </g>
  <g class="djs-group">
    <g transform="matrix(1, 0, 0, 1, 288, 236)" id="gfx-7c9dd98e-9698-46b1-8a46-2862af43b41e" display="block" class="djs-element djs-shape" data-element-id="7c9dd98e-9698-46b1-8a46-2862af43b41e">
      <g class="djs-visual">
        <g>
          <path d="M0 20 L20 40 L40 20 L20 0 z" stroke-width="1.8px" class="" style="fill:#FFFFCC;stroke:#A6A61D;" />
        </g>
      </g>
    </g>
  </g>
  <g class="djs-group">
    <g transform="matrix(1, 0, 0, 1, 521, 236)" id="gfx-dacaeb82-a29b-4bd9-9618-789d2fafafb3" display="block" class="djs-element djs-shape" data-element-id="dacaeb82-a29b-4bd9-9618-789d2fafafb3">
      <g class="djs-visual">
        <g>
          <path d="M0 20 L20 40 L40 20 L20 0 z" stroke-width="1.8px" class="" style="fill:#FFFFCC;stroke:#A6A61D;" />
        </g>
      </g>
    </g>
  </g>
  <g class="djs-group">
    <g transform="matrix(1, 0, 0, 1, 965, 373)" id="gfx-d2d6aa39-bf78-47d6-a815-6788771a3cca" display="block" class="djs-element djs-shape" data-element-id="d2d6aa39-bf78-47d6-a815-6788771a3cca">
      <g class="djs-visual">
        <g>
          <g transform="translate(-8.90625, -8.90625) scale(1.5)">
            <path d="M15.9 25.5 A9.5 9.5 0 1 1 25.4 16 A9.6 9.6 0 0 1 15.9 25.5 z" style="fill:#FEFAEF;" />
            <path d="M15.9 7 A9 9 0 1 1 6.9 16 A9 9 0 0 1 15.9 7 M15.9 6 A10 10 0 1 0 25.9 16 A10 10 0 0 0 15.9 6 z" class="" style="fill:#969149;" />
            <path d="M15.9 8.8 A7.2 7.2 0 1 1 8.7 16 A7.3 7.3 0 0 1 15.9 8.8 M15.9 7.8 A8.2 8.2 0 0 0 15.9 24.2 A8.2 8.2 0 1 0 15.9 7.800001 z" class="" style="fill:#969149;" />
            <path d="M17 19.6 L17 18.5 L12 18.5 L12 13.5 L17 13.5 L17 12.4 L21 16 z" style="fill:#969149;" />
          </g>
        </g>
      </g>
    </g>
  </g>
  <g class="djs-group">
    <g transform="matrix(1, 0, 0, 1, 942, 409)" id="gfx-e85bb5fa-cdc3-4808-a7a9-b4cfd82ec1ab" display="block" class="djs-element djs-shape" data-element-id="e85bb5fa-cdc3-4808-a7a9-b4cfd82ec1ab">
      <g class="djs-visual">
        <rect x="0" y="0" width="75" height="47" fill-opacity="0" stroke-opacity="0" style="fill:#FFFFFF;stroke:transparent;" />
        <svg width="75" height="42" class="djs-svg-text">
          <text font-family="'Segoe UI'" font-size="11.9533px" font-style="normal" font-weight="normal" lineHeight="1.2" textDirection="0" textAlign="center" class="djs-label" style="fill:black;">
            <tspan x="7.412056" y="15.5">Seleção de </tspan>
            <tspan x="10.8751" y="29.5">novo item</tspan>
          </text>
        </svg>
      </g>
    </g>
  </g>
  <g class="djs-group">
    <g transform="matrix(1, 0, 0, 1, 293, 325)" id="gfx-3fda13e6-bb10-4894-9d70-ce608e841f9b" display="block" class="djs-element djs-shape" data-element-id="3fda13e6-bb10-4894-9d70-ce608e841f9b">
      <g class="djs-visual">
        <g>
          <g transform="translate(-8.90625, -8.90625) scale(1.5)">
            <path d="M15.9 25.5 A9.5 9.5 0 1 1 25.4 16 A9.6 9.6 0 0 1 15.9 25.5 z" style="fill:#FEFAEF;" />
            <path d="M15.9 7 A9 9 0 1 1 6.9 16 A9 9 0 0 1 15.9 7 M15.9 6 A10 10 0 1 0 25.9 16 A10 10 0 0 0 15.9 6 z" class="" style="fill:#969149;" />
            <path d="M15.9 8.8 A7.2 7.2 0 1 1 8.7 16 A7.3 7.3 0 0 1 15.9 8.8 M15.9 7.8 A8.2 8.2 0 0 0 15.9 24.2 A8.2 8.2 0 1 0 15.9 7.800001 z" class="" style="fill:#969149;" />
            <path d="M17 19.6 L17 18.5 L12 18.5 L12 13.5 L17 13.5 L17 12.4 L21 16 z M13 17.5 L17.9 17.5 L19.5 16 L17.9 14.5 L13 14.5 z" style="fill:#969149;" />
          </g>
        </g>
      </g>
    </g>
  </g>
  <g class="djs-group">
    <g transform="matrix(1, 0, 0, 1, 270, 361)" id="gfx-7b55811b-68a4-4940-9970-5be5e02e1647" display="block" class="djs-element djs-shape" data-element-id="7b55811b-68a4-4940-9970-5be5e02e1647">
      <g class="djs-visual">
        <rect x="0" y="0" width="75" height="47" fill-opacity="0" stroke-opacity="0" style="fill:#FFFFFF;stroke:transparent;" />
        <svg width="75" height="42" class="djs-svg-text">
          <text font-family="'Segoe UI'" font-size="11.9533px" font-style="normal" font-weight="normal" lineHeight="1.2" textDirection="0" textAlign="center" class="djs-label" style="fill:black;">
            <tspan x="7.412056" y="15.5">Seleção de </tspan>
            <tspan x="10.8751" y="29.5">novo item</tspan>
          </text>
        </svg>
      </g>
    </g>
  </g>
  <g class="djs-group">
    <g id="gfx-ad93bbd2-e4ea-447b-8dbb-b6df74166558" display="block" class="djs-element djs-connection" data-element-id="ad93bbd2-e4ea-447b-8dbb-b6df74166558">
      <g class="djs-visual">
        <g>
          <defs>
            <marker refX="9.8" refY="6" orient="auto" markerWidth="12" markerHeight="12" markerUnits="strokeWidth" id="arrowSecuenceFlowad93bbd2-e4ea-447b-8dbb-b6df74166558#1">
              <path d="M0 0 L2 6 L0 12 L10 6 z" style="fill:black;" />
            </marker>
          </defs>
          <path d="M541 236 L541 109 C541 109 541 103 547 103 L644 103" marker-end="url(#arrowSecuenceFlowad93bbd2-e4ea-447b-8dbb-b6df74166558)" stroke-width="1px" stroke-linejoin="round" shape-rendering="crispEdges" fill-opacity="0" class="" style="fill:transparent;stroke:black;" />
        </g>
      </g>
    </g>
  </g>
  <g class="djs-group">
    <g transform="matrix(1, 0, 0, 1, 542, 144)" id="gfx-9520af47-0d48-4d72-a0dd-7a7eea2579da" display="block" class="djs-element djs-shape" data-element-id="9520af47-0d48-4d72-a0dd-7a7eea2579da">
      <g class="djs-visual">
        <rect x="0" y="0" width="106" height="60" fill-opacity="0" stroke-opacity="0" style="fill:#FFFFFF;stroke:transparent;" />
        <svg width="106" height="55" class="djs-svg-text">
          <text font-family="'Segoe UI'" font-size="11.9533px" font-style="normal" font-weight="normal" lineHeight="1.2" textDirection="0" textAlign="left" class="djs-label" style="fill:black;">
            <tspan x="6" y="15.5">Item utilizado em</tspan>
            <tspan x="6" y="29.5">teste</tspan>
          </text>
        </svg>
      </g>
    </g>
  </g>
  <g class="djs-group">
    <g id="gfx-4eeabc4e-8df3-48dc-83da-5baa2958106b" display="block" class="djs-element djs-connection" data-element-id="4eeabc4e-8df3-48dc-83da-5baa2958106b">
      <g class="djs-visual">
        <g>
          <defs>
            <marker refX="9.8" refY="6" orient="auto" markerWidth="12" markerHeight="12" markerUnits="strokeWidth" id="arrowSecuenceFlow4eeabc4e-8df3-48dc-83da-5baa2958106b">
              <path d="M0 0 L2 6 L0 12 L10 6 z" style="fill:black;" />
            </marker>
          </defs>
          <path d="M769 388 L800 388" marker-end="url(#arrowSecuenceFlow4eeabc4e-8df3-48dc-83da-5baa2958106b)" stroke-width="1px" stroke-linejoin="round" shape-rendering="crispEdges" fill-opacity="0" class="" style="fill:transparent;stroke:black;" />
        </g>
      </g>
    </g>
  </g>
  <g class="djs-group">
    <g id="gfx-182d76b2-f05b-4050-a9f4-cc1bbe3c287e" display="block" class="djs-element djs-connection" data-element-id="182d76b2-f05b-4050-a9f4-cc1bbe3c287e">
      <g class="djs-visual">
        <g>
          <defs>
            <marker refX="9.8" refY="6" orient="auto" markerWidth="12" markerHeight="12" markerUnits="strokeWidth" id="arrowSecuenceFlow182d76b2-f05b-4050-a9f4-cc1bbe3c287e">
              <path d="M0 0 L2 6 L0 12 L10 6 z" style="fill:black;" />
            </marker>
          </defs>
          <path d="M492 256 L521 256" marker-end="url(#arrowSecuenceFlow182d76b2-f05b-4050-a9f4-cc1bbe3c287e)" stroke-width="1px" stroke-linejoin="round" shape-rendering="crispEdges" fill-opacity="0" class="" style="fill:transparent;stroke:black;" />
        </g>
      </g>
    </g>
  </g>
  <g class="djs-group">
    <g id="gfx-cbf3314f-44e4-47f3-b0d9-86aa510fb601" display="block" class="djs-element djs-connection" data-element-id="cbf3314f-44e4-47f3-b0d9-86aa510fb601">
      <g class="djs-visual">
        <g>
          <defs>
            <marker refX="9.8" refY="6" orient="auto" markerWidth="12" markerHeight="12" markerUnits="strokeWidth" id="arrowSecuenceFlowcbf3314f-44e4-47f3-b0d9-86aa510fb601">
              <path d="M0 0 L2 6 L0 12 L10 6 z" style="fill:black;" />
            </marker>
          </defs>
          <path d="M774 103 L808 103" marker-end="url(#arrowSecuenceFlowcbf3314f-44e4-47f3-b0d9-86aa510fb601)" stroke-width="1px" stroke-linejoin="round" shape-rendering="crispEdges" fill-opacity="0" class="" style="fill:transparent;stroke:black;" />
        </g>
      </g>
    </g>
  </g>
  <g class="djs-group">
    <g id="gfx-6dee07d5-6341-454c-86ba-b4c4b82a514c" display="block" class="djs-element djs-connection" data-element-id="6dee07d5-6341-454c-86ba-b4c4b82a514c">
      <g class="djs-visual">
        <g>
          <defs>
            <marker refX="9.8" refY="6" orient="auto" markerWidth="12" markerHeight="12" markerUnits="strokeWidth" id="arrowSecuenceFlow6dee07d5-6341-454c-86ba-b4c4b82a514c">
              <path d="M0 0 L2 6 L0 12 L10 6 z" style="fill:black;" />
            </marker>
          </defs>
          <path d="M328 256 L362 256" marker-end="url(#arrowSecuenceFlow6dee07d5-6341-454c-86ba-b4c4b82a514c)" stroke-width="1px" stroke-linejoin="round" shape-rendering="crispEdges" fill-opacity="0" class="" style="fill:transparent;stroke:black;" />
        </g>
      </g>
    </g>
  </g>
  <g class="djs-group">
    <g id="gfx-cbbaa455-324e-434b-85a3-d5005ba5d7fd" display="block" class="djs-element djs-connection" data-element-id="cbbaa455-324e-434b-85a3-d5005ba5d7fd">
      <g class="djs-visual">
        <g>
          <defs>
            <marker refX="9.8" refY="6" orient="auto" markerWidth="12" markerHeight="12" markerUnits="strokeWidth" id="arrowSecuenceFlowcbbaa455-324e-434b-85a3-d5005ba5d7fd">
              <path d="M0 0 L2 6 L0 12 L10 6 z" style="fill:black;" />
            </marker>
          </defs>
          <path d="M250 256 L288 256" marker-end="url(#arrowSecuenceFlowcbbaa455-324e-434b-85a3-d5005ba5d7fd)" stroke-width="1px" stroke-linejoin="round" shape-rendering="crispEdges" fill-opacity="0" class="" style="fill:transparent;stroke:black;" />
        </g>
      </g>
    </g>
  </g>
  <g class="djs-group">
    <g id="gfx-97e31810-bf5b-49cb-84ec-df09bf83fad0" display="block" class="djs-element djs-connection" data-element-id="97e31810-bf5b-49cb-84ec-df09bf83fad0">
      <g class="djs-visual">
        <g>
          <defs>
            <marker refX="9.8" refY="6" orient="auto" markerWidth="12" markerHeight="12" markerUnits="strokeWidth" id="arrowSecuenceFlow97e31810-bf5b-49cb-84ec-df09bf83fad0">
              <path d="M0 0 L2 6 L0 12 L10 6 z" style="fill:black;" />
            </marker>
          </defs>
          <path d="M541 276 L541 382 C541 382 541 388 547 388 L639 388" marker-end="url(#arrowSecuenceFlow97e31810-bf5b-49cb-84ec-df09bf83fad0)" stroke-width="1px" stroke-linejoin="round" shape-rendering="crispEdges" fill-opacity="0" class="" style="fill:transparent;stroke:black;" />
        </g>
      </g>
    </g>
  </g>
  <g class="djs-group">
    <g transform="matrix(1, 0, 0, 1, 541, 308)" id="gfx-0d1d9d75-f7f6-4f35-b413-485efe51941f" display="block" class="djs-element djs-shape" data-element-id="0d1d9d75-f7f6-4f35-b413-485efe51941f">
      <g class="djs-visual">
        <rect x="0" y="0" width="83" height="60" fill-opacity="0" stroke-opacity="0" style="fill:#FFFFFF;stroke:transparent;" />
        <svg width="83" height="55" class="djs-svg-text">
          <text font-family="'Segoe UI'" font-size="11.9533px" font-style="normal" font-weight="normal" lineHeight="1.2" textDirection="0" textAlign="left" class="djs-label" style="fill:black;">
            <tspan x="6" y="15.5">Item não </tspan>
            <tspan x="6" y="29.5">utilizado em </tspan>
            <tspan x="6" y="43.5">teste</tspan>
          </text>
        </svg>
      </g>
    </g>
  </g>
  <g class="djs-group">
    <g id="gfx-7f102699-ebe4-4a81-acfb-f9c5f71abe8a" display="block" class="djs-element djs-connection" data-element-id="7f102699-ebe4-4a81-acfb-f9c5f71abe8a">
      <g class="djs-visual">
        <g>
          <defs>
            <marker refX="9.8" refY="6" orient="auto" markerWidth="12" markerHeight="12" markerUnits="strokeWidth" id="arrowSecuenceFlow7f102699-ebe4-4a81-acfb-f9c5f71abe8a">
              <path d="M0 0 L2 6 L0 12 L10 6 z" style="fill:black;" />
            </marker>
          </defs>
          <path d="M308 325 L308 276" marker-end="url(#arrowSecuenceFlow7f102699-ebe4-4a81-acfb-f9c5f71abe8a)" stroke-width="1px" stroke-linejoin="round" shape-rendering="crispEdges" fill-opacity="0" class="" style="fill:transparent;stroke:black;" />
        </g>
      </g>
    </g>
  </g>
  <g class="djs-group">
    <g id="gfx-c51d4e5a-d423-47e4-9fd6-6ed650d6caa2" display="block" class="djs-element djs-connection" data-element-id="c51d4e5a-d423-47e4-9fd6-6ed650d6caa2">
      <g class="djs-visual">
        <g>
          <defs>
            <marker refX="9.8" refY="6" orient="auto" markerWidth="12" markerHeight="12" markerUnits="strokeWidth" id="arrowSecuenceFlowc51d4e5a-d423-47e4-9fd6-6ed650d6caa2">
              <path d="M0 0 L2 6 L0 12 L10 6 z" style="fill:black;" />
            </marker>
          </defs>
          <path d="M930 388 L965 388" marker-end="url(#arrowSecuenceFlowc51d4e5a-d423-47e4-9fd6-6ed650d6caa2)" stroke-width="1px" stroke-linejoin="round" shape-rendering="crispEdges" fill-opacity="0" class="" style="fill:transparent;stroke:black;" />
        </g>
      </g>
    </g>
  </g>
</svg>