<?xml version="1.0" encoding="utf-8"?>
<!DOCTYPE svg PUBLIC "-//W3C//DTD SVG 1.1//EN" "http://www.w3.org/Graphics/SVG/1.1/DTD/svg11.dtd">
<svg width="537" height="356px" viewBox="-9, -2, 537, 356" xmlns="http://www.w3.org/2000/svg" xmlns:xlink="http://www.w3.org/1999/xlink" xmlns:xml="http://www.w3.org/XML/1998/namespace" version="1.1">
  <defs>
    <marker refX="9.8" refY="6" orient="auto" markerWidth="12" markerHeight="12" markerUnits="strokeWidth" id="arrowSecuenceFlowff0edb5c-69c2-4b2e-bcf7-1cf6355c58bf">
      <path d="M0 0 L2 6 L0 12 L10 6 z" style="fill:black;" />
    </marker>
  </defs>
  <g class="djs-group">
    <g transform="matrix(1, 0, 0, 1, 116, 104)" id="gfx-53a1e518-2275-41b1-b5bc-c2c1a2e36e5f" display="block" class="djs-element djs-shape" data-element-id="53a1e518-2275-41b1-b5bc-c2c1a2e36e5f">
      <g class="djs-visual">
        <g>
          <rect x="0" y="0" width="130" height="90" rx="8" stroke-width="2px" class="" style="fill:#ECEFFF;stroke:#03689A;" />
          <g transform="translate(-6, -11) scale(1.6)">
            <path d="M17 16.5 A5.7 5.7 0 0 0 14.4 14.6 L14.2 14.4 C14.2 14.3 14.3 14.3 14.3 14.2 A1.9 1.9 0 0 0 14.8 12.9 A2.3 2.3 0 0 0 12.7 10.6 A2.5 2.5 0 0 0 10.3 12.9 A2.4 2.4 0 0 0 10.5 13.7 L10.7 13.9 C10.8 14.2 11 14.2 11.2 14.4 L11.2 14.6 L10.6 14.6 A5 5 0 0 0 8 16.7 L8 16.7 L8 19.6 L17 19.6 L17 16.6 z M11.6 14.6 L11.9 14.3 L11.6 14.3 A1.6 1.6 0 0 1 10.8 13 A3.7 3.7 0 0 1 12.5 12.4 C12.6 12.4 12.7 12.7 12.8 12.8 L13.3 12.8 A2.4 2.4 0 0 0 14.3 12.5 A2.3 2.3 0 0 1 13.4 14.4 L13.4 14.4 L13.6 14.8 L13.6 14.8 A0.8 0.8 0 0 1 13.4 15.7 A1.5 1.5 0 0 1 12.5 16.1 A1 1 0 0 1 11.7 15.7 C11.3 15.3 11.3 15.1 11.3 14.9 C11.3 14.7 11.4 14.8 11.6 14.6 z M16.5 19.1 L15.4 19.1 L15.4 18 L14.8 18 L14.8 19.1 L10.2 19.1 L10.2 18 L9.7 18 L9.7 19.2 L8.5 19.2 L8.5 16.9 A5.2 5.2 0 0 1 10.8 15.1 L10.9 15.1 C10.9 15.5 10.7 15.8 11.2 16.3 A2.7 2.7 0 0 0 12.5 16.8 A2.2 2.2 0 0 0 13.9 16.2 A1.1 1.1 0 0 0 14.2 15.2 A4.6 4.6 0 0 1 16.5 16.9 z" style="fill:white;" />
            <path d="M12.7 10.6 A2.5 2.5 0 0 0 10.3 12.9 A2.4 2.4 0 0 0 10.5 13.7 L10.7 13.9 C10.8 14.2 11 14.2 11.2 14.4 L11.2 14.6 L10.6 14.6 A5 5 0 0 0 8 16.7 L8 16.7 L8 19.6 L17 19.6 L17 16.6 L17 16.6 A5.7 5.7 0 0 0 14.4 14.7 L14.2 14.5 C14.2 14.4 14.3 14.4 14.3 14.3 A1.9 1.9 0 0 0 14.8 13 A2.3 2.3 0 0 0 12.7 10.7 z M12.5 16.3 A1 1 0 0 1 11.7 15.9 C11.3 15.5 11.3 15.3 11.3 15.1 C11.3 14.9 11.4 14.8 11.6 14.6 L11.9 14.3 L11.6 14.3 A1.6 1.6 0 0 1 10.8 13 A3.7 3.7 0 0 1 12.5 12.4 C12.6 12.4 12.7 12.7 12.8 12.8 L13.3 12.8 A2.4 2.4 0 0 0 14.3 12.5 A2.3 2.3 0 0 1 13.4 14.4 L13.4 14.4 L13.6 14.8 L13.6 14.8 A0.8 0.8 0 0 1 13.4 15.7 A1.5 1.5 0 0 1 12.5 16.1 z M10.8 15.1 L10.9 15.1 C10.9 15.5 10.7 15.8 11.2 16.3 A2.7 2.7 0 0 0 12.5 16.8 A2.2 2.2 0 0 0 13.9 16.2 A1.1 1.1 0 0 0 14.2 15.2 A4.6 4.6 0 0 1 16.5 16.9 L16.5 19.1 L15.4 19.1 L15.4 18 L14.8 18 L14.8 19.1 L10.2 19.1 L10.2 18 L9.7 18 L9.7 19.2 L8.5 19.2 L8.5 16.9 A5.2 5.2 0 0 1 10.8 15.1 z" style="fill:#03689A;" />
          </g>
          <g />
        </g>
      </g>
      <svg width="130" height="86" class="djs-svg-text">
        <text font-family="'Segoe UI'" font-size="10.6252px" font-style="normal" font-weight="normal" lineHeight="1.2" textDirection="0" textAlign="center" class="djs-label" style="fill:black;">
          <tspan x="14.71321" y="41.75">33. Enviar arquivo de </tspan>
          <tspan x="12.33305" y="54.75">produção N80 ao Inep</tspan>
        </text>
      </svg>
    </g>
  </g>
  <g class="djs-group">
    <g transform="matrix(1, 0, 0, 1, 276, 104)" id="gfx-20c5e1da-fe23-473e-bce2-e5c87184a372" display="block" class="djs-element djs-shape" data-element-id="20c5e1da-fe23-473e-bce2-e5c87184a372">
      <g class="djs-visual">
        <g>
          <rect x="0" y="0" width="130" height="90" rx="5" stroke-width="2.4px" class="" style="fill:#ECEFFF;stroke:#03689A;" />
          <g>
            <g transform="translate(57, 74)">
              <rect x="0" y="0" width="15" height="15" stroke-width="2px" style="fill:#ECEFFF;stroke:#03689A;" />
              <path d="M7.5 3 L7.5 12 M3 7.5 L12 7.5" stroke-width="3px" style="fill:#ECEFFF;stroke:#03689A;" />
            </g>
          </g>
        </g>
      </g>
    </g>
  </g>
  <g class="djs-group">
    <g transform="matrix(1, 0, 0, 1, 296, 202)" id="gfx-fa3250ea-a8c2-409d-8cc3-e65243fa2753" display="block" class="djs-element djs-shape" data-element-id="fa3250ea-a8c2-409d-8cc3-e65243fa2753">
      <g class="djs-visual">
        <rect x="0" y="0" width="125" height="66" fill-opacity="0" stroke-opacity="0" style="fill:#FFFFFF;stroke:transparent;" />
        <svg width="125" height="61" class="djs-svg-text">
          <text font-family="'Segoe UI'" font-size="10.6252px" font-style="normal" font-weight="normal" lineHeight="1.2" textDirection="0" textAlign="center" class="djs-label" style="fill:black;">
            <tspan x="9.643791" y="14.75">34. Executar validação </tspan>
            <tspan x="35.26813" y="27.75">de arquivos</tspan>
          </text>
        </svg>
      </g>
    </g>
  </g>
  <g class="djs-group">
    <g transform="matrix(1, 0, 0, 1, 452, 134)" id="gfx-050b0991-8177-4ba0-b70d-dcf167ac7f96" display="block" class="djs-element djs-shape" data-element-id="050b0991-8177-4ba0-b70d-dcf167ac7f96">
      <g class="djs-visual">
        <g>
          <g transform="translate(-8.90625, -8.90625) scale(1.5)">
            <path d="M16 25.2 A9.2 9.2 0 1 1 25.2 16 A9.2 9.2 0 0 1 16 25.2 z" style="fill:#EEAAAA;" />
            <path d="M16 7.5 A8.5 8.5 0 1 1 7.5 16 A8.5 8.5 0 0 1 16 7.5 M16 6 A10 10 0 1 0 26 16 A10 10 0 0 0 16 6 z" stroke-width="0.4px" class="" style="fill:#990000;stroke:#990000;" />
          </g>
        </g>
      </g>
    </g>
  </g>
  <g class="djs-group">
    <g transform="matrix(1, 0, 0, 1, 422, 172)" id="gfx-213074db-1a73-4481-aa6d-75aef1db2675" display="block" class="djs-element djs-shape" data-element-id="213074db-1a73-4481-aa6d-75aef1db2675">
      <g class="djs-visual">
        <rect x="0" y="0" width="90" height="36" fill-opacity="0" stroke-opacity="0" style="fill:#FFFFFF;stroke:transparent;" />
        <svg width="90" height="31" class="djs-svg-text">
          <text font-family="'Segoe UI'" font-size="10.6252px" font-style="normal" font-weight="normal" lineHeight="1.2" textDirection="0" textAlign="center" class="djs-label" style="fill:black;">
            <tspan x="14.05009" y="14.75">Arquivo N80 </tspan>
            <tspan x="25.11604" y="27.75">validado</tspan>
          </text>
        </svg>
      </g>
    </g>
  </g>
  <g class="djs-group">
    <g transform="matrix(1, 0, 0, 1, 128, 14)" id="gfx-f19718fa-3c6c-46a2-ac49-f98e40aa4ad7" display="block" class="djs-element djs-shape" data-element-id="f19718fa-3c6c-46a2-ac49-f98e40aa4ad7">
      <g class="djs-visual">
        <g>
          <rect x="0" y="0" width="100" height="66" class="" style="fill:#D5D5D5;" />
          <path d="M33.33333 0 L0 0 L0 66 L33.33333 66" stroke-width="0.4px" shape-rendering="crispEdges" fill-opacity="0" style="fill:transparent;stroke:black;" />
        </g>
      </g>
      <svg width="100" height="66" class="djs-svg-text">
        <text font-family="'Segoe UI'" font-size="10.6252px" font-style="normal" font-weight="normal" lineHeight="1.2" textDirection="0" textAlign="center" class="djs-label" style="fill:black;">
          <tspan x="7.335976" y="29.75">N80: Informações </tspan>
          <tspan x="8.803459" y="42.75">sobre a produção</tspan>
        </text>
      </svg>
    </g>
  </g>
  <g class="djs-group">
    <g transform="matrix(1, 0, 0, 1, 37, 134)" id="gfx-321bb83c-6744-4b81-a70e-13a374551d4c" display="block" class="djs-element djs-shape" data-element-id="321bb83c-6744-4b81-a70e-13a374551d4c">
      <g class="djs-visual">
        <g>
          <g transform="translate(-8.90625, -8.90625) scale(1.5)">
            <path d="M15.9 25.5 A9.5 9.5 0 1 1 25.4 16 A9.6 9.6 0 0 1 15.9 25.5 z" style="fill:#FEFAEF;" />
            <path d="M15.9 7 A9 9 0 1 1 6.9 16 A9 9 0 0 1 15.9 7 M15.9 6 A10 10 0 1 0 25.9 16 A10 10 0 0 0 15.9 6 z" class="" style="fill:#969149;" />
            <path d="M15.9 8.8 A7.2 7.2 0 1 1 8.7 16 A7.3 7.3 0 0 1 15.9 8.8 M15.9 7.8 A8.2 8.2 0 0 0 15.9 24.2 A8.2 8.2 0 1 0 15.9 7.800001 z" class="" style="fill:#969149;" />
            <g>
              <path d="M16 12 A4 4 0 1 1 12 16 A4 4 0 0 1 16 12 M16 11 A5 5 0 1 0 21 16 A5 5 0 0 0 16 11 z" style="fill:#969149;" />
              <polygon points="16,16 16,13 15,13 15,16 15,17 16,17 18,17 18,16 16,16" style="fill:#969149;" />
            </g>
          </g>
        </g>
      </g>
    </g>
  </g>
  <g class="djs-group">
    <g transform="matrix(1, 0, 0, 1, 7, 172)" id="gfx-9a5a613b-40b6-4266-a1cd-0fb1ff19c86a" display="block" class="djs-element djs-shape" data-element-id="9a5a613b-40b6-4266-a1cd-0fb1ff19c86a">
      <g class="djs-visual">
        <rect x="0" y="0" width="90" height="30" fill-opacity="0" stroke-opacity="0" style="fill:#FFFFFF;stroke:transparent;" />
        <svg width="90" height="25" class="djs-svg-text">
          <text font-family="'Segoe UI'" font-size="10.6252px" font-style="normal" font-weight="normal" lineHeight="1.2" textDirection="0" textAlign="center" class="djs-label" style="fill:black;">
            <tspan x="8.703819" y="14.75">Periodicamente</tspan>
          </text>
        </svg>
      </g>
    </g>
  </g>
  <g class="djs-group">
    <g id="gfx-ff0edb5c-69c2-4b2e-bcf7-1cf6355c58bf" display="block" class="djs-element djs-connection" data-element-id="ff0edb5c-69c2-4b2e-bcf7-1cf6355c58bf">
      <g class="djs-visual">
        <g>
          <defs>
            <marker refX="9.8" refY="6" orient="auto" markerWidth="12" markerHeight="12" markerUnits="strokeWidth" id="arrowSecuenceFlowff0edb5c-69c2-4b2e-bcf7-1cf6355c58bf#1">
              <path d="M0 0 L2 6 L0 12 L10 6 z" style="fill:black;" />
            </marker>
          </defs>
          <path d="M246 149 L276 149" marker-end="url(#arrowSecuenceFlowff0edb5c-69c2-4b2e-bcf7-1cf6355c58bf)" stroke-width="1px" stroke-linejoin="round" shape-rendering="crispEdges" fill-opacity="0" class="" style="fill:transparent;stroke:black;" />
        </g>
      </g>
    </g>
  </g>
  <g class="djs-group">
    <g id="gfx-90c36d7d-46bb-4566-b062-ca2dd740b1b0" display="block" class="djs-element djs-connection" data-element-id="90c36d7d-46bb-4566-b062-ca2dd740b1b0">
      <g class="djs-visual">
        <g>
          <defs>
            <marker refX="9.8" refY="6" orient="auto" markerWidth="12" markerHeight="12" markerUnits="strokeWidth" id="arrowSecuenceFlow90c36d7d-46bb-4566-b062-ca2dd740b1b0">
              <path d="M0 0 L2 6 L0 12 L10 6 z" style="fill:black;" />
            </marker>
          </defs>
          <path d="M67 149 L116 149" marker-end="url(#arrowSecuenceFlow90c36d7d-46bb-4566-b062-ca2dd740b1b0)" stroke-width="1px" stroke-linejoin="round" shape-rendering="crispEdges" fill-opacity="0" class="" style="fill:transparent;stroke:black;" />
        </g>
      </g>
    </g>
  </g>
  <g class="djs-group">
    <g id="gfx-5e8215fd-3bbb-4e1f-8ce5-5c1fc32eb005" display="block" class="djs-element djs-connection" data-element-id="5e8215fd-3bbb-4e1f-8ce5-5c1fc32eb005">
      <g class="djs-visual">
        <g>
          <defs>
            <marker refX="9.8" refY="6" orient="auto" markerWidth="12" markerHeight="12" markerUnits="strokeWidth" id="arrowSecuenceFlow5e8215fd-3bbb-4e1f-8ce5-5c1fc32eb005">
              <path d="M0 0 L2 6 L0 12 L10 6 z" style="fill:black;" />
            </marker>
          </defs>
          <path d="M406 149 L452 149" marker-end="url(#arrowSecuenceFlow5e8215fd-3bbb-4e1f-8ce5-5c1fc32eb005)" stroke-width="1px" stroke-linejoin="round" shape-rendering="crispEdges" fill-opacity="0" class="" style="fill:transparent;stroke:black;" />
        </g>
      </g>
    </g>
  </g>
  <g class="djs-group">
    <g id="gfx-01553e55-19cf-4920-a71a-4e849c9ae3dd" display="block" class="djs-element djs-connection" data-element-id="01553e55-19cf-4920-a71a-4e849c9ae3dd">
      <g class="djs-visual">
        <g>
          <defs>
            <marker refX="5.5" refY="4" orient="auto" markerWidth="10" markerHeight="8" id="arrowAssociation01553e55-19cf-4920-a71a-4e849c9ae3dd">
              <path d="M0 0 L4.5 4 L0 8" stroke-width="0.7px" stroke-dasharray="0" style="stroke:black;" />
            </marker>
          </defs>
          <path d="M181 104 L181 92 L178 92 L178 80" stroke-width="1.5px" stroke-linejoin="round" stroke-dasharray="2 5" shape-rendering="crispEdges" fill-opacity="0" class="" style="fill:transparent;stroke:black;" />
        </g>
      </g>
    </g>
  </g>
</svg>