<?xml version="1.0" encoding="utf-8"?>
<!DOCTYPE svg PUBLIC "-//W3C//DTD SVG 1.1//EN" "http://www.w3.org/Graphics/SVG/1.1/DTD/svg11.dtd">
<svg width="357" height="206px" viewBox="-20, 113, 357, 206" xmlns="http://www.w3.org/2000/svg" xmlns:xlink="http://www.w3.org/1999/xlink" xmlns:xml="http://www.w3.org/XML/1998/namespace" version="1.1">
  <defs>
    <marker refX="9.8" refY="6" orient="auto" markerWidth="12" markerHeight="12" markerUnits="strokeWidth" id="arrowSecuenceFlow16d70202-a678-421b-903f-2c020eaf7395">
      <path d="M0 0 L2 6 L0 12 L10 6 z" style="fill:black;" />
    </marker>
  </defs>
  <g class="djs-group">
    <g transform="matrix(1, 0, 0, 1, 87, 129)" id="gfx-529b53ba-3cf2-4cc6-806e-3d6586ed4ad6" display="block" class="djs-element djs-shape" data-element-id="529b53ba-3cf2-4cc6-806e-3d6586ed4ad6">
      <g class="djs-visual">
        <g>
          <rect x="0" y="0" width="130" height="90" rx="8" stroke-width="2px" class="" style="fill:#ECEFFF;stroke:#03689A;" />
          <g transform="translate(-6, -11) scale(1.6)">
            <rect x="8" y="10.5" width="10" height="7" style="fill:white;" />
            <polygon points="17,11.5 17,11.8 12.9,14.3 9,11.7 9,11.5 17,11.5" style="fill:#03689A;" />
            <polygon points="12.9,15.5 17,13 17,16.5 9,16.5 9,12.9 12.9,15.5" style="fill:#03689A;" />
          </g>
          <g />
        </g>
      </g>
      <svg width="130" height="86" class="djs-svg-text">
        <text font-family="'Segoe UI'" font-size="10.6252px" font-style="normal" font-weight="normal" lineHeight="1.2" textDirection="0" textAlign="center" class="djs-label" style="fill:black;">
          <tspan x="9.875122" y="35.25">2. Encaminhar Relatório</tspan>
          <tspan x="6.188187" y="48.25">de acompanhamento de </tspan>
          <tspan x="47.19805" y="61.25">acessos</tspan>
        </text>
      </svg>
    </g>
  </g>
  <g class="djs-group">
    <g transform="matrix(1, 0, 0, 1, 26, 159)" id="gfx-18245bd3-7a9a-45ac-abbc-176b2db6dd45" display="block" class="djs-element djs-shape" data-element-id="18245bd3-7a9a-45ac-abbc-176b2db6dd45">
      <g class="djs-visual">
        <g>
          <g transform="translate(-8.90625, -8.90625) scale(1.5)">
            <path d="M16 25.2 C10.9 25.2 6.8 21.1 6.8 16 C6.8 10.9 10.9 6.8 16 6.8 C21.1 6.8 25.2 10.9 25.2 16 C25.2 21.1 21.1 25.2 16 25.2 L16 25.2 z" style="fill:#E6FF97;" />
            <path d="M15.9 7 C20.9 7 24.9 11 24.9 16 C24.9 21 20.9 25 15.9 25 C10.9 25 6.9 21 6.9 16 C6.9 11 10.9 7 15.9 7 M15.9 6 C10.4 6 5.9 10.5 5.9 16 C5.9 21.5 10.4 26 15.9 26 C21.4 26 25.9 21.5 25.9 16 C25.9 10.5 21.4 6 15.9 6 z" stroke-width="0.2px" class="" style="fill:#62A716;stroke:#62A716;" />
            <g>
              <path d="M16 12 C18.2 12 20 13.8 20 16 C20 18.2 18.2 20 16 20 C13.8 20 12 18.2 12 16 C12 13.8 13.8 12 16 12 M16 11 C13.2 11 11 13.2 11 16 C11 18.8 13.2 21 16 21 C18.8 21 21 18.8 21 16 C21 13.2 18.8 11 16 11 z" style="fill:#62A716;" />
              <polygon points="16,16 16,13 15,13 15,16 15,17 16,17 18,17 18,16" style="fill:#62A716;" />
            </g>
          </g>
        </g>
      </g>
    </g>
  </g>
  <g class="djs-group">
    <g transform="matrix(1, 0, 0, 1, -4, 197)" id="gfx-ce70ce48-dbdd-4131-9724-4957d09607c2" display="block" class="djs-element djs-shape" data-element-id="ce70ce48-dbdd-4131-9724-4957d09607c2">
      <g class="djs-visual">
        <rect x="0" y="0" width="90" height="30" fill-opacity="0" stroke-opacity="0" style="fill:#FFFFFF;stroke:transparent;" />
        <svg width="90" height="25" class="djs-svg-text">
          <text font-family="'Segoe UI'" font-size="10.6252px" font-style="normal" font-weight="normal" lineHeight="1.2" textDirection="0" textAlign="center" class="djs-label" style="fill:black;">
            <tspan x="23.22591" y="14.75">Periódico</tspan>
          </text>
        </svg>
      </g>
    </g>
  </g>
  <g class="djs-group">
    <g transform="matrix(1, 0, 0, 1, 261, 159)" id="gfx-7cd97d26-cc46-454e-9d12-acbab4fd0cbd" display="block" class="djs-element djs-shape" data-element-id="7cd97d26-cc46-454e-9d12-acbab4fd0cbd">
      <g class="djs-visual">
        <g>
          <g transform="translate(-8.90625, -8.90625) scale(1.5)">
            <path d="M16 25.2 A9.2 9.2 0 1 1 25.2 16 A9.2 9.2 0 0 1 16 25.2 z" style="fill:#EEAAAA;" />
            <path d="M16 7.5 A8.5 8.5 0 1 1 7.5 16 A8.5 8.5 0 0 1 16 7.5 M16 6 A10 10 0 1 0 26 16 A10 10 0 0 0 16 6 z" stroke-width="0.4px" class="" style="fill:#990000;stroke:#990000;" />
          </g>
        </g>
      </g>
    </g>
  </g>
  <g class="djs-group">
    <g transform="matrix(1, 0, 0, 1, 231, 197)" id="gfx-6527be6c-afa2-45e3-b8eb-dc3703a842ff" display="block" class="djs-element djs-shape" data-element-id="6527be6c-afa2-45e3-b8eb-dc3703a842ff">
      <g class="djs-visual">
        <rect x="0" y="0" width="90" height="36" fill-opacity="0" stroke-opacity="0" style="fill:#FFFFFF;stroke:transparent;" />
        <svg width="90" height="31" class="djs-svg-text">
          <text font-family="'Segoe UI'" font-size="10.6252px" font-style="normal" font-weight="normal" lineHeight="1.2" textDirection="0" textAlign="center" class="djs-label" style="fill:black;">
            <tspan x="22.60625" y="14.75">Relatório </tspan>
            <tspan x="13.25412" y="27.75">encaminhado</tspan>
          </text>
        </svg>
      </g>
    </g>
  </g>
  <g class="djs-group">
    <g id="gfx-16d70202-a678-421b-903f-2c020eaf7395" display="block" class="djs-element djs-connection" data-element-id="16d70202-a678-421b-903f-2c020eaf7395">
      <g class="djs-visual">
        <g>
          <defs>
            <marker refX="9.8" refY="6" orient="auto" markerWidth="12" markerHeight="12" markerUnits="strokeWidth" id="arrowSecuenceFlow16d70202-a678-421b-903f-2c020eaf7395#1">
              <path d="M0 0 L2 6 L0 12 L10 6 z" style="fill:black;" />
            </marker>
          </defs>
          <path d="M217 174 L261 174" marker-end="url(#arrowSecuenceFlow16d70202-a678-421b-903f-2c020eaf7395)" stroke-width="1px" stroke-linejoin="round" shape-rendering="crispEdges" fill-opacity="0" class="" style="fill:transparent;stroke:black;" />
        </g>
      </g>
    </g>
  </g>
  <g class="djs-group">
    <g id="gfx-9049247c-02ed-4b7b-ab35-bb8d4c1d11f6" display="block" class="djs-element djs-connection" data-element-id="9049247c-02ed-4b7b-ab35-bb8d4c1d11f6">
      <g class="djs-visual">
        <g>
          <defs>
            <marker refX="9.8" refY="6" orient="auto" markerWidth="12" markerHeight="12" markerUnits="strokeWidth" id="arrowSecuenceFlow9049247c-02ed-4b7b-ab35-bb8d4c1d11f6">
              <path d="M0 0 L2 6 L0 12 L10 6 z" style="fill:black;" />
            </marker>
          </defs>
          <path d="M56 174 L87 174" marker-end="url(#arrowSecuenceFlow9049247c-02ed-4b7b-ab35-bb8d4c1d11f6)" stroke-width="1px" stroke-linejoin="round" shape-rendering="crispEdges" fill-opacity="0" class="" style="fill:transparent;stroke:black;" />
        </g>
      </g>
    </g>
  </g>
</svg>