<?xml version="1.0" encoding="utf-8"?>
<!DOCTYPE svg PUBLIC "-//W3C//DTD SVG 1.1//EN" "http://www.w3.org/Graphics/SVG/1.1/DTD/svg11.dtd">
<svg width="563" height="207.75px" viewBox="14, 115, 563, 207.75" xmlns="http://www.w3.org/2000/svg" xmlns:xlink="http://www.w3.org/1999/xlink" xmlns:xml="http://www.w3.org/XML/1998/namespace" version="1.1">
  <defs>
    <marker refX="9.8" refY="6" orient="auto" markerWidth="12" markerHeight="12" markerUnits="strokeWidth" id="arrowSecuenceFlow99390a24-06e5-48ab-a9f3-e85af2a1db1d">
      <path d="M0 0 L2 6 L0 12 L10 6 z" style="fill:black;" />
    </marker>
  </defs>
  <g class="djs-group">
    <g transform="matrix(1, 0, 0, 1, 146, 131)" id="gfx-0705b3cd-07ca-4d17-94ff-7814af972d72" display="block" class="djs-element djs-shape" data-element-id="0705b3cd-07ca-4d17-94ff-7814af972d72">
      <g class="djs-visual">
        <g>
          <rect x="0" y="0" width="130" height="90" rx="8" stroke-width="2px" class="" style="fill:#ECEFFF;stroke:#03689A;" />
          <g transform="translate(-6, -11) scale(1.6)">
            <path d="M16.9 19.4 L10.7 19.4 A3.1 3.1 0 0 1 7.6 16 A4 4 0 0 1 9.3 12.6 L12 10.8 A1 1 0 0 1 12.9 10.7 A1 1 0 0 1 13.6 11.1 A1.3 1.3 0 0 1 13.2 12.7 L17.6 12.7 A0.9 0.9 0 0 1 18.6 13.6 A0.8 0.8 0 0 1 18.4 14.2 L18.4 14.2 A1.1 1.1 0 0 1 19.4 15.2 A1 1 0 0 1 18.7 16.1 A0.9 0.9 0 0 1 19 16.8 A0.9 0.9 0 0 1 18 17.7 L17.6 17.7 A1.4 1.4 0 0 1 17.8 18.3 A0.9 0.9 0 0 1 17.5 19 A0.9 0.9 0 0 1 16.9 19.4 z" style="fill:white;" />
            <path d="M16.9 19.4 L10.7 19.4 A3.1 3.1 0 0 1 7.6 16 A4 4 0 0 1 9.3 12.6 L12 10.8 A1 1 0 0 1 12.9 10.7 A1 1 0 0 1 13.6 11.1 A1.3 1.3 0 0 1 13.2 12.7 L17.6 12.7 A0.9 0.9 0 0 1 18.6 13.6 A0.8 0.8 0 0 1 18.4 14.2 L18.4 14.2 A1.1 1.1 0 0 1 19.4 15.2 A1 1 0 0 1 18.7 16.1 A0.9 0.9 0 0 1 19 16.8 A0.9 0.9 0 0 1 18 17.7 L17.6 17.7 A1.4 1.4 0 0 1 17.8 18.3 A0.9 0.9 0 0 1 17.5 19 A0.9 0.9 0 0 1 16.9 19.4 z M12.7 11.4 L12.4 11.4 L9.7 13.3 A2.9 2.9 0 0 0 8.4 16 A2.3 2.3 0 0 0 10.7 18.6 L17 18.6 C17 18.5 17.1 18.5 17.1 18.4 L16.9 18.2 L13.5 18.2 A0.6 0.6 0 0 1 12.9 17.6 A0.6 0.6 0 0 1 13.5 17.1 L18 17.1 A0.2 0.2 0 0 0 18.2 16.9 C18.2 16.7 18.1 16.6 18 16.6 L13.9 16.6 A0.6 0.6 0 0 1 13.3 16.1 A0.6 0.6 0 0 1 13.9 15.5 L18.4 15.5 L18.6 15.3 A0.2 0.2 0 0 0 18.4 15.1 L13.9 15.1 A0.6 0.6 0 0 1 13.9 13.9 L17.6 13.9 A0.2 0.2 0 0 0 17.8 13.7 L17.6 13.5 L11.9 13.5 C11.7 13.5 11.6 13.4 11.6 13.3 A0.4 0.4 0 0 1 11.7 12.8 L12.8 12 C13 11.9 13 11.7 12.9 11.5 L12.7 11.5 z" style="fill:#03689A;" />
          </g>
          <g />
        </g>
      </g>
      <svg width="130" height="86" class="djs-svg-text">
        <text font-family="'Segoe UI'" font-size="10.6252px" font-style="normal" font-weight="normal" lineHeight="1.2" textDirection="0" textAlign="center" class="djs-label" style="fill:black;">
          <tspan x="34.72165" y="28.75">3. Identificar </tspan>
          <tspan x="30.09871" y="41.75">colaboradores </tspan>
          <tspan x="12.76605" y="54.75">matriculados que não </tspan>
          <tspan x="40.73946" y="67.75">acessaram</tspan>
        </text>
      </svg>
    </g>
  </g>
  <g class="djs-group">
    <g transform="matrix(1, 0, 0, 1, 326, 131)" id="gfx-d65f5577-b2df-4757-a2ad-b8bef2c4d81e" display="block" class="djs-element djs-shape" data-element-id="d65f5577-b2df-4757-a2ad-b8bef2c4d81e">
      <g class="djs-visual">
        <g>
          <rect x="0" y="0" width="130" height="90" rx="8" stroke-width="2px" class="" style="fill:#ECEFFF;stroke:#03689A;" />
          <g transform="translate(-6, -11) scale(1.6)">
            <rect x="8" y="10.5" width="10" height="7" style="fill:white;" />
            <polygon points="17,11.5 17,11.8 12.9,14.3 9,11.7 9,11.5 17,11.5" style="fill:#03689A;" />
            <polygon points="12.9,15.5 17,13 17,16.5 9,16.5 9,12.9 12.9,15.5" style="fill:#03689A;" />
          </g>
          <g />
        </g>
      </g>
      <svg width="130" height="86" class="djs-svg-text">
        <text font-family="'Segoe UI'" font-size="10.6252px" font-style="normal" font-weight="normal" lineHeight="1.2" textDirection="0" textAlign="center" class="djs-label" style="fill:black;">
          <tspan x="30.81433" y="41.75">4. Encaminhar </tspan>
          <tspan x="8.270203" y="54.75">mensagem 'Mala Direta'</tspan>
        </text>
      </svg>
    </g>
  </g>
  <g class="djs-group">
    <g transform="matrix(1, 0, 0, 1, 60, 161)" id="gfx-9b4d2b3d-c3d6-4ff4-9789-28e1ce63d591" display="block" class="djs-element djs-shape" data-element-id="9b4d2b3d-c3d6-4ff4-9789-28e1ce63d591">
      <g class="djs-visual">
        <g>
          <g transform="translate(-8.90625, -8.90625) scale(1.5)">
            <path d="M16 25.2 C10.9 25.2 6.8 21.1 6.8 16 C6.8 10.9 10.9 6.8 16 6.8 C21.1 6.8 25.2 10.9 25.2 16 C25.2 21.1 21.1 25.2 16 25.2 L16 25.2 z" style="fill:#E6FF97;" />
            <path d="M15.9 7 C20.9 7 24.9 11 24.9 16 C24.9 21 20.9 25 15.9 25 C10.9 25 6.9 21 6.9 16 C6.9 11 10.9 7 15.9 7 M15.9 6 C10.4 6 5.9 10.5 5.9 16 C5.9 21.5 10.4 26 15.9 26 C21.4 26 25.9 21.5 25.9 16 C25.9 10.5 21.4 6 15.9 6 z" stroke-width="0.2px" class="" style="fill:#62A716;stroke:#62A716;" />
            <g>
              <path d="M20 20 L12 20 L12 12 L20 12 L20 20 z M13 19 L19 19 L19 13 L13 13 L13 19 z" style="fill:#62A716;" />
              <rect x="15" y="16.5" width="2" height="1" style="fill:#62A716;" />
              <rect x="15" y="14.5" width="2" height="1" style="fill:#62A716;" />
            </g>
          </g>
        </g>
      </g>
    </g>
  </g>
  <g class="djs-group">
    <g transform="matrix(1, 0, 0, 1, 30, 199)" id="gfx-b5b794c1-d72a-415d-bae3-6c0f55be3627" display="block" class="djs-element djs-shape" data-element-id="b5b794c1-d72a-415d-bae3-6c0f55be3627">
      <g class="djs-visual">
        <rect x="0" y="0" width="90" height="36" fill-opacity="0" stroke-opacity="0" style="fill:#FFFFFF;stroke:transparent;" />
        <svg width="90" height="31" class="djs-svg-text">
          <text font-family="'Segoe UI'" font-size="10.6252px" font-style="normal" font-weight="normal" lineHeight="1.2" textDirection="0" textAlign="center" class="djs-label" style="fill:black;">
            <tspan x="6.684052" y="14.75">Necessidade de </tspan>
            <tspan x="25.5646" y="27.75">contato </tspan>
            <tspan x="17.78889" y="40.75">identificada</tspan>
          </text>
        </svg>
      </g>
    </g>
  </g>
  <g class="djs-group">
    <g transform="matrix(1, 0, 0, 1, 495, 161)" id="gfx-554036a2-261f-478a-bb78-e693b0506ade" display="block" class="djs-element djs-shape" data-element-id="554036a2-261f-478a-bb78-e693b0506ade">
      <g class="djs-visual">
        <g>
          <g transform="translate(-8.90625, -8.90625) scale(1.5)">
            <path d="M16 25.2 A9.2 9.2 0 1 1 25.2 16 A9.2 9.2 0 0 1 16 25.2 z" style="fill:#EEAAAA;" />
            <path d="M16 7.5 A8.5 8.5 0 1 1 7.5 16 A8.5 8.5 0 0 1 16 7.5 M16 6 A10 10 0 1 0 26 16 A10 10 0 0 0 16 6 z" stroke-width="0.4px" class="" style="fill:#990000;stroke:#990000;" />
          </g>
        </g>
      </g>
    </g>
  </g>
  <g class="djs-group">
    <g transform="matrix(1, 0, 0, 1, 471, 198)" id="gfx-bf81e39f-51d5-4464-af24-513867576282" display="block" class="djs-element djs-shape" data-element-id="bf81e39f-51d5-4464-af24-513867576282">
      <g class="djs-visual">
        <rect x="0" y="0" width="90" height="36" fill-opacity="0" stroke-opacity="0" style="fill:#FFFFFF;stroke:transparent;" />
        <svg width="90" height="31" class="djs-svg-text">
          <text font-family="'Segoe UI'" font-size="10.6252px" font-style="normal" font-weight="normal" lineHeight="1.2" textDirection="0" textAlign="center" class="djs-label" style="fill:black;">
            <tspan x="6.105858" y="14.75">Mensagem Mala</tspan>
            <tspan x="29.41227" y="27.75">Direta </tspan>
            <tspan x="13.66378" y="40.75">encaminhada</tspan>
          </text>
        </svg>
      </g>
    </g>
  </g>
  <g class="djs-group">
    <g id="gfx-99390a24-06e5-48ab-a9f3-e85af2a1db1d" display="block" class="djs-element djs-connection" data-element-id="99390a24-06e5-48ab-a9f3-e85af2a1db1d">
      <g class="djs-visual">
        <g>
          <defs>
            <marker refX="9.8" refY="6" orient="auto" markerWidth="12" markerHeight="12" markerUnits="strokeWidth" id="arrowSecuenceFlow99390a24-06e5-48ab-a9f3-e85af2a1db1d#1">
              <path d="M0 0 L2 6 L0 12 L10 6 z" style="fill:black;" />
            </marker>
          </defs>
          <path d="M90 176 L146 176" marker-end="url(#arrowSecuenceFlow99390a24-06e5-48ab-a9f3-e85af2a1db1d)" stroke-width="1px" stroke-linejoin="round" shape-rendering="crispEdges" fill-opacity="0" class="" style="fill:transparent;stroke:black;" />
        </g>
      </g>
    </g>
  </g>
  <g class="djs-group">
    <g id="gfx-30a7374c-a427-4d3e-9bf8-15d8ecd060bf" display="block" class="djs-element djs-connection" data-element-id="30a7374c-a427-4d3e-9bf8-15d8ecd060bf">
      <g class="djs-visual">
        <g>
          <defs>
            <marker refX="9.8" refY="6" orient="auto" markerWidth="12" markerHeight="12" markerUnits="strokeWidth" id="arrowSecuenceFlow30a7374c-a427-4d3e-9bf8-15d8ecd060bf">
              <path d="M0 0 L2 6 L0 12 L10 6 z" style="fill:black;" />
            </marker>
          </defs>
          <path d="M276 176 L326 176" marker-end="url(#arrowSecuenceFlow30a7374c-a427-4d3e-9bf8-15d8ecd060bf)" stroke-width="1px" stroke-linejoin="round" shape-rendering="crispEdges" fill-opacity="0" class="" style="fill:transparent;stroke:black;" />
        </g>
      </g>
    </g>
  </g>
  <g class="djs-group">
    <g id="gfx-4e8eb15a-d6fb-4544-8c3a-149937f3a091" display="block" class="djs-element djs-connection" data-element-id="4e8eb15a-d6fb-4544-8c3a-149937f3a091">
      <g class="djs-visual">
        <g>
          <defs>
            <marker refX="9.8" refY="6" orient="auto" markerWidth="12" markerHeight="12" markerUnits="strokeWidth" id="arrowSecuenceFlow4e8eb15a-d6fb-4544-8c3a-149937f3a091">
              <path d="M0 0 L2 6 L0 12 L10 6 z" style="fill:black;" />
            </marker>
          </defs>
          <path d="M456 176 L495 176" marker-end="url(#arrowSecuenceFlow4e8eb15a-d6fb-4544-8c3a-149937f3a091)" stroke-width="1px" stroke-linejoin="round" shape-rendering="crispEdges" fill-opacity="0" class="" style="fill:transparent;stroke:black;" />
        </g>
      </g>
    </g>
  </g>
</svg>