<?xml version="1.0" encoding="utf-8"?>
<!DOCTYPE svg PUBLIC "-//W3C//DTD SVG 1.1//EN" "http://www.w3.org/Graphics/SVG/1.1/DTD/svg11.dtd">
<svg width="549" height="663px" viewBox="-16, -16, 549, 663" xmlns="http://www.w3.org/2000/svg" xmlns:xlink="http://www.w3.org/1999/xlink" xmlns:xml="http://www.w3.org/XML/1998/namespace" version="1.1">
  <defs>
    <marker refX="9.8" refY="6" orient="auto" markerWidth="12" markerHeight="12" markerUnits="strokeWidth" id="arrowSecuenceFlowb51ea86e-1c9d-43c3-91fc-983ec913e434">
      <path d="M0 0 L2 6 L0 12 L10 6 z" style="fill:black;" />
    </marker>
  </defs>
  <g class="djs-group">
    <g transform="matrix(1, 0, 0, 1, 143, 118)" id="gfx-28b13334-4293-4e1e-b5bc-7d3e7b1f73ba" display="block" class="djs-element djs-shape" data-element-id="28b13334-4293-4e1e-b5bc-7d3e7b1f73ba">
      <g class="djs-visual">
        <g>
          <rect x="0" y="0" width="130" height="90" rx="8" stroke-width="2px" class="" style="fill:#ECEFFF;stroke:#03689A;" />
          <g transform="translate(-6, -11) scale(1.6)">
            <path d="M16.9 19.4 L10.7 19.4 A3.1 3.1 0 0 1 7.6 16 A4 4 0 0 1 9.3 12.6 L12 10.8 A1 1 0 0 1 12.9 10.7 A1 1 0 0 1 13.6 11.1 A1.3 1.3 0 0 1 13.2 12.7 L17.6 12.7 A0.9 0.9 0 0 1 18.6 13.6 A0.8 0.8 0 0 1 18.4 14.2 L18.4 14.2 A1.1 1.1 0 0 1 19.4 15.2 A1 1 0 0 1 18.7 16.1 A0.9 0.9 0 0 1 19 16.8 A0.9 0.9 0 0 1 18 17.7 L17.6 17.7 A1.4 1.4 0 0 1 17.8 18.3 A0.9 0.9 0 0 1 17.5 19 A0.9 0.9 0 0 1 16.9 19.4 z" style="fill:white;" />
            <path d="M16.9 19.4 L10.7 19.4 A3.1 3.1 0 0 1 7.6 16 A4 4 0 0 1 9.3 12.6 L12 10.8 A1 1 0 0 1 12.9 10.7 A1 1 0 0 1 13.6 11.1 A1.3 1.3 0 0 1 13.2 12.7 L17.6 12.7 A0.9 0.9 0 0 1 18.6 13.6 A0.8 0.8 0 0 1 18.4 14.2 L18.4 14.2 A1.1 1.1 0 0 1 19.4 15.2 A1 1 0 0 1 18.7 16.1 A0.9 0.9 0 0 1 19 16.8 A0.9 0.9 0 0 1 18 17.7 L17.6 17.7 A1.4 1.4 0 0 1 17.8 18.3 A0.9 0.9 0 0 1 17.5 19 A0.9 0.9 0 0 1 16.9 19.4 z M12.7 11.4 L12.4 11.4 L9.7 13.3 A2.9 2.9 0 0 0 8.4 16 A2.3 2.3 0 0 0 10.7 18.6 L17 18.6 C17 18.5 17.1 18.5 17.1 18.4 L16.9 18.2 L13.5 18.2 A0.6 0.6 0 0 1 12.9 17.6 A0.6 0.6 0 0 1 13.5 17.1 L18 17.1 A0.2 0.2 0 0 0 18.2 16.9 C18.2 16.7 18.1 16.6 18 16.6 L13.9 16.6 A0.6 0.6 0 0 1 13.3 16.1 A0.6 0.6 0 0 1 13.9 15.5 L18.4 15.5 L18.6 15.3 A0.2 0.2 0 0 0 18.4 15.1 L13.9 15.1 A0.6 0.6 0 0 1 13.9 13.9 L17.6 13.9 A0.2 0.2 0 0 0 17.8 13.7 L17.6 13.5 L11.9 13.5 C11.7 13.5 11.6 13.4 11.6 13.3 A0.4 0.4 0 0 1 11.7 12.8 L12.8 12 C13 11.9 13 11.7 12.9 11.5 L12.7 11.5 z" style="fill:#03689A;" />
          </g>
          <g />
        </g>
      </g>
      <svg width="130" height="86" class="djs-svg-text">
        <text font-family="'Segoe UI'" font-size="10.6252px" font-style="normal" font-weight="normal" lineHeight="1.2" textDirection="0" textAlign="center" class="djs-label" style="fill:black;">
          <tspan x="7.699791" y="41.75">2. Acompanhar  e-mail e</tspan>
          <tspan x="53.55032" y="54.75">0800</tspan>
        </text>
      </svg>
    </g>
  </g>
  <g class="djs-group">
    <g transform="matrix(1, 0, 0, 1, 143, 0)" id="gfx-1ff4debb-0590-4c87-929a-9e1269ec93ba" display="block" class="djs-element djs-shape" data-element-id="1ff4debb-0590-4c87-929a-9e1269ec93ba">
      <g class="djs-visual">
        <g>
          <rect x="0" y="0" width="130" height="90" rx="8" stroke-width="2px" class="" style="fill:#ECEFFF;stroke:#03689A;" />
          <g transform="translate(-6, -11) scale(1.6)">
            <path d="M17 16.5 A5.7 5.7 0 0 0 14.4 14.6 L14.2 14.4 C14.2 14.3 14.3 14.3 14.3 14.2 A1.9 1.9 0 0 0 14.8 12.9 A2.3 2.3 0 0 0 12.7 10.6 A2.5 2.5 0 0 0 10.3 12.9 A2.4 2.4 0 0 0 10.5 13.7 L10.7 13.9 C10.8 14.2 11 14.2 11.2 14.4 L11.2 14.6 L10.6 14.6 A5 5 0 0 0 8 16.7 L8 16.7 L8 19.6 L17 19.6 L17 16.6 z M11.6 14.6 L11.9 14.3 L11.6 14.3 A1.6 1.6 0 0 1 10.8 13 A3.7 3.7 0 0 1 12.5 12.4 C12.6 12.4 12.7 12.7 12.8 12.8 L13.3 12.8 A2.4 2.4 0 0 0 14.3 12.5 A2.3 2.3 0 0 1 13.4 14.4 L13.4 14.4 L13.6 14.8 L13.6 14.8 A0.8 0.8 0 0 1 13.4 15.7 A1.5 1.5 0 0 1 12.5 16.1 A1 1 0 0 1 11.7 15.7 C11.3 15.3 11.3 15.1 11.3 14.9 C11.3 14.7 11.4 14.8 11.6 14.6 z M16.5 19.1 L15.4 19.1 L15.4 18 L14.8 18 L14.8 19.1 L10.2 19.1 L10.2 18 L9.7 18 L9.7 19.2 L8.5 19.2 L8.5 16.9 A5.2 5.2 0 0 1 10.8 15.1 L10.9 15.1 C10.9 15.5 10.7 15.8 11.2 16.3 A2.7 2.7 0 0 0 12.5 16.8 A2.2 2.2 0 0 0 13.9 16.2 A1.1 1.1 0 0 0 14.2 15.2 A4.6 4.6 0 0 1 16.5 16.9 z" style="fill:white;" />
            <path d="M12.7 10.6 A2.5 2.5 0 0 0 10.3 12.9 A2.4 2.4 0 0 0 10.5 13.7 L10.7 13.9 C10.8 14.2 11 14.2 11.2 14.4 L11.2 14.6 L10.6 14.6 A5 5 0 0 0 8 16.7 L8 16.7 L8 19.6 L17 19.6 L17 16.6 L17 16.6 A5.7 5.7 0 0 0 14.4 14.7 L14.2 14.5 C14.2 14.4 14.3 14.4 14.3 14.3 A1.9 1.9 0 0 0 14.8 13 A2.3 2.3 0 0 0 12.7 10.7 z M12.5 16.3 A1 1 0 0 1 11.7 15.9 C11.3 15.5 11.3 15.3 11.3 15.1 C11.3 14.9 11.4 14.8 11.6 14.6 L11.9 14.3 L11.6 14.3 A1.6 1.6 0 0 1 10.8 13 A3.7 3.7 0 0 1 12.5 12.4 C12.6 12.4 12.7 12.7 12.8 12.8 L13.3 12.8 A2.4 2.4 0 0 0 14.3 12.5 A2.3 2.3 0 0 1 13.4 14.4 L13.4 14.4 L13.6 14.8 L13.6 14.8 A0.8 0.8 0 0 1 13.4 15.7 A1.5 1.5 0 0 1 12.5 16.1 z M10.8 15.1 L10.9 15.1 C10.9 15.5 10.7 15.8 11.2 16.3 A2.7 2.7 0 0 0 12.5 16.8 A2.2 2.2 0 0 0 13.9 16.2 A1.1 1.1 0 0 0 14.2 15.2 A4.6 4.6 0 0 1 16.5 16.9 L16.5 19.1 L15.4 19.1 L15.4 18 L14.8 18 L14.8 19.1 L10.2 19.1 L10.2 18 L9.7 18 L9.7 19.2 L8.5 19.2 L8.5 16.9 A5.2 5.2 0 0 1 10.8 15.1 z" style="fill:#03689A;" />
          </g>
          <g />
        </g>
      </g>
      <svg width="130" height="86" class="djs-svg-text">
        <text font-family="'Segoe UI'" font-size="10.6252px" font-style="normal" font-weight="normal" lineHeight="1.2" textDirection="0" textAlign="center" class="djs-label" style="fill:black;">
          <tspan x="23.67643" y="48.25">1. Acompanhar BI</tspan>
        </text>
      </svg>
    </g>
  </g>
  <g class="djs-group">
    <g transform="matrix(1, 0, 0, 1, 46, 262)" id="gfx-119c9f94-71d5-42d7-b234-883e27b1095e" display="block" class="djs-element djs-shape" data-element-id="119c9f94-71d5-42d7-b234-883e27b1095e">
      <g class="djs-visual">
        <g>
          <rect x="0" y="0" width="323" height="212" rx="5" stroke-width="2px" stroke-dasharray="6 2" class="" style="fill:white;stroke:#03689A;" />
          <g transform="translate(4, 4)">
            <circle cx="8" cy="8" r="8" fill-opacity="0" style="fill:transparent;stroke:#03689A;" />
            <path d="M3 4 L13 4 L8 8 z M3 7 L8 11 L13 7 L13 12 L3 12 z" stroke-width="1.1px" fill-opacity="0" style="fill:transparent;stroke:#03689A;" />
          </g>
          <svg y="41.05719" width="323" height="129.8856" viewBox="89, 40, 848, 341">
            <defs>
              <marker refX="9.8" refY="6" orient="auto" markerWidth="12" markerHeight="12" markerUnits="strokeWidth" id="arrowSecuenceFlowb51ea86e-1c9d-43c3-91fc-983ec913e434#1">
                <path d="M0 0 L2 6 L0 12 L10 6 z" style="fill:black;" />
              </marker>
            </defs>
            <g class="djs-group">
              <g transform="matrix(1, 0, 0, 1, 230, 197)" id="gfx-a4cc04b9-72a7-4ab3-886f-676c9ae06fdd" display="block" class="djs-element djs-shape" data-element-id="a4cc04b9-72a7-4ab3-886f-676c9ae06fdd">
                <g class="djs-visual">
                  <g>
                    <rect x="0" y="0" width="130" height="90" rx="8" stroke-width="2px" class="" style="fill:#ECEFFF;stroke:#03689A;" />
                    <g transform="translate(-6, -11) scale(1.6)">
                      <path d="M16.9 19.4 L10.7 19.4 A3.1 3.1 0 0 1 7.6 16 A4 4 0 0 1 9.3 12.6 L12 10.8 A1 1 0 0 1 12.9 10.7 A1 1 0 0 1 13.6 11.1 A1.3 1.3 0 0 1 13.2 12.7 L17.6 12.7 A0.9 0.9 0 0 1 18.6 13.6 A0.8 0.8 0 0 1 18.4 14.2 L18.4 14.2 A1.1 1.1 0 0 1 19.4 15.2 A1 1 0 0 1 18.7 16.1 A0.9 0.9 0 0 1 19 16.8 A0.9 0.9 0 0 1 18 17.7 L17.6 17.7 A1.4 1.4 0 0 1 17.8 18.3 A0.9 0.9 0 0 1 17.5 19 A0.9 0.9 0 0 1 16.9 19.4 z" style="fill:white;" />
                      <path d="M16.9 19.4 L10.7 19.4 A3.1 3.1 0 0 1 7.6 16 A4 4 0 0 1 9.3 12.6 L12 10.8 A1 1 0 0 1 12.9 10.7 A1 1 0 0 1 13.6 11.1 A1.3 1.3 0 0 1 13.2 12.7 L17.6 12.7 A0.9 0.9 0 0 1 18.6 13.6 A0.8 0.8 0 0 1 18.4 14.2 L18.4 14.2 A1.1 1.1 0 0 1 19.4 15.2 A1 1 0 0 1 18.7 16.1 A0.9 0.9 0 0 1 19 16.8 A0.9 0.9 0 0 1 18 17.7 L17.6 17.7 A1.4 1.4 0 0 1 17.8 18.3 A0.9 0.9 0 0 1 17.5 19 A0.9 0.9 0 0 1 16.9 19.4 z M12.7 11.4 L12.4 11.4 L9.7 13.3 A2.9 2.9 0 0 0 8.4 16 A2.3 2.3 0 0 0 10.7 18.6 L17 18.6 C17 18.5 17.1 18.5 17.1 18.4 L16.9 18.2 L13.5 18.2 A0.6 0.6 0 0 1 12.9 17.6 A0.6 0.6 0 0 1 13.5 17.1 L18 17.1 A0.2 0.2 0 0 0 18.2 16.9 C18.2 16.7 18.1 16.6 18 16.6 L13.9 16.6 A0.6 0.6 0 0 1 13.3 16.1 A0.6 0.6 0 0 1 13.9 15.5 L18.4 15.5 L18.6 15.3 A0.2 0.2 0 0 0 18.4 15.1 L13.9 15.1 A0.6 0.6 0 0 1 13.9 13.9 L17.6 13.9 A0.2 0.2 0 0 0 17.8 13.7 L17.6 13.5 L11.9 13.5 C11.7 13.5 11.6 13.4 11.6 13.3 A0.4 0.4 0 0 1 11.7 12.8 L12.8 12 C13 11.9 13 11.7 12.9 11.5 L12.7 11.5 z" style="fill:#03689A;" />
                    </g>
                    <g />
                  </g>
                </g>
                <svg width="130" height="86" class="djs-svg-text">
                  <text font-family="'Segoe UI'" font-size="10.6252px" font-style="normal" font-weight="normal" lineHeight="1.2" textDirection="0" textAlign="center" class="djs-label" style="fill:black;">
                    <tspan x="9.571754" y="41.75">3. Responder demanda </tspan>
                    <tspan x="28.24749" y="54.75">conforme script</tspan>
                  </text>
                </svg>
              </g>
            </g>
            <g class="djs-group">
              <g transform="matrix(1, 0, 0, 1, 397, 197)" id="gfx-046b91b2-9c78-4fae-af74-1beddc426e10" display="block" class="djs-element djs-shape" data-element-id="046b91b2-9c78-4fae-af74-1beddc426e10">
                <g class="djs-visual">
                  <g>
                    <rect x="0" y="0" width="130" height="90" rx="8" stroke-width="2px" class="" style="fill:#ECEFFF;stroke:#03689A;" />
                    <g transform="translate(-6, -11) scale(1.6)">
                      <path d="M16.9 19.4 L10.7 19.4 A3.1 3.1 0 0 1 7.6 16 A4 4 0 0 1 9.3 12.6 L12 10.8 A1 1 0 0 1 12.9 10.7 A1 1 0 0 1 13.6 11.1 A1.3 1.3 0 0 1 13.2 12.7 L17.6 12.7 A0.9 0.9 0 0 1 18.6 13.6 A0.8 0.8 0 0 1 18.4 14.2 L18.4 14.2 A1.1 1.1 0 0 1 19.4 15.2 A1 1 0 0 1 18.7 16.1 A0.9 0.9 0 0 1 19 16.8 A0.9 0.9 0 0 1 18 17.7 L17.6 17.7 A1.4 1.4 0 0 1 17.8 18.3 A0.9 0.9 0 0 1 17.5 19 A0.9 0.9 0 0 1 16.9 19.4 z" style="fill:white;" />
                      <path d="M16.9 19.4 L10.7 19.4 A3.1 3.1 0 0 1 7.6 16 A4 4 0 0 1 9.3 12.6 L12 10.8 A1 1 0 0 1 12.9 10.7 A1 1 0 0 1 13.6 11.1 A1.3 1.3 0 0 1 13.2 12.7 L17.6 12.7 A0.9 0.9 0 0 1 18.6 13.6 A0.8 0.8 0 0 1 18.4 14.2 L18.4 14.2 A1.1 1.1 0 0 1 19.4 15.2 A1 1 0 0 1 18.7 16.1 A0.9 0.9 0 0 1 19 16.8 A0.9 0.9 0 0 1 18 17.7 L17.6 17.7 A1.4 1.4 0 0 1 17.8 18.3 A0.9 0.9 0 0 1 17.5 19 A0.9 0.9 0 0 1 16.9 19.4 z M12.7 11.4 L12.4 11.4 L9.7 13.3 A2.9 2.9 0 0 0 8.4 16 A2.3 2.3 0 0 0 10.7 18.6 L17 18.6 C17 18.5 17.1 18.5 17.1 18.4 L16.9 18.2 L13.5 18.2 A0.6 0.6 0 0 1 12.9 17.6 A0.6 0.6 0 0 1 13.5 17.1 L18 17.1 A0.2 0.2 0 0 0 18.2 16.9 C18.2 16.7 18.1 16.6 18 16.6 L13.9 16.6 A0.6 0.6 0 0 1 13.3 16.1 A0.6 0.6 0 0 1 13.9 15.5 L18.4 15.5 L18.6 15.3 A0.2 0.2 0 0 0 18.4 15.1 L13.9 15.1 A0.6 0.6 0 0 1 13.9 13.9 L17.6 13.9 A0.2 0.2 0 0 0 17.8 13.7 L17.6 13.5 L11.9 13.5 C11.7 13.5 11.6 13.4 11.6 13.3 A0.4 0.4 0 0 1 11.7 12.8 L12.8 12 C13 11.9 13 11.7 12.9 11.5 L12.7 11.5 z" style="fill:#03689A;" />
                    </g>
                    <g />
                  </g>
                </g>
                <svg width="130" height="86" class="djs-svg-text">
                  <text font-family="'Segoe UI'" font-size="10.6252px" font-style="normal" font-weight="normal" lineHeight="1.2" textDirection="0" textAlign="center" class="djs-label" style="fill:black;">
                    <tspan x="16.10555" y="41.75">4. Analisar demanda </tspan>
                    <tspan x="44.91122" y="54.75">recebida</tspan>
                  </text>
                </svg>
              </g>
            </g>
            <g class="djs-group">
              <g transform="matrix(1, 0, 0, 1, 686, 63)" id="gfx-0bb7a392-a12f-4265-9a2c-1ff086dfce06" display="block" class="djs-element djs-shape" data-element-id="0bb7a392-a12f-4265-9a2c-1ff086dfce06">
                <g class="djs-visual">
                  <g>
                    <rect x="0" y="0" width="130" height="90" rx="8" stroke-width="2px" class="" style="fill:#ECEFFF;stroke:#03689A;" />
                    <g transform="translate(-6, -11) scale(1.6)">
                      <path d="M16.9 19.4 L10.7 19.4 A3.1 3.1 0 0 1 7.6 16 A4 4 0 0 1 9.3 12.6 L12 10.8 A1 1 0 0 1 12.9 10.7 A1 1 0 0 1 13.6 11.1 A1.3 1.3 0 0 1 13.2 12.7 L17.6 12.7 A0.9 0.9 0 0 1 18.6 13.6 A0.8 0.8 0 0 1 18.4 14.2 L18.4 14.2 A1.1 1.1 0 0 1 19.4 15.2 A1 1 0 0 1 18.7 16.1 A0.9 0.9 0 0 1 19 16.8 A0.9 0.9 0 0 1 18 17.7 L17.6 17.7 A1.4 1.4 0 0 1 17.8 18.3 A0.9 0.9 0 0 1 17.5 19 A0.9 0.9 0 0 1 16.9 19.4 z" style="fill:white;" />
                      <path d="M16.9 19.4 L10.7 19.4 A3.1 3.1 0 0 1 7.6 16 A4 4 0 0 1 9.3 12.6 L12 10.8 A1 1 0 0 1 12.9 10.7 A1 1 0 0 1 13.6 11.1 A1.3 1.3 0 0 1 13.2 12.7 L17.6 12.7 A0.9 0.9 0 0 1 18.6 13.6 A0.8 0.8 0 0 1 18.4 14.2 L18.4 14.2 A1.1 1.1 0 0 1 19.4 15.2 A1 1 0 0 1 18.7 16.1 A0.9 0.9 0 0 1 19 16.8 A0.9 0.9 0 0 1 18 17.7 L17.6 17.7 A1.4 1.4 0 0 1 17.8 18.3 A0.9 0.9 0 0 1 17.5 19 A0.9 0.9 0 0 1 16.9 19.4 z M12.7 11.4 L12.4 11.4 L9.7 13.3 A2.9 2.9 0 0 0 8.4 16 A2.3 2.3 0 0 0 10.7 18.6 L17 18.6 C17 18.5 17.1 18.5 17.1 18.4 L16.9 18.2 L13.5 18.2 A0.6 0.6 0 0 1 12.9 17.6 A0.6 0.6 0 0 1 13.5 17.1 L18 17.1 A0.2 0.2 0 0 0 18.2 16.9 C18.2 16.7 18.1 16.6 18 16.6 L13.9 16.6 A0.6 0.6 0 0 1 13.3 16.1 A0.6 0.6 0 0 1 13.9 15.5 L18.4 15.5 L18.6 15.3 A0.2 0.2 0 0 0 18.4 15.1 L13.9 15.1 A0.6 0.6 0 0 1 13.9 13.9 L17.6 13.9 A0.2 0.2 0 0 0 17.8 13.7 L17.6 13.5 L11.9 13.5 C11.7 13.5 11.6 13.4 11.6 13.3 A0.4 0.4 0 0 1 11.7 12.8 L12.8 12 C13 11.9 13 11.7 12.9 11.5 L12.7 11.5 z" style="fill:#03689A;" />
                    </g>
                    <g />
                  </g>
                </g>
                <svg width="130" height="86" class="djs-svg-text">
                  <text font-family="'Segoe UI'" font-size="10.6252px" font-style="normal" font-weight="normal" lineHeight="1.2" textDirection="0" textAlign="center" class="djs-label" style="fill:black;">
                    <tspan x="11.81972" y="41.75">5. Atualizar script com </tspan>
                    <tspan x="18.75794" y="54.75">demanda frequente</tspan>
                  </text>
                </svg>
              </g>
            </g>
            <g class="djs-group">
              <g transform="matrix(1, 0, 0, 1, 729, 227)" id="gfx-7a5c1fb9-9b36-4fa1-b22e-890f0016bb55" display="block" class="djs-element djs-shape" data-element-id="7a5c1fb9-9b36-4fa1-b22e-890f0016bb55">
                <g class="djs-visual">
                  <g>
                    <g transform="translate(-8.90625, -8.90625) scale(1.5)">
                      <path d="M16 25.2 A9.2 9.2 0 1 1 25.2 16 A9.2 9.2 0 0 1 16 25.2 z" style="fill:#EEAAAA;" />
                      <path d="M16 7.5 A8.5 8.5 0 1 1 7.5 16 A8.5 8.5 0 0 1 16 7.5 M16 6 A10 10 0 1 0 26 16 A10 10 0 0 0 16 6 z" stroke-width="0.4px" class="" style="fill:#990000;stroke:#990000;" />
                    </g>
                  </g>
                </g>
              </g>
            </g>
            <g class="djs-group">
              <g transform="matrix(1, 0, 0, 1, 699, 265)" id="gfx-42e93df0-3303-4eeb-bb63-00cc64072bfe" display="block" class="djs-element djs-shape" data-element-id="42e93df0-3303-4eeb-bb63-00cc64072bfe">
                <g class="djs-visual">
                  <rect x="0" y="0" width="90" height="36" fill-opacity="0" stroke-opacity="0" style="fill:#FFFFFF;stroke:transparent;" />
                  <svg width="90" height="31" class="djs-svg-text">
                    <text font-family="'Segoe UI'" font-size="10.6252px" font-style="normal" font-weight="normal" lineHeight="1.2" textDirection="0" textAlign="center" class="djs-label" style="fill:black;">
                      <tspan x="20.93649" y="14.75">Demanda </tspan>
                      <tspan x="25.51534" y="27.75">pontual </tspan>
                      <tspan x="18.64449" y="40.75">respondida</tspan>
                    </text>
                  </svg>
                </g>
              </g>
            </g>
            <g class="djs-group">
              <g transform="matrix(1, 0, 0, 1, 856, 93)" id="gfx-6522ce4d-a518-4fb5-beb2-82b9747662f5" display="block" class="djs-element djs-shape" data-element-id="6522ce4d-a518-4fb5-beb2-82b9747662f5">
                <g class="djs-visual">
                  <g>
                    <g transform="translate(-8.90625, -8.90625) scale(1.5)">
                      <path d="M16 25.2 A9.2 9.2 0 1 1 25.2 16 A9.2 9.2 0 0 1 16 25.2 z" style="fill:#EEAAAA;" />
                      <path d="M16 7.5 A8.5 8.5 0 1 1 7.5 16 A8.5 8.5 0 0 1 16 7.5 M16 6 A10 10 0 1 0 26 16 A10 10 0 0 0 16 6 z" stroke-width="0.4px" class="" style="fill:#990000;stroke:#990000;" />
                    </g>
                  </g>
                </g>
              </g>
            </g>
            <g class="djs-group">
              <g transform="matrix(1, 0, 0, 1, 826, 131)" id="gfx-f14e7add-e032-4739-9c1e-b392d6e45a86" display="block" class="djs-element djs-shape" data-element-id="f14e7add-e032-4739-9c1e-b392d6e45a86">
                <g class="djs-visual">
                  <rect x="0" y="0" width="95" height="53" fill-opacity="0" stroke-opacity="0" style="fill:#FFFFFF;stroke:transparent;" />
                  <svg width="95" height="48" class="djs-svg-text">
                    <text font-family="'Segoe UI'" font-size="10.6252px" font-style="normal" font-weight="normal" lineHeight="1.2" textDirection="0" textAlign="center" class="djs-label" style="fill:black;">
                      <tspan x="8.598091" y="14.75">Script atualizado</tspan>
                    </text>
                  </svg>
                </g>
              </g>
            </g>
            <g class="djs-group">
              <g transform="matrix(1, 0, 0, 1, 559, 222)" id="gfx-cea09067-39c2-46e9-9281-9eb92d0a8982" display="block" class="djs-element djs-shape" data-element-id="cea09067-39c2-46e9-9281-9eb92d0a8982">
                <g class="djs-visual">
                  <g>
                    <path d="M0 20 L20 40 L40 20 L20 0 z" stroke-width="1.8px" class="" style="fill:#FFFFCC;stroke:#A6A61D;" />
                  </g>
                </g>
              </g>
            </g>
            <g class="djs-group">
              <g transform="matrix(1, 0, 0, 1, 243, 116)" id="gfx-6f1c6cb3-49fb-44c0-abfb-f6595f3cc435" display="block" class="djs-element djs-shape" data-element-id="6f1c6cb3-49fb-44c0-abfb-f6595f3cc435">
                <g class="djs-visual">
                  <g>
                    <rect x="0" y="0" width="100" height="60" class="" style="fill:#D5D5D5;" />
                    <path d="M33.33333 0 L0 0 L0 60 L33.33333 60" stroke-width="0.4px" shape-rendering="crispEdges" fill-opacity="0" style="fill:transparent;stroke:black;" />
                  </g>
                </g>
                <svg width="100" height="60" class="djs-svg-text">
                  <text font-family="'Segoe UI'" font-size="10.6252px" font-style="normal" font-weight="normal" lineHeight="1.2" textDirection="0" textAlign="center" class="djs-label" style="fill:black;">
                    <tspan x="8.676437" y="33.25">via e-mail e 0800 </tspan>
                  </text>
                </svg>
              </g>
            </g>
            <g class="djs-group">
              <g transform="matrix(1, 0, 0, 1, 246, 305)" id="gfx-e3c17bd8-b425-41e9-b903-6b4fb014a5d9" display="block" class="djs-element djs-shape" data-element-id="e3c17bd8-b425-41e9-b903-6b4fb014a5d9">
                <g class="djs-visual">
                  <g>
                    <rect x="0" y="0" width="100" height="60" class="" style="fill:#D5D5D5;" />
                    <path d="M33.33333 0 L0 0 L0 60 L33.33333 60" stroke-width="0.4px" shape-rendering="crispEdges" fill-opacity="0" style="fill:transparent;stroke:black;" />
                  </g>
                </g>
                <svg width="100" height="60" class="djs-svg-text">
                  <text font-family="'Segoe UI'" font-size="10.6252px" font-style="normal" font-weight="normal" lineHeight="1.2" textDirection="0" textAlign="center" class="djs-label" style="fill:black;">
                    <tspan x="8.704956" y="20.25">Conforme scripts </tspan>
                    <tspan x="13.77382" y="33.25">dos 3 níveis de </tspan>
                    <tspan x="20.03796" y="46.25">atendimento</tspan>
                  </text>
                </svg>
              </g>
            </g>
            <g class="djs-group">
              <g transform="matrix(1, 0, 0, 1, 135, 227)" id="gfx-5b174f54-0b22-40e4-90d7-581439efcfc3" display="block" class="djs-element djs-shape" data-element-id="5b174f54-0b22-40e4-90d7-581439efcfc3">
                <g class="djs-visual">
                  <g>
                    <g transform="translate(-8.90625, -8.90625) scale(1.5)">
                      <path d="M15.9 25.5 A9.5 9.5 0 1 1 25.4 16 A9.6 9.6 0 0 1 15.9 25.5 z" style="fill:#FEFAEF;" />
                      <path d="M15.9 7 A9 9 0 1 1 6.9 16 A9 9 0 0 1 15.9 7 M15.9 6 A10 10 0 1 0 25.9 16 A10 10 0 0 0 15.9 6 z" class="" style="fill:#969149;" />
                      <path d="M15.9 8.8 A7.2 7.2 0 1 1 8.7 16 A7.3 7.3 0 0 1 15.9 8.8 M15.9 7.8 A8.2 8.2 0 0 0 15.9 24.2 A8.2 8.2 0 1 0 15.9 7.800001 z" class="" style="fill:#969149;" />
                      <g>
                        <path d="M20 20 L12 20 L12 12 L20 12 z M13 19 L19 19 L19 13 L13 13 z" style="fill:#969149;" />
                        <rect x="15" y="16.5" width="2" height="1" style="fill:#969149;" />
                        <rect x="15" y="14.5" width="2" height="1" style="fill:#969149;" />
                      </g>
                    </g>
                  </g>
                </g>
              </g>
            </g>
            <g class="djs-group">
              <g transform="matrix(1, 0, 0, 1, 105, 265)" id="gfx-fd239bc4-a17c-4e97-9de4-50028eae4be4" display="block" class="djs-element djs-shape" data-element-id="fd239bc4-a17c-4e97-9de4-50028eae4be4">
                <g class="djs-visual">
                  <rect x="0" y="0" width="90" height="36" fill-opacity="0" stroke-opacity="0" style="fill:#FFFFFF;stroke:transparent;" />
                  <svg width="90" height="31" class="djs-svg-text">
                    <text font-family="'Segoe UI'" font-size="10.6252px" font-style="normal" font-weight="normal" lineHeight="1.2" textDirection="0" textAlign="center" class="djs-label" style="fill:black;">
                      <tspan x="20.93649" y="14.75">Demanda </tspan>
                      <tspan x="24.91122" y="27.75">recebida</tspan>
                    </text>
                  </svg>
                </g>
              </g>
            </g>
            <g class="djs-group">
              <g id="gfx-b51ea86e-1c9d-43c3-91fc-983ec913e434" display="block" class="djs-element djs-connection" data-element-id="b51ea86e-1c9d-43c3-91fc-983ec913e434">
                <g class="djs-visual">
                  <g>
                    <defs>
                      <marker refX="9.8" refY="6" orient="auto" markerWidth="12" markerHeight="12" markerUnits="strokeWidth" id="arrowSecuenceFlowb51ea86e-1c9d-43c3-91fc-983ec913e434#2">
                        <path d="M0 0 L2 6 L0 12 L10 6 z" style="fill:black;" />
                      </marker>
                    </defs>
                    <path d="M579 222 L579 114 C579 114 579 108 585 108 L686 108" marker-end="url(#arrowSecuenceFlowb51ea86e-1c9d-43c3-91fc-983ec913e434)" stroke-width="1px" stroke-linejoin="round" shape-rendering="crispEdges" fill-opacity="0" class="" style="fill:transparent;stroke:black;" />
                  </g>
                </g>
              </g>
            </g>
            <g class="djs-group">
              <g transform="matrix(1, 0, 0, 1, 607, 56)" id="gfx-b40f26c7-e1c6-4a3a-81f6-094cbe3b3b43" display="block" class="djs-element djs-shape" data-element-id="b40f26c7-e1c6-4a3a-81f6-094cbe3b3b43">
                <g class="djs-visual">
                  <rect x="0" y="0" width="90" height="36" fill-opacity="0" stroke-opacity="0" style="fill:#FFFFFF;stroke:transparent;" />
                  <svg width="90" height="31" class="djs-svg-text">
                    <text font-family="'Segoe UI'" font-size="10.6252px" font-style="normal" font-weight="normal" lineHeight="1.2" textDirection="0" textAlign="left" class="djs-label" style="fill:black;">
                      <tspan x="6" y="14.75">Demanda </tspan>
                      <tspan x="6" y="27.75">frequente</tspan>
                    </text>
                  </svg>
                </g>
              </g>
            </g>
            <g class="djs-group">
              <g id="gfx-81c806bc-fbb8-4371-aace-818f70aa4f8a" display="block" class="djs-element djs-connection" data-element-id="81c806bc-fbb8-4371-aace-818f70aa4f8a">
                <g class="djs-visual">
                  <g>
                    <defs>
                      <marker refX="9.8" refY="6" orient="auto" markerWidth="12" markerHeight="12" markerUnits="strokeWidth" id="arrowSecuenceFlow81c806bc-fbb8-4371-aace-818f70aa4f8a">
                        <path d="M0 0 L2 6 L0 12 L10 6 z" style="fill:black;" />
                      </marker>
                    </defs>
                    <path d="M165 242 L230 242" marker-end="url(#arrowSecuenceFlow81c806bc-fbb8-4371-aace-818f70aa4f8a)" stroke-width="1px" stroke-linejoin="round" shape-rendering="crispEdges" fill-opacity="0" class="" style="fill:transparent;stroke:black;" />
                  </g>
                </g>
              </g>
            </g>
            <g class="djs-group">
              <g id="gfx-9e48d264-6828-4773-9879-2de1394f2a89" display="block" class="djs-element djs-connection" data-element-id="9e48d264-6828-4773-9879-2de1394f2a89">
                <g class="djs-visual">
                  <g>
                    <defs>
                      <marker refX="9.8" refY="6" orient="auto" markerWidth="12" markerHeight="12" markerUnits="strokeWidth" id="arrowSecuenceFlow9e48d264-6828-4773-9879-2de1394f2a89">
                        <path d="M0 0 L2 6 L0 12 L10 6 z" style="fill:black;" />
                      </marker>
                    </defs>
                    <path d="M360 242 L397 242" marker-end="url(#arrowSecuenceFlow9e48d264-6828-4773-9879-2de1394f2a89)" stroke-width="1px" stroke-linejoin="round" shape-rendering="crispEdges" fill-opacity="0" class="" style="fill:transparent;stroke:black;" />
                  </g>
                </g>
              </g>
            </g>
            <g class="djs-group">
              <g id="gfx-bd5c4936-e423-4b15-8e91-8d249f2610fc" display="block" class="djs-element djs-connection" data-element-id="bd5c4936-e423-4b15-8e91-8d249f2610fc">
                <g class="djs-visual">
                  <g>
                    <defs>
                      <marker refX="9.8" refY="6" orient="auto" markerWidth="12" markerHeight="12" markerUnits="strokeWidth" id="arrowSecuenceFlowbd5c4936-e423-4b15-8e91-8d249f2610fc">
                        <path d="M0 0 L2 6 L0 12 L10 6 z" style="fill:black;" />
                      </marker>
                    </defs>
                    <path d="M527 242 L559 242" marker-end="url(#arrowSecuenceFlowbd5c4936-e423-4b15-8e91-8d249f2610fc)" stroke-width="1px" stroke-linejoin="round" shape-rendering="crispEdges" fill-opacity="0" class="" style="fill:transparent;stroke:black;" />
                  </g>
                </g>
              </g>
            </g>
            <g class="djs-group">
              <g id="gfx-001d1049-5a4e-4d41-9f03-9980fa47b6cc" display="block" class="djs-element djs-connection" data-element-id="001d1049-5a4e-4d41-9f03-9980fa47b6cc">
                <g class="djs-visual">
                  <g>
                    <defs>
                      <marker refX="9.8" refY="6" orient="auto" markerWidth="12" markerHeight="12" markerUnits="strokeWidth" id="arrowSecuenceFlow001d1049-5a4e-4d41-9f03-9980fa47b6cc">
                        <path d="M0 0 L2 6 L0 12 L10 6 z" style="fill:black;" />
                      </marker>
                    </defs>
                    <path d="M599 242 L729 242" marker-end="url(#arrowSecuenceFlow001d1049-5a4e-4d41-9f03-9980fa47b6cc)" stroke-width="1px" stroke-linejoin="round" shape-rendering="crispEdges" fill-opacity="0" class="" style="fill:transparent;stroke:black;" />
                  </g>
                </g>
              </g>
            </g>
            <g class="djs-group">
              <g transform="matrix(1, 0, 0, 1, 625, 237)" id="gfx-023f4472-b251-4c8a-9756-4a393c2d5bd3" display="block" class="djs-element djs-shape" data-element-id="023f4472-b251-4c8a-9756-4a393c2d5bd3">
                <g class="djs-visual">
                  <rect x="0" y="0" width="90" height="36" fill-opacity="0" stroke-opacity="0" style="fill:#FFFFFF;stroke:transparent;" />
                  <svg width="90" height="31" class="djs-svg-text">
                    <text font-family="'Segoe UI'" font-size="10.6252px" font-style="normal" font-weight="normal" lineHeight="1.2" textDirection="0" textAlign="left" class="djs-label" style="fill:black;">
                      <tspan x="6" y="14.75">Demanda </tspan>
                      <tspan x="6" y="27.75">pontual</tspan>
                    </text>
                  </svg>
                </g>
              </g>
            </g>
            <g class="djs-group">
              <g id="gfx-62e89c81-c60a-40e4-8522-01c15575b2f9" display="block" class="djs-element djs-connection" data-element-id="62e89c81-c60a-40e4-8522-01c15575b2f9">
                <g class="djs-visual">
                  <g>
                    <defs>
                      <marker refX="9.8" refY="6" orient="auto" markerWidth="12" markerHeight="12" markerUnits="strokeWidth" id="arrowSecuenceFlow62e89c81-c60a-40e4-8522-01c15575b2f9">
                        <path d="M0 0 L2 6 L0 12 L10 6 z" style="fill:black;" />
                      </marker>
                    </defs>
                    <path d="M816 108 L856 108" marker-end="url(#arrowSecuenceFlow62e89c81-c60a-40e4-8522-01c15575b2f9)" stroke-width="1px" stroke-linejoin="round" shape-rendering="crispEdges" fill-opacity="0" class="" style="fill:transparent;stroke:black;" />
                  </g>
                </g>
              </g>
            </g>
            <g class="djs-group">
              <g id="gfx-934d107c-5d03-4a80-a848-7216a37ebe42" display="block" class="djs-element djs-connection" data-element-id="934d107c-5d03-4a80-a848-7216a37ebe42">
                <g class="djs-visual">
                  <g>
                    <defs>
                      <marker refX="5.5" refY="4" orient="auto" markerWidth="10" markerHeight="8" id="arrowAssociation934d107c-5d03-4a80-a848-7216a37ebe42">
                        <path d="M0 0 L4.5 4 L0 8" stroke-width="0.7px" stroke-dasharray="0" style="stroke:black;" />
                      </marker>
                    </defs>
                    <path d="M295 287 L295 296 L296 296 L296 305" stroke-width="1.5px" stroke-linejoin="round" stroke-dasharray="2 5" shape-rendering="crispEdges" fill-opacity="0" class="" style="fill:transparent;stroke:black;" />
                  </g>
                </g>
              </g>
            </g>
            <g class="djs-group">
              <g id="gfx-3a089772-79b2-45b9-9d70-3cbca440097d" display="block" class="djs-element djs-connection" data-element-id="3a089772-79b2-45b9-9d70-3cbca440097d">
                <g class="djs-visual">
                  <g>
                    <defs>
                      <marker refX="5.5" refY="4" orient="auto" markerWidth="10" markerHeight="8" id="arrowAssociation3a089772-79b2-45b9-9d70-3cbca440097d">
                        <path d="M0 0 L4.5 4 L0 8" stroke-width="0.7px" stroke-dasharray="0" style="stroke:black;" />
                      </marker>
                    </defs>
                    <path d="M295 197 L295 186.5 L293 186.5 L293 176" stroke-width="1.5px" stroke-linejoin="round" stroke-dasharray="2 5" shape-rendering="crispEdges" fill-opacity="0" class="" style="fill:transparent;stroke:black;" />
                  </g>
                </g>
              </g>
            </g>
          </svg>
          <g>
            <path d="M8 3 L8 13 M4 3 L4 13 M12 3 L12 13" transform="translate(153.5, 195)" stroke-width="2px" style="fill:white;stroke:#03689A;" />
          </g>
        </g>
      </g>
    </g>
  </g>
  <g class="djs-group">
    <g transform="matrix(1, 0, 0, 1, 162, 482)" id="gfx-c693749d-1fb0-4115-b1d5-a86d2c7a0050" display="block" class="djs-element djs-shape" data-element-id="c693749d-1fb0-4115-b1d5-a86d2c7a0050">
      <g class="djs-visual">
        <rect x="0" y="0" width="90" height="79" fill-opacity="0" stroke-opacity="0" style="fill:#FFFFFF;stroke:transparent;" />
        <svg width="90" height="74" class="djs-svg-text">
          <text font-family="'Segoe UI'" font-size="10.6252px" font-style="normal" font-weight="normal" lineHeight="1.2" textDirection="0" textAlign="center" class="djs-label" style="fill:black;">
            <tspan x="27.49104" y="14.75">9.2.3.2. </tspan>
            <tspan x="24.78936" y="27.75">Atender </tspan>
            <tspan x="20.73426" y="40.75">demandas</tspan>
          </text>
        </svg>
      </g>
    </g>
  </g>
  <g class="djs-group">
    <g transform="matrix(1, 0, 0, 1, 0, 86)" id="gfx-2e65f688-a024-4ccd-9eb7-e71510b700a6" display="block" class="djs-element djs-shape" data-element-id="2e65f688-a024-4ccd-9eb7-e71510b700a6">
      <g class="djs-visual">
        <g>
          <g transform="translate(-8.90625, -8.90625) scale(1.5)">
            <path d="M16 25.2 C10.9 25.2 6.8 21.1 6.8 16 C6.8 10.9 10.9 6.8 16 6.8 C21.1 6.8 25.2 10.9 25.2 16 C25.2 21.1 21.1 25.2 16 25.2 L16 25.2 z" style="fill:#E6FF97;" />
            <path d="M15.9 7 C20.9 7 24.9 11 24.9 16 C24.9 21 20.9 25 15.9 25 C10.9 25 6.9 21 6.9 16 C6.9 11 10.9 7 15.9 7 M15.9 6 C10.4 6 5.9 10.5 5.9 16 C5.9 21.5 10.4 26 15.9 26 C21.4 26 25.9 21.5 25.9 16 C25.9 10.5 21.4 6 15.9 6 z" stroke-width="0.2px" class="" style="fill:#62A716;stroke:#62A716;" />
          </g>
        </g>
      </g>
    </g>
  </g>
  <g class="djs-group">
    <g transform="matrix(1, 0, 0, 1, 0, 0)" id="gfx-0be8e493-da34-481e-aab9-e514ae3c0a60" display="block" class="djs-element djs-shape" data-element-id="0be8e493-da34-481e-aab9-e514ae3c0a60">
      <g class="djs-visual">
        <rect x="0" y="0" width="99" height="79" fill-opacity="0" stroke-opacity="0" style="fill:#FFFFFF;stroke:transparent;" />
        <svg width="99" height="74" class="djs-svg-text">
          <text font-family="'Segoe UI'" font-size="10.6252px" font-style="normal" font-weight="normal" lineHeight="1.2" textDirection="0" textAlign="center" class="djs-label" style="fill:black;">
            <tspan x="11.15034" y="14.75">Monitoramento </tspan>
            <tspan x="15.78622" y="27.75">das inscrições </tspan>
            <tspan x="19.35386" y="40.75">RNC iniciado</tspan>
          </text>
        </svg>
      </g>
    </g>
  </g>
  <g class="djs-group">
    <g transform="matrix(1, 0, 0, 1, 448, 89)" id="gfx-5f2f93cb-0682-43d6-ac41-5d36f9c09f61" display="block" class="djs-element djs-shape" data-element-id="5f2f93cb-0682-43d6-ac41-5d36f9c09f61">
      <g class="djs-visual">
        <g>
          <g transform="translate(-8.90625, -8.90625) scale(1.5)">
            <path d="M16 25.2 A9.2 9.2 0 1 1 25.2 16 A9.2 9.2 0 0 1 16 25.2 z" style="fill:#EEAAAA;" />
            <path d="M16 7.5 A8.5 8.5 0 1 1 7.5 16 A8.5 8.5 0 0 1 16 7.5 M16 6 A10 10 0 1 0 26 16 A10 10 0 0 0 16 6 z" stroke-width="0.4px" class="" style="fill:#990000;stroke:#990000;" />
          </g>
        </g>
      </g>
    </g>
  </g>
  <g class="djs-group">
    <g transform="matrix(1, 0, 0, 1, 418, 127)" id="gfx-db706929-26b8-4269-9a3d-688fefb4a390" display="block" class="djs-element djs-shape" data-element-id="db706929-26b8-4269-9a3d-688fefb4a390">
      <g class="djs-visual">
        <rect x="0" y="0" width="99" height="79" fill-opacity="0" stroke-opacity="0" style="fill:#FFFFFF;stroke:transparent;" />
        <svg width="99" height="74" class="djs-svg-text">
          <text font-family="'Segoe UI'" font-size="10.6252px" font-style="normal" font-weight="normal" lineHeight="1.2" textDirection="0" textAlign="center" class="djs-label" style="fill:black;">
            <tspan x="11.15034" y="14.75">Monitoramento </tspan>
            <tspan x="15.78622" y="27.75">das inscrições </tspan>
            <tspan x="16.37217" y="40.75">RNC realizado</tspan>
          </text>
        </svg>
      </g>
    </g>
  </g>
  <g class="djs-group">
    <g transform="matrix(1, 0, 0, 1, 343, 84)" id="gfx-8b2aa287-285a-48bd-8cc7-6220c4c8ff5b" display="block" class="djs-element djs-shape" data-element-id="8b2aa287-285a-48bd-8cc7-6220c4c8ff5b">
      <g class="djs-visual">
        <g>
          <path d="M0 20 L20 40 L40 20 L20 0 z" stroke-width="1.8px" class="" style="fill:#FFFFCC;stroke:#A6A61D;" />
          <polygon points="20,15.5 16.5,15.5 16.5,12 15.5,12 15.5,15.5 12,15.5 12,16.5 15.5,16.5 15.5,20 16.5,20 16.5,16.5 20,16.5 20,15.5" transform="translate(-16.8, -16.8) scale(2.3)" style="fill:#A6A61D;stroke:#A6A61D;" />
        </g>
      </g>
    </g>
  </g>
  <g class="djs-group">
    <g transform="matrix(1, 0, 0, 1, 67, 81)" id="gfx-3f8c23d9-82ba-446f-afde-047833544c9a" display="block" class="djs-element djs-shape" data-element-id="3f8c23d9-82ba-446f-afde-047833544c9a">
      <g class="djs-visual">
        <g>
          <path d="M0 20 L20 40 L40 20 L20 0 z" stroke-width="1.8px" class="" style="fill:#FFFFCC;stroke:#A6A61D;" />
          <polygon points="20,15.5 16.5,15.5 16.5,12 15.5,12 15.5,15.5 12,15.5 12,16.5 15.5,16.5 15.5,20 16.5,20 16.5,16.5 20,16.5 20,15.5" transform="translate(-16.8, -16.8) scale(2.3)" style="fill:#A6A61D;stroke:#A6A61D;" />
        </g>
      </g>
    </g>
  </g>
  <g class="djs-group">
    <g id="gfx-dbfda37d-251e-4f4f-9a9d-7712b330821b" display="block" class="djs-element djs-connection" data-element-id="dbfda37d-251e-4f4f-9a9d-7712b330821b">
      <g class="djs-visual">
        <g>
          <defs>
            <marker refX="9.8" refY="6" orient="auto" markerWidth="12" markerHeight="12" markerUnits="strokeWidth" id="arrowSecuenceFlowdbfda37d-251e-4f4f-9a9d-7712b330821b">
              <path d="M0 0 L2 6 L0 12 L10 6 z" style="fill:black;" />
            </marker>
          </defs>
          <path d="M383 104 L448 104" marker-end="url(#arrowSecuenceFlowdbfda37d-251e-4f4f-9a9d-7712b330821b)" stroke-width="1px" stroke-linejoin="round" shape-rendering="crispEdges" fill-opacity="0" class="" style="fill:transparent;stroke:black;" />
        </g>
      </g>
    </g>
  </g>
  <g class="djs-group">
    <g id="gfx-27499bda-74ac-4285-8e4d-6d58d73e2104" display="block" class="djs-element djs-connection" data-element-id="27499bda-74ac-4285-8e4d-6d58d73e2104">
      <g class="djs-visual">
        <g>
          <defs>
            <marker refX="9.8" refY="6" orient="auto" markerWidth="12" markerHeight="12" markerUnits="strokeWidth" id="arrowSecuenceFlow27499bda-74ac-4285-8e4d-6d58d73e2104">
              <path d="M0 0 L2 6 L0 12 L10 6 z" style="fill:black;" />
            </marker>
          </defs>
          <path d="M30 101 L67 101" marker-end="url(#arrowSecuenceFlow27499bda-74ac-4285-8e4d-6d58d73e2104)" stroke-width="1px" stroke-linejoin="round" shape-rendering="crispEdges" fill-opacity="0" class="" style="fill:transparent;stroke:black;" />
        </g>
      </g>
    </g>
  </g>
  <g class="djs-group">
    <g id="gfx-0d1cadaa-85bf-4d49-a0d9-a3c88af5376a" display="block" class="djs-element djs-connection" data-element-id="0d1cadaa-85bf-4d49-a0d9-a3c88af5376a">
      <g class="djs-visual">
        <g>
          <defs>
            <marker refX="9.8" refY="6" orient="auto" markerWidth="12" markerHeight="12" markerUnits="strokeWidth" id="arrowSecuenceFlow0d1cadaa-85bf-4d49-a0d9-a3c88af5376a">
              <path d="M0 0 L2 6 L0 12 L10 6 z" style="fill:black;" />
            </marker>
          </defs>
          <path d="M87 121 L87 157 C87 157 87 163 93 163 L143 163" marker-end="url(#arrowSecuenceFlow0d1cadaa-85bf-4d49-a0d9-a3c88af5376a)" stroke-width="1px" stroke-linejoin="round" shape-rendering="crispEdges" fill-opacity="0" class="" style="fill:transparent;stroke:black;" />
        </g>
      </g>
    </g>
  </g>
  <g class="djs-group">
    <g id="gfx-ab32d883-9eaa-4195-a83a-9148356687a5" display="block" class="djs-element djs-connection" data-element-id="ab32d883-9eaa-4195-a83a-9148356687a5">
      <g class="djs-visual">
        <g>
          <defs>
            <marker refX="9.8" refY="6" orient="auto" markerWidth="12" markerHeight="12" markerUnits="strokeWidth" id="arrowSecuenceFlowab32d883-9eaa-4195-a83a-9148356687a5">
              <path d="M0 0 L2 6 L0 12 L10 6 z" style="fill:black;" />
            </marker>
          </defs>
          <path d="M87 81 L87 51 C87 51 87 45 93 45 L143 45" marker-end="url(#arrowSecuenceFlowab32d883-9eaa-4195-a83a-9148356687a5)" stroke-width="1px" stroke-linejoin="round" shape-rendering="crispEdges" fill-opacity="0" class="" style="fill:transparent;stroke:black;" />
        </g>
      </g>
    </g>
  </g>
  <g class="djs-group">
    <g id="gfx-361d9db3-dc21-489b-8125-9b975f3dafba" display="block" class="djs-element djs-connection" data-element-id="361d9db3-dc21-489b-8125-9b975f3dafba">
      <g class="djs-visual">
        <g>
          <defs>
            <marker refX="9.8" refY="6" orient="auto" markerWidth="12" markerHeight="12" markerUnits="strokeWidth" id="arrowSecuenceFlow361d9db3-dc21-489b-8125-9b975f3dafba">
              <path d="M0 0 L2 6 L0 12 L10 6 z" style="fill:black;" />
            </marker>
          </defs>
          <path d="M273 45 L357 45 C357 45 363 45 363 51 L363 84" marker-end="url(#arrowSecuenceFlow361d9db3-dc21-489b-8125-9b975f3dafba)" stroke-width="1px" stroke-linejoin="round" shape-rendering="crispEdges" fill-opacity="0" class="" style="fill:transparent;stroke:black;" />
        </g>
      </g>
    </g>
  </g>
  <g class="djs-group">
    <g id="gfx-61ab535f-df9f-46a8-b1d6-a86d04201761" display="block" class="djs-element djs-connection" data-element-id="61ab535f-df9f-46a8-b1d6-a86d04201761">
      <g class="djs-visual">
        <g>
          <defs>
            <marker refX="9.8" refY="6" orient="auto" markerWidth="12" markerHeight="12" markerUnits="strokeWidth" id="arrowSecuenceFlow61ab535f-df9f-46a8-b1d6-a86d04201761">
              <path d="M0 0 L2 6 L0 12 L10 6 z" style="fill:black;" />
            </marker>
          </defs>
          <path d="M273 163 L357 163 C357 163 363 163 363 157 L363 124" marker-end="url(#arrowSecuenceFlow61ab535f-df9f-46a8-b1d6-a86d04201761)" stroke-width="1px" stroke-linejoin="round" shape-rendering="crispEdges" fill-opacity="0" class="" style="fill:transparent;stroke:black;" />
        </g>
      </g>
    </g>
  </g>
</svg>