<?xml version="1.0" encoding="utf-8"?>
<!DOCTYPE svg PUBLIC "-//W3C//DTD SVG 1.1//EN" "http://www.w3.org/Graphics/SVG/1.1/DTD/svg11.dtd">
<svg width="848" height="411px" viewBox="89, 40, 848, 411" xmlns="http://www.w3.org/2000/svg" xmlns:xlink="http://www.w3.org/1999/xlink" xmlns:xml="http://www.w3.org/XML/1998/namespace" version="1.1">
  <defs>
    <marker refX="9.8" refY="6" orient="auto" markerWidth="12" markerHeight="12" markerUnits="strokeWidth" id="arrowSecuenceFlowb51ea86e-1c9d-43c3-91fc-983ec913e434">
      <path d="M0 0 L2 6 L0 12 L10 6 z" style="fill:black;" />
    </marker>
  </defs>
  <g class="djs-group">
    <g transform="matrix(1, 0, 0, 1, 230, 197)" id="gfx-a4cc04b9-72a7-4ab3-886f-676c9ae06fdd" display="block" class="djs-element djs-shape" data-element-id="a4cc04b9-72a7-4ab3-886f-676c9ae06fdd">
      <g class="djs-visual">
        <g>
          <rect x="0" y="0" width="130" height="90" rx="8" stroke-width="2px" class="" style="fill:#ECEFFF;stroke:#03689A;" />
          <g transform="translate(-6, -11) scale(1.6)">
            <path d="M16.9 19.4 L10.7 19.4 A3.1 3.1 0 0 1 7.6 16 A4 4 0 0 1 9.3 12.6 L12 10.8 A1 1 0 0 1 12.9 10.7 A1 1 0 0 1 13.6 11.1 A1.3 1.3 0 0 1 13.2 12.7 L17.6 12.7 A0.9 0.9 0 0 1 18.6 13.6 A0.8 0.8 0 0 1 18.4 14.2 L18.4 14.2 A1.1 1.1 0 0 1 19.4 15.2 A1 1 0 0 1 18.7 16.1 A0.9 0.9 0 0 1 19 16.8 A0.9 0.9 0 0 1 18 17.7 L17.6 17.7 A1.4 1.4 0 0 1 17.8 18.3 A0.9 0.9 0 0 1 17.5 19 A0.9 0.9 0 0 1 16.9 19.4 z" style="fill:white;" />
            <path d="M16.9 19.4 L10.7 19.4 A3.1 3.1 0 0 1 7.6 16 A4 4 0 0 1 9.3 12.6 L12 10.8 A1 1 0 0 1 12.9 10.7 A1 1 0 0 1 13.6 11.1 A1.3 1.3 0 0 1 13.2 12.7 L17.6 12.7 A0.9 0.9 0 0 1 18.6 13.6 A0.8 0.8 0 0 1 18.4 14.2 L18.4 14.2 A1.1 1.1 0 0 1 19.4 15.2 A1 1 0 0 1 18.7 16.1 A0.9 0.9 0 0 1 19 16.8 A0.9 0.9 0 0 1 18 17.7 L17.6 17.7 A1.4 1.4 0 0 1 17.8 18.3 A0.9 0.9 0 0 1 17.5 19 A0.9 0.9 0 0 1 16.9 19.4 z M12.7 11.4 L12.4 11.4 L9.7 13.3 A2.9 2.9 0 0 0 8.4 16 A2.3 2.3 0 0 0 10.7 18.6 L17 18.6 C17 18.5 17.1 18.5 17.1 18.4 L16.9 18.2 L13.5 18.2 A0.6 0.6 0 0 1 12.9 17.6 A0.6 0.6 0 0 1 13.5 17.1 L18 17.1 A0.2 0.2 0 0 0 18.2 16.9 C18.2 16.7 18.1 16.6 18 16.6 L13.9 16.6 A0.6 0.6 0 0 1 13.3 16.1 A0.6 0.6 0 0 1 13.9 15.5 L18.4 15.5 L18.6 15.3 A0.2 0.2 0 0 0 18.4 15.1 L13.9 15.1 A0.6 0.6 0 0 1 13.9 13.9 L17.6 13.9 A0.2 0.2 0 0 0 17.8 13.7 L17.6 13.5 L11.9 13.5 C11.7 13.5 11.6 13.4 11.6 13.3 A0.4 0.4 0 0 1 11.7 12.8 L12.8 12 C13 11.9 13 11.7 12.9 11.5 L12.7 11.5 z" style="fill:#03689A;" />
          </g>
          <g />
        </g>
      </g>
      <svg width="130" height="86" class="djs-svg-text">
        <text font-family="'Segoe UI'" font-size="10.6252px" font-style="normal" font-weight="normal" lineHeight="1.2" textDirection="0" textAlign="center" class="djs-label" style="fill:black;">
          <tspan x="9.571754" y="41.75">3. Responder demanda </tspan>
          <tspan x="28.24749" y="54.75">conforme script</tspan>
        </text>
      </svg>
    </g>
  </g>
  <g class="djs-group">
    <g transform="matrix(1, 0, 0, 1, 397, 197)" id="gfx-046b91b2-9c78-4fae-af74-1beddc426e10" display="block" class="djs-element djs-shape" data-element-id="046b91b2-9c78-4fae-af74-1beddc426e10">
      <g class="djs-visual">
        <g>
          <rect x="0" y="0" width="130" height="90" rx="8" stroke-width="2px" class="" style="fill:#ECEFFF;stroke:#03689A;" />
          <g transform="translate(-6, -11) scale(1.6)">
            <path d="M16.9 19.4 L10.7 19.4 A3.1 3.1 0 0 1 7.6 16 A4 4 0 0 1 9.3 12.6 L12 10.8 A1 1 0 0 1 12.9 10.7 A1 1 0 0 1 13.6 11.1 A1.3 1.3 0 0 1 13.2 12.7 L17.6 12.7 A0.9 0.9 0 0 1 18.6 13.6 A0.8 0.8 0 0 1 18.4 14.2 L18.4 14.2 A1.1 1.1 0 0 1 19.4 15.2 A1 1 0 0 1 18.7 16.1 A0.9 0.9 0 0 1 19 16.8 A0.9 0.9 0 0 1 18 17.7 L17.6 17.7 A1.4 1.4 0 0 1 17.8 18.3 A0.9 0.9 0 0 1 17.5 19 A0.9 0.9 0 0 1 16.9 19.4 z" style="fill:white;" />
            <path d="M16.9 19.4 L10.7 19.4 A3.1 3.1 0 0 1 7.6 16 A4 4 0 0 1 9.3 12.6 L12 10.8 A1 1 0 0 1 12.9 10.7 A1 1 0 0 1 13.6 11.1 A1.3 1.3 0 0 1 13.2 12.7 L17.6 12.7 A0.9 0.9 0 0 1 18.6 13.6 A0.8 0.8 0 0 1 18.4 14.2 L18.4 14.2 A1.1 1.1 0 0 1 19.4 15.2 A1 1 0 0 1 18.7 16.1 A0.9 0.9 0 0 1 19 16.8 A0.9 0.9 0 0 1 18 17.7 L17.6 17.7 A1.4 1.4 0 0 1 17.8 18.3 A0.9 0.9 0 0 1 17.5 19 A0.9 0.9 0 0 1 16.9 19.4 z M12.7 11.4 L12.4 11.4 L9.7 13.3 A2.9 2.9 0 0 0 8.4 16 A2.3 2.3 0 0 0 10.7 18.6 L17 18.6 C17 18.5 17.1 18.5 17.1 18.4 L16.9 18.2 L13.5 18.2 A0.6 0.6 0 0 1 12.9 17.6 A0.6 0.6 0 0 1 13.5 17.1 L18 17.1 A0.2 0.2 0 0 0 18.2 16.9 C18.2 16.7 18.1 16.6 18 16.6 L13.9 16.6 A0.6 0.6 0 0 1 13.3 16.1 A0.6 0.6 0 0 1 13.9 15.5 L18.4 15.5 L18.6 15.3 A0.2 0.2 0 0 0 18.4 15.1 L13.9 15.1 A0.6 0.6 0 0 1 13.9 13.9 L17.6 13.9 A0.2 0.2 0 0 0 17.8 13.7 L17.6 13.5 L11.9 13.5 C11.7 13.5 11.6 13.4 11.6 13.3 A0.4 0.4 0 0 1 11.7 12.8 L12.8 12 C13 11.9 13 11.7 12.9 11.5 L12.7 11.5 z" style="fill:#03689A;" />
          </g>
          <g />
        </g>
      </g>
      <svg width="130" height="86" class="djs-svg-text">
        <text font-family="'Segoe UI'" font-size="10.6252px" font-style="normal" font-weight="normal" lineHeight="1.2" textDirection="0" textAlign="center" class="djs-label" style="fill:black;">
          <tspan x="16.10555" y="41.75">4. Analisar demanda </tspan>
          <tspan x="44.91122" y="54.75">recebida</tspan>
        </text>
      </svg>
    </g>
  </g>
  <g class="djs-group">
    <g transform="matrix(1, 0, 0, 1, 686, 63)" id="gfx-0bb7a392-a12f-4265-9a2c-1ff086dfce06" display="block" class="djs-element djs-shape" data-element-id="0bb7a392-a12f-4265-9a2c-1ff086dfce06">
      <g class="djs-visual">
        <g>
          <rect x="0" y="0" width="130" height="90" rx="8" stroke-width="2px" class="" style="fill:#ECEFFF;stroke:#03689A;" />
          <g transform="translate(-6, -11) scale(1.6)">
            <path d="M16.9 19.4 L10.7 19.4 A3.1 3.1 0 0 1 7.6 16 A4 4 0 0 1 9.3 12.6 L12 10.8 A1 1 0 0 1 12.9 10.7 A1 1 0 0 1 13.6 11.1 A1.3 1.3 0 0 1 13.2 12.7 L17.6 12.7 A0.9 0.9 0 0 1 18.6 13.6 A0.8 0.8 0 0 1 18.4 14.2 L18.4 14.2 A1.1 1.1 0 0 1 19.4 15.2 A1 1 0 0 1 18.7 16.1 A0.9 0.9 0 0 1 19 16.8 A0.9 0.9 0 0 1 18 17.7 L17.6 17.7 A1.4 1.4 0 0 1 17.8 18.3 A0.9 0.9 0 0 1 17.5 19 A0.9 0.9 0 0 1 16.9 19.4 z" style="fill:white;" />
            <path d="M16.9 19.4 L10.7 19.4 A3.1 3.1 0 0 1 7.6 16 A4 4 0 0 1 9.3 12.6 L12 10.8 A1 1 0 0 1 12.9 10.7 A1 1 0 0 1 13.6 11.1 A1.3 1.3 0 0 1 13.2 12.7 L17.6 12.7 A0.9 0.9 0 0 1 18.6 13.6 A0.8 0.8 0 0 1 18.4 14.2 L18.4 14.2 A1.1 1.1 0 0 1 19.4 15.2 A1 1 0 0 1 18.7 16.1 A0.9 0.9 0 0 1 19 16.8 A0.9 0.9 0 0 1 18 17.7 L17.6 17.7 A1.4 1.4 0 0 1 17.8 18.3 A0.9 0.9 0 0 1 17.5 19 A0.9 0.9 0 0 1 16.9 19.4 z M12.7 11.4 L12.4 11.4 L9.7 13.3 A2.9 2.9 0 0 0 8.4 16 A2.3 2.3 0 0 0 10.7 18.6 L17 18.6 C17 18.5 17.1 18.5 17.1 18.4 L16.9 18.2 L13.5 18.2 A0.6 0.6 0 0 1 12.9 17.6 A0.6 0.6 0 0 1 13.5 17.1 L18 17.1 A0.2 0.2 0 0 0 18.2 16.9 C18.2 16.7 18.1 16.6 18 16.6 L13.9 16.6 A0.6 0.6 0 0 1 13.3 16.1 A0.6 0.6 0 0 1 13.9 15.5 L18.4 15.5 L18.6 15.3 A0.2 0.2 0 0 0 18.4 15.1 L13.9 15.1 A0.6 0.6 0 0 1 13.9 13.9 L17.6 13.9 A0.2 0.2 0 0 0 17.8 13.7 L17.6 13.5 L11.9 13.5 C11.7 13.5 11.6 13.4 11.6 13.3 A0.4 0.4 0 0 1 11.7 12.8 L12.8 12 C13 11.9 13 11.7 12.9 11.5 L12.7 11.5 z" style="fill:#03689A;" />
          </g>
          <g />
        </g>
      </g>
      <svg width="130" height="86" class="djs-svg-text">
        <text font-family="'Segoe UI'" font-size="10.6252px" font-style="normal" font-weight="normal" lineHeight="1.2" textDirection="0" textAlign="center" class="djs-label" style="fill:black;">
          <tspan x="11.81972" y="41.75">5. Atualizar script com </tspan>
          <tspan x="18.75794" y="54.75">demanda frequente</tspan>
        </text>
      </svg>
    </g>
  </g>
  <g class="djs-group">
    <g transform="matrix(1, 0, 0, 1, 729, 227)" id="gfx-7a5c1fb9-9b36-4fa1-b22e-890f0016bb55" display="block" class="djs-element djs-shape" data-element-id="7a5c1fb9-9b36-4fa1-b22e-890f0016bb55">
      <g class="djs-visual">
        <g>
          <g transform="translate(-8.90625, -8.90625) scale(1.5)">
            <path d="M16 25.2 A9.2 9.2 0 1 1 25.2 16 A9.2 9.2 0 0 1 16 25.2 z" style="fill:#EEAAAA;" />
            <path d="M16 7.5 A8.5 8.5 0 1 1 7.5 16 A8.5 8.5 0 0 1 16 7.5 M16 6 A10 10 0 1 0 26 16 A10 10 0 0 0 16 6 z" stroke-width="0.4px" class="" style="fill:#990000;stroke:#990000;" />
          </g>
        </g>
      </g>
    </g>
  </g>
  <g class="djs-group">
    <g transform="matrix(1, 0, 0, 1, 699, 265)" id="gfx-32d1f788-7439-4522-a2f4-5c085f83fc5a" display="block" class="djs-element djs-shape" data-element-id="32d1f788-7439-4522-a2f4-5c085f83fc5a">
      <g class="djs-visual">
        <rect x="0" y="0" width="90" height="36" fill-opacity="0" stroke-opacity="0" style="fill:#FFFFFF;stroke:transparent;" />
        <svg width="90" height="31" class="djs-svg-text">
          <text font-family="'Segoe UI'" font-size="10.6252px" font-style="normal" font-weight="normal" lineHeight="1.2" textDirection="0" textAlign="center" class="djs-label" style="fill:black;">
            <tspan x="20.93649" y="14.75">Demanda </tspan>
            <tspan x="25.51534" y="27.75">pontual </tspan>
            <tspan x="18.64449" y="40.75">respondida</tspan>
          </text>
        </svg>
      </g>
    </g>
  </g>
  <g class="djs-group">
    <g transform="matrix(1, 0, 0, 1, 856, 93)" id="gfx-6522ce4d-a518-4fb5-beb2-82b9747662f5" display="block" class="djs-element djs-shape" data-element-id="6522ce4d-a518-4fb5-beb2-82b9747662f5">
      <g class="djs-visual">
        <g>
          <g transform="translate(-8.90625, -8.90625) scale(1.5)">
            <path d="M16 25.2 A9.2 9.2 0 1 1 25.2 16 A9.2 9.2 0 0 1 16 25.2 z" style="fill:#EEAAAA;" />
            <path d="M16 7.5 A8.5 8.5 0 1 1 7.5 16 A8.5 8.5 0 0 1 16 7.5 M16 6 A10 10 0 1 0 26 16 A10 10 0 0 0 16 6 z" stroke-width="0.4px" class="" style="fill:#990000;stroke:#990000;" />
          </g>
        </g>
      </g>
    </g>
  </g>
  <g class="djs-group">
    <g transform="matrix(1, 0, 0, 1, 826, 131)" id="gfx-a42568e5-d962-4f89-92bc-3c36526d0921" display="block" class="djs-element djs-shape" data-element-id="a42568e5-d962-4f89-92bc-3c36526d0921">
      <g class="djs-visual">
        <rect x="0" y="0" width="95" height="53" fill-opacity="0" stroke-opacity="0" style="fill:#FFFFFF;stroke:transparent;" />
        <svg width="95" height="48" class="djs-svg-text">
          <text font-family="'Segoe UI'" font-size="10.6252px" font-style="normal" font-weight="normal" lineHeight="1.2" textDirection="0" textAlign="center" class="djs-label" style="fill:black;">
            <tspan x="8.598091" y="14.75">Script atualizado</tspan>
          </text>
        </svg>
      </g>
    </g>
  </g>
  <g class="djs-group">
    <g transform="matrix(1, 0, 0, 1, 559, 222)" id="gfx-cea09067-39c2-46e9-9281-9eb92d0a8982" display="block" class="djs-element djs-shape" data-element-id="cea09067-39c2-46e9-9281-9eb92d0a8982">
      <g class="djs-visual">
        <g>
          <path d="M0 20 L20 40 L40 20 L20 0 z" stroke-width="1.8px" class="" style="fill:#FFFFCC;stroke:#A6A61D;" />
        </g>
      </g>
    </g>
  </g>
  <g class="djs-group">
    <g transform="matrix(1, 0, 0, 1, 243, 116)" id="gfx-6f1c6cb3-49fb-44c0-abfb-f6595f3cc435" display="block" class="djs-element djs-shape" data-element-id="6f1c6cb3-49fb-44c0-abfb-f6595f3cc435">
      <g class="djs-visual">
        <g>
          <rect x="0" y="0" width="100" height="60" class="" style="fill:#D5D5D5;" />
          <path d="M33.33333 0 L0 0 L0 60 L33.33333 60" stroke-width="0.4px" shape-rendering="crispEdges" fill-opacity="0" style="fill:transparent;stroke:black;" />
        </g>
      </g>
      <svg width="100" height="60" class="djs-svg-text">
        <text font-family="'Segoe UI'" font-size="10.6252px" font-style="normal" font-weight="normal" lineHeight="1.2" textDirection="0" textAlign="center" class="djs-label" style="fill:black;">
          <tspan x="8.676437" y="33.25">via e-mail e 0800 </tspan>
        </text>
      </svg>
    </g>
  </g>
  <g class="djs-group">
    <g transform="matrix(1, 0, 0, 1, 246, 305)" id="gfx-e3c17bd8-b425-41e9-b903-6b4fb014a5d9" display="block" class="djs-element djs-shape" data-element-id="e3c17bd8-b425-41e9-b903-6b4fb014a5d9">
      <g class="djs-visual">
        <g>
          <rect x="0" y="0" width="100" height="60" class="" style="fill:#D5D5D5;" />
          <path d="M33.33333 0 L0 0 L0 60 L33.33333 60" stroke-width="0.4px" shape-rendering="crispEdges" fill-opacity="0" style="fill:transparent;stroke:black;" />
        </g>
      </g>
      <svg width="100" height="60" class="djs-svg-text">
        <text font-family="'Segoe UI'" font-size="10.6252px" font-style="normal" font-weight="normal" lineHeight="1.2" textDirection="0" textAlign="center" class="djs-label" style="fill:black;">
          <tspan x="8.704956" y="20.25">Conforme scripts </tspan>
          <tspan x="13.77382" y="33.25">dos 3 níveis de </tspan>
          <tspan x="20.03796" y="46.25">atendimento</tspan>
        </text>
      </svg>
    </g>
  </g>
  <g class="djs-group">
    <g transform="matrix(1, 0, 0, 1, 135, 227)" id="gfx-5b174f54-0b22-40e4-90d7-581439efcfc3" display="block" class="djs-element djs-shape" data-element-id="5b174f54-0b22-40e4-90d7-581439efcfc3">
      <g class="djs-visual">
        <g>
          <g transform="translate(-8.90625, -8.90625) scale(1.5)">
            <path d="M15.9 25.5 A9.5 9.5 0 1 1 25.4 16 A9.6 9.6 0 0 1 15.9 25.5 z" style="fill:#FEFAEF;" />
            <path d="M15.9 7 A9 9 0 1 1 6.9 16 A9 9 0 0 1 15.9 7 M15.9 6 A10 10 0 1 0 25.9 16 A10 10 0 0 0 15.9 6 z" class="" style="fill:#969149;" />
            <path d="M15.9 8.8 A7.2 7.2 0 1 1 8.7 16 A7.3 7.3 0 0 1 15.9 8.8 M15.9 7.8 A8.2 8.2 0 0 0 15.9 24.2 A8.2 8.2 0 1 0 15.9 7.800001 z" class="" style="fill:#969149;" />
            <g>
              <path d="M20 20 L12 20 L12 12 L20 12 z M13 19 L19 19 L19 13 L13 13 z" style="fill:#969149;" />
              <rect x="15" y="16.5" width="2" height="1" style="fill:#969149;" />
              <rect x="15" y="14.5" width="2" height="1" style="fill:#969149;" />
            </g>
          </g>
        </g>
      </g>
    </g>
  </g>
  <g class="djs-group">
    <g transform="matrix(1, 0, 0, 1, 105, 265)" id="gfx-5aeb8604-9c76-4af9-b2ae-b66cdf391253" display="block" class="djs-element djs-shape" data-element-id="5aeb8604-9c76-4af9-b2ae-b66cdf391253">
      <g class="djs-visual">
        <rect x="0" y="0" width="90" height="36" fill-opacity="0" stroke-opacity="0" style="fill:#FFFFFF;stroke:transparent;" />
        <svg width="90" height="31" class="djs-svg-text">
          <text font-family="'Segoe UI'" font-size="10.6252px" font-style="normal" font-weight="normal" lineHeight="1.2" textDirection="0" textAlign="center" class="djs-label" style="fill:black;">
            <tspan x="20.93649" y="14.75">Demanda </tspan>
            <tspan x="24.91122" y="27.75">recebida</tspan>
          </text>
        </svg>
      </g>
    </g>
  </g>
  <g class="djs-group">
    <g id="gfx-b51ea86e-1c9d-43c3-91fc-983ec913e434" display="block" class="djs-element djs-connection" data-element-id="b51ea86e-1c9d-43c3-91fc-983ec913e434">
      <g class="djs-visual">
        <g>
          <defs>
            <marker refX="9.8" refY="6" orient="auto" markerWidth="12" markerHeight="12" markerUnits="strokeWidth" id="arrowSecuenceFlowb51ea86e-1c9d-43c3-91fc-983ec913e434#1">
              <path d="M0 0 L2 6 L0 12 L10 6 z" style="fill:black;" />
            </marker>
          </defs>
          <path d="M579 222 L579 114 C579 114 579 108 585 108 L686 108" marker-end="url(#arrowSecuenceFlowb51ea86e-1c9d-43c3-91fc-983ec913e434)" stroke-width="1px" stroke-linejoin="round" shape-rendering="crispEdges" fill-opacity="0" class="" style="fill:transparent;stroke:black;" />
        </g>
      </g>
    </g>
  </g>
  <g class="djs-group">
    <g transform="matrix(1, 0, 0, 1, 607, 56)" id="gfx-6c92d5e1-c724-4772-bce9-2dae22245d40" display="block" class="djs-element djs-shape" data-element-id="6c92d5e1-c724-4772-bce9-2dae22245d40">
      <g class="djs-visual">
        <rect x="0" y="0" width="90" height="36" fill-opacity="0" stroke-opacity="0" style="fill:#FFFFFF;stroke:transparent;" />
        <svg width="90" height="31" class="djs-svg-text">
          <text font-family="'Segoe UI'" font-size="10.6252px" font-style="normal" font-weight="normal" lineHeight="1.2" textDirection="0" textAlign="left" class="djs-label" style="fill:black;">
            <tspan x="6" y="14.75">Demanda </tspan>
            <tspan x="6" y="27.75">frequente</tspan>
          </text>
        </svg>
      </g>
    </g>
  </g>
  <g class="djs-group">
    <g id="gfx-81c806bc-fbb8-4371-aace-818f70aa4f8a" display="block" class="djs-element djs-connection" data-element-id="81c806bc-fbb8-4371-aace-818f70aa4f8a">
      <g class="djs-visual">
        <g>
          <defs>
            <marker refX="9.8" refY="6" orient="auto" markerWidth="12" markerHeight="12" markerUnits="strokeWidth" id="arrowSecuenceFlow81c806bc-fbb8-4371-aace-818f70aa4f8a">
              <path d="M0 0 L2 6 L0 12 L10 6 z" style="fill:black;" />
            </marker>
          </defs>
          <path d="M165 242 L230 242" marker-end="url(#arrowSecuenceFlow81c806bc-fbb8-4371-aace-818f70aa4f8a)" stroke-width="1px" stroke-linejoin="round" shape-rendering="crispEdges" fill-opacity="0" class="" style="fill:transparent;stroke:black;" />
        </g>
      </g>
    </g>
  </g>
  <g class="djs-group">
    <g id="gfx-9e48d264-6828-4773-9879-2de1394f2a89" display="block" class="djs-element djs-connection" data-element-id="9e48d264-6828-4773-9879-2de1394f2a89">
      <g class="djs-visual">
        <g>
          <defs>
            <marker refX="9.8" refY="6" orient="auto" markerWidth="12" markerHeight="12" markerUnits="strokeWidth" id="arrowSecuenceFlow9e48d264-6828-4773-9879-2de1394f2a89">
              <path d="M0 0 L2 6 L0 12 L10 6 z" style="fill:black;" />
            </marker>
          </defs>
          <path d="M360 242 L397 242" marker-end="url(#arrowSecuenceFlow9e48d264-6828-4773-9879-2de1394f2a89)" stroke-width="1px" stroke-linejoin="round" shape-rendering="crispEdges" fill-opacity="0" class="" style="fill:transparent;stroke:black;" />
        </g>
      </g>
    </g>
  </g>
  <g class="djs-group">
    <g id="gfx-bd5c4936-e423-4b15-8e91-8d249f2610fc" display="block" class="djs-element djs-connection" data-element-id="bd5c4936-e423-4b15-8e91-8d249f2610fc">
      <g class="djs-visual">
        <g>
          <defs>
            <marker refX="9.8" refY="6" orient="auto" markerWidth="12" markerHeight="12" markerUnits="strokeWidth" id="arrowSecuenceFlowbd5c4936-e423-4b15-8e91-8d249f2610fc">
              <path d="M0 0 L2 6 L0 12 L10 6 z" style="fill:black;" />
            </marker>
          </defs>
          <path d="M527 242 L559 242" marker-end="url(#arrowSecuenceFlowbd5c4936-e423-4b15-8e91-8d249f2610fc)" stroke-width="1px" stroke-linejoin="round" shape-rendering="crispEdges" fill-opacity="0" class="" style="fill:transparent;stroke:black;" />
        </g>
      </g>
    </g>
  </g>
  <g class="djs-group">
    <g id="gfx-001d1049-5a4e-4d41-9f03-9980fa47b6cc" display="block" class="djs-element djs-connection" data-element-id="001d1049-5a4e-4d41-9f03-9980fa47b6cc">
      <g class="djs-visual">
        <g>
          <defs>
            <marker refX="9.8" refY="6" orient="auto" markerWidth="12" markerHeight="12" markerUnits="strokeWidth" id="arrowSecuenceFlow001d1049-5a4e-4d41-9f03-9980fa47b6cc">
              <path d="M0 0 L2 6 L0 12 L10 6 z" style="fill:black;" />
            </marker>
          </defs>
          <path d="M599 242 L729 242" marker-end="url(#arrowSecuenceFlow001d1049-5a4e-4d41-9f03-9980fa47b6cc)" stroke-width="1px" stroke-linejoin="round" shape-rendering="crispEdges" fill-opacity="0" class="" style="fill:transparent;stroke:black;" />
        </g>
      </g>
    </g>
  </g>
  <g class="djs-group">
    <g transform="matrix(1, 0, 0, 1, 625, 237)" id="gfx-4b1aa7ca-3dd1-4b89-b365-ed82f2a60186" display="block" class="djs-element djs-shape" data-element-id="4b1aa7ca-3dd1-4b89-b365-ed82f2a60186">
      <g class="djs-visual">
        <rect x="0" y="0" width="90" height="36" fill-opacity="0" stroke-opacity="0" style="fill:#FFFFFF;stroke:transparent;" />
        <svg width="90" height="31" class="djs-svg-text">
          <text font-family="'Segoe UI'" font-size="10.6252px" font-style="normal" font-weight="normal" lineHeight="1.2" textDirection="0" textAlign="left" class="djs-label" style="fill:black;">
            <tspan x="6" y="14.75">Demanda </tspan>
            <tspan x="6" y="27.75">pontual</tspan>
          </text>
        </svg>
      </g>
    </g>
  </g>
  <g class="djs-group">
    <g id="gfx-62e89c81-c60a-40e4-8522-01c15575b2f9" display="block" class="djs-element djs-connection" data-element-id="62e89c81-c60a-40e4-8522-01c15575b2f9">
      <g class="djs-visual">
        <g>
          <defs>
            <marker refX="9.8" refY="6" orient="auto" markerWidth="12" markerHeight="12" markerUnits="strokeWidth" id="arrowSecuenceFlow62e89c81-c60a-40e4-8522-01c15575b2f9">
              <path d="M0 0 L2 6 L0 12 L10 6 z" style="fill:black;" />
            </marker>
          </defs>
          <path d="M816 108 L856 108" marker-end="url(#arrowSecuenceFlow62e89c81-c60a-40e4-8522-01c15575b2f9)" stroke-width="1px" stroke-linejoin="round" shape-rendering="crispEdges" fill-opacity="0" class="" style="fill:transparent;stroke:black;" />
        </g>
      </g>
    </g>
  </g>
  <g class="djs-group">
    <g id="gfx-934d107c-5d03-4a80-a848-7216a37ebe42" display="block" class="djs-element djs-connection" data-element-id="934d107c-5d03-4a80-a848-7216a37ebe42">
      <g class="djs-visual">
        <g>
          <defs>
            <marker refX="5.5" refY="4" orient="auto" markerWidth="10" markerHeight="8" id="arrowAssociation934d107c-5d03-4a80-a848-7216a37ebe42">
              <path d="M0 0 L4.5 4 L0 8" stroke-width="0.7px" stroke-dasharray="0" style="stroke:black;" />
            </marker>
          </defs>
          <path d="M295 287 L295 296 L296 296 L296 305" stroke-width="1.5px" stroke-linejoin="round" stroke-dasharray="2 5" shape-rendering="crispEdges" fill-opacity="0" class="" style="fill:transparent;stroke:black;" />
        </g>
      </g>
    </g>
  </g>
  <g class="djs-group">
    <g id="gfx-3a089772-79b2-45b9-9d70-3cbca440097d" display="block" class="djs-element djs-connection" data-element-id="3a089772-79b2-45b9-9d70-3cbca440097d">
      <g class="djs-visual">
        <g>
          <defs>
            <marker refX="5.5" refY="4" orient="auto" markerWidth="10" markerHeight="8" id="arrowAssociation3a089772-79b2-45b9-9d70-3cbca440097d">
              <path d="M0 0 L4.5 4 L0 8" stroke-width="0.7px" stroke-dasharray="0" style="stroke:black;" />
            </marker>
          </defs>
          <path d="M295 197 L295 186.5 L293 186.5 L293 176" stroke-width="1.5px" stroke-linejoin="round" stroke-dasharray="2 5" shape-rendering="crispEdges" fill-opacity="0" class="" style="fill:transparent;stroke:black;" />
        </g>
      </g>
    </g>
  </g>
</svg>