<?xml version="1.0" encoding="utf-8"?>
<!DOCTYPE svg PUBLIC "-//W3C//DTD SVG 1.1//EN" "http://www.w3.org/Graphics/SVG/1.1/DTD/svg11.dtd">
<svg width="557" height="329px" viewBox="104, 32, 557, 329" xmlns="http://www.w3.org/2000/svg" xmlns:xlink="http://www.w3.org/1999/xlink" xmlns:xml="http://www.w3.org/XML/1998/namespace" version="1.1">
  <defs>
    <marker refX="9.8" refY="6" orient="auto" markerWidth="12" markerHeight="12" markerUnits="strokeWidth" id="arrowSecuenceFlowfc4ccd64-f3e7-4b67-b2bb-0e4be8460d74">
      <path d="M0 0 L2 6 L0 12 L10 6 z" style="fill:black;" />
    </marker>
  </defs>
  <g class="djs-group">
    <g transform="matrix(1, 0, 0, 1, 243, 171)" id="gfx-f94a811c-d1d6-41b4-a43e-f62970b5c845" display="block" class="djs-element djs-shape" data-element-id="f94a811c-d1d6-41b4-a43e-f62970b5c845">
      <g class="djs-visual">
        <g>
          <rect x="0" y="0" width="130" height="90" rx="8" stroke-width="2px" class="" style="fill:#ECEFFF;stroke:#03689A;" />
          <g transform="translate(-6, -11) scale(1.6)">
            <path d="M17 16.5 A5.7 5.7 0 0 0 14.4 14.6 L14.2 14.4 C14.2 14.3 14.3 14.3 14.3 14.2 A1.9 1.9 0 0 0 14.8 12.9 A2.3 2.3 0 0 0 12.7 10.6 A2.5 2.5 0 0 0 10.3 12.9 A2.4 2.4 0 0 0 10.5 13.7 L10.7 13.9 C10.8 14.2 11 14.2 11.2 14.4 L11.2 14.6 L10.6 14.6 A5 5 0 0 0 8 16.7 L8 16.7 L8 19.6 L17 19.6 L17 16.6 z M11.6 14.6 L11.9 14.3 L11.6 14.3 A1.6 1.6 0 0 1 10.8 13 A3.7 3.7 0 0 1 12.5 12.4 C12.6 12.4 12.7 12.7 12.8 12.8 L13.3 12.8 A2.4 2.4 0 0 0 14.3 12.5 A2.3 2.3 0 0 1 13.4 14.4 L13.4 14.4 L13.6 14.8 L13.6 14.8 A0.8 0.8 0 0 1 13.4 15.7 A1.5 1.5 0 0 1 12.5 16.1 A1 1 0 0 1 11.7 15.7 C11.3 15.3 11.3 15.1 11.3 14.9 C11.3 14.7 11.4 14.8 11.6 14.6 z M16.5 19.1 L15.4 19.1 L15.4 18 L14.8 18 L14.8 19.1 L10.2 19.1 L10.2 18 L9.7 18 L9.7 19.2 L8.5 19.2 L8.5 16.9 A5.2 5.2 0 0 1 10.8 15.1 L10.9 15.1 C10.9 15.5 10.7 15.8 11.2 16.3 A2.7 2.7 0 0 0 12.5 16.8 A2.2 2.2 0 0 0 13.9 16.2 A1.1 1.1 0 0 0 14.2 15.2 A4.6 4.6 0 0 1 16.5 16.9 z" style="fill:white;" />
            <path d="M12.7 10.6 A2.5 2.5 0 0 0 10.3 12.9 A2.4 2.4 0 0 0 10.5 13.7 L10.7 13.9 C10.8 14.2 11 14.2 11.2 14.4 L11.2 14.6 L10.6 14.6 A5 5 0 0 0 8 16.7 L8 16.7 L8 19.6 L17 19.6 L17 16.6 L17 16.6 A5.7 5.7 0 0 0 14.4 14.7 L14.2 14.5 C14.2 14.4 14.3 14.4 14.3 14.3 A1.9 1.9 0 0 0 14.8 13 A2.3 2.3 0 0 0 12.7 10.7 z M12.5 16.3 A1 1 0 0 1 11.7 15.9 C11.3 15.5 11.3 15.3 11.3 15.1 C11.3 14.9 11.4 14.8 11.6 14.6 L11.9 14.3 L11.6 14.3 A1.6 1.6 0 0 1 10.8 13 A3.7 3.7 0 0 1 12.5 12.4 C12.6 12.4 12.7 12.7 12.8 12.8 L13.3 12.8 A2.4 2.4 0 0 0 14.3 12.5 A2.3 2.3 0 0 1 13.4 14.4 L13.4 14.4 L13.6 14.8 L13.6 14.8 A0.8 0.8 0 0 1 13.4 15.7 A1.5 1.5 0 0 1 12.5 16.1 z M10.8 15.1 L10.9 15.1 C10.9 15.5 10.7 15.8 11.2 16.3 A2.7 2.7 0 0 0 12.5 16.8 A2.2 2.2 0 0 0 13.9 16.2 A1.1 1.1 0 0 0 14.2 15.2 A4.6 4.6 0 0 1 16.5 16.9 L16.5 19.1 L15.4 19.1 L15.4 18 L14.8 18 L14.8 19.1 L10.2 19.1 L10.2 18 L9.7 18 L9.7 19.2 L8.5 19.2 L8.5 16.9 A5.2 5.2 0 0 1 10.8 15.1 z" style="fill:#03689A;" />
          </g>
          <g />
        </g>
      </g>
      <svg width="130" height="86" class="djs-svg-text">
        <text font-family="'Segoe UI'" font-size="10.6252px" font-style="normal" font-weight="normal" lineHeight="1.2" textDirection="0" textAlign="center" class="djs-label" style="fill:black;">
          <tspan x="27.83525" y="35.25">12. Acessar link </tspan>
          <tspan x="16.28445" y="48.25">disponibilizado pelo </tspan>
          <tspan x="37.8848" y="61.25">Centro EAD</tspan>
        </text>
      </svg>
    </g>
  </g>
  <g class="djs-group">
    <g transform="matrix(1, 0, 0, 1, 415, 171)" id="gfx-537df937-1a78-4b1d-8ae2-c97eb438e9f0" display="block" class="djs-element djs-shape" data-element-id="537df937-1a78-4b1d-8ae2-c97eb438e9f0">
      <g class="djs-visual">
        <g>
          <rect x="0" y="0" width="130" height="90" rx="8" stroke-width="2px" class="" style="fill:#ECEFFF;stroke:#03689A;" />
          <g transform="translate(-6, -11) scale(1.6)">
            <path d="M17 16.5 A5.7 5.7 0 0 0 14.4 14.6 L14.2 14.4 C14.2 14.3 14.3 14.3 14.3 14.2 A1.9 1.9 0 0 0 14.8 12.9 A2.3 2.3 0 0 0 12.7 10.6 A2.5 2.5 0 0 0 10.3 12.9 A2.4 2.4 0 0 0 10.5 13.7 L10.7 13.9 C10.8 14.2 11 14.2 11.2 14.4 L11.2 14.6 L10.6 14.6 A5 5 0 0 0 8 16.7 L8 16.7 L8 19.6 L17 19.6 L17 16.6 z M11.6 14.6 L11.9 14.3 L11.6 14.3 A1.6 1.6 0 0 1 10.8 13 A3.7 3.7 0 0 1 12.5 12.4 C12.6 12.4 12.7 12.7 12.8 12.8 L13.3 12.8 A2.4 2.4 0 0 0 14.3 12.5 A2.3 2.3 0 0 1 13.4 14.4 L13.4 14.4 L13.6 14.8 L13.6 14.8 A0.8 0.8 0 0 1 13.4 15.7 A1.5 1.5 0 0 1 12.5 16.1 A1 1 0 0 1 11.7 15.7 C11.3 15.3 11.3 15.1 11.3 14.9 C11.3 14.7 11.4 14.8 11.6 14.6 z M16.5 19.1 L15.4 19.1 L15.4 18 L14.8 18 L14.8 19.1 L10.2 19.1 L10.2 18 L9.7 18 L9.7 19.2 L8.5 19.2 L8.5 16.9 A5.2 5.2 0 0 1 10.8 15.1 L10.9 15.1 C10.9 15.5 10.7 15.8 11.2 16.3 A2.7 2.7 0 0 0 12.5 16.8 A2.2 2.2 0 0 0 13.9 16.2 A1.1 1.1 0 0 0 14.2 15.2 A4.6 4.6 0 0 1 16.5 16.9 z" style="fill:white;" />
            <path d="M12.7 10.6 A2.5 2.5 0 0 0 10.3 12.9 A2.4 2.4 0 0 0 10.5 13.7 L10.7 13.9 C10.8 14.2 11 14.2 11.2 14.4 L11.2 14.6 L10.6 14.6 A5 5 0 0 0 8 16.7 L8 16.7 L8 19.6 L17 19.6 L17 16.6 L17 16.6 A5.7 5.7 0 0 0 14.4 14.7 L14.2 14.5 C14.2 14.4 14.3 14.4 14.3 14.3 A1.9 1.9 0 0 0 14.8 13 A2.3 2.3 0 0 0 12.7 10.7 z M12.5 16.3 A1 1 0 0 1 11.7 15.9 C11.3 15.5 11.3 15.3 11.3 15.1 C11.3 14.9 11.4 14.8 11.6 14.6 L11.9 14.3 L11.6 14.3 A1.6 1.6 0 0 1 10.8 13 A3.7 3.7 0 0 1 12.5 12.4 C12.6 12.4 12.7 12.7 12.8 12.8 L13.3 12.8 A2.4 2.4 0 0 0 14.3 12.5 A2.3 2.3 0 0 1 13.4 14.4 L13.4 14.4 L13.6 14.8 L13.6 14.8 A0.8 0.8 0 0 1 13.4 15.7 A1.5 1.5 0 0 1 12.5 16.1 z M10.8 15.1 L10.9 15.1 C10.9 15.5 10.7 15.8 11.2 16.3 A2.7 2.7 0 0 0 12.5 16.8 A2.2 2.2 0 0 0 13.9 16.2 A1.1 1.1 0 0 0 14.2 15.2 A4.6 4.6 0 0 1 16.5 16.9 L16.5 19.1 L15.4 19.1 L15.4 18 L14.8 18 L14.8 19.1 L10.2 19.1 L10.2 18 L9.7 18 L9.7 19.2 L8.5 19.2 L8.5 16.9 A5.2 5.2 0 0 1 10.8 15.1 z" style="fill:#03689A;" />
          </g>
          <g />
        </g>
      </g>
      <svg width="130" height="86" class="djs-svg-text">
        <text font-family="'Segoe UI'" font-size="10.6252px" font-style="normal" font-weight="normal" lineHeight="1.2" textDirection="0" textAlign="center" class="djs-label" style="fill:black;">
          <tspan x="17.47453" y="41.75">13. Gerar relatórios  </tspan>
          <tspan x="18.79684" y="54.75">sobre a capacitação</tspan>
        </text>
      </svg>
    </g>
  </g>
  <g class="djs-group">
    <g transform="matrix(1, 0, 0, 1, 585, 201)" id="gfx-c679be61-5834-4641-8af5-30d697c74d25" display="block" class="djs-element djs-shape" data-element-id="c679be61-5834-4641-8af5-30d697c74d25">
      <g class="djs-visual">
        <g>
          <g transform="translate(-8.90625, -8.90625) scale(1.5)">
            <path d="M16 25.2 A9.2 9.2 0 1 1 25.2 16 A9.2 9.2 0 0 1 16 25.2 z" style="fill:#EEAAAA;" />
            <path d="M16 7.5 A8.5 8.5 0 1 1 7.5 16 A8.5 8.5 0 0 1 16 7.5 M16 6 A10 10 0 1 0 26 16 A10 10 0 0 0 16 6 z" stroke-width="0.4px" class="" style="fill:#990000;stroke:#990000;" />
          </g>
        </g>
      </g>
    </g>
  </g>
  <g class="djs-group">
    <g transform="matrix(1, 0, 0, 1, 555, 239)" id="gfx-58c5b70e-fecb-420f-8c16-6e12e8363fd3" display="block" class="djs-element djs-shape" data-element-id="58c5b70e-fecb-420f-8c16-6e12e8363fd3">
      <g class="djs-visual">
        <rect x="0" y="0" width="90" height="36" fill-opacity="0" stroke-opacity="0" style="fill:#FFFFFF;stroke:transparent;" />
        <svg width="90" height="31" class="djs-svg-text">
          <text font-family="'Segoe UI'" font-size="10.6252px" font-style="normal" font-weight="normal" lineHeight="1.2" textDirection="0" textAlign="center" class="djs-label" style="fill:black;">
            <tspan x="20.35313" y="14.75">Relatórios </tspan>
            <tspan x="26.05721" y="27.75">gerados</tspan>
          </text>
        </svg>
      </g>
    </g>
  </g>
  <g class="djs-group">
    <g transform="matrix(1, 0, 0, 1, 392, 48)" id="gfx-32ce2ea7-57cf-4bdf-8f1f-7cc6385581e1" display="block" class="djs-element djs-shape" data-element-id="32ce2ea7-57cf-4bdf-8f1f-7cc6385581e1">
      <g class="djs-visual">
        <g>
          <rect x="0" y="0" width="174" height="104" class="" style="fill:#D5D5D5;" />
          <path d="M58 0 L0 0 L0 104 L58 104" stroke-width="0.4px" shape-rendering="crispEdges" fill-opacity="0" style="fill:transparent;stroke:black;" />
        </g>
      </g>
      <svg width="174" height="104" class="djs-svg-text">
        <text font-family="'Segoe UI'" font-size="10.6252px" font-style="normal" font-weight="normal" lineHeight="1.2" textDirection="0" textAlign="center" class="djs-label" style="fill:black;">
          <tspan x="23.17639" y="22.75">Quantos acessaram, nunca </tspan>
          <tspan x="26.08546" y="35.75">acessaram,  responderam </tspan>
          <tspan x="22.74857" y="48.75">questionário, preencheram </tspan>
          <tspan x="18.24232" y="61.75">autoavaliação,  responderam </tspan>
          <tspan x="14.49319" y="74.75">pesquisa  e obtiveram mais de </tspan>
          <tspan x="39.35526" y="87.75">70% de  rendimento</tspan>
        </text>
      </svg>
    </g>
  </g>
  <g class="djs-group">
    <g transform="matrix(1, 0, 0, 1, 256, 79)" id="gfx-fe353dc2-1af5-4c85-a447-272c48f0f1a9" display="block" class="djs-element djs-shape" data-element-id="fe353dc2-1af5-4c85-a447-272c48f0f1a9">
      <g class="djs-visual">
        <g>
          <rect x="0" y="0" width="100" height="69" class="" style="fill:#D5D5D5;" />
          <path d="M33.33333 0 L0 0 L0 69 L33.33333 69" stroke-width="0.4px" shape-rendering="crispEdges" fill-opacity="0" style="fill:transparent;stroke:black;" />
        </g>
      </g>
      <svg width="100" height="69" class="djs-svg-text">
        <text font-family="'Segoe UI'" font-size="10.6252px" font-style="normal" font-weight="normal" lineHeight="1.2" textDirection="0" textAlign="center" class="djs-label" style="fill:black;">
          <tspan x="4.937645" y="24.75">Relatório no corpo </tspan>
          <tspan x="8.863113" y="37.75">do e-mail ou link </tspan>
          <tspan x="22.62553" y="50.75">para acesso</tspan>
        </text>
      </svg>
    </g>
  </g>
  <g class="djs-group">
    <g transform="matrix(1, 0, 0, 1, 120, 80)" id="gfx-c0701a09-025d-488e-b40d-d147fd13edd0" display="block" class="djs-element djs-shape" data-element-id="c0701a09-025d-488e-b40d-d147fd13edd0">
      <g class="djs-visual">
        <g>
          <rect x="0" y="0" width="100" height="81" class="" style="fill:#D5D5D5;" />
          <path d="M33.33333 0 L0 0 L0 81 L33.33333 81" stroke-width="0.4px" shape-rendering="crispEdges" fill-opacity="0" style="fill:transparent;stroke:black;" />
        </g>
      </g>
      <svg width="100" height="81" class="djs-svg-text">
        <text font-family="'Segoe UI'" font-size="10.6252px" font-style="normal" font-weight="normal" lineHeight="1.2" textDirection="0" textAlign="center" class="djs-label" style="fill:black;">
          <tspan x="28.21554" y="17.75">Saída do </tspan>
          <tspan x="11.8811" y="30.75">subprocesso de </tspan>
          <tspan x="26.21133" y="43.75">Gerenciar </tspan>
          <tspan x="9.171646" y="56.75">capacitação RNC </tspan>
          <tspan x="15.19205" y="69.75">do Centro EAD</tspan>
        </text>
      </svg>
    </g>
  </g>
  <g class="djs-group">
    <g transform="matrix(1, 0, 0, 1, 155, 201)" id="gfx-0a3d5e1f-a7d7-40ac-ba1c-5a678bfc5935" display="block" class="djs-element djs-shape" data-element-id="0a3d5e1f-a7d7-40ac-ba1c-5a678bfc5935">
      <g class="djs-visual">
        <g>
          <g transform="translate(-8.90625, -8.90625) scale(1.5)">
            <path d="M15.9 25.5 A9.5 9.5 0 1 1 25.4 16 A9.6 9.6 0 0 1 15.9 25.5 z" style="fill:#FEFAEF;" />
            <path d="M15.9 7 A9 9 0 1 1 6.9 16 A9 9 0 0 1 15.9 7 M15.9 6 A10 10 0 1 0 25.9 16 A10 10 0 0 0 15.9 6 z" class="" style="fill:#969149;" />
            <path d="M15.9 8.8 A7.2 7.2 0 1 1 8.7 16 A7.3 7.3 0 0 1 15.9 8.8 M15.9 7.8 A8.2 8.2 0 0 0 15.9 24.2 A8.2 8.2 0 1 0 15.9 7.800001 z" class="" style="fill:#969149;" />
            <path d="M11 12.5 L11 19.5 L21 19.5 L21 12.5 z M20 13.5 L20 13.8 L15.9 16.3 L12 13.7 L12 13.5 z M12 18.5 L12 14.9 L15.9 17.5 L20 15 L20 18.5 z" style="fill:#969149;" />
          </g>
        </g>
      </g>
    </g>
  </g>
  <g class="djs-group">
    <g transform="matrix(1, 0, 0, 1, 125, 239)" id="gfx-2c1c3336-d392-4209-aa4c-baa713f0c12d" display="block" class="djs-element djs-shape" data-element-id="2c1c3336-d392-4209-aa4c-baa713f0c12d">
      <g class="djs-visual">
        <rect x="0" y="0" width="90" height="36" fill-opacity="0" stroke-opacity="0" style="fill:#FFFFFF;stroke:transparent;" />
        <svg width="90" height="31" class="djs-svg-text">
          <text font-family="'Segoe UI'" font-size="10.6252px" font-style="normal" font-weight="normal" lineHeight="1.2" textDirection="0" textAlign="center" class="djs-label" style="fill:black;">
            <tspan x="22.60625" y="14.75">Relatório </tspan>
            <tspan x="24.50156" y="27.75">recebido</tspan>
          </text>
        </svg>
      </g>
    </g>
  </g>
  <g class="djs-group">
    <g id="gfx-fc4ccd64-f3e7-4b67-b2bb-0e4be8460d74" display="block" class="djs-element djs-connection" data-element-id="fc4ccd64-f3e7-4b67-b2bb-0e4be8460d74">
      <g class="djs-visual">
        <g>
          <defs>
            <marker refX="9.8" refY="6" orient="auto" markerWidth="12" markerHeight="12" markerUnits="strokeWidth" id="arrowSecuenceFlowfc4ccd64-f3e7-4b67-b2bb-0e4be8460d74#1">
              <path d="M0 0 L2 6 L0 12 L10 6 z" style="fill:black;" />
            </marker>
          </defs>
          <path d="M185 216 L243 216" marker-end="url(#arrowSecuenceFlowfc4ccd64-f3e7-4b67-b2bb-0e4be8460d74)" stroke-width="1px" stroke-linejoin="round" shape-rendering="crispEdges" fill-opacity="0" class="" style="fill:transparent;stroke:black;" />
        </g>
      </g>
    </g>
  </g>
  <g class="djs-group">
    <g id="gfx-f7cbc9e4-9d9f-407f-a320-d65e1bbd0a9c" display="block" class="djs-element djs-connection" data-element-id="f7cbc9e4-9d9f-407f-a320-d65e1bbd0a9c">
      <g class="djs-visual">
        <g>
          <defs>
            <marker refX="9.8" refY="6" orient="auto" markerWidth="12" markerHeight="12" markerUnits="strokeWidth" id="arrowSecuenceFlowf7cbc9e4-9d9f-407f-a320-d65e1bbd0a9c">
              <path d="M0 0 L2 6 L0 12 L10 6 z" style="fill:black;" />
            </marker>
          </defs>
          <path d="M373 216 L415 216" marker-end="url(#arrowSecuenceFlowf7cbc9e4-9d9f-407f-a320-d65e1bbd0a9c)" stroke-width="1px" stroke-linejoin="round" shape-rendering="crispEdges" fill-opacity="0" class="" style="fill:transparent;stroke:black;" />
        </g>
      </g>
    </g>
  </g>
  <g class="djs-group">
    <g id="gfx-666d5908-d29f-4854-b0e1-d6f145384ac1" display="block" class="djs-element djs-connection" data-element-id="666d5908-d29f-4854-b0e1-d6f145384ac1">
      <g class="djs-visual">
        <g>
          <defs>
            <marker refX="9.8" refY="6" orient="auto" markerWidth="12" markerHeight="12" markerUnits="strokeWidth" id="arrowSecuenceFlow666d5908-d29f-4854-b0e1-d6f145384ac1">
              <path d="M0 0 L2 6 L0 12 L10 6 z" style="fill:black;" />
            </marker>
          </defs>
          <path d="M545 216 L585 216" marker-end="url(#arrowSecuenceFlow666d5908-d29f-4854-b0e1-d6f145384ac1)" stroke-width="1px" stroke-linejoin="round" shape-rendering="crispEdges" fill-opacity="0" class="" style="fill:transparent;stroke:black;" />
        </g>
      </g>
    </g>
  </g>
  <g class="djs-group">
    <g id="gfx-9c639f8a-5192-40ea-8df3-da424f557b2e" display="block" class="djs-element djs-connection" data-element-id="9c639f8a-5192-40ea-8df3-da424f557b2e">
      <g class="djs-visual">
        <g>
          <defs>
            <marker refX="5.5" refY="4" orient="auto" markerWidth="10" markerHeight="8" id="arrowAssociation9c639f8a-5192-40ea-8df3-da424f557b2e">
              <path d="M0 0 L4.5 4 L0 8" stroke-width="0.7px" stroke-dasharray="0" style="stroke:black;" />
            </marker>
          </defs>
          <path d="M480 171 L480 161.5 L479 161.5 L479 152" stroke-width="1.5px" stroke-linejoin="round" stroke-dasharray="2 5" shape-rendering="crispEdges" fill-opacity="0" class="" style="fill:transparent;stroke:black;" />
        </g>
      </g>
    </g>
  </g>
  <g class="djs-group">
    <g id="gfx-67a3aee4-4ec2-40f3-b64d-7a703751343a" display="block" class="djs-element djs-connection" data-element-id="67a3aee4-4ec2-40f3-b64d-7a703751343a">
      <g class="djs-visual">
        <g>
          <defs>
            <marker refX="5.5" refY="4" orient="auto" markerWidth="10" markerHeight="8" id="arrowAssociation67a3aee4-4ec2-40f3-b64d-7a703751343a">
              <path d="M0 0 L4.5 4 L0 8" stroke-width="0.7px" stroke-dasharray="0" style="stroke:black;" />
            </marker>
          </defs>
          <path d="M308 171 L308 159.5 L306 159.5 L306 148" stroke-width="1.5px" stroke-linejoin="round" stroke-dasharray="2 5" shape-rendering="crispEdges" fill-opacity="0" class="" style="fill:transparent;stroke:black;" />
        </g>
      </g>
    </g>
  </g>
  <g class="djs-group">
    <g id="gfx-c7f248fa-db56-4d7b-b50c-43dd2c50cb98" display="block" class="djs-element djs-connection" data-element-id="c7f248fa-db56-4d7b-b50c-43dd2c50cb98">
      <g class="djs-visual">
        <g>
          <defs>
            <marker refX="5.5" refY="4" orient="auto" markerWidth="10" markerHeight="8" id="arrowAssociationc7f248fa-db56-4d7b-b50c-43dd2c50cb98">
              <path d="M0 0 L4.5 4 L0 8" stroke-width="0.7px" stroke-dasharray="0" style="stroke:black;" />
            </marker>
          </defs>
          <path d="M170 201 L170 161" stroke-width="1.5px" stroke-linejoin="round" stroke-dasharray="2 5" shape-rendering="crispEdges" fill-opacity="0" class="" style="fill:transparent;stroke:black;" />
        </g>
      </g>
    </g>
  </g>
</svg>