<?xml version="1.0" encoding="utf-8"?>
<!DOCTYPE svg PUBLIC "-//W3C//DTD SVG 1.1//EN" "http://www.w3.org/Graphics/SVG/1.1/DTD/svg11.dtd">
<svg width="366" height="552.75px" viewBox="44, -16, 366, 552.75" xmlns="http://www.w3.org/2000/svg" xmlns:xlink="http://www.w3.org/1999/xlink" xmlns:xml="http://www.w3.org/XML/1998/namespace" version="1.1">
  <defs>
    <marker refX="9.8" refY="6" orient="auto" markerWidth="12" markerHeight="12" markerUnits="strokeWidth" id="arrowSecuenceFlow5e301bdb-4d19-4fdf-890a-58740d3fb65d">
      <path d="M0 0 L2 6 L0 12 L10 6 z" style="fill:black;" />
    </marker>
  </defs>
  <g class="djs-group">
    <g transform="matrix(1, 0, 0, 1, 157, 0)" id="gfx-20788b22-6726-4f4c-ae42-f682ae0d96be" display="block" class="djs-element djs-shape" data-element-id="20788b22-6726-4f4c-ae42-f682ae0d96be">
      <g class="djs-visual">
        <g>
          <rect x="0" y="0" width="130" height="90" rx="8" stroke-width="2px" class="" style="fill:#ECEFFF;stroke:#03689A;" />
          <g transform="translate(-6, -11) scale(1.6)">
            <path d="M16.9 19.4 L10.7 19.4 A3.1 3.1 0 0 1 7.6 16 A4 4 0 0 1 9.3 12.6 L12 10.8 A1 1 0 0 1 12.9 10.7 A1 1 0 0 1 13.6 11.1 A1.3 1.3 0 0 1 13.2 12.7 L17.6 12.7 A0.9 0.9 0 0 1 18.6 13.6 A0.8 0.8 0 0 1 18.4 14.2 L18.4 14.2 A1.1 1.1 0 0 1 19.4 15.2 A1 1 0 0 1 18.7 16.1 A0.9 0.9 0 0 1 19 16.8 A0.9 0.9 0 0 1 18 17.7 L17.6 17.7 A1.4 1.4 0 0 1 17.8 18.3 A0.9 0.9 0 0 1 17.5 19 A0.9 0.9 0 0 1 16.9 19.4 z" style="fill:white;" />
            <path d="M16.9 19.4 L10.7 19.4 A3.1 3.1 0 0 1 7.6 16 A4 4 0 0 1 9.3 12.6 L12 10.8 A1 1 0 0 1 12.9 10.7 A1 1 0 0 1 13.6 11.1 A1.3 1.3 0 0 1 13.2 12.7 L17.6 12.7 A0.9 0.9 0 0 1 18.6 13.6 A0.8 0.8 0 0 1 18.4 14.2 L18.4 14.2 A1.1 1.1 0 0 1 19.4 15.2 A1 1 0 0 1 18.7 16.1 A0.9 0.9 0 0 1 19 16.8 A0.9 0.9 0 0 1 18 17.7 L17.6 17.7 A1.4 1.4 0 0 1 17.8 18.3 A0.9 0.9 0 0 1 17.5 19 A0.9 0.9 0 0 1 16.9 19.4 z M12.7 11.4 L12.4 11.4 L9.7 13.3 A2.9 2.9 0 0 0 8.4 16 A2.3 2.3 0 0 0 10.7 18.6 L17 18.6 C17 18.5 17.1 18.5 17.1 18.4 L16.9 18.2 L13.5 18.2 A0.6 0.6 0 0 1 12.9 17.6 A0.6 0.6 0 0 1 13.5 17.1 L18 17.1 A0.2 0.2 0 0 0 18.2 16.9 C18.2 16.7 18.1 16.6 18 16.6 L13.9 16.6 A0.6 0.6 0 0 1 13.3 16.1 A0.6 0.6 0 0 1 13.9 15.5 L18.4 15.5 L18.6 15.3 A0.2 0.2 0 0 0 18.4 15.1 L13.9 15.1 A0.6 0.6 0 0 1 13.9 13.9 L17.6 13.9 A0.2 0.2 0 0 0 17.8 13.7 L17.6 13.5 L11.9 13.5 C11.7 13.5 11.6 13.4 11.6 13.3 A0.4 0.4 0 0 1 11.7 12.8 L12.8 12 C13 11.9 13 11.7 12.9 11.5 L12.7 11.5 z" style="fill:#03689A;" />
          </g>
          <g />
        </g>
      </g>
      <svg width="130" height="86" class="djs-svg-text">
        <text font-family="'Segoe UI'" font-size="10.6252px" font-style="normal" font-weight="normal" lineHeight="1.2" textDirection="0" textAlign="center" class="djs-label" style="fill:black;">
          <tspan x="7.614227" y="41.75">17. Acompanhar  e-mail </tspan>
          <tspan x="49.31892" y="54.75">e 0800</tspan>
        </text>
      </svg>
    </g>
  </g>
  <g class="djs-group">
    <g transform="matrix(1, 0, 0, 1, 60, 167)" id="gfx-9dacfcad-df90-44a8-8402-aa0781cea88f" display="block" class="djs-element djs-shape" data-element-id="9dacfcad-df90-44a8-8402-aa0781cea88f">
      <g class="djs-visual">
        <g>
          <rect x="0" y="0" width="323" height="212" rx="5" stroke-width="2px" stroke-dasharray="6 2" class="" style="fill:white;stroke:#03689A;" />
          <g transform="translate(4, 4)">
            <circle cx="8" cy="8" r="8" fill-opacity="0" style="fill:transparent;stroke:#03689A;" />
            <path d="M3 4 L13 4 L8 8 z M3 7 L8 11 L13 7 L13 12 L3 12 z" stroke-width="1.1px" fill-opacity="0" style="fill:transparent;stroke:#03689A;" />
          </g>
          <svg y="41.05719" width="323" height="129.8856" viewBox="89, 40, 848, 341">
            <defs>
              <marker refX="9.8" refY="6" orient="auto" markerWidth="12" markerHeight="12" markerUnits="strokeWidth" id="arrowSecuenceFlow5e301bdb-4d19-4fdf-890a-58740d3fb65d#1">
                <path d="M0 0 L2 6 L0 12 L10 6 z" style="fill:black;" />
              </marker>
            </defs>
            <g class="djs-group">
              <g transform="matrix(1, 0, 0, 1, 230, 197)" id="gfx-d4521308-5cbf-4be0-94f9-835f4b29456d" display="block" class="djs-element djs-shape" data-element-id="d4521308-5cbf-4be0-94f9-835f4b29456d">
                <g class="djs-visual">
                  <g>
                    <rect x="0" y="0" width="130" height="90" rx="8" stroke-width="2px" class="" style="fill:#ECEFFF;stroke:#03689A;" />
                    <g transform="translate(-6, -11) scale(1.6)">
                      <path d="M16.9 19.4 L10.7 19.4 A3.1 3.1 0 0 1 7.6 16 A4 4 0 0 1 9.3 12.6 L12 10.8 A1 1 0 0 1 12.9 10.7 A1 1 0 0 1 13.6 11.1 A1.3 1.3 0 0 1 13.2 12.7 L17.6 12.7 A0.9 0.9 0 0 1 18.6 13.6 A0.8 0.8 0 0 1 18.4 14.2 L18.4 14.2 A1.1 1.1 0 0 1 19.4 15.2 A1 1 0 0 1 18.7 16.1 A0.9 0.9 0 0 1 19 16.8 A0.9 0.9 0 0 1 18 17.7 L17.6 17.7 A1.4 1.4 0 0 1 17.8 18.3 A0.9 0.9 0 0 1 17.5 19 A0.9 0.9 0 0 1 16.9 19.4 z" style="fill:white;" />
                      <path d="M16.9 19.4 L10.7 19.4 A3.1 3.1 0 0 1 7.6 16 A4 4 0 0 1 9.3 12.6 L12 10.8 A1 1 0 0 1 12.9 10.7 A1 1 0 0 1 13.6 11.1 A1.3 1.3 0 0 1 13.2 12.7 L17.6 12.7 A0.9 0.9 0 0 1 18.6 13.6 A0.8 0.8 0 0 1 18.4 14.2 L18.4 14.2 A1.1 1.1 0 0 1 19.4 15.2 A1 1 0 0 1 18.7 16.1 A0.9 0.9 0 0 1 19 16.8 A0.9 0.9 0 0 1 18 17.7 L17.6 17.7 A1.4 1.4 0 0 1 17.8 18.3 A0.9 0.9 0 0 1 17.5 19 A0.9 0.9 0 0 1 16.9 19.4 z M12.7 11.4 L12.4 11.4 L9.7 13.3 A2.9 2.9 0 0 0 8.4 16 A2.3 2.3 0 0 0 10.7 18.6 L17 18.6 C17 18.5 17.1 18.5 17.1 18.4 L16.9 18.2 L13.5 18.2 A0.6 0.6 0 0 1 12.9 17.6 A0.6 0.6 0 0 1 13.5 17.1 L18 17.1 A0.2 0.2 0 0 0 18.2 16.9 C18.2 16.7 18.1 16.6 18 16.6 L13.9 16.6 A0.6 0.6 0 0 1 13.3 16.1 A0.6 0.6 0 0 1 13.9 15.5 L18.4 15.5 L18.6 15.3 A0.2 0.2 0 0 0 18.4 15.1 L13.9 15.1 A0.6 0.6 0 0 1 13.9 13.9 L17.6 13.9 A0.2 0.2 0 0 0 17.8 13.7 L17.6 13.5 L11.9 13.5 C11.7 13.5 11.6 13.4 11.6 13.3 A0.4 0.4 0 0 1 11.7 12.8 L12.8 12 C13 11.9 13 11.7 12.9 11.5 L12.7 11.5 z" style="fill:#03689A;" />
                    </g>
                    <g />
                  </g>
                </g>
                <svg width="130" height="86" class="djs-svg-text">
                  <text font-family="'Segoe UI'" font-size="10.6252px" font-style="normal" font-weight="normal" lineHeight="1.2" textDirection="0" textAlign="center" class="djs-label" style="fill:black;">
                    <tspan x="6.709335" y="41.75">18. Responder demanda </tspan>
                    <tspan x="28.24749" y="54.75">conforme script</tspan>
                  </text>
                </svg>
              </g>
            </g>
            <g class="djs-group">
              <g transform="matrix(1, 0, 0, 1, 397, 197)" id="gfx-83ad263b-f051-4bc8-a055-734ef6b53c5d" display="block" class="djs-element djs-shape" data-element-id="83ad263b-f051-4bc8-a055-734ef6b53c5d">
                <g class="djs-visual">
                  <g>
                    <rect x="0" y="0" width="130" height="90" rx="8" stroke-width="2px" class="" style="fill:#ECEFFF;stroke:#03689A;" />
                    <g transform="translate(-6, -11) scale(1.6)">
                      <path d="M16.9 19.4 L10.7 19.4 A3.1 3.1 0 0 1 7.6 16 A4 4 0 0 1 9.3 12.6 L12 10.8 A1 1 0 0 1 12.9 10.7 A1 1 0 0 1 13.6 11.1 A1.3 1.3 0 0 1 13.2 12.7 L17.6 12.7 A0.9 0.9 0 0 1 18.6 13.6 A0.8 0.8 0 0 1 18.4 14.2 L18.4 14.2 A1.1 1.1 0 0 1 19.4 15.2 A1 1 0 0 1 18.7 16.1 A0.9 0.9 0 0 1 19 16.8 A0.9 0.9 0 0 1 18 17.7 L17.6 17.7 A1.4 1.4 0 0 1 17.8 18.3 A0.9 0.9 0 0 1 17.5 19 A0.9 0.9 0 0 1 16.9 19.4 z" style="fill:white;" />
                      <path d="M16.9 19.4 L10.7 19.4 A3.1 3.1 0 0 1 7.6 16 A4 4 0 0 1 9.3 12.6 L12 10.8 A1 1 0 0 1 12.9 10.7 A1 1 0 0 1 13.6 11.1 A1.3 1.3 0 0 1 13.2 12.7 L17.6 12.7 A0.9 0.9 0 0 1 18.6 13.6 A0.8 0.8 0 0 1 18.4 14.2 L18.4 14.2 A1.1 1.1 0 0 1 19.4 15.2 A1 1 0 0 1 18.7 16.1 A0.9 0.9 0 0 1 19 16.8 A0.9 0.9 0 0 1 18 17.7 L17.6 17.7 A1.4 1.4 0 0 1 17.8 18.3 A0.9 0.9 0 0 1 17.5 19 A0.9 0.9 0 0 1 16.9 19.4 z M12.7 11.4 L12.4 11.4 L9.7 13.3 A2.9 2.9 0 0 0 8.4 16 A2.3 2.3 0 0 0 10.7 18.6 L17 18.6 C17 18.5 17.1 18.5 17.1 18.4 L16.9 18.2 L13.5 18.2 A0.6 0.6 0 0 1 12.9 17.6 A0.6 0.6 0 0 1 13.5 17.1 L18 17.1 A0.2 0.2 0 0 0 18.2 16.9 C18.2 16.7 18.1 16.6 18 16.6 L13.9 16.6 A0.6 0.6 0 0 1 13.3 16.1 A0.6 0.6 0 0 1 13.9 15.5 L18.4 15.5 L18.6 15.3 A0.2 0.2 0 0 0 18.4 15.1 L13.9 15.1 A0.6 0.6 0 0 1 13.9 13.9 L17.6 13.9 A0.2 0.2 0 0 0 17.8 13.7 L17.6 13.5 L11.9 13.5 C11.7 13.5 11.6 13.4 11.6 13.3 A0.4 0.4 0 0 1 11.7 12.8 L12.8 12 C13 11.9 13 11.7 12.9 11.5 L12.7 11.5 z" style="fill:#03689A;" />
                    </g>
                    <g />
                  </g>
                </g>
                <svg width="130" height="86" class="djs-svg-text">
                  <text font-family="'Segoe UI'" font-size="10.6252px" font-style="normal" font-weight="normal" lineHeight="1.2" textDirection="0" textAlign="center" class="djs-label" style="fill:black;">
                    <tspan x="13.24313" y="41.75">19. Analisar demanda </tspan>
                    <tspan x="44.91122" y="54.75">recebida</tspan>
                  </text>
                </svg>
              </g>
            </g>
            <g class="djs-group">
              <g transform="matrix(1, 0, 0, 1, 686, 63)" id="gfx-a0a4c2fc-c8de-4f98-8a09-f005bca4f3d2" display="block" class="djs-element djs-shape" data-element-id="a0a4c2fc-c8de-4f98-8a09-f005bca4f3d2">
                <g class="djs-visual">
                  <g>
                    <rect x="0" y="0" width="130" height="90" rx="8" stroke-width="2px" class="" style="fill:#ECEFFF;stroke:#03689A;" />
                    <g transform="translate(-6, -11) scale(1.6)">
                      <path d="M16.9 19.4 L10.7 19.4 A3.1 3.1 0 0 1 7.6 16 A4 4 0 0 1 9.3 12.6 L12 10.8 A1 1 0 0 1 12.9 10.7 A1 1 0 0 1 13.6 11.1 A1.3 1.3 0 0 1 13.2 12.7 L17.6 12.7 A0.9 0.9 0 0 1 18.6 13.6 A0.8 0.8 0 0 1 18.4 14.2 L18.4 14.2 A1.1 1.1 0 0 1 19.4 15.2 A1 1 0 0 1 18.7 16.1 A0.9 0.9 0 0 1 19 16.8 A0.9 0.9 0 0 1 18 17.7 L17.6 17.7 A1.4 1.4 0 0 1 17.8 18.3 A0.9 0.9 0 0 1 17.5 19 A0.9 0.9 0 0 1 16.9 19.4 z" style="fill:white;" />
                      <path d="M16.9 19.4 L10.7 19.4 A3.1 3.1 0 0 1 7.6 16 A4 4 0 0 1 9.3 12.6 L12 10.8 A1 1 0 0 1 12.9 10.7 A1 1 0 0 1 13.6 11.1 A1.3 1.3 0 0 1 13.2 12.7 L17.6 12.7 A0.9 0.9 0 0 1 18.6 13.6 A0.8 0.8 0 0 1 18.4 14.2 L18.4 14.2 A1.1 1.1 0 0 1 19.4 15.2 A1 1 0 0 1 18.7 16.1 A0.9 0.9 0 0 1 19 16.8 A0.9 0.9 0 0 1 18 17.7 L17.6 17.7 A1.4 1.4 0 0 1 17.8 18.3 A0.9 0.9 0 0 1 17.5 19 A0.9 0.9 0 0 1 16.9 19.4 z M12.7 11.4 L12.4 11.4 L9.7 13.3 A2.9 2.9 0 0 0 8.4 16 A2.3 2.3 0 0 0 10.7 18.6 L17 18.6 C17 18.5 17.1 18.5 17.1 18.4 L16.9 18.2 L13.5 18.2 A0.6 0.6 0 0 1 12.9 17.6 A0.6 0.6 0 0 1 13.5 17.1 L18 17.1 A0.2 0.2 0 0 0 18.2 16.9 C18.2 16.7 18.1 16.6 18 16.6 L13.9 16.6 A0.6 0.6 0 0 1 13.3 16.1 A0.6 0.6 0 0 1 13.9 15.5 L18.4 15.5 L18.6 15.3 A0.2 0.2 0 0 0 18.4 15.1 L13.9 15.1 A0.6 0.6 0 0 1 13.9 13.9 L17.6 13.9 A0.2 0.2 0 0 0 17.8 13.7 L17.6 13.5 L11.9 13.5 C11.7 13.5 11.6 13.4 11.6 13.3 A0.4 0.4 0 0 1 11.7 12.8 L12.8 12 C13 11.9 13 11.7 12.9 11.5 L12.7 11.5 z" style="fill:#03689A;" />
                    </g>
                    <g />
                  </g>
                </g>
                <svg width="130" height="86" class="djs-svg-text">
                  <text font-family="'Segoe UI'" font-size="10.6252px" font-style="normal" font-weight="normal" lineHeight="1.2" textDirection="0" textAlign="center" class="djs-label" style="fill:black;">
                    <tspan x="10.41184" y="41.75">20. Atualizar script com</tspan>
                    <tspan x="18.75794" y="54.75">demanda frequente</tspan>
                  </text>
                </svg>
              </g>
            </g>
            <g class="djs-group">
              <g transform="matrix(1, 0, 0, 1, 729, 227)" id="gfx-689b6951-d599-4cd1-8f0f-cad83acce835" display="block" class="djs-element djs-shape" data-element-id="689b6951-d599-4cd1-8f0f-cad83acce835">
                <g class="djs-visual">
                  <g>
                    <g transform="translate(-8.90625, -8.90625) scale(1.5)">
                      <path d="M16 25.2 A9.2 9.2 0 1 1 25.2 16 A9.2 9.2 0 0 1 16 25.2 z" style="fill:#EEAAAA;" />
                      <path d="M16 7.5 A8.5 8.5 0 1 1 7.5 16 A8.5 8.5 0 0 1 16 7.5 M16 6 A10 10 0 1 0 26 16 A10 10 0 0 0 16 6 z" stroke-width="0.4px" class="" style="fill:#990000;stroke:#990000;" />
                    </g>
                  </g>
                </g>
              </g>
            </g>
            <g class="djs-group">
              <g transform="matrix(1, 0, 0, 1, 699, 265)" id="gfx-a6aa00d8-2c29-409f-a42b-5ec9c88c7c2c" display="block" class="djs-element djs-shape" data-element-id="a6aa00d8-2c29-409f-a42b-5ec9c88c7c2c">
                <g class="djs-visual">
                  <rect x="0" y="0" width="90" height="36" fill-opacity="0" stroke-opacity="0" style="fill:#FFFFFF;stroke:transparent;" />
                  <svg width="90" height="31" class="djs-svg-text">
                    <text font-family="'Segoe UI'" font-size="10.6252px" font-style="normal" font-weight="normal" lineHeight="1.2" textDirection="0" textAlign="center" class="djs-label" style="fill:black;">
                      <tspan x="20.93649" y="14.75">Demanda </tspan>
                      <tspan x="25.51534" y="27.75">pontual </tspan>
                      <tspan x="18.64449" y="40.75">respondida</tspan>
                    </text>
                  </svg>
                </g>
              </g>
            </g>
            <g class="djs-group">
              <g transform="matrix(1, 0, 0, 1, 856, 93)" id="gfx-e55b4e0f-f00b-4ddb-b34a-e53d9b2ce726" display="block" class="djs-element djs-shape" data-element-id="e55b4e0f-f00b-4ddb-b34a-e53d9b2ce726">
                <g class="djs-visual">
                  <g>
                    <g transform="translate(-8.90625, -8.90625) scale(1.5)">
                      <path d="M16 25.2 A9.2 9.2 0 1 1 25.2 16 A9.2 9.2 0 0 1 16 25.2 z" style="fill:#EEAAAA;" />
                      <path d="M16 7.5 A8.5 8.5 0 1 1 7.5 16 A8.5 8.5 0 0 1 16 7.5 M16 6 A10 10 0 1 0 26 16 A10 10 0 0 0 16 6 z" stroke-width="0.4px" class="" style="fill:#990000;stroke:#990000;" />
                    </g>
                  </g>
                </g>
              </g>
            </g>
            <g class="djs-group">
              <g transform="matrix(1, 0, 0, 1, 826, 131)" id="gfx-2b1aa992-0cf2-4f76-8502-badd70dbfd4f" display="block" class="djs-element djs-shape" data-element-id="2b1aa992-0cf2-4f76-8502-badd70dbfd4f">
                <g class="djs-visual">
                  <rect x="0" y="0" width="95" height="53" fill-opacity="0" stroke-opacity="0" style="fill:#FFFFFF;stroke:transparent;" />
                  <svg width="95" height="48" class="djs-svg-text">
                    <text font-family="'Segoe UI'" font-size="10.6252px" font-style="normal" font-weight="normal" lineHeight="1.2" textDirection="0" textAlign="center" class="djs-label" style="fill:black;">
                      <tspan x="8.598091" y="14.75">Script atualizado</tspan>
                    </text>
                  </svg>
                </g>
              </g>
            </g>
            <g class="djs-group">
              <g transform="matrix(1, 0, 0, 1, 559, 222)" id="gfx-833f1fa6-254e-42bc-8551-6b2677960771" display="block" class="djs-element djs-shape" data-element-id="833f1fa6-254e-42bc-8551-6b2677960771">
                <g class="djs-visual">
                  <g>
                    <path d="M0 20 L20 40 L40 20 L20 0 z" stroke-width="1.8px" class="" style="fill:#FFFFCC;stroke:#A6A61D;" />
                  </g>
                </g>
              </g>
            </g>
            <g class="djs-group">
              <g transform="matrix(1, 0, 0, 1, 243, 116)" id="gfx-c42c85db-8cdc-4e69-958e-85936487b269" display="block" class="djs-element djs-shape" data-element-id="c42c85db-8cdc-4e69-958e-85936487b269">
                <g class="djs-visual">
                  <g>
                    <rect x="0" y="0" width="100" height="60" class="" style="fill:#D5D5D5;" />
                    <path d="M33.33333 0 L0 0 L0 60 L33.33333 60" stroke-width="0.4px" shape-rendering="crispEdges" fill-opacity="0" style="fill:transparent;stroke:black;" />
                  </g>
                </g>
                <svg width="100" height="60" class="djs-svg-text">
                  <text font-family="'Segoe UI'" font-size="10.6252px" font-style="normal" font-weight="normal" lineHeight="1.2" textDirection="0" textAlign="center" class="djs-label" style="fill:black;">
                    <tspan x="8.676437" y="33.25">via e-mail e 0800 </tspan>
                  </text>
                </svg>
              </g>
            </g>
            <g class="djs-group">
              <g transform="matrix(1, 0, 0, 1, 246, 305)" id="gfx-a7e3bcb5-6446-4f0c-be89-632ebcc42b0c" display="block" class="djs-element djs-shape" data-element-id="a7e3bcb5-6446-4f0c-be89-632ebcc42b0c">
                <g class="djs-visual">
                  <g>
                    <rect x="0" y="0" width="100" height="60" class="" style="fill:#D5D5D5;" />
                    <path d="M33.33333 0 L0 0 L0 60 L33.33333 60" stroke-width="0.4px" shape-rendering="crispEdges" fill-opacity="0" style="fill:transparent;stroke:black;" />
                  </g>
                </g>
                <svg width="100" height="60" class="djs-svg-text">
                  <text font-family="'Segoe UI'" font-size="10.6252px" font-style="normal" font-weight="normal" lineHeight="1.2" textDirection="0" textAlign="center" class="djs-label" style="fill:black;">
                    <tspan x="8.704956" y="20.25">Conforme scripts </tspan>
                    <tspan x="13.77382" y="33.25">dos 3 níveis de </tspan>
                    <tspan x="20.03796" y="46.25">atendimento</tspan>
                  </text>
                </svg>
              </g>
            </g>
            <g class="djs-group">
              <g transform="matrix(1, 0, 0, 1, 135, 227)" id="gfx-9e7918c3-6775-4beb-a14c-6828cfc3663d" display="block" class="djs-element djs-shape" data-element-id="9e7918c3-6775-4beb-a14c-6828cfc3663d">
                <g class="djs-visual">
                  <g>
                    <g transform="translate(-8.90625, -8.90625) scale(1.5)">
                      <path d="M15.9 25.5 A9.5 9.5 0 1 1 25.4 16 A9.6 9.6 0 0 1 15.9 25.5 z" style="fill:#FEFAEF;" />
                      <path d="M15.9 7 A9 9 0 1 1 6.9 16 A9 9 0 0 1 15.9 7 M15.9 6 A10 10 0 1 0 25.9 16 A10 10 0 0 0 15.9 6 z" class="" style="fill:#969149;" />
                      <path d="M15.9 8.8 A7.2 7.2 0 1 1 8.7 16 A7.3 7.3 0 0 1 15.9 8.8 M15.9 7.8 A8.2 8.2 0 0 0 15.9 24.2 A8.2 8.2 0 1 0 15.9 7.800001 z" class="" style="fill:#969149;" />
                      <g>
                        <path d="M20 20 L12 20 L12 12 L20 12 z M13 19 L19 19 L19 13 L13 13 z" style="fill:#969149;" />
                        <rect x="15" y="16.5" width="2" height="1" style="fill:#969149;" />
                        <rect x="15" y="14.5" width="2" height="1" style="fill:#969149;" />
                      </g>
                    </g>
                  </g>
                </g>
              </g>
            </g>
            <g class="djs-group">
              <g transform="matrix(1, 0, 0, 1, 105, 265)" id="gfx-ff53cb0d-8ac4-429a-a797-5c2cf9cd5709" display="block" class="djs-element djs-shape" data-element-id="ff53cb0d-8ac4-429a-a797-5c2cf9cd5709">
                <g class="djs-visual">
                  <rect x="0" y="0" width="90" height="36" fill-opacity="0" stroke-opacity="0" style="fill:#FFFFFF;stroke:transparent;" />
                  <svg width="90" height="31" class="djs-svg-text">
                    <text font-family="'Segoe UI'" font-size="10.6252px" font-style="normal" font-weight="normal" lineHeight="1.2" textDirection="0" textAlign="center" class="djs-label" style="fill:black;">
                      <tspan x="20.93649" y="14.75">Demanda </tspan>
                      <tspan x="24.91122" y="27.75">recebida</tspan>
                    </text>
                  </svg>
                </g>
              </g>
            </g>
            <g class="djs-group">
              <g id="gfx-5e301bdb-4d19-4fdf-890a-58740d3fb65d" display="block" class="djs-element djs-connection" data-element-id="5e301bdb-4d19-4fdf-890a-58740d3fb65d">
                <g class="djs-visual">
                  <g>
                    <defs>
                      <marker refX="9.8" refY="6" orient="auto" markerWidth="12" markerHeight="12" markerUnits="strokeWidth" id="arrowSecuenceFlow5e301bdb-4d19-4fdf-890a-58740d3fb65d#2">
                        <path d="M0 0 L2 6 L0 12 L10 6 z" style="fill:black;" />
                      </marker>
                    </defs>
                    <path d="M579 222 L579 114 C579 114 579 108 585 108 L686 108" marker-end="url(#arrowSecuenceFlow5e301bdb-4d19-4fdf-890a-58740d3fb65d)" stroke-width="1px" stroke-linejoin="round" shape-rendering="crispEdges" fill-opacity="0" class="" style="fill:transparent;stroke:black;" />
                  </g>
                </g>
              </g>
            </g>
            <g class="djs-group">
              <g transform="matrix(1, 0, 0, 1, 607, 56)" id="gfx-bbc06df9-bba9-4262-bc6c-ee06d7045ef9" display="block" class="djs-element djs-shape" data-element-id="bbc06df9-bba9-4262-bc6c-ee06d7045ef9">
                <g class="djs-visual">
                  <rect x="0" y="0" width="90" height="36" fill-opacity="0" stroke-opacity="0" style="fill:#FFFFFF;stroke:transparent;" />
                  <svg width="90" height="31" class="djs-svg-text">
                    <text font-family="'Segoe UI'" font-size="10.6252px" font-style="normal" font-weight="normal" lineHeight="1.2" textDirection="0" textAlign="left" class="djs-label" style="fill:black;">
                      <tspan x="6" y="14.75">Demanda </tspan>
                      <tspan x="6" y="27.75">frequente</tspan>
                    </text>
                  </svg>
                </g>
              </g>
            </g>
            <g class="djs-group">
              <g id="gfx-fab95b0b-e18d-43b5-b302-bd7781f92649" display="block" class="djs-element djs-connection" data-element-id="fab95b0b-e18d-43b5-b302-bd7781f92649">
                <g class="djs-visual">
                  <g>
                    <defs>
                      <marker refX="9.8" refY="6" orient="auto" markerWidth="12" markerHeight="12" markerUnits="strokeWidth" id="arrowSecuenceFlowfab95b0b-e18d-43b5-b302-bd7781f92649">
                        <path d="M0 0 L2 6 L0 12 L10 6 z" style="fill:black;" />
                      </marker>
                    </defs>
                    <path d="M165 242 L230 242" marker-end="url(#arrowSecuenceFlowfab95b0b-e18d-43b5-b302-bd7781f92649)" stroke-width="1px" stroke-linejoin="round" shape-rendering="crispEdges" fill-opacity="0" class="" style="fill:transparent;stroke:black;" />
                  </g>
                </g>
              </g>
            </g>
            <g class="djs-group">
              <g id="gfx-f32d798e-74b6-4ddd-90ff-699699409dc2" display="block" class="djs-element djs-connection" data-element-id="f32d798e-74b6-4ddd-90ff-699699409dc2">
                <g class="djs-visual">
                  <g>
                    <defs>
                      <marker refX="9.8" refY="6" orient="auto" markerWidth="12" markerHeight="12" markerUnits="strokeWidth" id="arrowSecuenceFlowf32d798e-74b6-4ddd-90ff-699699409dc2">
                        <path d="M0 0 L2 6 L0 12 L10 6 z" style="fill:black;" />
                      </marker>
                    </defs>
                    <path d="M360 242 L397 242" marker-end="url(#arrowSecuenceFlowf32d798e-74b6-4ddd-90ff-699699409dc2)" stroke-width="1px" stroke-linejoin="round" shape-rendering="crispEdges" fill-opacity="0" class="" style="fill:transparent;stroke:black;" />
                  </g>
                </g>
              </g>
            </g>
            <g class="djs-group">
              <g id="gfx-df65704d-4219-4155-a63d-58cc19bc06fa" display="block" class="djs-element djs-connection" data-element-id="df65704d-4219-4155-a63d-58cc19bc06fa">
                <g class="djs-visual">
                  <g>
                    <defs>
                      <marker refX="9.8" refY="6" orient="auto" markerWidth="12" markerHeight="12" markerUnits="strokeWidth" id="arrowSecuenceFlowdf65704d-4219-4155-a63d-58cc19bc06fa">
                        <path d="M0 0 L2 6 L0 12 L10 6 z" style="fill:black;" />
                      </marker>
                    </defs>
                    <path d="M527 242 L559 242" marker-end="url(#arrowSecuenceFlowdf65704d-4219-4155-a63d-58cc19bc06fa)" stroke-width="1px" stroke-linejoin="round" shape-rendering="crispEdges" fill-opacity="0" class="" style="fill:transparent;stroke:black;" />
                  </g>
                </g>
              </g>
            </g>
            <g class="djs-group">
              <g id="gfx-60a4895d-2549-428d-9a78-0ba76439ddd1" display="block" class="djs-element djs-connection" data-element-id="60a4895d-2549-428d-9a78-0ba76439ddd1">
                <g class="djs-visual">
                  <g>
                    <defs>
                      <marker refX="9.8" refY="6" orient="auto" markerWidth="12" markerHeight="12" markerUnits="strokeWidth" id="arrowSecuenceFlow60a4895d-2549-428d-9a78-0ba76439ddd1">
                        <path d="M0 0 L2 6 L0 12 L10 6 z" style="fill:black;" />
                      </marker>
                    </defs>
                    <path d="M599 242 L729 242" marker-end="url(#arrowSecuenceFlow60a4895d-2549-428d-9a78-0ba76439ddd1)" stroke-width="1px" stroke-linejoin="round" shape-rendering="crispEdges" fill-opacity="0" class="" style="fill:transparent;stroke:black;" />
                  </g>
                </g>
              </g>
            </g>
            <g class="djs-group">
              <g transform="matrix(1, 0, 0, 1, 625, 237)" id="gfx-4a1c1ba1-91c5-4b9f-86ba-33609d0e444a" display="block" class="djs-element djs-shape" data-element-id="4a1c1ba1-91c5-4b9f-86ba-33609d0e444a">
                <g class="djs-visual">
                  <rect x="0" y="0" width="90" height="36" fill-opacity="0" stroke-opacity="0" style="fill:#FFFFFF;stroke:transparent;" />
                  <svg width="90" height="31" class="djs-svg-text">
                    <text font-family="'Segoe UI'" font-size="10.6252px" font-style="normal" font-weight="normal" lineHeight="1.2" textDirection="0" textAlign="left" class="djs-label" style="fill:black;">
                      <tspan x="6" y="14.75">Demanda </tspan>
                      <tspan x="6" y="27.75">pontual</tspan>
                    </text>
                  </svg>
                </g>
              </g>
            </g>
            <g class="djs-group">
              <g id="gfx-90cc80ca-f67d-4231-9cde-efd09b7fdfb3" display="block" class="djs-element djs-connection" data-element-id="90cc80ca-f67d-4231-9cde-efd09b7fdfb3">
                <g class="djs-visual">
                  <g>
                    <defs>
                      <marker refX="9.8" refY="6" orient="auto" markerWidth="12" markerHeight="12" markerUnits="strokeWidth" id="arrowSecuenceFlow90cc80ca-f67d-4231-9cde-efd09b7fdfb3">
                        <path d="M0 0 L2 6 L0 12 L10 6 z" style="fill:black;" />
                      </marker>
                    </defs>
                    <path d="M816 108 L856 108" marker-end="url(#arrowSecuenceFlow90cc80ca-f67d-4231-9cde-efd09b7fdfb3)" stroke-width="1px" stroke-linejoin="round" shape-rendering="crispEdges" fill-opacity="0" class="" style="fill:transparent;stroke:black;" />
                  </g>
                </g>
              </g>
            </g>
            <g class="djs-group">
              <g id="gfx-e9ae1245-0c70-4811-ba27-0e80e491dc8c" display="block" class="djs-element djs-connection" data-element-id="e9ae1245-0c70-4811-ba27-0e80e491dc8c">
                <g class="djs-visual">
                  <g>
                    <defs>
                      <marker refX="5.5" refY="4" orient="auto" markerWidth="10" markerHeight="8" id="arrowAssociatione9ae1245-0c70-4811-ba27-0e80e491dc8c">
                        <path d="M0 0 L4.5 4 L0 8" stroke-width="0.7px" stroke-dasharray="0" style="stroke:black;" />
                      </marker>
                    </defs>
                    <path d="M295 287 L295 296 L296 296 L296 305" stroke-width="1.5px" stroke-linejoin="round" stroke-dasharray="2 5" shape-rendering="crispEdges" fill-opacity="0" class="" style="fill:transparent;stroke:black;" />
                  </g>
                </g>
              </g>
            </g>
            <g class="djs-group">
              <g id="gfx-c2665005-de7c-4a0e-af1c-3c3db1247ab0" display="block" class="djs-element djs-connection" data-element-id="c2665005-de7c-4a0e-af1c-3c3db1247ab0">
                <g class="djs-visual">
                  <g>
                    <defs>
                      <marker refX="5.5" refY="4" orient="auto" markerWidth="10" markerHeight="8" id="arrowAssociationc2665005-de7c-4a0e-af1c-3c3db1247ab0">
                        <path d="M0 0 L4.5 4 L0 8" stroke-width="0.7px" stroke-dasharray="0" style="stroke:black;" />
                      </marker>
                    </defs>
                    <path d="M295 197 L295 186.5 L293 186.5 L293 176" stroke-width="1.5px" stroke-linejoin="round" stroke-dasharray="2 5" shape-rendering="crispEdges" fill-opacity="0" class="" style="fill:transparent;stroke:black;" />
                  </g>
                </g>
              </g>
            </g>
          </svg>
          <g />
        </g>
      </g>
    </g>
  </g>
  <g class="djs-group">
    <g transform="matrix(1, 0, 0, 1, 176, 387)" id="gfx-3aeb3413-e73d-4f1b-83d9-eed06ae101d2" display="block" class="djs-element djs-shape" data-element-id="3aeb3413-e73d-4f1b-83d9-eed06ae101d2">
      <g class="djs-visual">
        <rect x="0" y="0" width="90" height="36" fill-opacity="0" stroke-opacity="0" style="fill:#FFFFFF;stroke:transparent;" />
        <svg width="90" height="31" class="djs-svg-text">
          <text font-family="'Segoe UI'" font-size="10.6252px" font-style="normal" font-weight="normal" lineHeight="1.2" textDirection="0" textAlign="center" class="djs-label" style="fill:black;">
            <tspan x="23.47744" y="14.75">9.2.5.3.1. </tspan>
            <tspan x="23.33482" y="27.75">Atender  </tspan>
            <tspan x="6.17067" y="40.75">demandas sobre</tspan>
            <tspan x="17.46996" y="53.75">geração de </tspan>
            <tspan x="20.73426" y="66.75">demandas</tspan>
          </text>
        </svg>
      </g>
    </g>
  </g>
  <g class="djs-group">
    <g transform="matrix(1, 0, 0, 1, 93, 30)" id="gfx-0d40ccab-26cc-44ed-b7f5-c79d92a039a2" display="block" class="djs-element djs-shape" data-element-id="0d40ccab-26cc-44ed-b7f5-c79d92a039a2">
      <g class="djs-visual">
        <g>
          <g transform="translate(-8.90625, -8.90625) scale(1.5)">
            <path d="M16 25.2 C10.9 25.2 6.8 21.1 6.8 16 C6.8 10.9 10.9 6.8 16 6.8 C21.1 6.8 25.2 10.9 25.2 16 C25.2 21.1 21.1 25.2 16 25.2 L16 25.2 z" style="fill:#E6FF97;" />
            <path d="M15.9 7 C20.9 7 24.9 11 24.9 16 C24.9 21 20.9 25 15.9 25 C10.9 25 6.9 21 6.9 16 C6.9 11 10.9 7 15.9 7 M15.9 6 C10.4 6 5.9 10.5 5.9 16 C5.9 21.5 10.4 26 15.9 26 C21.4 26 25.9 21.5 25.9 16 C25.9 10.5 21.4 6 15.9 6 z" stroke-width="0.2px" class="" style="fill:#62A716;stroke:#62A716;" />
          </g>
        </g>
      </g>
    </g>
  </g>
  <g class="djs-group">
    <g transform="matrix(1, 0, 0, 1, 63, 68)" id="gfx-2e9e2bff-9cb3-4864-ae65-f98c2f4607ed" display="block" class="djs-element djs-shape" data-element-id="2e9e2bff-9cb3-4864-ae65-f98c2f4607ed">
      <g class="djs-visual">
        <rect x="0" y="0" width="90" height="36" fill-opacity="0" stroke-opacity="0" style="fill:#FFFFFF;stroke:transparent;" />
        <svg width="90" height="31" class="djs-svg-text">
          <text font-family="'Segoe UI'" font-size="10.6252px" font-style="normal" font-weight="normal" lineHeight="1.2" textDirection="0" textAlign="center" class="djs-label" style="fill:black;">
            <tspan x="6.650337" y="14.75">Monitoramento </tspan>
            <tspan x="10.18686" y="27.75">da geração de </tspan>
            <tspan x="19.27972" y="40.75">demandas </tspan>
            <tspan x="26.74431" y="53.75">iniciado</tspan>
          </text>
        </svg>
      </g>
    </g>
  </g>
  <g class="djs-group">
    <g transform="matrix(1, 0, 0, 1, 334, 30)" id="gfx-801ad6b3-9afd-4e68-89c4-0fed9a9d6718" display="block" class="djs-element djs-shape" data-element-id="801ad6b3-9afd-4e68-89c4-0fed9a9d6718">
      <g class="djs-visual">
        <g>
          <g transform="translate(-8.90625, -8.90625) scale(1.5)">
            <path d="M16 25.2 A9.2 9.2 0 1 1 25.2 16 A9.2 9.2 0 0 1 16 25.2 z" style="fill:#EEAAAA;" />
            <path d="M16 7.5 A8.5 8.5 0 1 1 7.5 16 A8.5 8.5 0 0 1 16 7.5 M16 6 A10 10 0 1 0 26 16 A10 10 0 0 0 16 6 z" stroke-width="0.4px" class="" style="fill:#990000;stroke:#990000;" />
          </g>
        </g>
      </g>
    </g>
  </g>
  <g class="djs-group">
    <g transform="matrix(1, 0, 0, 1, 304, 68)" id="gfx-f22d9a52-960c-4943-ad3a-2ea5eb515c9e" display="block" class="djs-element djs-shape" data-element-id="f22d9a52-960c-4943-ad3a-2ea5eb515c9e">
      <g class="djs-visual">
        <rect x="0" y="0" width="90" height="36" fill-opacity="0" stroke-opacity="0" style="fill:#FFFFFF;stroke:transparent;" />
        <svg width="90" height="31" class="djs-svg-text">
          <text font-family="'Segoe UI'" font-size="10.6252px" font-style="normal" font-weight="normal" lineHeight="1.2" textDirection="0" textAlign="center" class="djs-label" style="fill:black;">
            <tspan x="6.650337" y="14.75">Monitoramento </tspan>
            <tspan x="10.18686" y="27.75">da geração de </tspan>
            <tspan x="19.27972" y="40.75">demandas </tspan>
            <tspan x="26.74431" y="53.75">iniciado</tspan>
          </text>
        </svg>
      </g>
    </g>
  </g>
  <g class="djs-group">
    <g id="gfx-b3afd7e8-c779-44e0-8760-14f45a00e473" display="block" class="djs-element djs-connection" data-element-id="b3afd7e8-c779-44e0-8760-14f45a00e473">
      <g class="djs-visual">
        <g>
          <defs>
            <marker refX="9.8" refY="6" orient="auto" markerWidth="12" markerHeight="12" markerUnits="strokeWidth" id="arrowSecuenceFlowb3afd7e8-c779-44e0-8760-14f45a00e473">
              <path d="M0 0 L2 6 L0 12 L10 6 z" style="fill:black;" />
            </marker>
          </defs>
          <path d="M123 45 L157 45" marker-end="url(#arrowSecuenceFlowb3afd7e8-c779-44e0-8760-14f45a00e473)" stroke-width="1px" stroke-linejoin="round" shape-rendering="crispEdges" fill-opacity="0" class="" style="fill:transparent;stroke:black;" />
        </g>
      </g>
    </g>
  </g>
  <g class="djs-group">
    <g id="gfx-ab612fd4-fdd3-49f0-aa2b-3353d1e23309" display="block" class="djs-element djs-connection" data-element-id="ab612fd4-fdd3-49f0-aa2b-3353d1e23309">
      <g class="djs-visual">
        <g>
          <defs>
            <marker refX="9.8" refY="6" orient="auto" markerWidth="12" markerHeight="12" markerUnits="strokeWidth" id="arrowSecuenceFlowab612fd4-fdd3-49f0-aa2b-3353d1e23309">
              <path d="M0 0 L2 6 L0 12 L10 6 z" style="fill:black;" />
            </marker>
          </defs>
          <path d="M287 45 L334 45" marker-end="url(#arrowSecuenceFlowab612fd4-fdd3-49f0-aa2b-3353d1e23309)" stroke-width="1px" stroke-linejoin="round" shape-rendering="crispEdges" fill-opacity="0" class="" style="fill:transparent;stroke:black;" />
        </g>
      </g>
    </g>
  </g>
</svg>